<?xml version="1.0" encoding="UTF-8" standalone="no"?>
<svg width="48px" height="48px" viewBox="0 0 48 48" version="1.1" xmlns="http://www.w3.org/2000/svg" xmlns:xlink="http://www.w3.org/1999/xlink">
    <!-- Generator: Sketch 40.3 (33839) - http://www.bohemiancoding.com/sketch -->
    <title>icon@xxxhdpi</title>
    <desc>Created with Sketch.</desc>
    <defs></defs>
    <g id="iOS-&amp;-Android" stroke="none" stroke-width="1" fill="none" fill-rule="evenodd">
        <g id="Notes" transform="translate(-780.000000, -612.000000)"></g>
        <g id="icon">
            <rect id="Rectangle" fill="#FFFFFF" x="0" y="0" width="48" height="48"></rect>
            <g id="appicon" transform="translate(6.000000, 6.000000)">
                <g id="g10" transform="translate(18.500000, 18.266160) scale(1, -1) translate(-18.500000, -18.266160) translate(0.000000, 0.599493)">
                    <g id="g49" transform="translate(18.431758, 17.632962) scale(1, -1) translate(-18.431758, -17.632962) translate(0.028725, 0.051735)">
                        <path d="M25.8956972,23.7512432 C23.9896687,26.4050134 20.9005881,28.129964 17.4171567,28.129964 C11.6333462,28.129964 6.96686269,23.4195219 6.96686269,17.5812275 C6.96686269,11.7429331 11.6333462,7.032491 17.4171567,7.032491 C21.8864649,7.032491 25.6327967,9.81894969 27.1444744,13.799605 C27.3416498,12.8707854 27.4073749,12.1409986 27.2759247,11.9419658 C27.2101996,11.9419658 27.1444744,11.9419658 27.0787493,11.8756216 C27.1444744,11.8092773 27.2101996,11.8092773 27.2759247,11.9419658 C27.9331759,11.8092773 29.8392043,9.88529395 32.0738584,8.62475311 C29.116228,3.58258975 23.6610431,0.265377019 17.4171567,0.265377019 C7.95273948,0.265377019 0.262900479,8.02765482 0.262900479,17.5812275 C0.262900479,27.1348002 7.95273948,34.897078 17.4171567,34.897078 C22.8066165,34.897078 27.5388252,32.4423405 30.6936309,28.5280295 L25.8956972,23.7512432 L25.8956972,23.7512432 Z" id="path51" fill="#514E4C"></path>
                        <g id="g53" transform="translate(8.544266, 1.326885)" fill="#2FA537">
                            <path d="M27.3416498,3.58258975 C27.2759247,3.5162455 27.2101996,3.44990124 27.2101996,3.31721273 C27.2101996,3.44990124 27.2759247,3.5162455 27.3416498,3.58258975 L27.3416498,3.58258975 L27.3416498,3.58258975 Z" id="path55"></path>
                            <path d="M27.2759247,3.64893401 C27.2101996,3.58258975 27.2101996,3.5162455 27.1444744,3.38355699 C27.1444744,3.38355699 27.1444744,3.31721273 27.0787493,3.31721273 C25.6985218,0.99516382 24.712645,0.265377019 24.712645,0.265377019 L24.712645,0.265377019 C24.712645,0.331721273 24.7783701,1.65860637 23.0037919,3.44990124 C22.5437161,3.91431103 21.6892895,4.77678634 20.6376876,5.83829441 C18.4030335,8.02765482 11.6990713,14.8611131 9.79304283,16.7187522 L3.02335551,10.0843267 C3.02335551,10.0843267 1.90602847,10.7477693 1.11732703,12.2736871 C0.328625598,13.799605 0.197175359,15.1928343 0.197175359,15.1928343 C0.197175359,15.1928343 4.79793374,19.5715551 7.36121341,22.2916696 C9.92449307,24.9454398 12.093422,22.2916696 12.093422,22.2916696 L15.0510524,19.3061781 L26.8158488,7.49690078 C26.7501237,7.56324503 28.3275266,5.83829441 27.2759247,3.64893401 L27.2759247,3.64893401 Z" id="path57"></path>
                        </g>
                    </g>
                </g>
            </g>
        </g>
    </g>
</svg>