<?xml version="1.0" encoding="utf-8"?>
<!-- Generator: Adobe Illustrator 17.0.0, SVG Export Plug-In . SVG Version: 6.00 Build 0)  -->
<!DOCTYPE svg PUBLIC "-//W3C//DTD SVG 1.1//EN" "http://www.w3.org/Graphics/SVG/1.1/DTD/svg11.dtd">
<svg version="1.1" id="icon_1_" xmlns="http://www.w3.org/2000/svg" xmlns:xlink="http://www.w3.org/1999/xlink" x="0px" y="0px"
	 width="48px" height="48px" viewBox="0 0 48 48" enable-background="new 0 0 48 48" xml:space="preserve">
<g>
	<path fill="#231F20" d="M35.147,10.574c-0.118-0.028-0.213-0.104-0.266-0.214C32.886,6.192,28.615,3.5,24,3.5
		c-6.651,0-12.063,5.411-12.063,12.063c0,0.003,0,0.006,0,0.008c-2.486,0.279-4.781,1.538-6.356,3.502
		c-1.698,2.117-2.392,4.781-1.954,7.502c0.727,4.519,4.87,7.926,9.636,7.926H16c0.276,0,0.5-0.224,0.5-0.5s-0.224-0.5-0.5-0.5
		h-2.736c-4.281,0-7.999-3.046-8.649-7.084c-0.393-2.438,0.228-4.824,1.747-6.718c1.503-1.874,3.737-3.03,6.13-3.172
		c0.272-0.016,0.481-0.247,0.47-0.52l-0.011-0.192c-0.006-0.083-0.012-0.167-0.012-0.252C12.938,9.463,17.9,4.5,24,4.5
		c4.232,0,8.149,2.47,9.979,6.293c0.184,0.382,0.526,0.657,0.939,0.755c5.266,1.23,8.867,6.054,8.564,11.467
		C43.164,28.698,37.906,33.5,32,33.5c-0.276,0-0.5,0.224-0.5,0.5s0.224,0.5,0.5,0.5c6.419,0,12.134-5.234,12.48-11.429
		C44.811,17.172,40.885,11.916,35.147,10.574z"/>
	<path fill="#231F20" d="M30.928,38.5c0.179,0,0.344-0.096,0.433-0.25c0.09-0.154,0.09-0.346,0-0.5l-6.927-12
		c-0.179-0.309-0.688-0.309-0.866,0l-6.928,12c-0.089,0.154-0.089,0.346,0,0.5s0.254,0.25,0.433,0.25H30.928z M24,27l6.062,10.5
		H17.938L24,27z"/>
	<path fill="#231F20" d="M24,29.5c-0.276,0-0.5,0.224-0.5,0.5v4c0,0.276,0.224,0.5,0.5,0.5s0.5-0.224,0.5-0.5v-4
		C24.5,29.724,24.277,29.5,24,29.5z"/>
	<path fill="#231F20" d="M23.65,35.64c-0.1,0.101-0.15,0.23-0.15,0.36s0.05,0.26,0.15,0.36c0.1,0.09,0.22,0.14,0.35,0.14
		c0.13,0,0.26-0.05,0.35-0.14c0.1-0.101,0.15-0.23,0.15-0.36c0-0.14-0.06-0.27-0.15-0.36C24.17,35.46,23.84,35.46,23.65,35.64z"/>
</g>
</svg>
