<?xml version="1.0" encoding="utf-8"?>
<!-- Generator: Adobe Illustrator 17.0.0, SVG Export Plug-In . SVG Version: 6.00 Build 0)  -->
<!DOCTYPE svg PUBLIC "-//W3C//DTD SVG 1.1//EN" "http://www.w3.org/Graphics/SVG/1.1/DTD/svg11.dtd">
<svg version="1.1" id="icon_1_" xmlns="http://www.w3.org/2000/svg" xmlns:xlink="http://www.w3.org/1999/xlink" x="0px" y="0px"
	 width="48px" height="48px" viewBox="0 0 48 48" enable-background="new 0 0 48 48" xml:space="preserve">
<g>
	<path fill="#231F20" d="M35.146,10.574c-0.118-0.028-0.213-0.104-0.266-0.214C32.885,6.192,28.614,3.5,24,3.5
		c-6.651,0-12.063,5.411-12.063,12.063c0,0.003,0,0.006,0,0.008c-2.486,0.28-4.782,1.539-6.357,3.503
		c-1.697,2.117-2.392,4.78-1.953,7.501c0.727,4.52,4.87,7.927,9.636,7.927H16c0.276,0,0.5-0.224,0.5-0.5s-0.224-0.5-0.5-0.5h-2.737
		c-4.28,0-7.999-3.046-8.648-7.085c-0.393-2.438,0.228-4.823,1.746-6.717c1.503-1.874,3.737-3.03,6.13-3.173
		c0.273-0.017,0.482-0.248,0.471-0.521l-0.012-0.184c-0.006-0.085-0.012-0.171-0.012-0.259C12.937,9.463,17.9,4.5,24,4.5
		c4.231,0,8.148,2.47,9.979,6.293c0.184,0.382,0.526,0.657,0.939,0.755c5.266,1.231,8.867,6.055,8.564,11.467
		C43.164,28.699,37.906,33.501,32,33.501L30,33.5c-0.276,0-0.5,0.224-0.5,0.5s0.224,0.5,0.5,0.5l2,0.001
		c6.419,0,12.134-5.234,12.48-11.43C44.811,17.173,40.885,11.917,35.146,10.574z"/>
	<path fill="#231F20" d="M28.474,29.873c-0.023-0.086-0.06-0.166-0.122-0.227l-3.999-3.999c-0.061-0.062-0.142-0.099-0.228-0.122
		c-0.021-0.005-0.039-0.009-0.06-0.012C24.043,25.51,24.023,25.5,24,25.5h-6c-0.276,0-0.5,0.224-0.5,0.5v12
		c0,0.276,0.224,0.5,0.5,0.5h10c0.276,0,0.5-0.224,0.5-0.5v-8c0-0.023-0.01-0.043-0.013-0.065
		C28.484,29.913,28.48,29.894,28.474,29.873z M26.793,29.5H24.5v-2.293L26.793,29.5z M27.5,37.5h-9v-11h5V30
		c0,0.276,0.224,0.5,0.5,0.5h3.5V37.5z"/>
</g>
</svg>
