<?xml version="1.0" encoding="utf-8"?>
<!-- Generator: Adobe Illustrator 17.0.0, SVG Export Plug-In . SVG Version: 6.00 Build 0)  -->
<!DOCTYPE svg PUBLIC "-//W3C//DTD SVG 1.1//EN" "http://www.w3.org/Graphics/SVG/1.1/DTD/svg11.dtd">
<svg version="1.1" id="icon_1_" xmlns="http://www.w3.org/2000/svg" xmlns:xlink="http://www.w3.org/1999/xlink" x="0px" y="0px"
	 width="48px" height="48px" viewBox="0 0 48 48" enable-background="new 0 0 48 48" xml:space="preserve">
<g>
	<path fill="#231F20" d="M35.146,10.575c-0.118-0.028-0.213-0.104-0.266-0.214C32.885,6.193,28.614,3.5,24,3.5
		c-6.651,0-12.063,5.411-12.063,12.063c0,0.003,0,0.006,0,0.008c-2.486,0.279-4.781,1.538-6.356,3.502
		c-1.698,2.117-2.392,4.781-1.954,7.502c0.727,4.519,4.87,7.926,9.636,7.926H16c0.276,0,0.5-0.224,0.5-0.5s-0.224-0.5-0.5-0.5
		h-2.737c-4.281,0-7.999-3.046-8.648-7.084c-0.393-2.438,0.228-4.824,1.747-6.718c1.503-1.874,3.737-3.03,6.13-3.172
		c0.272-0.016,0.481-0.247,0.47-0.52l-0.012-0.194c-0.005-0.083-0.012-0.166-0.012-0.25C12.937,9.463,17.899,4.5,24,4.5
		c4.231,0,8.149,2.47,9.979,6.293c0.184,0.382,0.526,0.657,0.939,0.755c5.266,1.23,8.867,6.054,8.564,11.467
		C43.164,28.699,37.906,33.5,32,33.5c-0.276,0-0.5,0.224-0.5,0.5s0.224,0.5,0.5,0.5c6.419,0,12.134-5.234,12.48-11.429
		C44.811,17.172,40.885,11.916,35.146,10.575z"/>
	<path fill="#231F20" d="M17.5,34c0,3.584,2.916,6.5,6.5,6.5s6.5-2.916,6.5-6.5c0-0.744-0.125-1.474-0.371-2.17
		c-0.093-0.261-0.377-0.396-0.639-0.305c-0.26,0.093-0.396,0.378-0.305,0.639C29.395,32.753,29.5,33.37,29.5,34
		c0,3.032-2.467,5.5-5.5,5.5s-5.5-2.468-5.5-5.5s2.467-5.5,5.5-5.5h0.793l-1.146,1.146c-0.195,0.195-0.195,0.512,0,0.707
		s0.512,0.195,0.707,0l2-2c0.065-0.065,0.1-0.145,0.122-0.228c0.005-0.021,0.009-0.039,0.012-0.06
		c0.012-0.086,0.008-0.174-0.025-0.255c0,0,0-0.001,0-0.001c-0.001-0.002-0.003-0.003-0.004-0.005
		c-0.024-0.057-0.058-0.111-0.105-0.157l-2-2c-0.195-0.195-0.512-0.195-0.707,0s-0.195,0.512,0,0.707l1.146,1.146H24
		C20.416,27.5,17.5,30.416,17.5,34z"/>
</g>
</svg>
