<?xml version="1.0" encoding="utf-8"?>
<!-- Generator: Adobe Illustrator 17.0.0, SVG Export Plug-In . SVG Version: 6.00 Build 0)  -->
<!DOCTYPE svg PUBLIC "-//W3C//DTD SVG 1.1//EN" "http://www.w3.org/Graphics/SVG/1.1/DTD/svg11.dtd">
<svg version="1.1" id="icon_1_" xmlns="http://www.w3.org/2000/svg" xmlns:xlink="http://www.w3.org/1999/xlink" x="0px" y="0px"
	 width="48px" height="48px" viewBox="0 0 48 48" enable-background="new 0 0 48 48" xml:space="preserve">
<g>
	<path fill="#231F20" d="M21.666,7.072C20.627,4.902,18.403,3.5,16,3.5c-3.392,0-6.164,2.702-6.278,6.066
		c-1.224,0.193-2.345,0.838-3.127,1.814c-0.893,1.114-1.258,2.516-1.028,3.946c0.382,2.379,2.56,4.173,5.065,4.173H20
		c3.337,0,6.309-2.725,6.489-5.95C26.661,10.479,24.618,7.743,21.666,7.072z M20,18.5h-9.368c-2.019,0-3.772-1.433-4.078-3.331
		c-0.185-1.148,0.106-2.271,0.821-3.162c0.707-0.883,1.759-1.427,2.885-1.494c0.271-0.017,0.48-0.246,0.47-0.518
		c0-0.006-0.006-0.103-0.006-0.107l-0.005-0.106C10.718,6.869,13.088,4.5,16,4.5c2.021,0,3.891,1.179,4.764,3.003
		c0.124,0.261,0.357,0.448,0.639,0.515c2.514,0.588,4.234,2.892,4.089,5.476C25.34,16.207,22.824,18.5,20,18.5z"/>
	<path fill="#231F20" d="M34.354,27.646c-0.195-0.195-0.512-0.195-0.707,0l-8,8c-0.143,0.143-0.186,0.358-0.108,0.545
		C25.615,36.378,25.798,36.5,26,36.5h1.5V44c0,0.276,0.224,0.5,0.5,0.5h4c0.276,0,0.5-0.224,0.5-0.5v-3.5h3V44
		c0,0.276,0.224,0.5,0.5,0.5h4c0.276,0,0.5-0.224,0.5-0.5v-7.5H42c0.202,0,0.385-0.122,0.462-0.309s0.034-0.402-0.108-0.545
		L34.354,27.646z M40,35.5c-0.276,0-0.5,0.224-0.5,0.5v7.5h-3V40c0-0.276-0.224-0.5-0.5-0.5h-4c-0.276,0-0.5,0.224-0.5,0.5v3.5h-3
		V36c0-0.276-0.224-0.5-0.5-0.5h-0.793L34,28.707l6.793,6.793H40z"/>
	<path fill="#231F20" d="M22,35.5h-5.5V23.207l3.146,3.146C19.744,26.451,19.872,26.5,20,26.5s0.256-0.049,0.354-0.146
		c0.195-0.195,0.195-0.512,0-0.707l-3.999-3.999c-0.046-0.046-0.102-0.083-0.163-0.109c-0.122-0.051-0.26-0.051-0.382,0
		c-0.062,0.025-0.117,0.062-0.163,0.109l-3.999,3.999c-0.195,0.195-0.195,0.512,0,0.707C11.744,26.451,11.872,26.5,12,26.5
		s0.256-0.049,0.354-0.146l3.146-3.146V36c0,0.276,0.224,0.5,0.5,0.5h6c0.276,0,0.5-0.224,0.5-0.5S22.276,35.5,22,35.5z"/>
	<path fill="#231F20" d="M36,10.5h-6c-0.276,0-0.5,0.224-0.5,0.5s0.224,0.5,0.5,0.5h5.5v12.293l-3.146-3.146
		c-0.195-0.195-0.512-0.195-0.707,0s-0.195,0.512,0,0.707l3.999,3.999c0.046,0.046,0.102,0.083,0.163,0.109
		C35.87,25.487,35.935,25.5,36,25.5s0.13-0.013,0.191-0.038c0.062-0.025,0.117-0.062,0.163-0.109l3.999-3.999
		c0.195-0.195,0.195-0.512,0-0.707s-0.512-0.195-0.707,0L36.5,23.793V11C36.5,10.724,36.277,10.5,36,10.5z"/>
</g>
</svg>
