<?xml version="1.0" encoding="utf-8"?>
<!-- Generator: Adobe Illustrator 17.0.0, SVG Export Plug-In . SVG Version: 6.00 Build 0)  -->
<!DOCTYPE svg PUBLIC "-//W3C//DTD SVG 1.1//EN" "http://www.w3.org/Graphics/SVG/1.1/DTD/svg11.dtd">
<svg version="1.1" id="icon_1_" xmlns="http://www.w3.org/2000/svg" xmlns:xlink="http://www.w3.org/1999/xlink" x="0px" y="0px"
	 width="48px" height="48px" viewBox="0 0 48 48" enable-background="new 0 0 48 48" xml:space="preserve">
<g>
	<path fill="#231F20" d="M35.146,10.574c-0.118-0.028-0.213-0.104-0.266-0.214C32.885,6.192,28.614,3.5,24,3.5
		c-6.651,0-12.063,5.411-12.063,12.063c0,0.003,0,0.006,0,0.008c-2.486,0.28-4.782,1.539-6.357,3.503
		c-1.697,2.117-2.392,4.78-1.953,7.501c0.727,4.52,4.87,7.927,9.636,7.927H16c0.276,0,0.5-0.224,0.5-0.5s-0.224-0.5-0.5-0.5h-2.737
		c-4.28,0-7.999-3.046-8.648-7.085c-0.393-2.438,0.228-4.823,1.746-6.717c1.503-1.874,3.737-3.03,6.13-3.173
		c0.273-0.017,0.482-0.248,0.471-0.521l-0.012-0.184c-0.006-0.085-0.012-0.171-0.012-0.259C12.937,9.463,17.9,4.5,24,4.5
		c4.231,0,8.148,2.47,9.979,6.293c0.184,0.382,0.526,0.657,0.939,0.755c5.266,1.231,8.867,6.055,8.564,11.467
		C43.164,28.699,37.906,33.501,32,33.501c-0.276,0-0.5,0.224-0.5,0.5s0.224,0.5,0.5,0.5c6.419,0,12.134-5.234,12.48-11.43
		C44.811,17.173,40.885,11.917,35.146,10.574z"/>
	<path fill="#231F20" d="M29,29.5h-4.5V29c0-0.827-0.673-1.5-1.5-1.5h-4c-0.827,0-1.5,0.673-1.5,1.5v8c0,0.827,0.673,1.5,1.5,1.5h10
		c0.827,0,1.5-0.673,1.5-1.5v-6C30.5,30.173,29.827,29.5,29,29.5z M29.5,37c0,0.275-0.225,0.5-0.5,0.5H19
		c-0.275,0-0.5-0.225-0.5-0.5v-8c0-0.275,0.225-0.5,0.5-0.5h4c0.275,0,0.5,0.225,0.5,0.5v1c0,0.276,0.224,0.5,0.5,0.5h5
		c0.275,0,0.5,0.225,0.5,0.5V37z"/>
</g>
</svg>
