<?xml version="1.0" encoding="utf-8"?>
<!-- Generator: Adobe Illustrator 17.0.0, SVG Export Plug-In . SVG Version: 6.00 Build 0)  -->
<!DOCTYPE svg PUBLIC "-//W3C//DTD SVG 1.1//EN" "http://www.w3.org/Graphics/SVG/1.1/DTD/svg11.dtd">
<svg version="1.1" id="icon_1_" xmlns="http://www.w3.org/2000/svg" xmlns:xlink="http://www.w3.org/1999/xlink" x="0px" y="0px"
	 width="48px" height="48px" viewBox="0 0 48 48" enable-background="new 0 0 48 48" xml:space="preserve">
<g>
	<path fill="#231F20" d="M13.263,34.5H16c0.276,0,0.5-0.224,0.5-0.5s-0.224-0.5-0.5-0.5h-2.737c-4.28,0-7.999-3.046-8.648-7.084
		c-0.393-2.438,0.228-4.824,1.746-6.717c1.503-1.874,3.737-3.03,6.13-3.172c0.273-0.016,0.482-0.248,0.471-0.521l-0.012-0.184
		c-0.006-0.086-0.012-0.172-0.012-0.259C12.937,9.463,17.9,4.5,24,4.5c4.231,0,8.148,2.47,9.979,6.292
		c0.184,0.382,0.526,0.658,0.939,0.755c5.266,1.231,8.867,6.054,8.564,11.467C43.164,28.699,37.906,33.5,32,33.5
		c-0.276,0-0.5,0.224-0.5,0.5s0.224,0.5,0.5,0.5c6.419,0,12.134-5.234,12.48-11.43c0.33-5.898-3.596-11.154-9.334-12.497
		c-0.118-0.028-0.213-0.104-0.266-0.213C32.885,6.193,28.614,3.5,24,3.5c-6.651,0-12.063,5.411-12.063,12.063
		c0,0.003,0,0.005,0,0.008c-2.486,0.279-4.781,1.538-6.357,3.502c-1.697,2.117-2.392,4.781-1.953,7.502
		C4.354,31.093,8.496,34.5,13.263,34.5z"/>
	<path fill="#231F20" d="M17.5,34c0,3.584,2.916,6.5,6.5,6.5s6.5-2.916,6.5-6.5s-2.916-6.5-6.5-6.5S17.5,30.416,17.5,34z M29.5,34
		c0,3.032-2.468,5.5-5.5,5.5s-5.5-2.468-5.5-5.5c0-3.033,2.468-5.5,5.5-5.5S29.5,30.967,29.5,34z"/>
	<path fill="#231F20" d="M22.232,33.917c-0.195-0.195-0.512-0.195-0.707,0s-0.195,0.512,0,0.707l1.412,1.412
		c0.001,0.001,0.001,0.002,0.002,0.003c0.098,0.098,0.226,0.146,0.354,0.146l0,0c0,0,0,0,0,0c0.128,0,0.256-0.049,0.354-0.146
		c0.001-0.001,0.001-0.002,0.002-0.003l2.826-2.826c0.195-0.195,0.195-0.512,0-0.707s-0.512-0.195-0.707,0l-2.475,2.475
		L22.232,33.917z"/>
</g>
</svg>
