<?xml version="1.0" encoding="utf-8"?>
<!-- Generator: Adobe Illustrator 17.0.0, SVG Export Plug-In . SVG Version: 6.00 Build 0)  -->
<!DOCTYPE svg PUBLIC "-//W3C//DTD SVG 1.1//EN" "http://www.w3.org/Graphics/SVG/1.1/DTD/svg11.dtd">
<svg version="1.1" id="icon_1_" xmlns="http://www.w3.org/2000/svg" xmlns:xlink="http://www.w3.org/1999/xlink" x="0px" y="0px"
	 width="48px" height="48px" viewBox="0 0 48 48" enable-background="new 0 0 48 48" xml:space="preserve">
<g>
	<path fill="#231F20" d="M35.146,10.574c-0.118-0.028-0.213-0.104-0.266-0.214C32.885,6.192,28.614,3.5,24,3.5
		c-6.651,0-12.063,5.411-12.063,12.063c0,0.003,0,0.006,0,0.008c-2.486,0.28-4.782,1.539-6.357,3.503
		c-1.697,2.117-2.392,4.78-1.953,7.501c0.727,4.519,4.869,7.926,9.636,7.926h2.736c0.276,0,0.5-0.224,0.5-0.5s-0.224-0.5-0.5-0.5
		h-2.736c-4.28,0-7.999-3.046-8.648-7.084c-0.393-2.438,0.228-4.823,1.746-6.717c1.503-1.874,3.737-3.03,6.13-3.173
		c0.273-0.017,0.482-0.248,0.471-0.521l-0.012-0.184c-0.006-0.085-0.012-0.171-0.012-0.259C12.937,9.463,17.9,4.5,24,4.5
		c4.231,0,8.148,2.47,9.979,6.293c0.184,0.382,0.526,0.657,0.939,0.755c5.266,1.231,8.867,6.055,8.564,11.467
		C43.164,28.699,37.907,33.5,32.002,33.5H32c-0.276,0-0.5,0.224-0.5,0.5s0.224,0.5,0.5,0.5c0.001,0,0.001,0,0.002,0
		c6.418,0,12.132-5.233,12.479-11.429C44.811,17.173,40.885,11.917,35.146,10.574z"/>
	<path fill="#231F20" d="M30.5,34c0-3.584-2.916-6.5-6.5-6.5s-6.5,2.916-6.5,6.5s2.916,6.5,6.5,6.5S30.5,37.584,30.5,34z M18.5,34
		c0-3.032,2.468-5.5,5.5-5.5s5.5,2.468,5.5,5.5s-2.468,5.5-5.5,5.5S18.5,37.032,18.5,34z"/>
	<path fill="#231F20" d="M25.5,32c0,0.827-0.673,1.5-1.5,1.5c-0.276,0-0.5,0.224-0.5,0.5v2c0,0.276,0.224,0.5,0.5,0.5
		s0.5-0.224,0.5-0.5V34.45c1.14-0.232,2-1.242,2-2.449c0-1.379-1.121-2.5-2.5-2.5s-2.5,1.121-2.5,2.5c0,0.276,0.224,0.5,0.5,0.5
		s0.5-0.224,0.5-0.5c0-0.827,0.673-1.5,1.5-1.5S25.5,31.173,25.5,32z"/>
	<path fill="#231F20" d="M24.359,38.351C24.45,38.26,24.5,38.13,24.5,38s-0.05-0.26-0.15-0.36c-0.18-0.18-0.51-0.189-0.71,0.011
		c-0.09,0.09-0.14,0.22-0.14,0.35s0.05,0.26,0.149,0.351C23.74,38.45,23.87,38.5,24,38.5S24.26,38.45,24.359,38.351z"/>
</g>
</svg>
