<?xml version="1.0" encoding="utf-8"?>
<!-- Generator: Adobe Illustrator 17.0.0, SVG Export Plug-In . SVG Version: 6.00 Build 0)  -->
<!DOCTYPE svg PUBLIC "-//W3C//DTD SVG 1.1//EN" "http://www.w3.org/Graphics/SVG/1.1/DTD/svg11.dtd">
<svg version="1.1" id="icon_1_" xmlns="http://www.w3.org/2000/svg" xmlns:xlink="http://www.w3.org/1999/xlink" x="0px" y="0px"
	 width="48px" height="48px" viewBox="0 0 48 48" enable-background="new 0 0 48 48" xml:space="preserve">
<g>
	<path fill="#231F20" d="M35.146,10.574c-0.118-0.028-0.213-0.104-0.266-0.214C32.885,6.192,28.614,3.5,24,3.5
		c-6.651,0-12.063,5.411-12.063,12.063c0,0.003,0,0.006,0,0.008c-2.486,0.28-4.782,1.539-6.357,3.503
		c-1.697,2.117-2.392,4.78-1.953,7.501c0.727,4.519,4.869,7.926,9.636,7.926H16c0.276,0,0.5-0.224,0.5-0.5s-0.224-0.5-0.5-0.5
		h-2.737c-4.28,0-7.999-3.046-8.648-7.084c-0.393-2.438,0.228-4.823,1.746-6.717c1.503-1.874,3.737-3.03,6.13-3.173
		c0.273-0.017,0.482-0.248,0.471-0.521l-0.012-0.184c-0.006-0.085-0.012-0.171-0.012-0.259C12.937,9.463,17.9,4.5,24,4.5
		c4.231,0,8.148,2.47,9.979,6.293c0.184,0.382,0.526,0.657,0.939,0.755c5.266,1.231,8.867,6.055,8.564,11.467
		C43.164,28.698,37.906,33.5,32,33.5c-0.276,0-0.5,0.224-0.5,0.5s0.224,0.5,0.5,0.5c6.419,0,12.134-5.234,12.48-11.429
		C44.811,17.173,40.885,11.917,35.146,10.574z"/>
	<path fill="#231F20" d="M30.5,34c0-3.584-2.916-6.5-6.5-6.5s-6.5,2.916-6.5,6.5s2.916,6.5,6.5,6.5S30.5,37.584,30.5,34z M18.5,34
		c0-3.032,2.468-5.5,5.5-5.5s5.5,2.468,5.5,5.5s-2.468,5.5-5.5,5.5S18.5,37.032,18.5,34z"/>
	<path fill="#231F20" d="M24,30.5c0.13,0,0.26-0.05,0.35-0.149C24.45,30.26,24.5,30.13,24.5,30s-0.05-0.26-0.15-0.36
		c-0.18-0.18-0.51-0.189-0.71,0.011c-0.09,0.09-0.14,0.22-0.14,0.35s0.05,0.26,0.149,0.36C23.74,30.45,23.87,30.5,24,30.5z"/>
	<path fill="#231F20" d="M24.5,38v-6c0-0.276-0.224-0.5-0.5-0.5s-0.5,0.224-0.5,0.5v6c0,0.276,0.224,0.5,0.5,0.5
		S24.5,38.276,24.5,38z"/>
</g>
</svg>
