<?xml version="1.0" encoding="utf-8"?>
<!-- Generator: Adobe Illustrator 17.0.0, SVG Export Plug-In . SVG Version: 6.00 Build 0)  -->
<!DOCTYPE svg PUBLIC "-//W3C//DTD SVG 1.1//EN" "http://www.w3.org/Graphics/SVG/1.1/DTD/svg11.dtd">
<svg version="1.1" id="icon_1_" xmlns="http://www.w3.org/2000/svg" xmlns:xlink="http://www.w3.org/1999/xlink" x="0px" y="0px"
	 width="48px" height="48px" viewBox="0 0 48 48" enable-background="new 0 0 48 48" xml:space="preserve">
<g>
	<path fill="#231F20" d="M35.146,10.575c-0.118-0.028-0.213-0.104-0.266-0.214C32.885,6.193,28.614,3.5,24,3.5
		c-6.651,0-12.063,5.411-12.063,12.063c0,0.003,0,0.006,0,0.008c-2.486,0.279-4.781,1.538-6.356,3.502
		c-1.698,2.117-2.393,4.781-1.954,7.502c0.727,4.519,4.869,7.926,9.636,7.926h2.736c0.276,0,0.5-0.224,0.5-0.5s-0.224-0.5-0.5-0.5
		h-2.736c-4.28,0-7.999-3.046-8.648-7.084c-0.393-2.438,0.228-4.824,1.747-6.718c1.502-1.874,3.736-3.03,6.129-3.172
		c0.273-0.016,0.482-0.248,0.471-0.521l-0.012-0.184c-0.006-0.085-0.012-0.171-0.012-0.259C12.937,9.463,17.9,4.5,24,4.5
		c4.231,0,8.148,2.47,9.979,6.293c0.184,0.382,0.526,0.657,0.939,0.755c5.266,1.23,8.867,6.054,8.564,11.467
		C43.164,28.699,37.906,33.5,32,33.5c-0.276,0-0.5,0.224-0.5,0.5s0.224,0.5,0.5,0.5c6.419,0,12.134-5.234,12.48-11.429
		C44.811,17.172,40.885,11.916,35.146,10.575z"/>
	<path fill="#231F20" d="M23,27.5c-3.032,0-5.5,2.468-5.5,5.5s2.468,5.5,5.5,5.5c1.337,0,2.563-0.48,3.517-1.276l3.255,3.255
		c0.098,0.098,0.226,0.146,0.354,0.146s0.256-0.049,0.354-0.146c0.195-0.195,0.195-0.512,0-0.707l-3.255-3.255
		C28.02,35.563,28.5,34.337,28.5,33C28.5,29.968,26.032,27.5,23,27.5z M18.5,33c0-2.481,2.019-4.5,4.5-4.5s4.5,2.019,4.5,4.5
		c0,1.234-0.501,2.353-1.308,3.167c-0.005,0.004-0.011,0.006-0.015,0.01s-0.006,0.011-0.01,0.015C25.353,37,24.234,37.5,23,37.5
		C20.519,37.5,18.5,35.482,18.5,33z"/>
</g>
</svg>
