<?xml version="1.0" encoding="utf-8"?>
<!-- Generator: Adobe Illustrator 17.0.0, SVG Export Plug-In . SVG Version: 6.00 Build 0)  -->
<!DOCTYPE svg PUBLIC "-//W3C//DTD SVG 1.1//EN" "http://www.w3.org/Graphics/SVG/1.1/DTD/svg11.dtd">
<svg version="1.1" id="icon_1_" xmlns="http://www.w3.org/2000/svg" xmlns:xlink="http://www.w3.org/1999/xlink" x="0px" y="0px"
	 width="48px" height="48px" viewBox="0 0 48 48" enable-background="new 0 0 48 48" xml:space="preserve">
<g>
	<path fill="#231F20" d="M35.146,10.575c-0.118-0.028-0.213-0.104-0.266-0.214C32.885,6.193,28.614,3.5,24,3.5
		c-6.651,0-12.063,5.411-12.063,12.063c0,0.003,0,0.006,0,0.008c-2.486,0.279-4.781,1.538-6.356,3.502
		c-1.698,2.117-2.393,4.781-1.954,7.502c0.727,4.519,4.869,7.926,9.636,7.926h2.736c0.276,0,0.5-0.224,0.5-0.5s-0.224-0.5-0.5-0.5
		h-2.736c-4.28,0-7.999-3.046-8.648-7.084c-0.393-2.438,0.228-4.824,1.747-6.718c1.502-1.874,3.736-3.03,6.129-3.172
		c0.273-0.016,0.482-0.248,0.471-0.521l-0.012-0.184c-0.006-0.085-0.012-0.171-0.012-0.259C12.937,9.463,17.9,4.5,24,4.5
		c4.231,0,8.148,2.47,9.979,6.293c0.184,0.382,0.526,0.657,0.939,0.755c5.266,1.23,8.867,6.054,8.564,11.467
		C43.164,28.699,37.906,33.5,32,33.5c-0.276,0-0.5,0.224-0.5,0.5s0.224,0.5,0.5,0.5c6.419,0,12.134-5.234,12.48-11.429
		C44.811,17.172,40.885,11.916,35.146,10.575z"/>
	<path fill="#231F20" d="M18,32.656c-0.276,0-0.5,0.224-0.5,0.5v1.689c0,0.276,0.224,0.5,0.5,0.5h0.841
		c0.124,0.479,0.311,0.933,0.559,1.354l-0.593,0.593c-0.094,0.094-0.146,0.221-0.146,0.354s0.053,0.26,0.146,0.354l1.195,1.194
		c0.195,0.195,0.512,0.195,0.707,0l0.593-0.593c0.422,0.248,0.875,0.435,1.354,0.558V40c0,0.276,0.224,0.5,0.5,0.5h1.69
		c0.276,0,0.5-0.224,0.5-0.5v-0.842c0.479-0.124,0.932-0.311,1.354-0.558l0.593,0.593c0.195,0.195,0.512,0.195,0.707,0l1.195-1.194
		c0.094-0.094,0.146-0.221,0.146-0.354s-0.053-0.26-0.146-0.354l-0.594-0.594c0.248-0.421,0.434-0.874,0.558-1.354H30
		c0.276,0,0.5-0.224,0.5-0.5v-1.689c0-0.276-0.224-0.5-0.5-0.5h-0.842c-0.123-0.479-0.31-0.932-0.558-1.354l0.594-0.594
		c0.094-0.094,0.146-0.221,0.146-0.354s-0.053-0.26-0.146-0.354l-1.195-1.194c-0.195-0.195-0.512-0.195-0.707,0l-0.593,0.592
		c-0.422-0.247-0.874-0.434-1.354-0.558V28c0-0.276-0.224-0.5-0.5-0.5h-1.69c-0.276,0-0.5,0.224-0.5,0.5v0.846
		c-0.493,0.13-0.941,0.313-1.354,0.553l-0.592-0.592c-0.195-0.195-0.512-0.195-0.707,0l-1.195,1.194
		c-0.094,0.094-0.146,0.221-0.146,0.354s0.053,0.26,0.146,0.354l0.593,0.593c-0.248,0.422-0.435,0.875-0.559,1.354H18z
		 M19.736,33.243c0.111-0.63,0.351-1.21,0.711-1.725c0.139-0.198,0.115-0.468-0.057-0.64l-0.523-0.523l0.488-0.487l0.522,0.522
		c0.171,0.171,0.442,0.195,0.64,0.057c0.504-0.353,1.055-0.578,1.733-0.712c0.235-0.046,0.404-0.251,0.404-0.49V28.5h0.69v0.744
		c0,0.242,0.174,0.45,0.413,0.492c0.63,0.111,1.21,0.351,1.723,0.71c0.198,0.141,0.469,0.115,0.641-0.056l0.523-0.523l0.488,0.487
		l-0.524,0.524c-0.172,0.172-0.195,0.441-0.056,0.641c0.359,0.514,0.599,1.093,0.709,1.723c0.042,0.238,0.249,0.413,0.492,0.413
		H29.5v0.689h-0.745c-0.242,0-0.45,0.174-0.492,0.413c-0.112,0.631-0.351,1.211-0.709,1.723c-0.14,0.199-0.116,0.469,0.056,0.641
		l0.524,0.524l-0.488,0.487l-0.523-0.523c-0.172-0.172-0.443-0.195-0.64-0.057c-0.514,0.359-1.094,0.598-1.724,0.71
		c-0.239,0.042-0.413,0.25-0.413,0.492V39.5h-0.69v-0.745c0-0.243-0.175-0.45-0.413-0.492c-0.63-0.11-1.209-0.35-1.723-0.709
		c-0.199-0.142-0.47-0.116-0.641,0.056l-0.523,0.523l-0.488-0.487l0.523-0.523c0.172-0.172,0.195-0.441,0.057-0.64
		c-0.36-0.515-0.6-1.095-0.711-1.725c-0.042-0.239-0.25-0.413-0.492-0.413H18.5v-0.689h0.744
		C19.486,33.656,19.694,33.482,19.736,33.243z"/>
	<path fill="#231F20" d="M24,37.083c1.7,0,3.083-1.383,3.083-3.083S25.7,30.916,24,30.916S20.916,32.3,20.916,34
		S22.3,37.083,24,37.083z M24,31.916c1.148,0,2.083,0.935,2.083,2.084c0,1.148-0.935,2.083-2.083,2.083
		c-1.149,0-2.084-0.935-2.084-2.083C21.916,32.851,22.851,31.916,24,31.916z"/>
</g>
</svg>
