<?xml version="1.0" encoding="utf-8"?>
<!-- Generator: Adobe Illustrator 17.0.0, SVG Export Plug-In . SVG Version: 6.00 Build 0)  -->
<!DOCTYPE svg PUBLIC "-//W3C//DTD SVG 1.1//EN" "http://www.w3.org/Graphics/SVG/1.1/DTD/svg11.dtd">
<svg version="1.1" id="icon_1_" xmlns="http://www.w3.org/2000/svg" xmlns:xlink="http://www.w3.org/1999/xlink" x="0px" y="0px"
	 width="48px" height="48px" viewBox="0 0 48 48" enable-background="new 0 0 48 48" xml:space="preserve">
<g>
	<path fill="#231F20" d="M35.146,12.574c-0.118-0.028-0.213-0.104-0.266-0.214C32.885,8.193,28.614,5.5,24,5.5
		c-4.218,0-8.059,2.146-10.275,5.74c-0.145,0.235-0.071,0.543,0.163,0.688c0.234,0.142,0.543,0.072,0.688-0.163
		C16.609,8.469,20.132,6.5,24,6.5c4.231,0,8.148,2.47,9.979,6.293c0.184,0.382,0.526,0.657,0.939,0.755
		c5.266,1.231,8.867,6.055,8.564,11.467c-0.212,3.775-2.607,7.294-6.252,9.182c-0.246,0.127-0.342,0.429-0.215,0.674
		c0.089,0.172,0.264,0.271,0.444,0.271c0.078,0,0.156-0.018,0.229-0.056c3.958-2.05,6.56-5.888,6.791-10.014
		C44.811,19.173,40.885,13.917,35.146,12.574z"/>
	<path fill="#231F20" d="M5.58,21.073c-1.697,2.117-2.392,4.78-1.953,7.501c0.727,4.519,4.869,7.926,9.636,7.926H32
		c0.411,0,0.819-0.021,1.225-0.063c0.275-0.028,0.475-0.273,0.446-0.548c-0.028-0.275-0.292-0.48-0.548-0.446
		C32.751,35.481,32.376,35.5,32,35.5H13.263c-4.28,0-7.999-3.046-8.648-7.084c-0.393-2.438,0.228-4.823,1.746-6.717
		c1.503-1.874,3.737-3.03,6.13-3.173c0.273-0.017,0.482-0.248,0.471-0.521l-0.012-0.184c-0.006-0.085-0.012-0.171-0.012-0.259
		c0-0.738,0.072-1.474,0.216-2.186c0.055-0.271-0.121-0.534-0.392-0.589c-0.266-0.054-0.534,0.12-0.589,0.392
		c-0.156,0.777-0.235,1.579-0.235,2.383c0,0.003,0,0.006,0,0.008C9.451,17.851,7.155,19.109,5.58,21.073z"/>
	<path fill="#231F20" d="M39.52,40.145c0.128,0,0.256-0.049,0.354-0.146c0.195-0.195,0.195-0.512,0-0.707L8.584,8.002
		c-0.195-0.195-0.512-0.195-0.707,0c-0.195,0.195-0.195,0.512,0,0.707l31.289,31.289C39.264,40.096,39.392,40.145,39.52,40.145z"/>
</g>
</svg>
