<svg version="1.1" id="icon_1_" xmlns="http://www.w3.org/2000/svg" xmlns:xlink="http://www.w3.org/1999/xlink" x="0px" y="0px" width="48px" height="48px" viewBox="0 0 48 48" enable-background="new 0 0 48 48" xml:space="preserve">
<g>
	<path fill="#231F20" d="M21.666,7.072C20.627,4.902,18.403,3.5,16,3.5c-3.392,0-6.164,2.702-6.277,6.066
		c-1.225,0.193-2.346,0.838-3.128,1.814c-0.894,1.114-1.258,2.516-1.028,3.946c0.383,2.379,2.56,4.173,5.064,4.173H20
		c3.337,0,6.309-2.725,6.489-5.95C26.661,10.479,24.618,7.743,21.666,7.072z M20,18.5h-9.369c-2.02,0-3.771-1.432-4.077-3.331
		c-0.185-1.148,0.107-2.271,0.821-3.162c0.707-0.883,1.759-1.427,2.886-1.494c0.271-0.017,0.479-0.246,0.47-0.518
		c-0.001-0.006-0.006-0.103-0.007-0.107l-0.005-0.106C10.719,6.869,13.088,4.5,16,4.5c2.021,0,3.891,1.179,4.764,3.003
		c0.124,0.261,0.356,0.447,0.639,0.515c2.514,0.589,4.233,2.892,4.089,5.476C25.339,16.207,22.824,18.5,20,18.5z"></path>
	<path fill="#231F20" d="M22,35.5h-5.5V23.207l3.146,3.146C19.744,26.451,19.872,26.5,20,26.5s0.256-0.049,0.354-0.146
		c0.195-0.195,0.195-0.512,0-0.707l-3.999-3.999c-0.046-0.046-0.102-0.083-0.163-0.109c-0.122-0.051-0.26-0.051-0.382,0
		c-0.062,0.025-0.117,0.062-0.163,0.109l-3.999,3.999c-0.195,0.195-0.195,0.512,0,0.707C11.744,26.451,11.872,26.5,12,26.5
		s0.256-0.049,0.354-0.146l3.146-3.146V36c0,0.276,0.224,0.5,0.5,0.5h6c0.276,0,0.5-0.224,0.5-0.5S22.276,35.5,22,35.5z"></path>
	<path fill="#231F20" d="M36,11.5h-6c-0.276,0-0.5,0.224-0.5,0.5s0.224,0.5,0.5,0.5h5.5v12.293l-3.146-3.146
		c-0.195-0.195-0.512-0.195-0.707,0s-0.195,0.512,0,0.707l3.999,3.999c0.046,0.046,0.102,0.083,0.163,0.109
		C35.87,26.487,35.935,26.5,36,26.5s0.13-0.013,0.191-0.038c0.062-0.025,0.117-0.062,0.163-0.109l3.999-3.999
		c0.195-0.195,0.195-0.512,0-0.707s-0.512-0.195-0.707,0L36.5,24.793V12C36.5,11.724,36.276,11.5,36,11.5z"></path>
	<path fill="#231F20" d="M41,29.5H27c-0.827,0-1.5,0.673-1.5,1.5v8c0,0.827,0.673,1.5,1.5,1.5h4.306l-0.781,2.342
		c-0.009,0.027-0.006,0.054-0.01,0.082C30.511,42.95,30.5,42.973,30.5,43c0,0.007,0.004,0.012,0.004,0.019
		c0.001,0.036,0.012,0.069,0.021,0.103c0.008,0.03,0.012,0.06,0.024,0.087c0.013,0.028,0.033,0.05,0.05,0.075
		c0.02,0.028,0.036,0.056,0.061,0.079c0.021,0.02,0.047,0.032,0.072,0.048c0.03,0.02,0.059,0.041,0.093,0.054
		c0.006,0.002,0.011,0.008,0.017,0.01C30.895,43.492,30.947,43.5,31,43.5h6c0.056,0,0.111-0.009,0.166-0.028
		c0.005-0.002,0.008-0.006,0.013-0.008c0.036-0.014,0.065-0.036,0.096-0.057c0.023-0.016,0.049-0.027,0.069-0.046
		c0.024-0.023,0.039-0.052,0.058-0.079c0.018-0.026,0.039-0.048,0.052-0.077c0.012-0.026,0.014-0.054,0.021-0.082
		c0.009-0.036,0.021-0.071,0.022-0.109c0-0.005,0.003-0.009,0.003-0.014c0-0.029-0.012-0.054-0.016-0.081
		c-0.005-0.028-0.002-0.057-0.012-0.085L36.648,40.5H41c0.827,0,1.5-0.673,1.5-1.5v-8C42.5,30.173,41.827,29.5,41,29.5z M27,30.5h14
		c0.275,0,0.5,0.225,0.5,0.5v6.5h-15V31C26.5,30.725,26.725,30.5,27,30.5z M36.293,42.5h-4.599l0.667-2h3.227L36.293,42.5z M41,39.5
		H27c-0.275,0-0.5-0.225-0.5-0.5v-0.5h15V39C41.5,39.275,41.275,39.5,41,39.5z"></path>
</g>
</svg>
