<?xml version="1.0" encoding="utf-8"?>
<!-- Generator: Adobe Illustrator 17.0.0, SVG Export Plug-In . SVG Version: 6.00 Build 0)  -->
<!DOCTYPE svg PUBLIC "-//W3C//DTD SVG 1.1//EN" "http://www.w3.org/Graphics/SVG/1.1/DTD/svg11.dtd">
<svg version="1.1" id="icon_1_" xmlns="http://www.w3.org/2000/svg" xmlns:xlink="http://www.w3.org/1999/xlink" x="0px" y="0px"
	 width="48px" height="48px" viewBox="0 0 48 48" enable-background="new 0 0 48 48" xml:space="preserve">
<g>
	<path fill="#231F20" d="M35.146,10.574c-0.118-0.028-0.212-0.104-0.265-0.213C32.885,6.193,28.614,3.5,24,3.5
		c-6.651,0-12.063,5.411-12.063,12.063c0,0.003,0,0.005,0,0.008c-2.486,0.279-4.781,1.538-6.357,3.502
		c-1.697,2.117-2.392,4.781-1.953,7.502c0.727,4.518,4.87,7.925,9.636,7.925H16c0.276,0,0.5-0.224,0.5-0.5s-0.224-0.5-0.5-0.5
		h-2.737c-4.28,0-7.999-3.045-8.648-7.084c-0.393-2.438,0.228-4.824,1.746-6.717c1.503-1.874,3.737-3.03,6.13-3.172
		c0.273-0.016,0.482-0.248,0.471-0.521l-0.012-0.185c-0.006-0.085-0.012-0.171-0.012-0.258C12.937,9.463,17.9,4.5,24,4.5
		c4.231,0,8.148,2.47,9.979,6.292c0.185,0.383,0.526,0.658,0.939,0.754c5.266,1.232,8.867,6.055,8.564,11.468
		C43.164,28.699,37.906,33.5,32,33.5c-0.276,0-0.5,0.224-0.5,0.5s0.224,0.5,0.5,0.5c6.419,0,12.134-5.234,12.48-11.43
		C44.811,17.172,40.885,11.917,35.146,10.574z"/>
	<path fill="#231F20" d="M28.085,27.5c-1.426,0-2.585,1.16-2.585,2.585V31.5H20c-0.276,0-0.5,0.224-0.5,0.5v6
		c0,0.276,0.224,0.5,0.5,0.5h8c0.276,0,0.5-0.224,0.5-0.5v-6c0-0.276-0.224-0.5-0.5-0.5h-1.5v-1.415
		c0-0.874,0.711-1.585,1.585-1.585s1.586,0.711,1.586,1.585c0,0.276,0.224,0.5,0.5,0.5s0.5-0.224,0.5-0.5
		C30.671,28.66,29.511,27.5,28.085,27.5z M27.5,37.5h-7v-5h7V37.5z"/>
	<path fill="#231F20" d="M24,33.604c-0.276,0-0.5,0.224-0.5,0.5v1.791c0,0.276,0.224,0.5,0.5,0.5s0.5-0.224,0.5-0.5v-1.791
		C24.5,33.828,24.276,33.604,24,33.604z"/>
</g>
</svg>
