<?xml version="1.0" encoding="UTF-8" standalone="no"?>
<!-- Generator: Adobe Illustrator 17.0.0, SVG Export Plug-In . SVG Version: 6.00 Build 0)  -->

<svg
   xmlns:dc="http://purl.org/dc/elements/1.1/"
   xmlns:cc="http://creativecommons.org/ns#"
   xmlns:rdf="http://www.w3.org/1999/02/22-rdf-syntax-ns#"
   xmlns:svg="http://www.w3.org/2000/svg"
   xmlns="http://www.w3.org/2000/svg"
   xmlns:sodipodi="http://sodipodi.sourceforge.net/DTD/sodipodi-0.dtd"
   xmlns:inkscape="http://www.inkscape.org/namespaces/inkscape"
   version="1.1"
   id="icon_1_"
   x="0px"
   y="0px"
   width="48px"
   height="48px"
   viewBox="0 0 48 48"
   enable-background="new 0 0 48 48"
   xml:space="preserve"
   inkscape:version="0.48.5 r10040"
   sodipodi:docname="ic_cloud_computer_connection.svg"><metadata
     id="metadata17"><rdf:RDF><cc:Work
         rdf:about=""><dc:format>image/svg+xml</dc:format><dc:type
           rdf:resource="http://purl.org/dc/dcmitype/StillImage" /></cc:Work></rdf:RDF></metadata><defs
     id="defs15" /><sodipodi:namedview
     pagecolor="#ffffff"
     bordercolor="#666666"
     borderopacity="1"
     objecttolerance="10"
     gridtolerance="10"
     guidetolerance="10"
     inkscape:pageopacity="0"
     inkscape:pageshadow="2"
     inkscape:window-width="1366"
     inkscape:window-height="702"
     id="namedview13"
     showgrid="false"
     inkscape:zoom="9.8333333"
     inkscape:cx="19.329474"
     inkscape:cy="22.572977"
     inkscape:window-x="0"
     inkscape:window-y="27"
     inkscape:window-maximized="1"
     inkscape:current-layer="icon_1_" /><path
     style="fill:#231f20"
     inkscape:connector-curvature="0"
     id="path5"
     d="M 21.666,7.072 C 20.627,4.902 18.403,3.5 16,3.5 12.608,3.5 9.836,6.202 9.723,9.566 8.498,9.759 7.377,10.404 6.595,11.38 c -0.894,1.114 -1.258,2.516 -1.028,3.946 0.383,2.379 2.56,4.173 5.064,4.173 H 20 c 3.337,0 6.309,-2.725 6.489,-5.95 0.172,-3.07 -1.871,-5.806 -4.823,-6.477 z M 20,18.5 H 10.631 C 8.611,18.5 6.86,17.068 6.554,15.169 6.369,14.021 6.661,12.898 7.375,12.007 8.082,11.124 9.134,10.58 10.261,10.513 10.532,10.496 10.74,10.267 10.731,9.995 10.73,9.989 10.725,9.892 10.724,9.888 L 10.719,9.782 C 10.719,6.869 13.088,4.5 16,4.5 c 2.021,0 3.891,1.179 4.764,3.003 0.124,0.261 0.356,0.447 0.639,0.515 2.514,0.589 4.233,2.892 4.089,5.476 C 25.339,16.207 22.824,18.5 20,18.5 z" /><path
     style="fill:#231f20"
     inkscape:connector-curvature="0"
     id="path7"
     d="M 22,35.5 H 16.5 V 23.207 l 3.146,3.146 c 0.098,0.098 0.226,0.147 0.354,0.147 0.128,0 0.256,-0.049 0.354,-0.146 0.195,-0.195 0.195,-0.512 0,-0.707 l -3.999,-3.999 c -0.046,-0.046 -0.102,-0.083 -0.163,-0.109 -0.122,-0.051 -0.26,-0.051 -0.382,0 -0.062,0.025 -0.117,0.062 -0.163,0.109 l -3.999,3.999 c -0.195,0.195 -0.195,0.512 0,0.707 0.096,0.097 0.224,0.146 0.352,0.146 0.128,0 0.256,-0.049 0.354,-0.146 L 15.5,23.208 V 36 c 0,0.276 0.224,0.5 0.5,0.5 h 6 c 0.276,0 0.5,-0.224 0.5,-0.5 0,-0.276 -0.224,-0.5 -0.5,-0.5 z" /><path
     style="fill:#231f20"
     inkscape:connector-curvature="0"
     id="path9"
     d="m 36,11.5 h -6 c -0.276,0 -0.5,0.224 -0.5,0.5 0,0.276 0.224,0.5 0.5,0.5 h 5.5 v 12.293 l -3.146,-3.146 c -0.195,-0.195 -0.512,-0.195 -0.707,0 -0.195,0.195 -0.195,0.512 0,0.707 l 3.999,3.999 c 0.046,0.046 0.102,0.083 0.163,0.109 0.061,0.025 0.126,0.038 0.191,0.038 0.065,0 0.13,-0.013 0.191,-0.038 0.062,-0.025 0.117,-0.062 0.163,-0.109 l 3.999,-3.999 c 0.195,-0.195 0.195,-0.512 0,-0.707 -0.195,-0.195 -0.512,-0.195 -0.707,0 L 36.5,24.793 V 12 c 0,-0.276 -0.224,-0.5 -0.5,-0.5 z" /><path
     style="fill:#231f20"
     inkscape:connector-curvature="0"
     id="path11"
     d="M 41,29.5 H 27 c -0.827,0 -1.5,0.673 -1.5,1.5 v 8 c 0,0.827 0.673,1.5 1.5,1.5 h 4.306 l -0.781,2.342 c -0.009,0.027 -0.006,0.054 -0.01,0.082 C 30.511,42.95 30.5,42.973 30.5,43 c 0,0.007 0.004,0.012 0.004,0.019 10e-4,0.036 0.012,0.069 0.021,0.103 0.008,0.03 0.012,0.06 0.024,0.087 0.013,0.028 0.033,0.05 0.05,0.075 0.02,0.028 0.036,0.056 0.061,0.079 0.021,0.02 0.047,0.032 0.072,0.048 0.03,0.02 0.059,0.041 0.093,0.054 0.006,0.002 0.011,0.008 0.017,0.01 0.053,0.017 0.105,0.025 0.158,0.025 h 6 c 0.056,0 0.111,-0.009 0.166,-0.028 0.005,-0.002 0.008,-0.006 0.013,-0.008 0.036,-0.014 0.065,-0.036 0.096,-0.057 0.023,-0.016 0.049,-0.027 0.069,-0.046 0.024,-0.023 0.039,-0.052 0.058,-0.079 0.018,-0.026 0.039,-0.048 0.052,-0.077 0.012,-0.026 0.014,-0.054 0.021,-0.082 0.009,-0.036 0.021,-0.071 0.022,-0.109 0,-0.005 0.003,-0.009 0.003,-0.014 0,-0.029 -0.012,-0.054 -0.016,-0.081 -0.005,-0.028 -0.002,-0.057 -0.012,-0.085 L 36.648,40.5 H 41 c 0.827,0 1.5,-0.673 1.5,-1.5 v -8 c 0,-0.827 -0.673,-1.5 -1.5,-1.5 z m -14,1 h 14 c 0.275,0 0.5,0.225 0.5,0.5 v 6.5 h -15 V 31 c 0,-0.275 0.225,-0.5 0.5,-0.5 z m 9.293,12 h -4.599 l 0.667,-2 h 3.227 l 0.705,2 z M 41,39.5 H 27 c -0.275,0 -0.5,-0.225 -0.5,-0.5 v -0.5 h 15 V 39 c 0,0.275 -0.225,0.5 -0.5,0.5 z" /></svg>