<?xml version="1.0" encoding="utf-8"?>
<!-- Generator: Adobe Illustrator 17.0.0, SVG Export Plug-In . SVG Version: 6.00 Build 0)  -->
<!DOCTYPE svg PUBLIC "-//W3C//DTD SVG 1.1//EN" "http://www.w3.org/Graphics/SVG/1.1/DTD/svg11.dtd">
<svg version="1.1" id="icon_1_" xmlns="http://www.w3.org/2000/svg" xmlns:xlink="http://www.w3.org/1999/xlink" x="0px" y="0px"
	 width="48px" height="48px" viewBox="0 0 48 48" enable-background="new 0 0 48 48" xml:space="preserve">
<g>
	<path fill="#231F20" d="M35.146,10.575c-0.118-0.028-0.213-0.104-0.266-0.214C32.885,6.193,28.614,3.5,24,3.5
		c-6.651,0-12.063,5.411-12.063,12.063c0,0.003,0,0.006,0,0.008c-2.486,0.279-4.781,1.538-6.356,3.502
		c-1.698,2.117-2.393,4.781-1.954,7.502c0.727,4.519,4.869,7.926,9.636,7.926h2.736c0.276,0,0.5-0.224,0.5-0.5s-0.224-0.5-0.5-0.5
		h-2.736c-4.28,0-7.999-3.046-8.648-7.084c-0.393-2.438,0.228-4.824,1.747-6.718c1.502-1.874,3.736-3.03,6.129-3.172
		c0.273-0.016,0.482-0.248,0.471-0.521l-0.012-0.184c-0.006-0.085-0.012-0.171-0.012-0.259C12.937,9.463,17.9,4.5,24,4.5
		c4.231,0,8.148,2.47,9.979,6.293c0.184,0.382,0.526,0.657,0.939,0.755c5.266,1.23,8.867,6.054,8.564,11.467
		C43.164,28.699,37.906,33.5,32,33.5c-0.276,0-0.5,0.224-0.5,0.5s0.224,0.5,0.5,0.5c6.419,0,12.134-5.234,12.48-11.429
		C44.811,17.172,40.885,11.916,35.146,10.575z"/>
	<path fill="#231F20" d="M30.181,31.993c-0.067-0.206-0.259-0.346-0.476-0.346H25.71l-1.234-3.8c-0.135-0.412-0.816-0.412-0.951,0
		l-1.234,3.8h-3.995c-0.217,0-0.408,0.14-0.476,0.346c-0.066,0.206,0.007,0.432,0.182,0.559l3.231,2.349l-1.234,3.799
		c-0.066,0.206,0.007,0.432,0.182,0.559c0.176,0.127,0.412,0.127,0.588,0L24,36.91l3.231,2.348c0.088,0.063,0.19,0.096,0.294,0.096
		s0.206-0.032,0.294-0.096c0.175-0.127,0.248-0.353,0.182-0.559L26.767,34.9l3.232-2.349C30.174,32.424,30.247,32.199,30.181,31.993
		z M25.885,34.304c-0.175,0.127-0.248,0.353-0.182,0.559l0.871,2.681l-2.28-1.656c-0.176-0.127-0.412-0.127-0.588,0l-2.281,1.657
		l0.871-2.682c0.066-0.206-0.007-0.432-0.182-0.559l-2.28-1.657h2.819c0.217,0,0.408-0.14,0.476-0.346L24,29.619l0.871,2.682
		c0.067,0.206,0.259,0.346,0.476,0.346h2.819L25.885,34.304z"/>
</g>
</svg>
