<?xml version="1.0" encoding="utf-8"?>
<!-- Generator: Adobe Illustrator 17.0.0, SVG Export Plug-In . SVG Version: 6.00 Build 0)  -->
<!DOCTYPE svg PUBLIC "-//W3C//DTD SVG 1.1//EN" "http://www.w3.org/Graphics/SVG/1.1/DTD/svg11.dtd">
<svg version="1.1" id="icon_1_" xmlns="http://www.w3.org/2000/svg" xmlns:xlink="http://www.w3.org/1999/xlink" x="0px" y="0px"
	 width="48px" height="48px" viewBox="0 0 48 48" enable-background="new 0 0 48 48" xml:space="preserve">
<g>
	<path fill="#231F20" d="M35.346,14.622C35.346,14.621,35.346,14.621,35.346,14.622c-0.245-0.062-0.441-0.22-0.555-0.446
		C32.731,10.058,28.596,7.5,24,7.5c-6.651,0-12.063,5.411-12.063,12.063c0,0.003,0,0.005,0,0.008
		c-2.383,0.264-4.544,1.398-6.128,3.228c-1.685,1.947-2.493,4.443-2.274,7.028c0.411,4.864,4.694,8.674,9.75,8.674h18.722
		c6.637,0,12.115-5.021,12.474-11.429C44.805,21.273,40.963,16.037,35.346,14.622z M43.482,27.015
		C43.153,32.895,38.113,37.5,32.007,37.5H13.285c-4.54,0-8.385-3.407-8.753-7.758c-0.196-2.314,0.527-4.548,2.034-6.289
		c1.515-1.75,3.619-2.789,5.925-2.927c0.272-0.016,0.481-0.247,0.47-0.52l-0.011-0.192c-0.006-0.083-0.012-0.167-0.012-0.252
		C12.938,13.463,17.9,8.5,24,8.5c4.215,0,8.007,2.347,9.896,6.123c0.242,0.483,0.681,0.837,1.205,0.968
		C40.255,16.89,43.779,21.694,43.482,27.015z"/>
</g>
</svg>
