<?xml version="1.0" encoding="UTF-8" standalone="no"?>
<!-- Created with Inkscape (http://www.inkscape.org/) -->

<svg
   xmlns:dc="http://purl.org/dc/elements/1.1/"
   xmlns:cc="http://creativecommons.org/ns#"
   xmlns:rdf="http://www.w3.org/1999/02/22-rdf-syntax-ns#"
   xmlns:svg="http://www.w3.org/2000/svg"
   xmlns="http://www.w3.org/2000/svg"
   xmlns:xlink="http://www.w3.org/1999/xlink"
   xmlns:sodipodi="http://sodipodi.sourceforge.net/DTD/sodipodi-0.dtd"
   xmlns:inkscape="http://www.inkscape.org/namespaces/inkscape"
   version="1.1"
   width="789.0661"
   height="167.21437"
   id="svg2"
   xml:space="preserve"
   inkscape:version="0.48.5 r10040"
   sodipodi:docname="logo.svg"><sodipodi:namedview
     pagecolor="#ffffff"
     bordercolor="#666666"
     borderopacity="1"
     objecttolerance="10"
     gridtolerance="10"
     guidetolerance="10"
     inkscape:pageopacity="0"
     inkscape:pageshadow="2"
     inkscape:window-width="1366"
     inkscape:window-height="702"
     id="namedview72"
     showgrid="false"
     fit-margin-top="0"
     fit-margin-left="0"
     fit-margin-right="0"
     fit-margin-bottom="0"
     inkscape:zoom="0.26990342"
     inkscape:cx="245.93415"
     inkscape:cy="105.1175"
     inkscape:window-x="1600"
     inkscape:window-y="27"
     inkscape:window-maximized="1"
     inkscape:current-layer="svg2" /><metadata
     id="metadata8"><rdf:RDF><cc:Work
         rdf:about=""><dc:format>image/svg+xml</dc:format><dc:type
           rdf:resource="http://purl.org/dc/dcmitype/StillImage" /><dc:title></dc:title></cc:Work></rdf:RDF></metadata><defs
     id="defs6"><clipPath
       id="clipPath16"><path
         d="m 0,1080 1920,0 L 1920,0 0,0 0,1080 z"
         id="path18"
         inkscape:connector-curvature="0" /></clipPath><clipPath
       id="clipPath28"><path
         d="m 710.266,604.042 -68.324,-68.168 4.514,-18.832 25.557,-3.3 c 0,0 54.906,54.66 64.556,64.153 l 0,0 c 9.649,9.494 1.867,22.879 1.867,22.879 l 0,0 c -11.673,20.078 -28.17,29.882 -28.17,29.882 l 0,0 c 13.23,-13.851 0,-26.614 0,-26.614"
         id="path30"
         inkscape:connector-curvature="0" /></clipPath><linearGradient
       x1="0"
       y1="0"
       x2="1"
       y2="0"
       id="linearGradient36"
       gradientUnits="userSpaceOnUse"
       gradientTransform="matrix(-89.179451,-89.646362,-89.646362,89.179451,723.4082,604.26611)"
       spreadMethod="pad"><stop
         id="stop38"
         style="stop-color:#20b747;stop-opacity:1"
         offset="0" /><stop
         id="stop40"
         style="stop-color:#231f20;stop-opacity:1"
         offset="0.89150202" /><stop
         id="stop42"
         style="stop-color:#8dc63f;stop-opacity:1"
         offset="1" /></linearGradient><clipPath
       id="clipPath50"><path
         d="m 593.196,559.606 c -6.769,-7.249 -7.053,-19.28 0.032,-26.222 l 0,0 37.706,-36.731 c 13.031,-10.739 24.082,0 24.082,0 l 0,0 24.59,24.723 c -14.942,-8.428 -29.736,8.889 -29.736,8.889 l 0,0 -30.539,29.92 c -3.559,3.487 -8.174,5.219 -12.782,5.22 l 0,0 c -4.88,0 -9.751,-1.942 -13.353,-5.799"
         id="path52"
         inkscape:connector-curvature="0" /></clipPath><linearGradient
       x1="0"
       y1="0"
       x2="1"
       y2="0"
       id="linearGradient58"
       gradientUnits="userSpaceOnUse"
       gradientTransform="matrix(91.589722,0,0,-91.589722,588.01605,528.64276)"
       spreadMethod="pad"><stop
         id="stop60"
         style="stop-color:#20b747;stop-opacity:1"
         offset="0" /><stop
         id="stop62"
         style="stop-color:#8dc63f;stop-opacity:1"
         offset="1" /></linearGradient><clipPath
       id="clipPath70"><path
         d="m 0,1080 1920,0 L 1920,0 0,0 0,1080 z"
         id="path72"
         inkscape:connector-curvature="0" /></clipPath><clipPath
       id="clipPath86"><path
         d="m 579.081,547.177 31.763,-30.965 26.108,26.781 -31.764,30.965 -26.107,-26.781 z"
         id="path88"
         inkscape:connector-curvature="0" /></clipPath><linearGradient
       x1="0"
       y1="0"
       x2="1"
       y2="0"
       id="linearGradient94"
       gradientUnits="userSpaceOnUse"
       gradientTransform="matrix(26.107292,26.781395,17.682903,-17.237814,594.9624,531.69421)"
       spreadMethod="pad"><stop
         id="stop96"
         style="stop-color:#20b747;stop-opacity:1"
         offset="0" /><stop
         id="stop98"
         style="stop-color:#20b747;stop-opacity:1"
         offset="1" /></linearGradient><clipPath
       id="clipPath106"><path
         d="m 0,1080 1920,0 L 1920,0 0,0 0,1080 z"
         id="path108"
         inkscape:connector-curvature="0" /></clipPath><linearGradient
       inkscape:collect="always"
       xlink:href="#linearGradient94"
       id="linearGradient3111"
       gradientUnits="userSpaceOnUse"
       gradientTransform="matrix(26.107292,26.781395,17.682903,-17.237814,594.9624,531.69421)"
       spreadMethod="pad"
       x1="0"
       y1="0"
       x2="1"
       y2="0" /><linearGradient
       inkscape:collect="always"
       xlink:href="#linearGradient58"
       id="linearGradient3122"
       gradientUnits="userSpaceOnUse"
       gradientTransform="matrix(91.589722,0,0,-91.589722,588.01605,528.64276)"
       spreadMethod="pad"
       x1="0"
       y1="0"
       x2="1"
       y2="0" /><linearGradient
       inkscape:collect="always"
       xlink:href="#linearGradient36"
       id="linearGradient3128"
       gradientUnits="userSpaceOnUse"
       gradientTransform="matrix(-89.179451,-89.646362,-89.646362,89.179451,723.4082,604.26611)"
       spreadMethod="pad"
       x1="0"
       y1="0"
       x2="1"
       y2="0" /></defs><g
     clip-path="url(#clipPath106)"
     id="g104"
     transform="matrix(1.25,0,0,-1.25,-954.066,737.09662)"><g
       transform="translate(851.0195,478.041)"
       id="g110"><path
         d="m 0,0 c -7.679,0 -14.806,1.397 -21.387,4.187 -6.58,2.792 -12.264,6.605 -17.05,11.442 -4.786,4.835 -8.524,10.544 -11.216,17.125 -2.693,6.58 -4.038,13.609 -4.038,21.088 l 0,0.299 c 0,7.477 1.345,14.481 4.038,21.012 2.692,6.53 6.43,12.264 11.216,17.2 4.786,4.935 10.519,8.824 17.2,11.665 6.678,2.842 14.058,4.263 22.134,4.263 4.985,0 9.472,-0.4 13.46,-1.197 3.987,-0.799 7.628,-1.895 10.918,-3.29 3.291,-1.398 6.331,-3.092 9.123,-5.085 2.79,-1.996 5.385,-4.188 7.777,-6.581 l -14.656,-16.9 c -4.09,3.688 -8.251,6.581 -12.488,8.675 -4.239,2.094 -9,3.14 -14.283,3.14 -4.389,0 -8.45,-0.848 -12.189,-2.542 -3.739,-1.697 -6.955,-4.038 -9.647,-7.029 -2.692,-2.992 -4.786,-6.457 -6.281,-10.395 -1.496,-3.94 -2.244,-8.15 -2.244,-12.638 l 0,-0.298 c 0,-4.487 0.748,-8.726 2.244,-12.713 1.495,-3.99 3.563,-7.478 6.206,-10.469 2.641,-2.991 5.833,-5.361 9.572,-7.105 3.739,-1.745 7.852,-2.617 12.339,-2.617 5.982,0 11.042,1.122 15.18,3.366 4.136,2.243 8.249,5.209 12.339,8.898 L 42.923,18.695 C 40.231,15.802 37.438,13.211 34.548,10.918 31.655,8.623 28.491,6.655 25.051,5.011 21.611,3.365 17.847,2.117 13.759,1.271 9.67,0.426 5.085,0 0,0"
         id="path112"
         style="fill:#494949;fill-opacity:1;fill-rule:nonzero;stroke:none"
         inkscape:connector-curvature="0" /></g><g
       transform="translate(902.4663,589.0137)"
       id="g114"><path
         d="m 0,0 22.733,0 0,-40.474 c 1.295,1.705 2.715,3.339 4.263,4.895 1.544,1.557 3.264,2.935 5.159,4.142 1.893,1.205 3.987,2.159 6.282,2.862 2.292,0.703 4.884,1.056 7.777,1.056 8.674,0 15.378,-2.643 20.116,-7.926 4.734,-5.286 7.104,-12.563 7.104,-21.835 l 0,-51.898 -22.734,0 0,44.609 c 0,5.37 -1.196,9.424 -3.589,12.158 -2.393,2.734 -5.784,4.103 -10.17,4.103 -4.389,0 -7.852,-1.369 -10.394,-4.103 -2.543,-2.734 -3.814,-6.788 -3.814,-12.158 l 0,-44.609 -22.733,0 L 0,0 z"
         id="path116"
         style="fill:#494949;fill-opacity:1;fill-rule:nonzero;stroke:none"
         inkscape:connector-curvature="0" /></g><g
       transform="translate(1040.8057,526.1992)"
       id="g118"><path
         d="m 0,0 c -0.698,5.085 -2.493,9.198 -5.384,12.339 -2.892,3.14 -6.73,4.711 -11.515,4.711 -4.787,0 -8.652,-1.548 -11.591,-4.637 C -31.433,9.322 -33.352,5.184 -34.248,0 L 0,0 z m -14.656,-48.158 c -5.983,0 -11.542,0.998 -16.676,2.991 -5.137,1.993 -9.572,4.835 -13.311,8.525 -3.739,3.688 -6.655,8.077 -8.749,13.162 -2.093,5.084 -3.141,10.667 -3.141,16.75 l 0,0.299 c 0,5.683 0.972,11.068 2.917,16.153 1.944,5.084 4.659,9.52 8.15,13.31 3.489,3.788 7.677,6.779 12.564,8.973 4.883,2.192 10.218,3.291 16.003,3.291 6.678,0 12.462,-1.197 17.348,-3.589 4.884,-2.394 8.947,-5.609 12.189,-9.647 3.239,-4.039 5.632,-8.675 7.179,-13.909 1.544,-5.234 2.318,-10.693 2.318,-16.377 0,-0.897 -0.026,-1.846 -0.074,-2.841 -0.052,-0.998 -0.126,-2.045 -0.225,-3.141 l -55.785,0 c 1.095,-5.186 3.365,-9.1 6.804,-11.74 3.44,-2.644 7.703,-3.964 12.788,-3.964 3.788,0 7.178,0.647 10.17,1.944 2.991,1.295 6.081,3.389 9.272,6.281 l 13.012,-11.515 c -3.79,-4.688 -8.375,-8.352 -13.759,-10.992 -5.385,-2.641 -11.717,-3.964 -18.994,-3.964"
         id="path120"
         style="fill:#494949;fill-opacity:1;fill-rule:nonzero;stroke:none"
         inkscape:connector-curvature="0" /></g><g
       transform="translate(1111.0977,497.6338)"
       id="g122"><path
         d="m 0,0 c 2.691,0 5.209,0.523 7.553,1.57 2.342,1.047 4.386,2.542 6.131,4.487 1.744,1.944 3.142,4.286 4.189,7.029 1.047,2.741 1.57,5.758 1.57,9.049 l 0,0.299 c 0,3.29 -0.523,6.304 -1.57,9.048 -1.047,2.741 -2.445,5.085 -4.189,7.029 -1.745,1.944 -3.789,3.44 -6.131,4.487 -2.344,1.046 -4.862,1.57 -7.553,1.57 -2.691,0 -5.211,-0.524 -7.553,-1.57 -2.343,-1.047 -4.412,-2.543 -6.207,-4.487 -1.795,-1.944 -3.215,-4.262 -4.261,-6.954 -1.047,-2.693 -1.571,-5.735 -1.571,-9.123 l 0,-0.299 c 0,-3.291 0.524,-6.308 1.571,-9.049 1.046,-2.743 2.466,-5.085 4.261,-7.029 1.795,-1.945 3.864,-3.44 6.207,-4.487 C -5.211,0.523 -2.691,0 0,0 m 19.143,-6.282 c -2.791,-3.79 -6.157,-6.906 -10.094,-9.347 -3.942,-2.442 -8.899,-3.664 -14.881,-3.664 -4.689,0 -9.225,0.897 -13.611,2.691 -4.389,1.795 -8.278,4.461 -11.664,8.002 -3.392,3.538 -6.11,7.875 -8.153,13.011 -2.045,5.135 -3.065,11.042 -3.065,17.724 l 0,0.299 c 0,6.678 1.02,12.586 3.065,17.722 2.043,5.134 4.735,9.471 8.076,13.011 3.34,3.539 7.204,6.208 11.592,8.002 4.387,1.795 8.973,2.692 13.76,2.692 6.08,0 11.09,-1.196 15.029,-3.589 3.938,-2.393 7.254,-5.186 9.946,-8.376 l 0,10.47 22.734,0 0,-104.094 -22.734,0 0,35.446 z"
         id="path124"
         style="fill:#494949;fill-opacity:1;fill-rule:nonzero;stroke:none"
         inkscape:connector-curvature="0" /></g><g
       transform="translate(1192.4551,478.3408)"
       id="g126"><path
         d="m 0,0 c -8.674,0 -15.381,2.641 -20.115,7.926 -4.737,5.284 -7.105,12.563 -7.105,21.836 l 0,51.897 22.734,0 0,-44.608 c 0,-5.373 1.196,-9.428 3.59,-12.161 2.392,-2.735 5.781,-4.102 10.169,-4.102 4.386,0 7.852,1.367 10.394,4.102 2.543,2.733 3.814,6.788 3.814,12.161 l 0,44.608 22.733,0 0,-80.164 -22.733,0 0,11.46 C 22.185,11.247 20.764,9.615 19.219,8.06 17.672,6.503 15.952,5.122 14.059,3.916 12.164,2.71 10.07,1.757 7.777,1.054 5.482,0.353 2.891,0 0,0"
         id="path128"
         style="fill:#494949;fill-opacity:1;fill-rule:nonzero;stroke:none"
         inkscape:connector-curvature="0" /></g><g
       transform="translate(1304.1738,526.1992)"
       id="g130"><path
         d="m 0,0 c -0.698,5.085 -2.493,9.198 -5.384,12.339 -2.893,3.14 -6.73,4.711 -11.516,4.711 -4.786,0 -8.651,-1.548 -11.591,-4.637 C -31.433,9.322 -33.352,5.184 -34.249,0 L 0,0 z m -14.656,-48.158 c -5.983,0 -11.542,0.998 -16.676,2.991 -5.137,1.993 -9.572,4.835 -13.312,8.525 -3.738,3.688 -6.655,8.077 -8.749,13.162 -2.093,5.084 -3.14,10.667 -3.14,16.75 l 0,0.299 c 0,5.683 0.972,11.068 2.917,16.153 1.944,5.084 4.659,9.52 8.15,13.31 3.489,3.788 7.677,6.779 12.564,8.973 4.883,2.192 10.218,3.291 16.002,3.291 6.678,0 12.463,-1.197 17.349,-3.589 4.884,-2.394 8.947,-5.609 12.189,-9.647 3.239,-4.039 5.632,-8.675 7.178,-13.909 1.545,-5.234 2.319,-10.693 2.319,-16.377 0,-0.897 -0.026,-1.846 -0.074,-2.841 -0.052,-0.998 -0.127,-2.045 -0.225,-3.141 l -55.785,0 c 1.095,-5.186 3.364,-9.1 6.804,-11.74 3.44,-2.644 7.703,-3.964 12.788,-3.964 3.788,0 7.178,0.647 10.17,1.944 2.991,1.295 6.08,3.389 9.272,6.281 l 13.012,-11.515 c -3.79,-4.688 -8.375,-8.352 -13.76,-10.992 -5.384,-2.641 -11.717,-3.964 -18.993,-3.964"
         id="path132"
         style="fill:#494949;fill-opacity:1;fill-rule:nonzero;stroke:none"
         inkscape:connector-curvature="0" /></g><g
       transform="translate(1363.8467,478.3408)"
       id="g134"><path
         d="m 0,0 c -5.684,0 -11.493,0.972 -17.424,2.916 -5.933,1.944 -11.591,5.01 -16.974,9.198 l 9.72,14.955 c 4.387,-3.191 8.75,-5.585 13.087,-7.178 4.337,-1.596 8.399,-2.393 12.189,-2.393 3.291,0 5.707,0.547 7.254,1.645 1.544,1.096 2.318,2.543 2.318,4.337 l 0,0.299 c 0,1.197 -0.448,2.243 -1.346,3.141 -0.897,0.897 -2.12,1.669 -3.664,2.318 -1.548,0.648 -3.316,1.272 -5.309,1.869 -1.997,0.599 -4.09,1.247 -6.282,1.945 -2.793,0.797 -5.609,1.769 -8.45,2.917 -2.842,1.144 -5.41,2.64 -7.702,4.486 -2.295,1.844 -4.165,4.113 -5.609,6.806 -1.447,2.691 -2.168,5.981 -2.168,9.87 l 0,0.3 c 0,4.086 0.771,7.701 2.318,10.842 1.544,3.141 3.638,5.807 6.281,8.001 2.641,2.192 5.758,3.837 9.348,4.936 3.589,1.096 7.377,1.645 11.366,1.645 5.085,0 10.244,-0.823 15.48,-2.468 5.234,-1.645 10.044,-3.914 14.431,-6.804 L 20.19,57.879 c -3.989,2.293 -7.877,4.113 -11.666,5.458 -3.79,1.347 -7.129,2.019 -10.02,2.019 -2.792,0 -4.886,-0.523 -6.281,-1.57 -1.398,-1.047 -2.094,-2.369 -2.094,-3.963 l 0,-0.299 c 0,-1.098 0.449,-2.07 1.346,-2.917 0.897,-0.847 2.094,-1.644 3.589,-2.392 1.496,-0.748 3.216,-1.446 5.161,-2.094 1.944,-0.649 4.011,-1.372 6.206,-2.169 2.79,-0.897 5.632,-1.97 8.525,-3.215 2.891,-1.248 5.482,-2.767 7.776,-4.561 2.293,-1.796 4.189,-3.989 5.684,-6.581 1.496,-2.594 2.243,-5.736 2.243,-9.423 l 0,-0.299 c 0,-4.486 -0.773,-8.352 -2.318,-11.591 C 26.794,11.041 24.626,8.375 21.836,6.281 19.043,4.187 15.802,2.617 12.114,1.57 8.424,0.523 4.386,0 0,0"
         id="path136"
         style="fill:#494949;fill-opacity:1;fill-rule:nonzero;stroke:none"
         inkscape:connector-curvature="0" /></g><g
       transform="translate(776.2798,563.7583)"
       id="g138"><path
         d="m 0,0 c 7.057,0 12.892,5.835 12.892,13.027 0,7.057 -5.835,12.892 -13.028,12.892 -7.056,0 -12.891,-5.835 -12.891,-13.027 C -13.027,5.835 -7.192,0 0,0"
         id="path140"
         style="fill:#494949;fill-opacity:1;fill-rule:nonzero;stroke:none"
         inkscape:connector-curvature="0" /></g><path
       d="m 787.462,480.836 -22.5,0 0,77.168 22.5,0 0,-77.168 z"
       id="path142"
       style="fill:#494949;fill-opacity:1;fill-rule:nonzero;stroke:none"
       inkscape:connector-curvature="0" /></g></svg>