<?xml version="1.0" encoding="UTF-8" standalone="no"?>
<!-- Created with Inkscape (http://www.inkscape.org/) -->

<svg
   xmlns:dc="http://purl.org/dc/elements/1.1/"
   xmlns:cc="http://creativecommons.org/ns#"
   xmlns:rdf="http://www.w3.org/1999/02/22-rdf-syntax-ns#"
   xmlns:svg="http://www.w3.org/2000/svg"
   xmlns="http://www.w3.org/2000/svg"
   xmlns:sodipodi="http://sodipodi.sourceforge.net/DTD/sodipodi-0.dtd"
   xmlns:inkscape="http://www.inkscape.org/namespaces/inkscape"
   version="1.1"
   width="1152.264"
   height="346.53125"
   id="svg2"
   xml:space="preserve"
   inkscape:version="0.48.5 r10040"
   sodipodi:docname="logo.svg"><sodipodi:namedview
     pagecolor="#ffffff"
     bordercolor="#666666"
     borderopacity="1"
     objecttolerance="10"
     gridtolerance="10"
     guidetolerance="10"
     inkscape:pageopacity="0"
     inkscape:pageshadow="2"
     inkscape:window-width="1600"
     inkscape:window-height="861"
     id="namedview72"
     showgrid="false"
     inkscape:zoom="0.26990342"
     inkscape:cx="133.38105"
     inkscape:cy="173.26563"
     inkscape:window-x="0"
     inkscape:window-y="0"
     inkscape:window-maximized="1"
     inkscape:current-layer="svg2" /><metadata
     id="metadata8"><rdf:RDF><cc:Work
         rdf:about=""><dc:format>image/svg+xml</dc:format><dc:type
           rdf:resource="http://purl.org/dc/dcmitype/StillImage" /><dc:title /></cc:Work></rdf:RDF></metadata><defs
     id="defs6"><clipPath
       id="clipPath16"><path
         d="m 0,1080 1920,0 L 1920,0 0,0 0,1080 z"
         id="path18" /></clipPath><clipPath
       id="clipPath28"><path
         d="m 710.266,604.042 -68.324,-68.168 4.514,-18.832 25.557,-3.3 c 0,0 54.906,54.66 64.556,64.153 l 0,0 c 9.649,9.494 1.867,22.879 1.867,22.879 l 0,0 c -11.673,20.078 -28.17,29.882 -28.17,29.882 l 0,0 c 13.23,-13.851 0,-26.614 0,-26.614"
         id="path30" /></clipPath><linearGradient
       x1="0"
       y1="0"
       x2="1"
       y2="0"
       id="linearGradient36"
       gradientUnits="userSpaceOnUse"
       gradientTransform="matrix(-89.179451,-89.646362,-89.646362,89.179451,723.4082,604.26611)"
       spreadMethod="pad"><stop
         id="stop38"
         style="stop-color:#20b747;stop-opacity:1"
         offset="0" /><stop
         id="stop40"
         style="stop-color:#231f20;stop-opacity:1"
         offset="0.89150202" /><stop
         id="stop42"
         style="stop-color:#8dc63f;stop-opacity:1"
         offset="1" /></linearGradient><clipPath
       id="clipPath50"><path
         d="m 593.196,559.606 c -6.769,-7.249 -7.053,-19.28 0.032,-26.222 l 0,0 37.706,-36.731 c 13.031,-10.739 24.082,0 24.082,0 l 0,0 24.59,24.723 c -14.942,-8.428 -29.736,8.889 -29.736,8.889 l 0,0 -30.539,29.92 c -3.559,3.487 -8.174,5.219 -12.782,5.22 l 0,0 c -4.88,0 -9.751,-1.942 -13.353,-5.799"
         id="path52" /></clipPath><linearGradient
       x1="0"
       y1="0"
       x2="1"
       y2="0"
       id="linearGradient58"
       gradientUnits="userSpaceOnUse"
       gradientTransform="matrix(91.589722,0,0,-91.589722,588.01605,528.64276)"
       spreadMethod="pad"><stop
         id="stop60"
         style="stop-color:#20b747;stop-opacity:1"
         offset="0" /><stop
         id="stop62"
         style="stop-color:#8dc63f;stop-opacity:1"
         offset="1" /></linearGradient><clipPath
       id="clipPath70"><path
         d="m 0,1080 1920,0 L 1920,0 0,0 0,1080 z"
         id="path72" /></clipPath><clipPath
       id="clipPath86"><path
         d="m 579.081,547.177 31.763,-30.965 26.108,26.781 -31.764,30.965 -26.107,-26.781 z"
         id="path88" /></clipPath><linearGradient
       x1="0"
       y1="0"
       x2="1"
       y2="0"
       id="linearGradient94"
       gradientUnits="userSpaceOnUse"
       gradientTransform="matrix(26.107292,26.781395,17.682903,-17.237814,594.9624,531.69421)"
       spreadMethod="pad"><stop
         id="stop96"
         style="stop-color:#20b747;stop-opacity:1"
         offset="0" /><stop
         id="stop98"
         style="stop-color:#20b747;stop-opacity:1"
         offset="1" /></linearGradient><clipPath
       id="clipPath106"><path
         d="m 0,1080 1920,0 L 1920,0 0,0 0,1080 z"
         id="path108" /></clipPath></defs><g
     id="g8667"
     transform="matrix(4.8650435,0,0,-4.8650435,343.17718,238.33139)"><path
       d="m 0,0 -0.001,19.31 c 0,0.54 0.187,0.996 0.561,1.37 0.373,0.374 0.824,0.561 1.351,0.561 0.527,0 0.977,-0.187 1.351,-0.561 0.374,-0.374 0.567,-0.83 0.58,-1.369 L 3.843,0 C 3.83,-0.539 3.637,-0.996 3.263,-1.369 2.889,-1.744 2.439,-1.931 1.912,-1.931 1.385,-1.931 0.934,-1.744 0.561,-1.37 0.187,-0.996 0,-0.54 0,0"
       style="fill:#514d4c;fill-opacity:1;fill-rule:nonzero;stroke:none"
       id="path8669"
       inkscape:connector-curvature="0" /></g><g
     id="g8671"
     transform="matrix(4.8650435,0,0,-4.8650435,481.5541,215.5119)"><path
       d="M 0,0 C 0.27,0 0.521,-0.052 0.754,-0.156 0.987,-0.26 1.192,-0.398 1.37,-0.57 1.547,-0.742 1.688,-0.947 1.793,-1.186 1.897,-1.425 1.949,-1.68 1.949,-1.949 1.949,-2.464 1.747,-2.93 1.343,-3.346 -1.391,-5.528 -4.474,-6.62 -7.906,-6.62 c -4.07,0 -7.538,1.434 -10.407,4.302 -2.869,2.868 -4.303,6.337 -4.303,10.407 -0.001,4.057 1.433,7.52 4.302,10.388 2.88,2.881 6.349,4.322 10.406,4.322 3.481,0 6.626,-1.146 9.433,-3.438 C 1.868,19.03 2.04,18.583 2.04,18.019 2.04,17.737 1.991,17.48 1.893,17.247 1.795,17.014 1.657,16.809 1.479,16.631 1.301,16.453 1.093,16.315 0.854,16.217 0.615,16.119 0.361,16.07 0.091,16.07 c -0.478,0 -0.926,0.184 -1.342,0.552 -0.932,0.735 -1.958,1.298 -3.08,1.691 -1.122,0.392 -2.314,0.588 -3.576,0.588 -2.991,0 -5.547,-1.061 -7.667,-3.181 -2.096,-2.097 -3.144,-4.64 -3.144,-7.631 0,-3.003 1.048,-5.553 3.145,-7.649 2.108,-2.108 4.664,-3.162 7.667,-3.162 2.562,0 4.817,0.791 6.766,2.373 0.319,0.22 0.699,0.337 1.14,0.349"
       style="fill:#514d4c;fill-opacity:1;fill-rule:nonzero;stroke:none"
       id="path8673"
       inkscape:connector-curvature="0" /></g><g
     id="g8675"
     transform="matrix(4.8650435,0,0,-4.8650435,519.83566,238.32069)"><path
       d="m 0,0 c 0,-0.54 -0.187,-0.996 -0.561,-1.37 -0.374,-0.374 -0.83,-0.561 -1.37,-0.561 -0.527,0 -0.977,0.187 -1.351,0.561 -0.374,0.374 -0.561,0.83 -0.561,1.37 l -10e-4,25.558 c 0,0.539 0.186,0.995 0.56,1.369 0.374,0.374 0.824,0.561 1.352,0.561 0.526,0 0.977,-0.187 1.351,-0.561 0.374,-0.374 0.567,-0.83 0.579,-1.369 l 0.001,-8.826 c 1.63,1.263 3.548,1.894 5.755,1.894 1.287,0 2.51,-0.251 3.668,-0.753 1.159,-0.503 2.179,-1.186 3.062,-2.05 0.882,-0.864 1.581,-1.882 2.096,-3.052 0.515,-1.171 0.772,-2.418 0.772,-3.742 l 10e-4,-9.028 c -0.012,-0.54 -0.205,-0.996 -0.579,-1.37 -0.374,-0.374 -0.825,-0.561 -1.352,-0.561 -0.527,0 -0.977,0.187 -1.351,0.561 -0.374,0.374 -0.561,0.83 -0.561,1.37 l -10e-4,9.028 c 0,0.784 -0.153,1.526 -0.459,2.225 -0.307,0.698 -0.721,1.308 -1.241,1.829 -0.522,0.521 -1.131,0.934 -1.83,1.241 -0.699,0.306 -1.44,0.46 -2.225,0.46 C 4.957,14.783 4.212,14.633 3.52,14.333 2.828,14.032 2.218,13.619 1.691,13.092 1.164,12.564 0.75,11.952 0.45,11.253 0.15,10.554 -0.001,9.812 -0.001,9.028 L 0,0 z"
       style="fill:#514d4c;fill-opacity:1;fill-rule:nonzero;stroke:none"
       id="path8677"
       inkscape:connector-curvature="0" /></g><g
     id="g8679"
     transform="matrix(4.8650435,0,0,-4.8650435,764.62472,166.20517)"><path
       d="m 0,0 c -0.907,0 -1.753,-0.172 -2.538,-0.515 -0.784,-0.344 -1.465,-0.806 -2.04,-1.388 -0.577,-0.583 -1.033,-1.266 -1.37,-2.051 -0.337,-0.785 -0.506,-1.618 -0.506,-2.5 0,-0.883 0.169,-1.717 0.506,-2.501 0.337,-0.784 0.794,-1.468 1.37,-2.05 0.576,-0.582 1.257,-1.045 2.041,-1.388 0.785,-0.343 1.63,-0.515 2.538,-0.514 0.894,0 1.734,0.171 2.519,0.514 0.784,0.343 1.467,0.809 2.05,1.398 0.582,0.589 1.041,1.272 1.378,2.05 0.337,0.778 0.506,1.609 0.506,2.491 0,0.883 -0.169,1.713 -0.506,2.492 C 5.611,-3.184 5.151,-2.5 4.569,-1.912 3.987,-1.324 3.303,-0.858 2.519,-0.515 1.734,-0.172 0.894,0 0,0 m 6.455,-14.488 c -1.839,-1.508 -3.99,-2.262 -6.454,-2.262 -2.844,-0.001 -5.271,1.004 -7.282,3.014 -2.01,2.011 -3.015,4.438 -3.015,7.282 0,2.843 1.004,5.27 3.015,7.281 2.01,2.01 4.437,3.016 7.281,3.016 2.819,0 5.246,-1.005 7.281,-3.015 2.01,-2.011 3.015,-4.438 3.016,-7.281 l 10e-4,-17.21 c 0,-0.552 -0.187,-1.008 -0.561,-1.37 -0.374,-0.362 -0.83,-0.543 -1.37,-0.543 -0.551,0 -1.008,0.181 -1.369,0.543 -0.362,0.361 -0.543,0.818 -0.543,1.369 l 0,9.176 z"
       style="fill:#514d4c;fill-opacity:1;fill-rule:nonzero;stroke:none"
       id="path8681"
       inkscape:connector-curvature="0" /></g><g
     id="g8683"
     transform="matrix(4.8650435,0,0,-4.8650435,908.37802,247.68735)"><path
       d="M 0,0 C -0.552,0 -1.005,0.184 -1.361,0.551 -1.716,0.919 -1.9,1.366 -1.912,1.894 -2.758,1.232 -3.653,0.751 -4.597,0.45 c -0.944,-0.3 -1.967,-0.451 -3.07,-0.451 -1.312,0 -2.55,0.255 -3.714,0.763 -1.165,0.509 -2.182,1.198 -3.053,2.069 -0.87,0.87 -1.56,1.887 -2.069,3.052 -0.508,1.164 -0.763,2.402 -0.763,3.714 l 0,9.083 c 0,0.527 0.187,0.977 0.561,1.351 0.373,0.374 0.83,0.561 1.369,0.561 0.527,0 0.978,-0.187 1.352,-0.56 0.373,-0.374 0.561,-0.825 0.561,-1.352 l 0,-9.083 c 0,-0.797 0.15,-1.544 0.451,-2.243 0.3,-0.699 0.71,-1.309 1.232,-1.83 0.521,-0.521 1.131,-0.931 1.83,-1.231 0.698,-0.301 1.446,-0.451 2.242,-0.451 0.785,0 1.527,0.15 2.225,0.451 0.699,0.3 1.312,0.714 1.839,1.241 0.527,0.527 0.941,1.137 1.241,1.83 0.3,0.692 0.45,1.437 0.45,2.234 l 0,9.083 c 0,0.527 0.186,0.977 0.561,1.351 0.373,0.374 0.829,0.561 1.369,0.561 0.527,0 0.978,-0.187 1.352,-0.561 0.374,-0.374 0.56,-0.824 0.56,-1.351 L 1.931,1.912 C 1.931,1.385 1.743,0.934 1.37,0.561 0.996,0.187 0.539,0 0,0"
       style="fill:#514d4c;fill-opacity:1;fill-rule:nonzero;stroke:none"
       id="path8685"
       inkscape:connector-curvature="0" /></g><g
     id="g8687"
     transform="matrix(4.8650435,0,0,-4.8650435,1056.2909,199.99971)"><path
       d="m 0,0 c -1.153,0.441 -1.962,0.894 -2.427,1.36 l 0.018,0 c -0.932,0.944 -1.397,2.053 -1.397,3.328 -10e-4,0.932 0.248,1.775 0.744,2.528 0.497,0.754 1.143,1.395 1.94,1.922 0.796,0.527 1.694,0.935 2.694,1.223 0.998,0.288 2,0.432 3.006,0.432 3.064,0 5.693,-1.231 7.888,-3.695 C 12.723,6.779 12.852,6.393 12.852,5.94 12.852,5.388 12.671,4.931 12.31,4.57 11.948,4.208 11.491,4.027 10.94,4.027 10.548,4.027 10.214,4.138 9.938,4.358 9.662,4.579 9.396,4.818 9.138,5.076 7.888,6.325 6.367,6.951 4.578,6.951 2.813,6.95 1.403,6.411 0.349,5.332 0.153,5.136 0.055,4.866 0.055,4.523 0.055,4.18 0.214,3.947 0.533,3.825 L 9.138,0.994 c 1.201,-0.466 2.01,-0.92 2.427,-1.361 l -0.018,0 c 0.931,-0.944 1.397,-2.053 1.397,-3.328 0,-0.944 -0.248,-1.79 -0.744,-2.538 C 11.704,-6.98 11.057,-7.621 10.26,-8.154 9.463,-8.687 8.569,-9.095 7.576,-9.377 6.583,-9.659 5.584,-9.8 4.579,-9.8 c -3.089,0 -5.718,1.219 -7.888,3.658 -0.27,0.356 -0.405,0.754 -0.405,1.196 0,0.551 0.181,1.008 0.543,1.37 0.361,0.361 0.818,0.542 1.369,0.542 0.405,0 0.748,-0.119 1.03,-0.358 0.282,-0.239 0.539,-0.469 0.772,-0.69 1.251,-1.25 2.777,-1.875 4.579,-1.875 1.753,0 3.162,0.552 4.228,1.655 0.184,0.208 0.276,0.46 0.276,0.754 0,0.343 -0.165,0.582 -0.496,0.717 L 0,0 z"
       style="fill:#514d4c;fill-opacity:1;fill-rule:nonzero;stroke:none"
       id="path8689"
       inkscape:connector-curvature="0" /></g><g
     id="g8691"
     transform="matrix(4.8650435,0,0,-4.8650435,654.52634,166.68681)"><path
       d="m 0,0 c 2.927,0 5.404,-1.983 6.239,-4.573 l -12.479,0 C -5.404,-1.983 -2.927,0 0,0 m 7.89,-9.429 c -0.774,0 -1.508,-0.349 -1.99,-0.955 -1.189,-1.497 -3.42,-2.628 -5.576,-2.628 -3.008,0 -5.859,1.965 -6.624,4.878 l 14.843,0 c 0.997,0 1.806,0.808 1.807,1.805 l 0,0.019 c 0,5.935 -4.996,10.703 -11.012,10.329 -5.096,-0.317 -9.257,-4.406 -9.655,-9.497 -0.477,-6.083 4.649,-11.263 10.641,-11.263 3.626,0 7.14,1.857 8.987,4.646 0.756,1.142 -0.051,2.666 -1.421,2.666"
       style="fill:#514d4c;fill-opacity:1;fill-rule:nonzero;stroke:none"
       id="path8693"
       inkscape:connector-curvature="0" /></g><g
     id="g8695"
     transform="matrix(4.8650435,0,0,-4.8650435,977.76812,166.68681)"><path
       d="m 0,0 c 2.927,0 5.404,-1.983 6.239,-4.573 l -12.479,0 C -5.404,-1.983 -2.927,0 0,0 m 7.89,-9.429 c -0.774,0 -1.508,-0.349 -1.99,-0.955 -1.189,-1.497 -3.42,-2.628 -5.576,-2.628 -3.008,0 -5.859,1.965 -6.624,4.878 l 14.843,0 c 0.997,0 1.806,0.808 1.807,1.805 l 0,0.019 c 0,5.935 -4.996,10.703 -11.012,10.329 -5.096,-0.317 -9.257,-4.406 -9.655,-9.497 -0.477,-6.083 4.649,-11.263 10.641,-11.263 3.626,0 7.14,1.857 8.987,4.646 0.756,1.142 -0.051,2.666 -1.42,2.666 l -0.001,0 z"
       style="fill:#514d4c;fill-opacity:1;fill-rule:nonzero;stroke:none"
       id="path8697"
       inkscape:connector-curvature="0" /></g><g
     id="g8699"
     transform="matrix(4.8650435,0,0,-4.8650435,363.4756,115.39418)"><path
       d="m 0,0 c 0,-0.625 -0.221,-1.158 -0.662,-1.6 -0.441,-0.441 -0.974,-0.662 -1.6,-0.662 -0.625,0 -1.158,0.221 -1.599,0.662 -0.442,0.441 -0.662,0.974 -0.662,1.6 0,0.625 0.22,1.158 0.661,1.599 0.442,0.442 0.975,0.662 1.6,0.662 0.625,0 1.159,-0.22 1.6,-0.661 C -0.221,1.158 0,0.625 0,0"
       style="fill:#2da836;fill-opacity:1;fill-rule:nonzero;stroke:none"
       id="path8701"
       inkscape:connector-curvature="0" /></g><g
     id="g8703"
     transform="matrix(4.8650435,0,0,-4.8650435,419.15066,283.45175)"><path
       d="m 0,0 c 0.752,0 1.389,-0.51 1.604,-1.175 l -3.208,0 C -1.389,-0.51 -0.752,0 0,0 m 2.028,-2.423 c -0.199,0 -0.388,-0.09 -0.511,-0.246 -0.306,-0.385 -0.88,-0.676 -1.434,-0.676 -0.773,0 -1.506,0.506 -1.702,1.254 l 3.815,0 c 0.256,0 0.464,0.208 0.464,0.464 l 0,0.005 c 0,1.526 -1.284,2.751 -2.83,2.655 -1.31,-0.081 -2.379,-1.133 -2.482,-2.441 -0.122,-1.564 1.195,-2.895 2.735,-2.895 0.932,0 1.835,0.477 2.31,1.194 0.195,0.294 -0.013,0.686 -0.365,0.686"
       style="fill:#2da836;fill-opacity:1;fill-rule:nonzero;stroke:none"
       id="path8705"
       inkscape:connector-curvature="0" /></g><g
     id="g8707"
     transform="matrix(4.8650435,0,0,-4.8650435,506.90681,283.45175)"><path
       d="m 0,0 c 0.752,0 1.389,-0.51 1.604,-1.175 l -3.208,0 C -1.389,-0.51 -0.752,0 0,0 m 2.028,-2.423 c -0.199,0 -0.388,-0.09 -0.511,-0.246 -0.306,-0.385 -0.88,-0.676 -1.434,-0.676 -0.773,0 -1.506,0.506 -1.702,1.254 l 3.815,0 c 0.256,0 0.464,0.208 0.464,0.464 l 0,0.005 c 0,1.526 -1.284,2.751 -2.83,2.655 -1.31,-0.081 -2.379,-1.133 -2.482,-2.441 -0.122,-1.564 1.195,-2.895 2.735,-2.895 0.932,0 1.835,0.477 2.31,1.194 0.195,0.294 -0.013,0.686 -0.365,0.686"
       style="fill:#2da836;fill-opacity:1;fill-rule:nonzero;stroke:none"
       id="path8709"
       inkscape:connector-curvature="0" /></g><g
     id="g8711"
     transform="matrix(4.8650435,0,0,-4.8650435,576.33683,283.45175)"><path
       d="m 0,0 c 0.752,0 1.389,-0.51 1.604,-1.175 l -3.208,0 C -1.389,-0.51 -0.752,0 0,0 m 2.028,-2.423 c -0.199,0 -0.388,-0.09 -0.511,-0.246 -0.306,-0.385 -0.88,-0.676 -1.434,-0.676 -0.773,0 -1.506,0.506 -1.702,1.254 l 3.815,0 c 0.256,0 0.464,0.208 0.464,0.464 l 0,0.005 c 0,1.526 -1.284,2.751 -2.83,2.655 -1.31,-0.081 -2.379,-1.133 -2.482,-2.441 -0.122,-1.564 1.195,-2.895 2.735,-2.895 0.932,0 1.835,0.477 2.31,1.194 0.195,0.294 -0.013,0.686 -0.365,0.686"
       style="fill:#2da836;fill-opacity:1;fill-rule:nonzero;stroke:none"
       id="path8713"
       inkscape:connector-curvature="0" /></g><g
     id="g8715"
     transform="matrix(4.8650435,0,0,-4.8650435,371.86293,296.05805)"><path
       d="m 0,0 c 0.07,0 0.136,-0.014 0.196,-0.04 0.061,-0.027 0.115,-0.064 0.161,-0.108 0.046,-0.045 0.083,-0.099 0.11,-0.161 0.028,-0.062 0.041,-0.128 0.041,-0.199 0,-0.135 -0.052,-0.256 -0.158,-0.364 -0.713,-0.569 -1.517,-0.854 -2.412,-0.854 -1.061,0 -1.965,0.374 -2.713,1.122 -0.747,0.749 -1.121,1.653 -1.121,2.713 0,1.058 0.374,1.961 1.121,2.709 0.751,0.751 1.656,1.126 2.713,1.126 0.908,0 1.728,-0.298 2.46,-0.896 C 0.487,4.962 0.532,4.846 0.532,4.698 0.532,4.625 0.519,4.558 0.494,4.497 0.468,4.437 0.432,4.383 0.386,4.336 0.339,4.29 0.285,4.254 0.223,4.229 0.161,4.203 0.094,4.19 0.024,4.19 c -0.125,0 -0.241,0.048 -0.35,0.144 -0.243,0.191 -0.51,0.339 -0.803,0.441 -0.292,0.102 -0.603,0.154 -0.933,0.154 -0.779,0 -1.446,-0.277 -1.999,-0.83 C -4.607,3.553 -4.88,2.89 -4.88,2.109 c 0,-0.783 0.273,-1.447 0.819,-1.994 0.55,-0.55 1.216,-0.824 1.999,-0.824 0.668,0 1.257,0.206 1.765,0.618 C -0.214,-0.033 -0.115,-0.003 0,0"
       style="fill:#2da836;fill-opacity:1;fill-rule:nonzero;stroke:none"
       id="path8717"
       inkscape:connector-curvature="0" /></g><g
     id="g8719"
     transform="matrix(4.8650435,0,0,-4.8650435,382.59328,302.00654)"><path
       d="m 0,0 c 0,-0.141 -0.049,-0.259 -0.146,-0.356 -0.098,-0.098 -0.217,-0.147 -0.357,-0.147 -0.138,0 -0.255,0.049 -0.353,0.147 -0.098,0.097 -0.146,0.215 -0.146,0.356 l 0,6.664 c 0,0.141 0.048,0.26 0.146,0.357 0.098,0.097 0.215,0.146 0.353,0.146 0.137,0 0.254,-0.049 0.352,-0.146 C -0.054,6.924 -0.003,6.805 0,6.664 L 0,4.363 C 0.425,4.692 0.925,4.856 1.5,4.856 1.836,4.856 2.155,4.791 2.457,4.66 2.759,4.529 3.025,4.351 3.255,4.126 3.485,3.9 3.667,3.635 3.801,3.33 3.936,3.024 4.003,2.699 4.003,2.354 L 4.003,0 C 4,-0.141 3.949,-0.259 3.852,-0.356 3.754,-0.454 3.637,-0.503 3.5,-0.503 3.362,-0.503 3.245,-0.454 3.147,-0.356 3.049,-0.259 3.001,-0.141 3.001,0 l 0,2.354 c 0,0.205 -0.04,0.398 -0.12,0.581 C 2.801,3.116 2.693,3.275 2.557,3.411 2.421,3.547 2.263,3.655 2.081,3.735 1.898,3.814 1.705,3.854 1.5,3.854 1.292,3.854 1.098,3.815 0.918,3.737 0.737,3.659 0.578,3.551 0.441,3.414 0.303,3.276 0.195,3.116 0.117,2.935 0.039,2.752 0,2.559 0,2.354 L 0,0 z"
       style="fill:#2da836;fill-opacity:1;fill-rule:nonzero;stroke:none"
       id="path8721"
       inkscape:connector-curvature="0" /></g><g
     id="g8723"
     transform="matrix(4.8650435,0,0,-4.8650435,448.64208,283.20655)"><path
       d="m 0,0 c -0.237,0 -0.458,-0.045 -0.662,-0.134 -0.204,-0.09 -0.382,-0.211 -0.532,-0.362 -0.15,-0.151 -0.269,-0.33 -0.357,-0.534 -0.088,-0.205 -0.132,-0.422 -0.132,-0.653 0,-0.23 0.044,-0.447 0.132,-0.652 0.088,-0.204 0.207,-0.383 0.357,-0.534 0.15,-0.152 0.328,-0.273 0.532,-0.362 0.204,-0.089 0.425,-0.134 0.662,-0.134 0.233,0 0.452,0.045 0.657,0.134 0.204,0.089 0.382,0.21 0.534,0.365 0.152,0.153 0.272,0.331 0.36,0.534 0.088,0.203 0.132,0.419 0.132,0.649 0,0.231 -0.044,0.447 -0.132,0.65 -0.088,0.203 -0.208,0.381 -0.36,0.535 -0.152,0.153 -0.33,0.274 -0.534,0.364 C 0.452,-0.045 0.233,0 0,0 M 1.683,-3.777 C 1.203,-4.171 0.642,-4.367 0,-4.367 c -0.742,0 -1.375,0.262 -1.898,0.786 -0.525,0.524 -0.787,1.157 -0.787,1.898 0,0.742 0.262,1.374 0.787,1.899 0.523,0.524 1.156,0.786 1.898,0.786 0.735,0 1.368,-0.262 1.898,-0.786 0.524,-0.525 0.787,-1.157 0.787,-1.899 l 0,-4.487 c 0,-0.143 -0.049,-0.263 -0.147,-0.357 -0.098,-0.094 -0.216,-0.141 -0.357,-0.141 -0.144,0 -0.263,0.047 -0.357,0.141 -0.095,0.094 -0.141,0.214 -0.141,0.357 l 0,2.393 z"
       style="fill:#2da836;fill-opacity:1;fill-rule:nonzero;stroke:none"
       id="path8725"
       inkscape:connector-curvature="0" /></g><g
     id="g8727"
     transform="matrix(4.8650435,0,0,-4.8650435,487.31041,304.45317)"><path
       d="M 0,0 C -0.144,0 -0.262,0.048 -0.355,0.144 -0.448,0.239 -0.496,0.356 -0.499,0.494 -0.719,0.321 -0.953,0.195 -1.199,0.117 -1.445,0.039 -1.711,0 -1.999,0 -2.341,0 -2.664,0.066 -2.968,0.199 -3.271,0.331 -3.537,0.512 -3.763,0.738 -3.99,0.965 -4.17,1.23 -4.303,1.534 -4.436,1.838 -4.501,2.16 -4.501,2.502 l 0,2.369 c 0,0.137 0.048,0.254 0.146,0.352 0.097,0.097 0.216,0.146 0.357,0.146 0.137,0 0.254,-0.049 0.352,-0.146 C -3.548,5.125 -3.5,5.008 -3.5,4.871 l 0,-2.369 c 0,-0.207 0.04,-0.402 0.118,-0.584 0.078,-0.183 0.185,-0.342 0.321,-0.478 0.136,-0.135 0.295,-0.243 0.477,-0.321 0.182,-0.078 0.377,-0.117 0.585,-0.117 0.204,0 0.398,0.039 0.58,0.117 0.182,0.078 0.342,0.187 0.479,0.324 0.138,0.137 0.246,0.296 0.324,0.477 0.078,0.181 0.117,0.375 0.117,0.582 l 0,2.369 c 0,0.137 0.049,0.254 0.146,0.352 0.098,0.097 0.217,0.146 0.358,0.146 0.137,0 0.254,-0.049 0.352,-0.146 C 0.455,5.125 0.503,5.008 0.503,4.871 l 0,-4.372 C 0.503,0.361 0.455,0.244 0.357,0.146 0.259,0.049 0.141,0 0,0"
       style="fill:#2da836;fill-opacity:1;fill-rule:nonzero;stroke:none"
       id="path8729"
       inkscape:connector-curvature="0" /></g><g
     id="g8731"
     transform="matrix(4.8650435,0,0,-4.8650435,543.84028,292.02444)"><path
       d="m 0,0 c -0.3,0.115 -0.511,0.233 -0.633,0.355 l 0.005,0 c -0.243,0.247 -0.364,0.536 -0.364,0.868 0,0.243 0.065,0.463 0.194,0.659 0.13,0.197 0.298,0.364 0.506,0.501 0.208,0.138 0.441,0.244 0.702,0.319 0.26,0.075 0.522,0.112 0.784,0.112 0.799,0 1.484,-0.321 2.056,-0.963 C 3.317,1.768 3.351,1.667 3.351,1.549 3.351,1.405 3.304,1.286 3.209,1.191 3.115,1.098 2.997,1.051 2.853,1.051 2.75,1.051 2.663,1.079 2.591,1.137 2.52,1.194 2.45,1.257 2.383,1.323 2.057,1.649 1.661,1.812 1.194,1.812 0.733,1.812 0.366,1.672 0.091,1.391 0.04,1.34 0.015,1.27 0.015,1.18 0.015,1.09 0.056,1.029 0.139,0.998 L 2.383,0.26 C 2.696,0.138 2.907,0.02 3.016,-0.096 l -0.005,0 C 3.253,-0.342 3.375,-0.631 3.375,-0.963 3.375,-1.209 3.311,-1.43 3.181,-1.625 3.051,-1.819 2.883,-1.986 2.675,-2.126 2.467,-2.265 2.234,-2.371 1.975,-2.444 1.716,-2.518 1.456,-2.555 1.194,-2.555 c -0.805,0 -1.491,0.319 -2.057,0.954 -0.07,0.093 -0.105,0.197 -0.105,0.312 0,0.143 0.047,0.263 0.141,0.357 0.095,0.094 0.214,0.142 0.357,0.142 0.106,0 0.195,-0.031 0.269,-0.094 0.073,-0.062 0.14,-0.122 0.201,-0.179 0.326,-0.327 0.724,-0.49 1.194,-0.49 0.457,0 0.825,0.144 1.102,0.432 0.048,0.054 0.072,0.12 0.072,0.196 0,0.09 -0.043,0.152 -0.129,0.188 L 0,0 z"
       style="fill:#2da836;fill-opacity:1;fill-rule:nonzero;stroke:none"
       id="path8733"
       inkscape:connector-curvature="0" /></g><g
     id="g8735"
     transform="matrix(4.8650435,0,0,-4.8650435,630.52951,302.00654)"><path
       d="m 0,0 c 0,-0.141 -0.049,-0.259 -0.146,-0.356 -0.098,-0.098 -0.215,-0.147 -0.352,-0.147 -0.141,0 -0.26,0.049 -0.356,0.147 -0.095,0.097 -0.142,0.215 -0.142,0.356 l 0,2.729 c 0,0.153 -0.031,0.298 -0.09,0.435 -0.059,0.138 -0.139,0.259 -0.242,0.362 -0.102,0.104 -0.223,0.187 -0.361,0.247 -0.139,0.061 -0.29,0.091 -0.45,0.091 -0.156,0 -0.302,-0.03 -0.439,-0.091 C -2.717,3.713 -2.838,3.631 -2.941,3.528 -3.045,3.427 -3.127,3.307 -3.186,3.169 -3.244,3.032 -3.273,2.885 -3.273,2.729 l 0,-2.729 c 0,-0.141 -0.049,-0.259 -0.147,-0.356 -0.098,-0.098 -0.215,-0.147 -0.353,-0.147 -0.141,0 -0.258,0.049 -0.356,0.147 -0.098,0.097 -0.146,0.215 -0.146,0.356 l 0,2.729 c 0,0.156 -0.032,0.303 -0.092,0.44 -0.061,0.138 -0.143,0.258 -0.244,0.359 -0.102,0.103 -0.223,0.185 -0.36,0.245 -0.138,0.061 -0.285,0.091 -0.441,0.091 -0.156,0 -0.303,-0.029 -0.442,-0.089 C -5.99,3.717 -6.111,3.635 -6.215,3.531 -6.318,3.428 -6.4,3.307 -6.459,3.169 -6.52,3.032 -6.549,2.885 -6.549,2.729 l 0,-2.729 c 0,-0.141 -0.049,-0.259 -0.146,-0.356 -0.096,-0.098 -0.215,-0.147 -0.352,-0.147 -0.14,0 -0.26,0.049 -0.357,0.147 C -7.501,-0.259 -7.55,-0.141 -7.55,0 l 0,4.368 c 0,0.137 0.049,0.254 0.146,0.352 0.097,0.097 0.215,0.146 0.352,0.146 0.113,0 0.212,-0.031 0.298,-0.094 0.086,-0.061 0.145,-0.144 0.178,-0.246 0.342,0.227 0.728,0.34 1.164,0.34 0.32,0 0.619,-0.063 0.9,-0.189 0.282,-0.126 0.528,-0.318 0.739,-0.573 0.445,0.508 0.99,0.762 1.634,0.762 0.291,0 0.567,-0.056 0.828,-0.17 0.26,-0.113 0.487,-0.266 0.68,-0.46 C -0.437,4.042 -0.283,3.815 -0.17,3.555 -0.057,3.295 0,3.019 0,2.729 L 0,0 z"
       style="fill:#2da836;fill-opacity:1;fill-rule:nonzero;stroke:none"
       id="path8737"
       inkscape:connector-curvature="0" /></g><g
     id="g8739"
     transform="matrix(4.8650435,0,0,-4.8650435,653.45798,292.02444)"><path
       d="m 0,0 c -0.301,0.115 -0.511,0.233 -0.633,0.355 l 0.005,0 c -0.243,0.247 -0.364,0.536 -0.364,0.868 0,0.243 0.064,0.463 0.194,0.659 0.129,0.197 0.298,0.364 0.506,0.501 0.207,0.138 0.441,0.244 0.702,0.319 0.261,0.075 0.522,0.112 0.783,0.112 0.8,0 1.486,-0.321 2.057,-0.963 C 3.317,1.768 3.352,1.667 3.352,1.549 3.352,1.405 3.304,1.286 3.21,1.191 3.115,1.098 2.996,1.051 2.853,1.051 2.75,1.051 2.663,1.079 2.591,1.137 2.52,1.194 2.45,1.257 2.383,1.323 2.057,1.649 1.66,1.812 1.193,1.812 0.733,1.812 0.366,1.672 0.091,1.391 0.04,1.34 0.015,1.27 0.015,1.18 0.015,1.09 0.056,1.029 0.14,0.998 L 2.383,0.26 C 2.696,0.138 2.907,0.02 3.016,-0.096 l -0.005,0 C 3.254,-0.342 3.375,-0.631 3.375,-0.963 3.375,-1.209 3.311,-1.43 3.181,-1.625 3.052,-1.819 2.883,-1.986 2.675,-2.126 2.468,-2.265 2.234,-2.371 1.976,-2.444 1.717,-2.518 1.456,-2.555 1.193,-2.555 c -0.804,0 -1.49,0.319 -2.055,0.954 -0.071,0.093 -0.106,0.197 -0.106,0.312 0,0.143 0.047,0.263 0.141,0.357 0.095,0.094 0.214,0.142 0.357,0.142 0.106,0 0.196,-0.031 0.269,-0.094 0.073,-0.062 0.14,-0.122 0.201,-0.179 0.326,-0.327 0.724,-0.49 1.193,-0.49 0.457,0 0.826,0.144 1.104,0.432 0.048,0.054 0.071,0.12 0.071,0.196 0,0.09 -0.043,0.152 -0.129,0.188 L 0,0 z"
       style="fill:#2da836;fill-opacity:1;fill-rule:nonzero;stroke:none"
       id="path8741"
       inkscape:connector-curvature="0" /></g><g
     id="g8743"
     transform="matrix(4.8650435,0,0,-4.8650435,695.2954,304.45317)"><path
       d="M 0,0 C -0.144,0 -0.262,0.048 -0.354,0.144 -0.447,0.239 -0.495,0.356 -0.498,0.494 -0.719,0.321 -0.952,0.195 -1.198,0.117 -1.444,0.039 -1.711,0 -1.999,0 -2.341,0 -2.663,0.066 -2.967,0.199 -3.271,0.331 -3.536,0.512 -3.763,0.738 -3.99,0.965 -4.17,1.23 -4.302,1.534 -4.435,1.838 -4.501,2.16 -4.501,2.502 l 0,2.369 c 0,0.137 0.049,0.254 0.147,0.352 0.096,0.097 0.215,0.146 0.356,0.146 0.138,0 0.255,-0.049 0.352,-0.146 0.098,-0.098 0.147,-0.215 0.147,-0.352 l 0,-2.369 c 0,-0.207 0.039,-0.402 0.117,-0.584 0.078,-0.183 0.186,-0.342 0.321,-0.478 0.136,-0.135 0.295,-0.243 0.477,-0.321 0.183,-0.078 0.378,-0.117 0.585,-0.117 0.205,0 0.398,0.039 0.58,0.117 0.183,0.078 0.342,0.187 0.48,0.324 0.137,0.137 0.245,0.296 0.324,0.477 0.078,0.181 0.117,0.375 0.117,0.582 l 0,2.369 c 0,0.137 0.049,0.254 0.146,0.352 0.097,0.097 0.216,0.146 0.357,0.146 C 0.143,5.369 0.26,5.32 0.357,5.223 0.455,5.125 0.504,5.008 0.504,4.871 l 0,-4.372 C 0.504,0.361 0.455,0.244 0.357,0.146 0.26,0.049 0.141,0 0,0"
       style="fill:#2da836;fill-opacity:1;fill-rule:nonzero;stroke:none"
       id="path8745"
       inkscape:connector-curvature="0" /></g><g
     id="g8747"
     transform="matrix(4.8650435,0,0,-4.8650435,706.16582,292.02444)"><path
       d="m 0,0 c -0.301,0.115 -0.511,0.233 -0.633,0.355 l 0.005,0 c -0.243,0.247 -0.364,0.536 -0.364,0.868 0,0.243 0.064,0.463 0.194,0.659 0.129,0.197 0.298,0.364 0.506,0.501 0.207,0.138 0.441,0.244 0.702,0.319 0.261,0.075 0.522,0.112 0.783,0.112 0.8,0 1.486,-0.321 2.057,-0.963 C 3.317,1.768 3.352,1.667 3.352,1.549 3.352,1.405 3.304,1.286 3.21,1.191 3.115,1.098 2.996,1.051 2.853,1.051 2.75,1.051 2.663,1.079 2.591,1.137 2.52,1.194 2.45,1.257 2.383,1.323 2.057,1.649 1.66,1.812 1.193,1.812 0.733,1.812 0.366,1.672 0.091,1.391 0.04,1.34 0.015,1.27 0.015,1.18 0.015,1.09 0.056,1.029 0.14,0.998 L 2.383,0.26 C 2.696,0.138 2.907,0.02 3.016,-0.096 l -0.005,0 C 3.254,-0.342 3.375,-0.631 3.375,-0.963 3.375,-1.209 3.311,-1.43 3.181,-1.625 3.052,-1.819 2.883,-1.986 2.675,-2.126 2.468,-2.265 2.234,-2.371 1.976,-2.444 1.717,-2.518 1.456,-2.555 1.193,-2.555 c -0.804,0 -1.49,0.319 -2.055,0.954 -0.071,0.093 -0.106,0.197 -0.106,0.312 0,0.143 0.047,0.263 0.141,0.357 0.095,0.094 0.214,0.142 0.357,0.142 0.106,0 0.196,-0.031 0.269,-0.094 0.073,-0.062 0.14,-0.122 0.201,-0.179 0.326,-0.327 0.724,-0.49 1.193,-0.49 0.457,0 0.826,0.144 1.104,0.432 0.048,0.054 0.071,0.12 0.071,0.196 0,0.09 -0.043,0.152 -0.129,0.188 L 0,0 z"
       style="fill:#2da836;fill-opacity:1;fill-rule:nonzero;stroke:none"
       id="path8749"
       inkscape:connector-curvature="0" /></g><g
     id="g8751"
     transform="matrix(4.8650435,0,0,-4.8650435,728.41512,278.33226)"><path
       d="m 0,0 0.226,0 0,1.803 c 0,0.137 0.047,0.255 0.145,0.352 0.098,0.097 0.217,0.146 0.358,0.146 0.137,0 0.254,-0.049 0.352,-0.146 C 1.179,2.058 1.228,1.94 1.228,1.803 L 1.228,0 1.826,0 C 1.964,0 2.08,-0.049 2.176,-0.146 2.272,-0.244 2.32,-0.361 2.32,-0.498 2.32,-0.64 2.272,-0.758 2.176,-0.855 2.08,-0.953 1.964,-1.002 1.826,-1.002 l -0.598,0 0,-2.411 c 0,-0.636 0.319,-0.954 0.958,-0.954 0.137,0 0.253,-0.049 0.35,-0.147 0.096,-0.097 0.144,-0.215 0.144,-0.352 0,-0.141 -0.048,-0.259 -0.144,-0.357 -0.097,-0.097 -0.213,-0.146 -0.35,-0.146 -1.307,0 -1.96,0.652 -1.96,1.956 l 0,2.411 -0.226,0 c -0.135,0 -0.25,0.049 -0.348,0.147 -0.097,0.097 -0.146,0.215 -0.146,0.357 0,0.137 0.049,0.254 0.146,0.352 C -0.25,-0.049 -0.135,0 0,0"
       style="fill:#2da836;fill-opacity:1;fill-rule:nonzero;stroke:none"
       id="path8753"
       inkscape:connector-curvature="0" /></g><g
     id="g8755"
     transform="matrix(4.8650435,0,0,-4.8650435,756.47432,283.20655)"><path
       d="m 0,0 c -0.236,0 -0.457,-0.045 -0.662,-0.134 -0.204,-0.09 -0.382,-0.211 -0.532,-0.362 -0.15,-0.151 -0.269,-0.33 -0.357,-0.534 -0.088,-0.205 -0.132,-0.422 -0.132,-0.653 0,-0.23 0.044,-0.447 0.132,-0.652 0.088,-0.204 0.207,-0.383 0.357,-0.534 0.15,-0.152 0.328,-0.273 0.532,-0.362 0.205,-0.089 0.426,-0.134 0.662,-0.134 0.233,0 0.452,0.045 0.656,0.134 0.205,0.089 0.383,0.21 0.535,0.365 0.152,0.153 0.272,0.331 0.36,0.534 0.088,0.203 0.132,0.419 0.132,0.649 0,0.231 -0.044,0.447 -0.132,0.65 -0.088,0.203 -0.208,0.381 -0.36,0.535 -0.152,0.153 -0.33,0.274 -0.535,0.364 C 0.452,-0.045 0.233,0 0,0 m 2.685,-1.683 c 0,-0.748 -0.263,-1.38 -0.787,-1.898 C 1.367,-4.105 0.734,-4.367 0,-4.367 c -0.742,0 -1.375,0.262 -1.898,0.786 -0.525,0.524 -0.787,1.157 -0.787,1.898 0,0.742 0.262,1.374 0.787,1.899 0.523,0.524 1.156,0.786 1.898,0.786 0.734,0 1.367,-0.262 1.898,-0.786 0.262,-0.262 0.458,-0.552 0.587,-0.868 0.13,-0.317 0.196,-0.66 0.2,-1.031"
       style="fill:#2da836;fill-opacity:1;fill-rule:nonzero;stroke:none"
       id="path8757"
       inkscape:connector-curvature="0" /></g><g
     transform="matrix(5.283339,0,0,5.283339,30.88666,18.204573)"
     id="g49"><path
       style="fill:#514e4c"
       inkscape:connector-curvature="0"
       d="m 39.4,37.8 c -2.9,4 -7.6,6.6 -12.9,6.6 -8.8,0 -15.9,-7.1 -15.9,-15.9 0,-8.8 7.1,-15.9 15.9,-15.9 6.8,0 12.5,4.2 14.8,10.2 0.3,-1.4 0.4,-2.5 0.2,-2.8 -0.1,0 -0.2,0 -0.3,-0.1 0.1,-0.1 0.2,-0.1 0.3,0.1 1,-0.2 3.9,-3.1 7.3,-5 C 44.3,7.4 36,2.4 26.5,2.4 12.1,2.4 0.4,14.1 0.4,28.5 c 0,14.4 11.7,26.1 26.1,26.1 8.2,0 15.4,-3.7 20.2,-9.6 l -7.3,-7.2 z"
       id="path51" /><g
       id="g53"><path
         style="fill:#2fa537"
         inkscape:connector-curvature="0"
         d="M 54.6,9.4 C 54.5,9.3 54.4,9.2 54.4,9 c 0,0.2 0.1,0.3 0.2,0.4 l 0,0 z"
         id="path55" /><path
         style="fill:#2fa537"
         inkscape:connector-curvature="0"
         d="M 54.5,9.5 C 54.4,9.4 54.4,9.3 54.3,9.1 54.3,9.1 54.3,9 54.2,9 52.1,5.5 50.6,4.4 50.6,4.4 c 0,0 0,0 0,0 0,0.1 0.1,2.1 -2.6,4.8 -0.7,0.7 -2,2 -3.6,3.6 C 41,16.1 30.8,26.4 27.9,29.2 l -10.3,-10 c 0,0 -1.7,1 -2.9,3.3 -1.2,2.3 -1.4,4.4 -1.4,4.4 0,0 7,6.6 10.9,10.7 3.9,4 7.2,0 7.2,0 l 4.5,-4.5 17.9,-17.8 c -0.1,0.1 2.3,-2.5 0.7,-5.8 z"
         id="path57" /></g></g></svg>