<?xml version="1.0" encoding="UTF-8" standalone="no"?>
<!-- Created with Inkscape (http://www.inkscape.org/) -->

<svg
   xmlns:dc="http://purl.org/dc/elements/1.1/"
   xmlns:cc="http://creativecommons.org/ns#"
   xmlns:rdf="http://www.w3.org/1999/02/22-rdf-syntax-ns#"
   xmlns:svg="http://www.w3.org/2000/svg"
   xmlns="http://www.w3.org/2000/svg"
   xmlns:xlink="http://www.w3.org/1999/xlink"
   xmlns:sodipodi="http://sodipodi.sourceforge.net/DTD/sodipodi-0.dtd"
   xmlns:inkscape="http://www.inkscape.org/namespaces/inkscape"
   id="svg2"
   version="1.1"
   inkscape:version="0.48.5 r10040"
   width="300.53"
   height="300.53"
   xml:space="preserve"
   sodipodi:docname="logo-icon.svg"><metadata
     id="metadata8"><rdf:RDF><cc:Work
         rdf:about=""><dc:format>image/svg+xml</dc:format><dc:type
           rdf:resource="http://purl.org/dc/dcmitype/StillImage" /><dc:title /></cc:Work></rdf:RDF></metadata><defs
     id="defs6"><clipPath
       clipPathUnits="userSpaceOnUse"
       id="clipPath16"><path
         d="m 0,1080 1920,0 L 1920,0 0,0 0,1080 z"
         id="path18"
         inkscape:connector-curvature="0" /></clipPath><clipPath
       clipPathUnits="userSpaceOnUse"
       id="clipPath28"><path
         d="m 710.266,604.042 -68.324,-68.168 4.514,-18.832 25.557,-3.3 c 0,0 54.906,54.66 64.556,64.153 l 0,0 c 9.649,9.494 1.867,22.879 1.867,22.879 l 0,0 c -11.673,20.078 -28.17,29.882 -28.17,29.882 l 0,0 c 13.23,-13.851 0,-26.614 0,-26.614"
         id="path30"
         inkscape:connector-curvature="0" /></clipPath><linearGradient
       x1="0"
       y1="0"
       x2="1"
       y2="0"
       gradientUnits="userSpaceOnUse"
       gradientTransform="matrix(-89.179451,-89.646362,-89.646362,89.179451,723.4082,604.26611)"
       spreadMethod="pad"
       id="linearGradient36"><stop
         style="stop-opacity:1;stop-color:#20b747"
         offset="0"
         id="stop38" /><stop
         style="stop-opacity:1;stop-color:#231f20"
         offset="0.891502"
         id="stop40" /><stop
         style="stop-opacity:1;stop-color:#8dc63f"
         offset="1"
         id="stop42" /></linearGradient><clipPath
       clipPathUnits="userSpaceOnUse"
       id="clipPath50"><path
         d="m 593.196,559.606 c -6.769,-7.249 -7.053,-19.28 0.032,-26.222 l 0,0 37.706,-36.731 c 13.031,-10.739 24.082,0 24.082,0 l 0,0 24.59,24.723 c -14.942,-8.428 -29.736,8.889 -29.736,8.889 l 0,0 -30.539,29.92 c -3.559,3.487 -8.174,5.219 -12.782,5.22 l 0,0 c -4.88,0 -9.751,-1.942 -13.353,-5.799"
         id="path52"
         inkscape:connector-curvature="0" /></clipPath><linearGradient
       x1="0"
       y1="0"
       x2="1"
       y2="0"
       gradientUnits="userSpaceOnUse"
       gradientTransform="matrix(91.589722,0,0,-91.589722,588.01605,528.64276)"
       spreadMethod="pad"
       id="linearGradient58"><stop
         style="stop-opacity:1;stop-color:#20b747"
         offset="0"
         id="stop60" /><stop
         style="stop-opacity:1;stop-color:#8dc63f"
         offset="1"
         id="stop62" /></linearGradient><clipPath
       clipPathUnits="userSpaceOnUse"
       id="clipPath70"><path
         d="m 0,1080 1920,0 L 1920,0 0,0 0,1080 z"
         id="path72"
         inkscape:connector-curvature="0" /></clipPath><clipPath
       clipPathUnits="userSpaceOnUse"
       id="clipPath86"><path
         d="m 579.081,547.177 31.763,-30.965 26.108,26.781 -31.764,30.965 -26.107,-26.781 z"
         id="path88"
         inkscape:connector-curvature="0" /></clipPath><linearGradient
       x1="0"
       y1="0"
       x2="1"
       y2="0"
       gradientUnits="userSpaceOnUse"
       gradientTransform="matrix(26.107292,26.781395,17.682903,-17.237814,594.9624,531.69421)"
       spreadMethod="pad"
       id="linearGradient94"><stop
         style="stop-opacity:1;stop-color:#20b747"
         offset="0"
         id="stop96" /><stop
         style="stop-opacity:1;stop-color:#20b747"
         offset="1"
         id="stop98" /></linearGradient><clipPath
       clipPathUnits="userSpaceOnUse"
       id="clipPath106"><path
         d="m 0,1080 1920,0 L 1920,0 0,0 0,1080 z"
         id="path108"
         inkscape:connector-curvature="0" /></clipPath><linearGradient
       inkscape:collect="always"
       xlink:href="#linearGradient36"
       id="linearGradient4043"
       gradientUnits="userSpaceOnUse"
       gradientTransform="matrix(-89.179451,-89.646362,-89.646362,89.179451,723.4082,604.26611)"
       spreadMethod="pad"
       x1="0"
       y1="0"
       x2="1"
       y2="0" /><linearGradient
       inkscape:collect="always"
       xlink:href="#linearGradient58"
       id="linearGradient4045"
       gradientUnits="userSpaceOnUse"
       gradientTransform="matrix(91.589722,0,0,-91.589722,588.01605,528.64276)"
       spreadMethod="pad"
       x1="0"
       y1="0"
       x2="1"
       y2="0" /><linearGradient
       inkscape:collect="always"
       xlink:href="#linearGradient94"
       id="linearGradient4047"
       gradientUnits="userSpaceOnUse"
       gradientTransform="matrix(26.107292,26.781395,17.682903,-17.237814,594.9624,531.69421)"
       spreadMethod="pad"
       x1="0"
       y1="0"
       x2="1"
       y2="0" /></defs><sodipodi:namedview
     pagecolor="#ffffff"
     bordercolor="#666666"
     borderopacity="1"
     objecttolerance="10"
     gridtolerance="10"
     guidetolerance="10"
     inkscape:pageopacity="0"
     inkscape:pageshadow="2"
     inkscape:window-width="1600"
     inkscape:window-height="861"
     id="namedview4"
     showgrid="false"
     fit-margin-top="10"
     fit-margin-left="10"
     fit-margin-right="10"
     fit-margin-bottom="10"
     inkscape:zoom="0.36651701"
     inkscape:cx="299.94986"
     inkscape:cy="231.5836"
     inkscape:window-x="0"
     inkscape:window-y="0"
     inkscape:window-maximized="1"
     inkscape:current-layer="g10" /><g
     id="g10"
     inkscape:groupmode="layer"
     inkscape:label="logo"
     transform="matrix(1.25,0,0,-1.25,-646.86813,825.26413)"><g
       transform="matrix(3.9506126,0,0,-3.9506126,528.17266,652.59176)"
       id="g49"><path
         style="fill:#514e4c"
         inkscape:connector-curvature="0"
         d="m 39.4,37.8 c -2.9,4 -7.6,6.6 -12.9,6.6 -8.8,0 -15.9,-7.1 -15.9,-15.9 0,-8.8 7.1,-15.9 15.9,-15.9 6.8,0 12.5,4.2 14.8,10.2 0.3,-1.4 0.4,-2.5 0.2,-2.8 -0.1,0 -0.2,0 -0.3,-0.1 0.1,-0.1 0.2,-0.1 0.3,0.1 1,-0.2 3.9,-3.1 7.3,-5 C 44.3,7.4 36,2.4 26.5,2.4 12.1,2.4 0.4,14.1 0.4,28.5 c 0,14.4 11.7,26.1 26.1,26.1 8.2,0 15.4,-3.7 20.2,-9.6 l -7.3,-7.2 z"
         id="path51" /><g
         id="g53"><path
           style="fill:#2fa537"
           inkscape:connector-curvature="0"
           d="M 54.6,9.4 C 54.5,9.3 54.4,9.2 54.4,9 c 0,0.2 0.1,0.3 0.2,0.4 l 0,0 z"
           id="path55" /><path
           style="fill:#2fa537"
           inkscape:connector-curvature="0"
           d="M 54.5,9.5 C 54.4,9.4 54.4,9.3 54.3,9.1 54.3,9.1 54.3,9 54.2,9 52.1,5.5 50.6,4.4 50.6,4.4 c 0,0 0,0 0,0 0,0.1 0.1,2.1 -2.6,4.8 -0.7,0.7 -2,2 -3.6,3.6 C 41,16.1 30.8,26.4 27.9,29.2 l -10.3,-10 c 0,0 -1.7,1 -2.9,3.3 -1.2,2.3 -1.4,4.4 -1.4,4.4 0,0 7,6.6 10.9,10.7 3.9,4 7.2,0 7.2,0 l 4.5,-4.5 17.9,-17.8 c -0.1,0.1 2.3,-2.5 0.7,-5.8 z"
           id="path57" /></g></g></g></svg>