<?xml version="1.0" encoding="UTF-8" standalone="no"?>
<!-- Created with Inkscape (http://www.inkscape.org/) -->

<svg
   xmlns:dc="http://purl.org/dc/elements/1.1/"
   xmlns:cc="http://creativecommons.org/ns#"
   xmlns:rdf="http://www.w3.org/1999/02/22-rdf-syntax-ns#"
   xmlns:svg="http://www.w3.org/2000/svg"
   xmlns="http://www.w3.org/2000/svg"
   xmlns:xlink="http://www.w3.org/1999/xlink"
   xmlns:sodipodi="http://sodipodi.sourceforge.net/DTD/sodipodi-0.dtd"
   xmlns:inkscape="http://www.inkscape.org/namespaces/inkscape"
   id="svg2"
   version="1.1"
   inkscape:version="0.48.5 r10040"
   width="300.53"
   height="300.53"
   xml:space="preserve"
   sodipodi:docname="logo-icon.svg"><metadata
     id="metadata8"><rdf:RDF><cc:Work
         rdf:about=""><dc:format>image/svg+xml</dc:format><dc:type
           rdf:resource="http://purl.org/dc/dcmitype/StillImage" /><dc:title></dc:title></cc:Work></rdf:RDF></metadata><defs
     id="defs6"><clipPath
       clipPathUnits="userSpaceOnUse"
       id="clipPath16"><path
         d="m 0,1080 1920,0 L 1920,0 0,0 0,1080 z"
         id="path18"
         inkscape:connector-curvature="0" /></clipPath><clipPath
       clipPathUnits="userSpaceOnUse"
       id="clipPath28"><path
         d="m 710.266,604.042 -68.324,-68.168 4.514,-18.832 25.557,-3.3 c 0,0 54.906,54.66 64.556,64.153 l 0,0 c 9.649,9.494 1.867,22.879 1.867,22.879 l 0,0 c -11.673,20.078 -28.17,29.882 -28.17,29.882 l 0,0 c 13.23,-13.851 0,-26.614 0,-26.614"
         id="path30"
         inkscape:connector-curvature="0" /></clipPath><linearGradient
       x1="0"
       y1="0"
       x2="1"
       y2="0"
       gradientUnits="userSpaceOnUse"
       gradientTransform="matrix(-89.179451,-89.646362,-89.646362,89.179451,723.4082,604.26611)"
       spreadMethod="pad"
       id="linearGradient36"><stop
         style="stop-opacity:1;stop-color:#20b747"
         offset="0"
         id="stop38" /><stop
         style="stop-opacity:1;stop-color:#231f20"
         offset="0.891502"
         id="stop40" /><stop
         style="stop-opacity:1;stop-color:#8dc63f"
         offset="1"
         id="stop42" /></linearGradient><clipPath
       clipPathUnits="userSpaceOnUse"
       id="clipPath50"><path
         d="m 593.196,559.606 c -6.769,-7.249 -7.053,-19.28 0.032,-26.222 l 0,0 37.706,-36.731 c 13.031,-10.739 24.082,0 24.082,0 l 0,0 24.59,24.723 c -14.942,-8.428 -29.736,8.889 -29.736,8.889 l 0,0 -30.539,29.92 c -3.559,3.487 -8.174,5.219 -12.782,5.22 l 0,0 c -4.88,0 -9.751,-1.942 -13.353,-5.799"
         id="path52"
         inkscape:connector-curvature="0" /></clipPath><linearGradient
       x1="0"
       y1="0"
       x2="1"
       y2="0"
       gradientUnits="userSpaceOnUse"
       gradientTransform="matrix(91.589722,0,0,-91.589722,588.01605,528.64276)"
       spreadMethod="pad"
       id="linearGradient58"><stop
         style="stop-opacity:1;stop-color:#20b747"
         offset="0"
         id="stop60" /><stop
         style="stop-opacity:1;stop-color:#8dc63f"
         offset="1"
         id="stop62" /></linearGradient><clipPath
       clipPathUnits="userSpaceOnUse"
       id="clipPath70"><path
         d="m 0,1080 1920,0 L 1920,0 0,0 0,1080 z"
         id="path72"
         inkscape:connector-curvature="0" /></clipPath><clipPath
       clipPathUnits="userSpaceOnUse"
       id="clipPath86"><path
         d="m 579.081,547.177 31.763,-30.965 26.108,26.781 -31.764,30.965 -26.107,-26.781 z"
         id="path88"
         inkscape:connector-curvature="0" /></clipPath><linearGradient
       x1="0"
       y1="0"
       x2="1"
       y2="0"
       gradientUnits="userSpaceOnUse"
       gradientTransform="matrix(26.107292,26.781395,17.682903,-17.237814,594.9624,531.69421)"
       spreadMethod="pad"
       id="linearGradient94"><stop
         style="stop-opacity:1;stop-color:#20b747"
         offset="0"
         id="stop96" /><stop
         style="stop-opacity:1;stop-color:#20b747"
         offset="1"
         id="stop98" /></linearGradient><clipPath
       clipPathUnits="userSpaceOnUse"
       id="clipPath106"><path
         d="m 0,1080 1920,0 L 1920,0 0,0 0,1080 z"
         id="path108"
         inkscape:connector-curvature="0" /></clipPath><linearGradient
       inkscape:collect="always"
       xlink:href="#linearGradient36"
       id="linearGradient4043"
       gradientUnits="userSpaceOnUse"
       gradientTransform="matrix(-89.179451,-89.646362,-89.646362,89.179451,723.4082,604.26611)"
       spreadMethod="pad"
       x1="0"
       y1="0"
       x2="1"
       y2="0" /><linearGradient
       inkscape:collect="always"
       xlink:href="#linearGradient58"
       id="linearGradient4045"
       gradientUnits="userSpaceOnUse"
       gradientTransform="matrix(91.589722,0,0,-91.589722,588.01605,528.64276)"
       spreadMethod="pad"
       x1="0"
       y1="0"
       x2="1"
       y2="0" /><linearGradient
       inkscape:collect="always"
       xlink:href="#linearGradient94"
       id="linearGradient4047"
       gradientUnits="userSpaceOnUse"
       gradientTransform="matrix(26.107292,26.781395,17.682903,-17.237814,594.9624,531.69421)"
       spreadMethod="pad"
       x1="0"
       y1="0"
       x2="1"
       y2="0" /></defs><sodipodi:namedview
     pagecolor="#ffffff"
     bordercolor="#666666"
     borderopacity="1"
     objecttolerance="10"
     gridtolerance="10"
     guidetolerance="10"
     inkscape:pageopacity="0"
     inkscape:pageshadow="2"
     inkscape:window-width="1366"
     inkscape:window-height="702"
     id="namedview4"
     showgrid="false"
     fit-margin-top="10"
     fit-margin-left="10"
     fit-margin-right="10"
     fit-margin-bottom="10"
     inkscape:zoom="0.36651701"
     inkscape:cx="631.4488"
     inkscape:cy="231.5836"
     inkscape:window-x="1600"
     inkscape:window-y="27"
     inkscape:window-maximized="1"
     inkscape:current-layer="g10" /><g
     id="g10"
     inkscape:groupmode="layer"
     inkscape:label="logo"
     transform="matrix(1.25,0,0,-1.25,-646.86813,825.26413)"><g
       id="g4016"
       transform="translate(4.2585489,-4.9453516e-4)"><g
         id="g12"><g
           clip-path="url(#clipPath16)"
           id="g14"><g
             transform="translate(636.7775,427.7873)"
             id="g20"><path
               inkscape:connector-curvature="0"
               id="path22"
               style="fill:#494949;fill-opacity:1;fill-rule:nonzero;stroke:none"
               d="m 0,0 c -15.915,0 -30.688,2.896 -44.327,8.679 -13.639,5.783 -25.418,13.688 -35.338,23.714 -9.919,10.021 -17.669,21.853 -23.249,35.492 -5.579,13.64 -8.369,28.209 -8.369,43.708 l 0,0.62 c 0,15.499 2.79,30.014 8.369,43.552 5.58,13.533 13.33,25.418 23.249,35.647 9.92,10.23 21.8,18.29 35.648,24.179 13.842,5.89 29.138,8.834 45.877,8.834 10.331,0 19.63,-0.828 27.898,-2.479 8.263,-1.657 15.809,-3.928 22.628,-6.82 6.82,-2.896 13.122,-6.408 18.909,-10.539 5.783,-4.137 11.16,-8.68 16.119,-13.639 L 57.036,155.92 c -8.476,7.643 -17.102,13.639 -25.883,17.979 -8.786,4.339 -18.652,6.509 -29.603,6.509 -9.096,0 -17.514,-1.758 -25.264,-5.27 -7.749,-3.516 -14.414,-8.369 -19.993,-14.568 -5.58,-6.2 -9.92,-13.383 -13.019,-21.544 -3.1,-8.166 -4.65,-16.894 -4.65,-26.193 l 0,-0.62 c 0,-9.3 1.55,-18.086 4.65,-26.348 3.099,-8.268 7.386,-15.5 12.864,-21.699 5.473,-6.2 12.089,-11.111 19.839,-14.724 7.749,-3.618 16.274,-5.425 25.573,-5.425 12.399,0 22.885,2.325 31.463,6.974 8.573,4.65 17.097,10.797 25.573,18.444 L 88.964,38.748 C 83.385,32.751 77.596,27.38 71.605,22.628 65.609,17.872 59.051,13.794 51.921,10.384 44.792,6.974 36.989,4.388 28.518,2.635 20.042,0.882 10.539,0 0,0" /></g></g></g><g
         id="g24"><g
           clip-path="url(#clipPath28)"
           id="g26"><g
             id="g32"><g
               id="g34"><path
                 inkscape:connector-curvature="0"
                 id="path44"
                 style="fill:url(#linearGradient4043);stroke:none"
                 d="m 710.266,604.042 -68.324,-68.168 4.514,-18.832 25.557,-3.3 c 0,0 54.906,54.66 64.556,64.153 l 0,0 c 9.649,9.494 1.867,22.879 1.867,22.879 l 0,0 c -11.673,20.078 -28.17,29.882 -28.17,29.882 l 0,0 c 13.23,-13.851 0,-26.614 0,-26.614" /></g></g></g></g><g
         id="g46"><g
           clip-path="url(#clipPath50)"
           id="g48"><g
             id="g54"><g
               id="g56"><path
                 inkscape:connector-curvature="0"
                 id="path64"
                 style="fill:url(#linearGradient4045);stroke:none"
                 d="m 593.196,559.606 c -6.769,-7.249 -7.053,-19.28 0.032,-26.222 l 0,0 37.706,-36.731 c 13.031,-10.739 24.082,0 24.082,0 l 0,0 24.59,24.723 c -14.942,-8.428 -29.736,8.889 -29.736,8.889 l 0,0 -30.539,29.92 c -3.559,3.487 -8.174,5.219 -12.782,5.22 l 0,0 c -4.88,0 -9.751,-1.942 -13.353,-5.799" /></g></g></g></g><g
         style="fill:#20b747;fill-opacity:1"
         id="g66"><g
           style="fill:#20b747;fill-opacity:1"
           clip-path="url(#clipPath70)"
           id="g68"><g
             style="fill:#20b747;fill-opacity:1"
             transform="translate(588.1035,584.861)"
             id="g74"><path
               inkscape:connector-curvature="0"
               id="path76"
               style="fill:#20b747;fill-opacity:1;fill-rule:nonzero;stroke:none"
               d="m 0,0 c 0,-14.456 -11.719,-26.174 -26.174,-26.174 -14.456,0 -26.175,11.718 -26.175,26.174 0,14.456 11.719,26.174 26.175,26.174 C -11.719,26.174 0,14.456 0,0" /></g><g
             style="fill:#20b747;fill-opacity:1"
             transform="translate(588.1035,584.861)"
             id="g78"><path
               inkscape:connector-curvature="0"
               id="path80"
               style="fill:#20b747;fill-opacity:1;stroke:#ffffff;stroke-width:7.87799978;stroke-linecap:butt;stroke-linejoin:miter;stroke-miterlimit:10;stroke-opacity:1;stroke-dasharray:none"
               d="m 0,0 c 0,-14.456 -11.719,-26.174 -26.174,-26.174 -14.456,0 -26.175,11.718 -26.175,26.174 0,14.456 11.719,26.174 26.175,26.174 C -11.719,26.174 0,14.456 0,0 z" /></g></g></g><g
         id="g82"><g
           clip-path="url(#clipPath86)"
           id="g84"><g
             id="g90"><g
               id="g92"><path
                 inkscape:connector-curvature="0"
                 id="path100"
                 style="fill:url(#linearGradient4047);stroke:none"
                 d="m 579.081,547.177 31.763,-30.965 26.108,26.781 -31.764,30.965 -26.107,-26.781 z" /></g></g></g></g></g></g></svg>