<?xml version="1.0" encoding="utf-8"?>
<!-- Generator: Adobe Illustrator 19.2.1, SVG Export Plug-In . SVG Version: 6.00 Build 0)  -->
<svg version="1.1"
	 id="svg2" inkscape:version="0.48.5 r10040" sodipodi:docname="cheque.svg" xmlns:cc="http://creativecommons.org/ns#" xmlns:dc="http://purl.org/dc/elements/1.1/" xmlns:inkscape="http://www.inkscape.org/namespaces/inkscape" xmlns:rdf="http://www.w3.org/1999/02/22-rdf-syntax-ns#" xmlns:sodipodi="http://sodipodi.sourceforge.net/DTD/sodipodi-0.dtd" xmlns:svg="http://www.w3.org/2000/svg"
	 xmlns="http://www.w3.org/2000/svg" xmlns:xlink="http://www.w3.org/1999/xlink" x="0px" y="0px" viewBox="0 0 522 324.9"
	 style="enable-background:new 0 0 522 324.9;" xml:space="preserve">
<style type="text/css">
	.st0{fill:#2EA437;}
	.st1{fill:#ADDCF1;}
	.st2{fill:#E5E6E7;}
	.st3{fill:#514C4B;}
	.st4{fill:#919292;}
	.st5{fill:#F8C836;}
	.st6{fill:#FFFFFF;}
</style>
<sodipodi:namedview  bordercolor="#666666" borderopacity="1.0" fit-margin-bottom="30" fit-margin-left="30" fit-margin-right="30" fit-margin-top="30" id="base" inkscape:current-layer="layer1" inkscape:cx="186.99829" inkscape:cy="170.90581" inkscape:document-units="px" inkscape:guide-bbox="true" inkscape:pageopacity="0.0" inkscape:pageshadow="2" inkscape:window-height="702" inkscape:window-maximized="1" inkscape:window-width="1366" inkscape:window-x="1600" inkscape:window-y="27" inkscape:zoom="1" pagecolor="#ffffff" showgrid="false" showguides="true">
	
		<inkscape:grid  empspacing="5" enabled="true" id="grid4138" originx="-188.39603px" originy="-128.97289px" snapvisiblegridlinesonly="true" type="xygrid" visible="true">
		</inkscape:grid>
</sodipodi:namedview>
<path class="st0" d="M143.1,302.7H23c-5.6,0-10.2-4.6-10.2-10.2v-27.5c0-5.6,4.6-10.2,10.2-10.2h120.1c5.6,0,10.2,4.6,10.2,10.2
	v27.5C153.4,298,148.8,302.7,143.1,302.7z"/>
<path class="st1" d="M467.4,21.2h-415c-7.7,0-14,6.3-14,14v187.7c0,7.7,6.3,14,14,14h415c7.7,0,14-6.3,14-14V35.2
	C481.4,27.5,475.2,21.2,467.4,21.2z"/>
<path class="st2" d="M130.1,71H67.2c-3,0-5.4,2.4-5.4,5.4v2.5c0,3,2.4,5.4,5.4,5.4h62.9c3,0,5.4-2.4,5.4-5.4v-2.5
	C135.6,73.4,133.1,71,130.1,71z"/>
<path class="st2" d="M303.3,96.6h-62.9c-3,0-5.4,2.4-5.4,5.4v2.5c0,3,2.4,5.4,5.4,5.4h62.9c3,0,5.4-2.4,5.4-5.4V102
	C308.8,99,306.3,96.6,303.3,96.6z"/>
<path class="st2" d="M326.7,39.5h-30.4c-3.3,0-6,2.2-6,4.9v2.3c0,2.7,2.7,4.9,6,4.9h30.4c3.3,0,6-2.2,6-4.9v-2.3
	C332.8,41.7,330.1,39.5,326.7,39.5z"/>
<path class="st2" d="M228.8,40.2H207c-2.4,0-4.3,2.1-4.3,4.6v2.1c0,2.5,1.9,4.6,4.3,4.6h21.8c2.4,0,4.3-2.1,4.3-4.6v-2.1
	C233.1,42.3,231.2,40.2,228.8,40.2z"/>
<path class="st2" d="M160.5,40.2h-21.8c-2.4,0-4.3,2.1-4.3,4.6v2.1c0,2.5,1.9,4.6,4.3,4.6h21.8c2.4,0,4.3-2.1,4.3-4.6v-2.1
	C164.8,42.3,162.9,40.2,160.5,40.2z"/>
<path class="st2" d="M94.3,40.2H72.5c-2.4,0-4.3,2.1-4.3,4.6v2.1c0,2.5,1.9,4.6,4.3,4.6h21.8c2.4,0,4.3-2.1,4.3-4.6v-2.1
	C98.6,42.3,96.7,40.2,94.3,40.2z"/>
<path class="st3" d="M320.8,138.5c-2.1,0.3-3.9,0.2-5.4-0.2c1.3-2.1,1.5-4.3,0.4-6c-0.9-1.4-2.5-2.3-4-2.1c-1,0.1-1.8,0.8-2.1,1.8
	c-0.5,1.9,0.1,4.3,1.6,5.9c0.2,0.3,0.6,0.6,1,0.9c-1.8,1.5-4.5,2-6.9,1.3c0,0-0.1,0-0.1,0c0.8-0.8,1.4-1.7,1.9-2.7
	c2-4.3,0.4-6.7-0.4-7.5c-1.3-1.3-3.3-1.7-4.9-1c-1.9,0.8-3,2.9-2.9,5.6c0.1,2.4,1.1,4.5,2.8,5.9c-2.9,1.7-6.8,2.5-10,2.7
	c-2.9,0.2-5.6-0.1-7.6-0.8c5-2,9.4-5,10.4-9.9c0.6-2.8,0.1-4.6-1.4-5.3c-2.7-1.4-7.9,1.7-11.3,5.4c-3.2,3.4-4.2,6.5-3,8.6
	c0.1,0.2,0.3,0.4,0.5,0.6c-6.7,1.8-13.4,2-13.5,2c-0.5,0-1,0.5-1,1c0,0.5,0.5,1,1,1c0,0,0,0,0,0c0.6,0,8.1-0.2,15.4-2.4
	c2.8,1.5,7.1,2,10.6,1.8c4-0.2,8.5-1.3,11.7-3.5c0.4,0.2,0.8,0.3,1.3,0.5c3.3,1,6.9,0.1,9.2-2.2c1.6,0.7,3.9,1.1,7,0.6
	c0.5-0.1,0.9-0.6,0.8-1.1C321.8,138.7,321.3,138.4,320.8,138.5z M280.6,140.1c-0.7-1.2,0.3-3.7,2.7-6.2c3-3.2,6.5-5.2,8.3-5.2
	c0.3,0,0.5,0,0.7,0.1c0.6,0.3,0.7,1.5,0.4,3.2c-1,4.6-5.8,7.4-11.1,9.1C281.1,140.8,280.8,140.5,280.6,140.1z M303.4,139.2
	c-1.2-0.8-2.4-2.3-2.5-4.8c-0.1-1.8,0.5-3.2,1.7-3.7c0.3-0.1,0.6-0.2,0.9-0.2c0.7,0,1.3,0.3,1.8,0.8c1.1,1.1,1.1,3.1,0.1,5.3
	C305,137.6,304.3,138.4,303.4,139.2z M313.6,137.3c-0.3-0.2-0.6-0.5-0.8-0.7c-1.2-1.3-1.4-3-1.1-4.1c0.1-0.3,0.2-0.4,0.5-0.4
	c0,0,0.1,0,0.1,0c0.6,0,1.4,0.4,1.9,1.2C314.8,134.4,314.6,135.8,313.6,137.3z"/>
<rect x="61" y="114.7" class="st4" width="149.5" height="2"/>
<rect x="233.3" y="114.7" class="st4" width="228.3" height="2"/>
<rect x="61" y="89.5" class="st4" width="398.4" height="2"/>
<g>
	<rect x="61" y="57.2" class="st4" width="56.1" height="2"/>
	<rect x="61.1" y="42.9" class="st4" width="2" height="16.2"/>
</g>
<g>
	<rect x="126.6" y="57.2" class="st4" width="56.1" height="2"/>
	<rect x="126.6" y="42.9" class="st4" width="2" height="16.2"/>
</g>
<g>
	<rect x="192.9" y="57.2" class="st4" width="56.1" height="2"/>
	<rect x="193" y="42.9" class="st4" width="2" height="16.2"/>
</g>
<g>
	<rect x="271.7" y="57.2" class="st4" width="188.1" height="2"/>
	<rect x="271.8" y="42.9" class="st4" width="2" height="16.2"/>
</g>
<path class="st5" d="M405,194.2H248.2c-3.1,0-5.6-2.5-5.6-5.6v-9.6c0-3.1,2.5-5.6,5.6-5.6H405c3.1,0,5.6,2.5,5.6,5.6v9.6
	C410.6,191.7,408.1,194.2,405,194.2z"/>
<rect x="253.8" y="150.4" class="st4" width="205.6" height="2"/>
<g>
	<path class="st6" d="M48.4,282.7l4.7,1.5c-0.7,2.6-1.9,4.6-3.6,5.8c-1.7,1.3-3.8,1.9-6.4,1.9c-3.2,0-5.8-1.1-7.8-3.3
		c-2-2.2-3.1-5.1-3.1-8.9c0-4,1-7.1,3.1-9.3c2.1-2.2,4.8-3.3,8.1-3.3c2.9,0,5.3,0.9,7.1,2.6c1.1,1,1.9,2.5,2.5,4.4l-4.8,1.1
		c-0.3-1.2-0.9-2.2-1.8-2.9c-0.9-0.7-2-1.1-3.3-1.1c-1.8,0-3.2,0.6-4.3,1.9c-1.1,1.3-1.7,3.3-1.7,6.2c0,3,0.5,5.2,1.6,6.5
		s2.5,1.9,4.2,1.9c1.3,0,2.4-0.4,3.3-1.2S48,284.5,48.4,282.7z"/>
	<path class="st6" d="M57.1,291.5v-24h7.2l4.3,16.3l4.3-16.3h7.3v24h-4.5v-18.9L71,291.5h-4.7l-4.7-18.9v18.9H57.1z"/>
	<path class="st6" d="M100.4,282.7l4.7,1.5c-0.7,2.6-1.9,4.6-3.6,5.8c-1.7,1.3-3.8,1.9-6.4,1.9c-3.2,0-5.8-1.1-7.8-3.3
		s-3.1-5.1-3.1-8.9c0-4,1-7.1,3.1-9.3c2.1-2.2,4.8-3.3,8.1-3.3c2.9,0,5.3,0.9,7.1,2.6c1.1,1,1.9,2.5,2.5,4.4l-4.8,1.1
		c-0.3-1.2-0.9-2.2-1.8-2.9c-0.9-0.7-2-1.1-3.3-1.1c-1.8,0-3.2,0.6-4.3,1.9c-1.1,1.3-1.7,3.3-1.7,6.2c0,3,0.5,5.2,1.6,6.5
		c1.1,1.3,2.5,1.9,4.2,1.9c1.3,0,2.4-0.4,3.3-1.2S100,284.5,100.4,282.7z"/>
	<path class="st6" d="M108.2,272.2v-4.3H124v3.3c-1.3,1.3-2.6,3.1-4,5.5c-1.3,2.4-2.4,4.9-3.1,7.6c-0.7,2.7-1,5.1-1,7.2h-4.4
		c0.1-3.3,0.8-6.7,2.1-10.1c1.3-3.4,3-6.5,5.2-9.2H108.2z"/>
</g>
<g>
	<path class="st3" d="M253.6,167.3v-7.7h1.5l3.1,5.1v-5.1h1.4v7.7h-1.6l-3.1-5v5H253.6z"/>
	<path class="st3" d="M260.9,164.5c0-0.5,0.1-1,0.4-1.4c0.2-0.5,0.6-0.8,1-1c0.4-0.2,0.9-0.4,1.5-0.4c0.8,0,1.5,0.3,2.1,0.8
		c0.5,0.5,0.8,1.2,0.8,2.1c0,0.8-0.3,1.5-0.8,2.1c-0.5,0.6-1.2,0.8-2,0.8c-0.5,0-1-0.1-1.5-0.3c-0.5-0.2-0.8-0.6-1.1-1
		C261.1,165.7,260.9,165.1,260.9,164.5z M262.5,164.6c0,0.6,0.1,1,0.4,1.3c0.3,0.3,0.6,0.4,1,0.4c0.4,0,0.7-0.1,1-0.4
		c0.3-0.3,0.4-0.7,0.4-1.3c0-0.5-0.1-1-0.4-1.3c-0.3-0.3-0.6-0.4-1-0.4c-0.4,0-0.7,0.1-1,0.4C262.6,163.6,262.5,164,262.5,164.6z"/>
	<path class="st3" d="M267.7,161.8h1.4v0.8c0.5-0.6,1.1-0.9,1.7-0.9c0.4,0,0.7,0.1,0.9,0.2c0.3,0.1,0.5,0.4,0.6,0.7
		c0.2-0.3,0.5-0.5,0.8-0.7c0.3-0.1,0.6-0.2,0.9-0.2c0.4,0,0.8,0.1,1,0.2c0.3,0.2,0.5,0.4,0.6,0.7c0.1,0.2,0.2,0.6,0.2,1.1v3.5h-1.5
		v-3.2c0-0.6-0.1-0.9-0.2-1.1c-0.1-0.2-0.3-0.3-0.6-0.3c-0.2,0-0.4,0.1-0.6,0.2c-0.2,0.1-0.3,0.3-0.4,0.6c-0.1,0.2-0.1,0.6-0.1,1.1
		v2.7h-1.5v-3c0-0.5,0-0.9-0.1-1c-0.1-0.2-0.1-0.3-0.2-0.4c-0.1-0.1-0.3-0.1-0.4-0.1c-0.2,0-0.4,0.1-0.6,0.2
		c-0.2,0.1-0.3,0.3-0.4,0.5c-0.1,0.2-0.1,0.6-0.1,1.1v2.7h-1.5V161.8z"/>
	<path class="st3" d="M280.6,165.6l1.5,0.2c-0.2,0.5-0.5,0.9-0.9,1.2c-0.4,0.3-0.9,0.4-1.5,0.4c-1,0-1.7-0.3-2.1-0.9
		c-0.4-0.5-0.5-1.1-0.5-1.9c0-0.9,0.2-1.6,0.7-2.2s1.1-0.8,1.8-0.8c0.8,0,1.5,0.3,2,0.8c0.5,0.5,0.7,1.4,0.7,2.5h-3.7
		c0,0.4,0.1,0.8,0.4,1c0.2,0.2,0.5,0.4,0.8,0.4c0.2,0,0.4-0.1,0.6-0.2C280.4,166.1,280.5,165.9,280.6,165.6z M280.6,164.1
		c0-0.4-0.1-0.7-0.3-1c-0.2-0.2-0.5-0.3-0.8-0.3c-0.3,0-0.6,0.1-0.8,0.3c-0.2,0.2-0.3,0.6-0.3,1H280.6z"/>
	<path class="st3" d="M291.4,167.3H290v-0.8c-0.2,0.3-0.5,0.6-0.8,0.7c-0.3,0.2-0.6,0.2-0.9,0.2c-0.6,0-1.2-0.3-1.6-0.8
		c-0.5-0.5-0.7-1.2-0.7-2.2c0-0.9,0.2-1.7,0.7-2.1c0.4-0.5,1-0.7,1.7-0.7c0.6,0,1.2,0.3,1.6,0.8v-2.8h1.5V167.3z M287.4,164.4
		c0,0.6,0.1,1,0.2,1.3c0.2,0.4,0.6,0.6,1,0.6c0.3,0,0.6-0.1,0.9-0.4c0.2-0.3,0.4-0.7,0.4-1.3c0-0.6-0.1-1.1-0.3-1.4
		c-0.2-0.3-0.5-0.4-0.9-0.4c-0.3,0-0.6,0.1-0.9,0.4C287.6,163.5,287.4,163.9,287.4,164.4z"/>
	<path class="st3" d="M292.5,164.5c0-0.5,0.1-1,0.4-1.4c0.2-0.5,0.6-0.8,1-1c0.4-0.2,0.9-0.4,1.5-0.4c0.8,0,1.5,0.3,2.1,0.8
		c0.5,0.5,0.8,1.2,0.8,2.1c0,0.8-0.3,1.5-0.8,2.1c-0.5,0.6-1.2,0.8-2,0.8c-0.5,0-1-0.1-1.5-0.3c-0.5-0.2-0.8-0.6-1.1-1
		C292.6,165.7,292.5,165.1,292.5,164.5z M294,164.6c0,0.6,0.1,1,0.4,1.3c0.3,0.3,0.6,0.4,1,0.4c0.4,0,0.7-0.1,1-0.4
		c0.3-0.3,0.4-0.7,0.4-1.3c0-0.5-0.1-1-0.4-1.3c-0.3-0.3-0.6-0.4-1-0.4c-0.4,0-0.7,0.1-1,0.4C294.1,163.6,294,164,294,164.6z"/>
	<path class="st3" d="M305.5,165.6l1.5,0.2c-0.2,0.5-0.5,0.9-0.9,1.2c-0.4,0.3-0.9,0.4-1.5,0.4c-1,0-1.7-0.3-2.1-0.9
		c-0.4-0.5-0.5-1.1-0.5-1.9c0-0.9,0.2-1.6,0.7-2.2c0.5-0.5,1.1-0.8,1.8-0.8c0.8,0,1.5,0.3,2,0.8c0.5,0.5,0.7,1.4,0.7,2.5h-3.7
		c0,0.4,0.1,0.8,0.4,1c0.2,0.2,0.5,0.4,0.8,0.4c0.2,0,0.4-0.1,0.6-0.2C305.3,166.1,305.4,165.9,305.5,165.6z M305.6,164.1
		c0-0.4-0.1-0.7-0.3-1c-0.2-0.2-0.5-0.3-0.8-0.3c-0.3,0-0.6,0.1-0.8,0.3c-0.2,0.2-0.3,0.6-0.3,1H305.6z"/>
	<path class="st3" d="M308.1,161.8h1.4v0.8c0.5-0.6,1.1-0.9,1.7-0.9c0.4,0,0.7,0.1,0.9,0.2c0.3,0.1,0.5,0.4,0.6,0.7
		c0.2-0.3,0.5-0.5,0.8-0.7c0.3-0.1,0.6-0.2,0.9-0.2c0.4,0,0.8,0.1,1,0.2c0.3,0.2,0.5,0.4,0.6,0.7c0.1,0.2,0.2,0.6,0.2,1.1v3.5h-1.5
		v-3.2c0-0.6-0.1-0.9-0.2-1.1c-0.1-0.2-0.3-0.3-0.6-0.3c-0.2,0-0.4,0.1-0.6,0.2c-0.2,0.1-0.3,0.3-0.4,0.6c-0.1,0.2-0.1,0.6-0.1,1.1
		v2.7h-1.5v-3c0-0.5,0-0.9-0.1-1c-0.1-0.2-0.1-0.3-0.2-0.4c-0.1-0.1-0.3-0.1-0.4-0.1c-0.2,0-0.4,0.1-0.6,0.2
		c-0.2,0.1-0.3,0.3-0.4,0.5c-0.1,0.2-0.1,0.6-0.1,1.1v2.7h-1.5V161.8z"/>
	<path class="st3" d="M317.8,161v-1.4h1.5v1.4H317.8z M317.8,167.3v-5.5h1.5v5.5H317.8z"/>
	<path class="st3" d="M320.2,165.8l1.5-0.2c0.1,0.3,0.2,0.5,0.4,0.7c0.2,0.1,0.5,0.2,0.8,0.2c0.4,0,0.7-0.1,0.9-0.2
		c0.1-0.1,0.2-0.2,0.2-0.4c0-0.1,0-0.2-0.1-0.3c-0.1-0.1-0.2-0.1-0.5-0.2c-1.2-0.3-1.9-0.5-2.3-0.7c-0.4-0.3-0.7-0.7-0.7-1.2
		c0-0.5,0.2-0.9,0.6-1.2c0.4-0.3,1-0.5,1.8-0.5c0.8,0,1.3,0.1,1.7,0.4c0.4,0.2,0.6,0.6,0.8,1.1l-1.4,0.3c-0.1-0.2-0.2-0.4-0.3-0.5
		c-0.2-0.1-0.4-0.2-0.7-0.2c-0.4,0-0.7,0.1-0.8,0.2c-0.1,0.1-0.2,0.2-0.2,0.3c0,0.1,0,0.2,0.1,0.3c0.1,0.1,0.6,0.2,1.4,0.4
		c0.8,0.2,1.3,0.4,1.6,0.7c0.3,0.3,0.5,0.6,0.5,1.1c0,0.5-0.2,0.9-0.6,1.3c-0.4,0.4-1.1,0.5-1.9,0.5c-0.8,0-1.4-0.2-1.8-0.5
		C320.7,166.7,320.4,166.3,320.2,165.8z"/>
	<path class="st3" d="M326.2,165.8l1.5-0.2c0.1,0.3,0.2,0.5,0.4,0.7c0.2,0.1,0.5,0.2,0.8,0.2c0.4,0,0.7-0.1,0.9-0.2
		c0.1-0.1,0.2-0.2,0.2-0.4c0-0.1,0-0.2-0.1-0.3c-0.1-0.1-0.2-0.1-0.5-0.2c-1.2-0.3-1.9-0.5-2.3-0.7c-0.4-0.3-0.7-0.7-0.7-1.2
		c0-0.5,0.2-0.9,0.6-1.2c0.4-0.3,1-0.5,1.8-0.5c0.8,0,1.3,0.1,1.7,0.4s0.6,0.6,0.8,1.1l-1.4,0.3c-0.1-0.2-0.2-0.4-0.3-0.5
		c-0.2-0.1-0.4-0.2-0.7-0.2c-0.4,0-0.7,0.1-0.8,0.2c-0.1,0.1-0.2,0.2-0.2,0.3c0,0.1,0,0.2,0.1,0.3c0.1,0.1,0.6,0.2,1.4,0.4
		c0.8,0.2,1.3,0.4,1.6,0.7c0.3,0.3,0.5,0.6,0.5,1.1c0,0.5-0.2,0.9-0.6,1.3c-0.4,0.4-1.1,0.5-1.9,0.5c-0.8,0-1.4-0.2-1.8-0.5
		C326.6,166.7,326.3,166.3,326.2,165.8z"/>
	<path class="st3" d="M332.3,164.5c0-0.5,0.1-1,0.4-1.4c0.2-0.5,0.6-0.8,1-1c0.4-0.2,0.9-0.4,1.5-0.4c0.8,0,1.5,0.3,2.1,0.8
		c0.5,0.5,0.8,1.2,0.8,2.1c0,0.8-0.3,1.5-0.8,2.1c-0.5,0.6-1.2,0.8-2,0.8c-0.5,0-1-0.1-1.5-0.3c-0.5-0.2-0.8-0.6-1.1-1
		C332.4,165.7,332.3,165.1,332.3,164.5z M333.8,164.6c0,0.6,0.1,1,0.4,1.3c0.3,0.3,0.6,0.4,1,0.4c0.4,0,0.7-0.1,1-0.4
		c0.3-0.3,0.4-0.7,0.4-1.3c0-0.5-0.1-1-0.4-1.3c-0.3-0.3-0.6-0.4-1-0.4c-0.4,0-0.7,0.1-1,0.4C333.9,163.6,333.8,164,333.8,164.6z"/>
	<path class="st3" d="M340.6,167.3h-1.5v-5.5h1.4v0.8c0.2-0.4,0.4-0.6,0.6-0.7c0.2-0.1,0.4-0.2,0.6-0.2c0.3,0,0.7,0.1,1,0.3
		l-0.5,1.3c-0.2-0.2-0.5-0.2-0.7-0.2c-0.2,0-0.4,0.1-0.5,0.2c-0.1,0.1-0.3,0.3-0.3,0.6c-0.1,0.3-0.1,0.9-0.1,1.9V167.3z"/>
	<path class="st3" d="M351.4,167.3H350v-0.8c-0.2,0.3-0.5,0.6-0.8,0.7c-0.3,0.2-0.6,0.2-0.9,0.2c-0.6,0-1.2-0.3-1.6-0.8
		c-0.5-0.5-0.7-1.2-0.7-2.2c0-0.9,0.2-1.7,0.7-2.1c0.4-0.5,1-0.7,1.7-0.7c0.6,0,1.2,0.3,1.6,0.8v-2.8h1.5V167.3z M347.5,164.4
		c0,0.6,0.1,1,0.2,1.3c0.2,0.4,0.6,0.6,1,0.6c0.3,0,0.6-0.1,0.9-0.4c0.2-0.3,0.4-0.7,0.4-1.3c0-0.6-0.1-1.1-0.3-1.4
		c-0.2-0.3-0.5-0.4-0.9-0.4c-0.3,0-0.6,0.1-0.9,0.4C347.6,163.5,347.5,163.9,347.5,164.4z"/>
	<path class="st3" d="M352.5,164.5c0-0.5,0.1-1,0.4-1.4c0.2-0.5,0.6-0.8,1-1c0.4-0.2,0.9-0.4,1.5-0.4c0.8,0,1.5,0.3,2.1,0.8
		c0.5,0.5,0.8,1.2,0.8,2.1c0,0.8-0.3,1.5-0.8,2.1c-0.5,0.6-1.2,0.8-2,0.8c-0.5,0-1-0.1-1.5-0.3c-0.5-0.2-0.8-0.6-1.1-1
		C352.6,165.7,352.5,165.1,352.5,164.5z M354,164.6c0,0.6,0.1,1,0.4,1.3c0.3,0.3,0.6,0.4,1,0.4c0.4,0,0.7-0.1,1-0.4
		c0.3-0.3,0.4-0.7,0.4-1.3c0-0.5-0.1-1-0.4-1.3c-0.3-0.3-0.6-0.4-1-0.4c-0.4,0-0.7,0.1-1,0.4C354.1,163.6,354,164,354,164.6z"/>
	<path class="st3" d="M367.2,163.4l-1.4,0.3c0-0.3-0.2-0.5-0.3-0.7c-0.2-0.1-0.4-0.2-0.7-0.2c-0.4,0-0.7,0.1-0.9,0.4
		c-0.2,0.3-0.3,0.7-0.3,1.3c0,0.7,0.1,1.1,0.3,1.4c0.2,0.3,0.5,0.4,0.9,0.4c0.3,0,0.5-0.1,0.7-0.2c0.2-0.2,0.3-0.4,0.4-0.8l1.4,0.2
		c-0.2,0.7-0.4,1.2-0.9,1.5s-1,0.5-1.7,0.5c-0.8,0-1.5-0.3-1.9-0.8c-0.5-0.5-0.7-1.2-0.7-2.1c0-0.9,0.2-1.6,0.7-2.1
		c0.5-0.5,1.1-0.8,2-0.8c0.7,0,1.2,0.1,1.6,0.4C366.7,162.4,367,162.8,367.2,163.4z"/>
	<path class="st3" d="M369.8,159.7v2.8c0.5-0.6,1-0.8,1.7-0.8c0.3,0,0.6,0.1,0.9,0.2c0.3,0.1,0.5,0.3,0.6,0.5
		c0.1,0.2,0.2,0.4,0.3,0.6c0.1,0.2,0.1,0.6,0.1,1.1v3.3h-1.5v-2.9c0-0.6,0-0.9-0.1-1.1c-0.1-0.2-0.2-0.3-0.3-0.4
		c-0.1-0.1-0.3-0.1-0.5-0.1c-0.2,0-0.5,0.1-0.7,0.2c-0.2,0.1-0.3,0.3-0.4,0.5c-0.1,0.2-0.1,0.6-0.1,1.1v2.8h-1.5v-7.7H369.8z"/>
	<path class="st3" d="M378.1,165.6l1.5,0.2c-0.2,0.5-0.5,0.9-0.9,1.2c-0.4,0.3-0.9,0.4-1.5,0.4c-1,0-1.7-0.3-2.1-0.9
		c-0.4-0.5-0.5-1.1-0.5-1.9c0-0.9,0.2-1.6,0.7-2.2s1.1-0.8,1.8-0.8c0.8,0,1.5,0.3,2,0.8c0.5,0.5,0.7,1.4,0.7,2.5h-3.7
		c0,0.4,0.1,0.8,0.4,1c0.2,0.2,0.5,0.4,0.8,0.4c0.2,0,0.4-0.1,0.6-0.2C377.9,166.1,378,165.9,378.1,165.6z M378.1,164.1
		c0-0.4-0.1-0.7-0.3-1c-0.2-0.2-0.5-0.3-0.8-0.3c-0.3,0-0.6,0.1-0.8,0.3c-0.2,0.2-0.3,0.6-0.3,1H378.1z"/>
	<path class="st3" d="M384.4,169.5v-2.8c-0.2,0.2-0.4,0.4-0.7,0.6c-0.3,0.1-0.6,0.2-0.9,0.2c-0.6,0-1.1-0.2-1.6-0.7
		c-0.5-0.6-0.7-1.3-0.7-2.3c0-0.9,0.2-1.6,0.7-2.1c0.5-0.5,1-0.8,1.7-0.8c0.4,0,0.7,0.1,1,0.2c0.3,0.2,0.5,0.4,0.7,0.7v-0.8h1.4v7.7
		H384.4z M384.5,164.5c0-0.6-0.1-1-0.3-1.3c-0.2-0.3-0.5-0.4-0.9-0.4c-0.4,0-0.7,0.1-0.9,0.4c-0.2,0.3-0.4,0.7-0.4,1.3
		c0,0.6,0.1,1,0.3,1.3c0.2,0.3,0.5,0.4,0.9,0.4s0.6-0.2,0.9-0.5S384.5,165.1,384.5,164.5z"/>
	<path class="st3" d="M391,167.3v-0.8c-0.2,0.3-0.5,0.5-0.8,0.7s-0.7,0.3-1,0.3c-0.4,0-0.7-0.1-1-0.2c-0.3-0.2-0.5-0.4-0.6-0.7
		c-0.1-0.3-0.2-0.7-0.2-1.2v-3.5h1.5v2.5c0,0.8,0,1.3,0.1,1.4c0.1,0.2,0.2,0.3,0.3,0.4c0.1,0.1,0.3,0.2,0.5,0.2
		c0.3,0,0.5-0.1,0.7-0.2c0.2-0.1,0.3-0.3,0.4-0.5c0.1-0.2,0.1-0.7,0.1-1.5v-2.3h1.5v5.5H391z"/>
	<path class="st3" d="M397.1,165.6l1.5,0.2c-0.2,0.5-0.5,0.9-0.9,1.2c-0.4,0.3-0.9,0.4-1.5,0.4c-1,0-1.7-0.3-2.1-0.9
		c-0.4-0.5-0.5-1.1-0.5-1.9c0-0.9,0.2-1.6,0.7-2.2s1.1-0.8,1.8-0.8c0.8,0,1.5,0.3,2,0.8c0.5,0.5,0.7,1.4,0.7,2.5h-3.7
		c0,0.4,0.1,0.8,0.4,1c0.2,0.2,0.5,0.4,0.8,0.4c0.2,0,0.4-0.1,0.6-0.2C396.9,166.1,397,165.9,397.1,165.6z M397.2,164.1
		c0-0.4-0.1-0.7-0.3-1c-0.2-0.2-0.5-0.3-0.8-0.3c-0.3,0-0.6,0.1-0.8,0.3c-0.2,0.2-0.3,0.6-0.3,1H397.2z"/>
</g>
<g>
	<path class="st3" d="M258.9,185l1.6,0.5c-0.2,0.9-0.7,1.6-1.2,2c-0.6,0.4-1.3,0.7-2.2,0.7c-1.1,0-2-0.4-2.7-1.1
		c-0.7-0.7-1.1-1.8-1.1-3.1c0-1.4,0.4-2.4,1.1-3.2c0.7-0.8,1.6-1.1,2.8-1.1c1,0,1.8,0.3,2.5,0.9c0.4,0.4,0.7,0.9,0.8,1.5l-1.6,0.4
		c-0.1-0.4-0.3-0.8-0.6-1c-0.3-0.2-0.7-0.4-1.1-0.4c-0.6,0-1.1,0.2-1.5,0.7c-0.4,0.4-0.6,1.1-0.6,2.1c0,1,0.2,1.8,0.6,2.2
		c0.4,0.4,0.9,0.7,1.5,0.7c0.4,0,0.8-0.1,1.1-0.4C258.5,186,258.8,185.6,258.9,185z"/>
	<path class="st3" d="M261.9,188v-8.2h2.7c1,0,1.7,0,2,0.1c0.5,0.1,0.9,0.4,1.2,0.8s0.5,0.9,0.5,1.6c0,0.5-0.1,0.9-0.3,1.3
		c-0.2,0.3-0.4,0.6-0.7,0.8c-0.3,0.2-0.6,0.3-0.9,0.4c-0.4,0.1-1,0.1-1.7,0.1h-1.1v3.1H261.9z M263.6,181.2v2.3h0.9
		c0.7,0,1.1,0,1.3-0.1c0.2-0.1,0.4-0.2,0.5-0.4c0.1-0.2,0.2-0.4,0.2-0.6c0-0.3-0.1-0.5-0.3-0.7c-0.2-0.2-0.4-0.3-0.7-0.4
		c-0.2,0-0.6-0.1-1.2-0.1H263.6z"/>
	<path class="st3" d="M269.6,188v-8.2h5.6v1.4h-4v1.9h3.4v1.4h-3.4v3.5H269.6z"/>
	<path class="st3" d="M275.8,188.1l2-8.5h1.2l-2.1,8.5H275.8z"/>
	<path class="st3" d="M285.1,185l1.6,0.5c-0.2,0.9-0.7,1.6-1.2,2s-1.3,0.7-2.2,0.7c-1.1,0-2-0.4-2.7-1.1c-0.7-0.7-1.1-1.8-1.1-3.1
		c0-1.4,0.4-2.4,1.1-3.2c0.7-0.8,1.6-1.1,2.8-1.1c1,0,1.8,0.3,2.5,0.9c0.4,0.4,0.7,0.9,0.8,1.5l-1.6,0.4c-0.1-0.4-0.3-0.8-0.6-1
		c-0.3-0.2-0.7-0.4-1.1-0.4c-0.6,0-1.1,0.2-1.5,0.7c-0.4,0.4-0.6,1.1-0.6,2.1c0,1,0.2,1.8,0.6,2.2c0.4,0.4,0.9,0.7,1.5,0.7
		c0.4,0,0.8-0.1,1.1-0.4C284.7,186,284.9,185.6,285.1,185z"/>
	<path class="st3" d="M288.1,188v-8.2h1.6l3.4,5.5v-5.5h1.5v8.2H293l-3.3-5.4v5.4H288.1z"/>
	<path class="st3" d="M296.4,188v-8.2h2.7c1,0,1.7,0,2,0.1c0.5,0.1,0.9,0.4,1.2,0.8s0.5,0.9,0.5,1.6c0,0.5-0.1,0.9-0.3,1.3
		c-0.2,0.3-0.4,0.6-0.7,0.8c-0.3,0.2-0.6,0.3-0.9,0.4c-0.4,0.1-1,0.1-1.7,0.1h-1.1v3.1H296.4z M298.1,181.2v2.3h0.9
		c0.7,0,1.1,0,1.3-0.1c0.2-0.1,0.4-0.2,0.5-0.4c0.1-0.2,0.2-0.4,0.2-0.6c0-0.3-0.1-0.5-0.3-0.7c-0.2-0.2-0.4-0.3-0.7-0.4
		c-0.2,0-0.6-0.1-1.2-0.1H298.1z"/>
	<path class="st3" d="M307,179.8h1.7v5.2c0,0.7-0.1,1.2-0.2,1.6c-0.2,0.5-0.5,0.9-0.9,1.2c-0.4,0.3-1,0.4-1.7,0.4
		c-0.8,0-1.4-0.2-1.9-0.7c-0.4-0.5-0.7-1.1-0.7-2l1.6-0.2c0,0.5,0.1,0.8,0.2,1c0.2,0.3,0.5,0.4,0.8,0.4c0.4,0,0.6-0.1,0.8-0.3
		c0.2-0.2,0.2-0.6,0.2-1.3V179.8z"/>
	<path class="st3" d="M310.7,183.6V182h1.6v1.6H310.7z M310.7,188v-1.6h1.6v1.6H310.7z"/>
	<path class="st3" d="M317.1,185.9l1.6-0.2c0,0.4,0.2,0.6,0.4,0.8c0.2,0.2,0.5,0.3,0.8,0.3c0.3,0,0.6-0.1,0.8-0.4
		c0.2-0.3,0.3-0.7,0.3-1.2c0-0.5-0.1-0.9-0.3-1.1c-0.2-0.3-0.5-0.4-0.9-0.4c-0.5,0-0.9,0.2-1.2,0.6l-1.3-0.2l0.8-4.3h4.2v1.5h-3
		l-0.2,1.4c0.4-0.2,0.7-0.3,1.1-0.3c0.7,0,1.3,0.3,1.8,0.8c0.5,0.5,0.7,1.2,0.7,2c0,0.7-0.2,1.3-0.6,1.8c-0.5,0.7-1.3,1.1-2.2,1.1
		c-0.8,0-1.4-0.2-1.9-0.6C317.5,187.1,317.2,186.6,317.1,185.9z"/>
	<path class="st3" d="M326.2,179.7c0.8,0,1.4,0.3,1.9,0.9c0.5,0.7,0.8,1.8,0.8,3.3c0,1.6-0.3,2.7-0.8,3.4c-0.4,0.6-1.1,0.8-1.9,0.8
		c-0.8,0-1.4-0.3-1.9-0.9c-0.5-0.6-0.7-1.7-0.7-3.3c0-1.5,0.3-2.7,0.8-3.3C324.8,180,325.4,179.7,326.2,179.7z M326.2,181
		c-0.2,0-0.4,0.1-0.5,0.2c-0.2,0.1-0.3,0.3-0.3,0.7c-0.1,0.4-0.2,1.1-0.2,2.1c0,1,0,1.6,0.1,2c0.1,0.4,0.2,0.6,0.4,0.7
		c0.1,0.1,0.3,0.2,0.5,0.2s0.4-0.1,0.5-0.2s0.3-0.3,0.3-0.7c0.1-0.4,0.2-1.1,0.2-2.1c0-1,0-1.6-0.1-2c-0.1-0.4-0.2-0.6-0.4-0.7
		C326.5,181.1,326.4,181,326.2,181z"/>
	<path class="st3" d="M333,188v-1.7h-3.4V185l3.6-5.2h1.3v5.2h1v1.4h-1v1.7H333z M333,184.9v-2.8l-1.9,2.8H333z"/>
	<path class="st3" d="M336.6,188v-1.6h1.6v1.6H336.6z"/>
	<path class="st3" d="M343.5,188h-1.6V182c-0.6,0.5-1.3,0.9-2,1.2v-1.4c0.4-0.1,0.9-0.4,1.3-0.8c0.5-0.4,0.8-0.8,1-1.3h1.3V188z"/>
	<path class="st3" d="M345.8,185.8l1.5-0.2c0,0.4,0.2,0.7,0.4,0.9c0.2,0.2,0.5,0.3,0.8,0.3c0.3,0,0.6-0.1,0.8-0.4
		c0.2-0.2,0.3-0.6,0.3-1c0-0.4-0.1-0.7-0.3-0.9c-0.2-0.2-0.5-0.3-0.8-0.3c-0.2,0-0.4,0-0.7,0.1l0.2-1.3c0.4,0,0.8-0.1,1-0.3
		c0.2-0.2,0.3-0.5,0.3-0.8c0-0.3-0.1-0.5-0.2-0.7c-0.2-0.2-0.4-0.2-0.7-0.2c-0.3,0-0.5,0.1-0.7,0.3c-0.2,0.2-0.3,0.5-0.3,0.8
		l-1.5-0.2c0.1-0.5,0.3-0.9,0.5-1.2c0.2-0.3,0.5-0.5,0.9-0.7c0.4-0.2,0.8-0.3,1.2-0.3c0.8,0,1.4,0.2,1.9,0.7
		c0.4,0.4,0.6,0.9,0.6,1.4c0,0.7-0.4,1.3-1.2,1.7c0.5,0.1,0.8,0.3,1.1,0.7c0.3,0.4,0.4,0.8,0.4,1.3c0,0.7-0.3,1.3-0.8,1.8
		c-0.5,0.5-1.2,0.8-2,0.8c-0.7,0-1.4-0.2-1.9-0.6C346.2,187.1,345.9,186.5,345.8,185.8z"/>
	<path class="st3" d="M357.6,186.5v1.5h-5.5c0.1-0.6,0.2-1.1,0.5-1.6c0.3-0.5,0.9-1.2,1.8-2c0.7-0.7,1.1-1.1,1.3-1.3
		c0.2-0.3,0.3-0.6,0.3-1c0-0.4-0.1-0.6-0.3-0.8c-0.2-0.2-0.5-0.3-0.8-0.3c-0.3,0-0.6,0.1-0.8,0.3c-0.2,0.2-0.3,0.5-0.3,1l-1.6-0.2
		c0.1-0.9,0.4-1.5,0.9-1.9c0.5-0.4,1.1-0.6,1.9-0.6c0.8,0,1.4,0.2,1.9,0.7c0.5,0.4,0.7,1,0.7,1.6c0,0.4-0.1,0.7-0.2,1.1
		c-0.1,0.3-0.3,0.7-0.6,1.1c-0.2,0.2-0.5,0.6-1,1c-0.5,0.5-0.8,0.8-0.9,0.9c-0.1,0.1-0.2,0.3-0.3,0.4H357.6z"/>
	<path class="st3" d="M359,188v-1.6h1.6v1.6H359z"/>
	<path class="st3" d="M363.2,183.5c-0.4-0.2-0.7-0.4-0.9-0.7c-0.2-0.3-0.3-0.6-0.3-1c0-0.6,0.2-1.1,0.6-1.5c0.4-0.4,1-0.6,1.8-0.6
		c0.8,0,1.4,0.2,1.8,0.6c0.4,0.4,0.6,0.9,0.6,1.5c0,0.4-0.1,0.7-0.3,1c-0.2,0.3-0.5,0.5-0.8,0.7c0.5,0.2,0.8,0.5,1,0.8
		s0.4,0.8,0.4,1.2c0,0.8-0.2,1.4-0.7,1.9s-1.1,0.7-1.9,0.7c-0.7,0-1.4-0.2-1.9-0.6c-0.6-0.5-0.9-1.1-0.9-1.9c0-0.4,0.1-0.9,0.3-1.2
		C362.4,184,362.7,183.8,363.2,183.5z M363.4,185.5c0,0.4,0.1,0.8,0.3,1c0.2,0.2,0.5,0.4,0.8,0.4c0.3,0,0.6-0.1,0.8-0.4
		c0.2-0.2,0.3-0.6,0.3-1c0-0.4-0.1-0.7-0.3-0.9c-0.2-0.2-0.5-0.4-0.8-0.4c-0.4,0-0.7,0.1-0.9,0.4
		C363.5,184.9,363.4,185.2,363.4,185.5z M363.5,182c0,0.3,0.1,0.6,0.3,0.7c0.2,0.2,0.4,0.3,0.7,0.3c0.3,0,0.5-0.1,0.7-0.3
		c0.2-0.2,0.3-0.4,0.3-0.7c0-0.3-0.1-0.5-0.3-0.7c-0.2-0.2-0.4-0.3-0.7-0.3c-0.3,0-0.5,0.1-0.7,0.3
		C363.6,181.4,363.5,181.7,363.5,182z"/>
	<path class="st3" d="M373.6,186.5v1.5H368c0.1-0.6,0.2-1.1,0.5-1.6c0.3-0.5,0.9-1.2,1.8-2c0.7-0.7,1.1-1.1,1.3-1.3
		c0.2-0.3,0.3-0.6,0.3-1c0-0.4-0.1-0.6-0.3-0.8c-0.2-0.2-0.5-0.3-0.8-0.3c-0.3,0-0.6,0.1-0.8,0.3c-0.2,0.2-0.3,0.5-0.3,1l-1.6-0.2
		c0.1-0.9,0.4-1.5,0.9-1.9c0.5-0.4,1.1-0.6,1.9-0.6c0.8,0,1.4,0.2,1.9,0.7s0.7,1,0.7,1.6c0,0.4-0.1,0.7-0.2,1.1
		c-0.1,0.3-0.3,0.7-0.6,1.1c-0.2,0.2-0.5,0.6-1,1c-0.5,0.5-0.8,0.8-0.9,0.9c-0.1,0.1-0.2,0.3-0.3,0.4H373.6z"/>
	<path class="st3" d="M374.6,185.9l1.6-0.2c0,0.4,0.2,0.6,0.4,0.8c0.2,0.2,0.5,0.3,0.8,0.3c0.3,0,0.6-0.1,0.8-0.4
		c0.2-0.3,0.3-0.7,0.3-1.2c0-0.5-0.1-0.9-0.3-1.1c-0.2-0.3-0.5-0.4-0.9-0.4c-0.5,0-0.9,0.2-1.2,0.6l-1.3-0.2l0.8-4.3h4.2v1.5h-3
		l-0.2,1.4c0.4-0.2,0.7-0.3,1.1-0.3c0.7,0,1.3,0.3,1.8,0.8c0.5,0.5,0.7,1.2,0.7,2c0,0.7-0.2,1.3-0.6,1.8c-0.5,0.7-1.3,1.1-2.2,1.1
		c-0.8,0-1.4-0.2-1.9-0.6C375,187.1,374.7,186.6,374.6,185.9z"/>
	<path class="st3" d="M381.2,185.8v-1.6h3.1v1.6H381.2z"/>
	<path class="st3" d="M387.5,179.7c0.8,0,1.4,0.3,1.9,0.9c0.5,0.7,0.8,1.8,0.8,3.3c0,1.6-0.3,2.7-0.8,3.4c-0.4,0.6-1.1,0.8-1.9,0.8
		c-0.8,0-1.4-0.3-1.9-0.9c-0.5-0.6-0.7-1.7-0.7-3.3c0-1.5,0.3-2.7,0.8-3.3C386.1,180,386.7,179.7,387.5,179.7z M387.5,181
		c-0.2,0-0.4,0.1-0.5,0.2c-0.2,0.1-0.3,0.3-0.3,0.7c-0.1,0.4-0.2,1.1-0.2,2.1c0,1,0,1.6,0.1,2c0.1,0.4,0.2,0.6,0.4,0.7
		c0.1,0.1,0.3,0.2,0.5,0.2s0.4-0.1,0.5-0.2s0.3-0.3,0.3-0.7c0.1-0.4,0.2-1.1,0.2-2.1c0-1,0-1.6-0.1-2c-0.1-0.4-0.2-0.6-0.4-0.7
		C387.9,181.1,387.7,181,387.5,181z"/>
	<path class="st3" d="M391.2,185.8l1.5-0.2c0,0.4,0.2,0.7,0.4,0.9c0.2,0.2,0.5,0.3,0.8,0.3c0.3,0,0.6-0.1,0.8-0.4
		c0.2-0.2,0.3-0.6,0.3-1c0-0.4-0.1-0.7-0.3-0.9c-0.2-0.2-0.5-0.3-0.8-0.3c-0.2,0-0.4,0-0.7,0.1l0.2-1.3c0.4,0,0.8-0.1,1-0.3
		c0.2-0.2,0.3-0.5,0.3-0.8c0-0.3-0.1-0.5-0.2-0.7c-0.2-0.2-0.4-0.2-0.7-0.2c-0.3,0-0.5,0.1-0.7,0.3c-0.2,0.2-0.3,0.5-0.3,0.8
		l-1.5-0.2c0.1-0.5,0.3-0.9,0.5-1.2c0.2-0.3,0.5-0.5,0.9-0.7c0.4-0.2,0.8-0.3,1.2-0.3c0.8,0,1.4,0.2,1.9,0.7
		c0.4,0.4,0.6,0.9,0.6,1.4c0,0.7-0.4,1.3-1.2,1.7c0.5,0.1,0.8,0.3,1.1,0.7c0.3,0.4,0.4,0.8,0.4,1.3c0,0.7-0.3,1.3-0.8,1.8
		c-0.5,0.5-1.2,0.8-2,0.8c-0.7,0-1.4-0.2-1.9-0.6C391.5,187.1,391.2,186.5,391.2,185.8z"/>
</g>
<path class="st3" d="M354.6,140.1c-2.5,0.8-9.8,2.6-13.2,1.3c-1.2-0.5-1.5-1.2-1.8-2.2c-0.8-2.4-2-4.2-8.6-3.5
	c-4.6,0.4-7.8,1.7-9.3,3.7c-1.2,1.5-1,3-0.9,3.1c0.1,0.5,0.6,0.9,1.1,0.8c0.5-0.1,0.9-0.6,0.8-1.1c0,0-0.1-0.7,0.6-1.6
	c0.8-1.1,2.9-2.5,8-3c5.6-0.5,6,0.7,6.5,2.2c0.4,1.1,0.9,2.6,3,3.4c1.1,0.4,2.4,0.6,3.8,0.6c4.7,0,10.3-1.7,10.6-1.8
	c0.5-0.2,0.8-0.7,0.6-1.2C355.7,140.3,355.1,140,354.6,140.1z"/>
<g>
	
		<rect x="20.7" y="236.5" transform="matrix(0.5361 -0.8442 0.8442 0.5361 -181.1762 148.8669)" class="st0" width="48.2" height="5.6"/>
</g>
<path class="st5" d="M500,304.8H333.1c-5.6,0-10.2-4.6-10.2-10.2v-28.3c0-5.6,4.6-10.2,10.2-10.2H500c5.6,0,10.2,4.6,10.2,10.2v28.3
	C510.3,300.2,505.7,304.8,500,304.8z"/>
<g>
	<g>
		<polygon class="st5" points="466,275.1 398.8,184.9 404.1,183 471.3,273.2 		"/>
	</g>
</g>
<g>
	<path class="st3" d="M352.3,284.3l4.7,1.5c-0.7,2.6-1.9,4.6-3.6,5.8c-1.7,1.3-3.8,1.9-6.4,1.9c-3.2,0-5.8-1.1-7.8-3.3
		s-3.1-5.1-3.1-8.9c0-4,1-7.1,3.1-9.3c2.1-2.2,4.8-3.3,8.1-3.3c2.9,0,5.3,0.9,7.1,2.6c1.1,1,1.9,2.5,2.5,4.4l-4.8,1.1
		c-0.3-1.2-0.9-2.2-1.8-2.9c-0.9-0.7-2-1.1-3.3-1.1c-1.8,0-3.2,0.6-4.3,1.9c-1.1,1.3-1.7,3.3-1.7,6.2c0,3,0.5,5.2,1.6,6.5
		c1.1,1.3,2.5,1.9,4.2,1.9c1.3,0,2.4-0.4,3.3-1.2S351.9,286,352.3,284.3z"/>
	<path class="st3" d="M361.1,293.1v-24h7.8c2.9,0,4.9,0.1,5.8,0.4c1.4,0.4,2.5,1.1,3.4,2.3s1.4,2.8,1.4,4.7c0,1.5-0.3,2.7-0.8,3.7
		s-1.2,1.8-2,2.4s-1.7,1-2.5,1.1c-1.2,0.2-2.8,0.3-5,0.3H366v9H361.1z M366,273.2v6.8h2.6c1.9,0,3.2-0.1,3.8-0.4s1.1-0.6,1.5-1.2
		c0.4-0.5,0.5-1.2,0.5-1.9c0-0.9-0.3-1.6-0.8-2.2c-0.5-0.6-1.2-0.9-1.9-1.1c-0.6-0.1-1.7-0.2-3.5-0.2H366z"/>
	<path class="st3" d="M383.5,293.1v-24h16.4v4.1h-11.6v5.7h10v4.1h-10v10.2H383.5z"/>
	<path class="st3" d="M401.4,293.5l5.9-24.8h3.4l-6,24.8H401.4z"/>
	<path class="st3" d="M428.6,284.3l4.7,1.5c-0.7,2.6-1.9,4.6-3.6,5.8c-1.7,1.3-3.8,1.9-6.4,1.9c-3.2,0-5.8-1.1-7.8-3.3
		s-3.1-5.1-3.1-8.9c0-4,1-7.1,3.1-9.3c2.1-2.2,4.8-3.3,8.1-3.3c2.9,0,5.3,0.9,7.1,2.6c1.1,1,1.9,2.5,2.5,4.4l-4.8,1.1
		c-0.3-1.2-0.9-2.2-1.8-2.9c-0.9-0.7-2-1.1-3.3-1.1c-1.8,0-3.2,0.6-4.3,1.9c-1.1,1.3-1.7,3.3-1.7,6.2c0,3,0.5,5.2,1.6,6.5
		c1.1,1.3,2.5,1.9,4.2,1.9c1.3,0,2.4-0.4,3.3-1.2S428.1,286,428.6,284.3z"/>
	<path class="st3" d="M437.4,293.1v-24h4.7l9.8,16v-16h4.5v24h-4.9l-9.7-15.6v15.6H437.4z"/>
	<path class="st3" d="M461.6,293.1v-24h7.8c2.9,0,4.9,0.1,5.8,0.4c1.4,0.4,2.5,1.1,3.4,2.3s1.4,2.8,1.4,4.7c0,1.5-0.3,2.7-0.8,3.7
		c-0.5,1-1.2,1.8-2,2.4s-1.7,1-2.5,1.1c-1.2,0.2-2.8,0.3-5,0.3h-3.2v9H461.6z M466.4,273.2v6.8h2.6c1.9,0,3.2-0.1,3.8-0.4
		s1.1-0.6,1.5-1.2c0.4-0.5,0.5-1.2,0.5-1.9c0-0.9-0.3-1.6-0.8-2.2c-0.5-0.6-1.2-0.9-1.9-1.1c-0.6-0.1-1.7-0.2-3.5-0.2H466.4z"/>
	<path class="st3" d="M492.5,269.1h4.8v15.2c0,2-0.2,3.5-0.5,4.6c-0.5,1.4-1.3,2.5-2.5,3.4c-1.2,0.8-2.9,1.3-4.9,1.3
		c-2.4,0-4.2-0.7-5.5-2c-1.3-1.3-1.9-3.3-1.9-5.8l4.6-0.5c0.1,1.4,0.3,2.3,0.6,2.9c0.5,0.9,1.3,1.3,2.4,1.3c1.1,0,1.8-0.3,2.3-0.9
		c0.4-0.6,0.7-1.9,0.7-3.8V269.1z"/>
</g>
<path class="st0" d="M395.7,229.5H53.3c-3.1,0-5.6-2.5-5.6-5.6v-17.1c0-3.1,2.5-5.6,5.6-5.6h342.4c3.1,0,5.6,2.5,5.6,5.6v17.1
	C401.3,227,398.8,229.5,395.7,229.5z"/>
<g>
	<g>
		<path class="st6" d="M63,218.6v-7.1l0.4-0.5v8L63,218.6z M63.8,219.6v-8.9l0.4-0.4v9.7L63.8,219.6z M63.8,219.6v-8.9l0.4-0.4v9.7
			L63.8,219.6z M65.5,213v-3.2H66v2.8L65.5,213z M65.5,220.3v-3.2l0.4,0.4v2.8H65.5z M66.4,212.4v-2.6h0.4v2.6H66.4z M66.4,220.3
			v-2.6h0.4v2.6H66.4z M67.2,212.6v-2.8h0.4v3.2L67.2,212.6z M67.2,220.3v-2.8l0.4-0.4v3.2H67.2z M68.1,220.3v-10.5l0.4,0.4v9.7
			L68.1,220.3z M68.1,220.3v-10.5l0.4,0.4v9.7L68.1,220.3z M70.2,218.5v-6.9l-0.4-0.5v7.8L70.2,218.5z"/>
		<path class="st6" d="M72.8,218.6v-7.1l0.4-0.5v8L72.8,218.6z M73.7,219.6v-8.9l0.4-0.4v9.7L73.7,219.6z M73.7,219.6v-8.9l0.4-0.4
			v9.7L73.7,219.6z M75.4,213v-3.2h0.4v2.8L75.4,213z M75.4,220.3v-3.2l0.4,0.4v2.8H75.4z M76.2,212.4v-2.6h0.4v2.6H76.2z
			 M76.2,220.3v-2.6h0.4v2.6H76.2z M77.1,212.6v-2.8h0.4v3.2L77.1,212.6z M77.1,220.3v-2.8l0.4-0.4v3.2H77.1z M77.9,220.3v-10.5
			l0.4,0.4v9.7L77.9,220.3z M77.9,220.3v-10.5l0.4,0.4v9.7L77.9,220.3z M80.1,218.5v-6.9l-0.4-0.5v7.8L80.1,218.5z"/>
		<path class="st6" d="M82.6,218.6v-7.1l0.4-0.5v8L82.6,218.6z M83.5,219.6v-8.9l0.4-0.4v9.7L83.5,219.6z M83.5,219.6v-8.9l0.4-0.4
			v9.7L83.5,219.6z M85.2,213v-3.2h0.4v2.8L85.2,213z M85.2,220.3v-3.2l0.4,0.4v2.8H85.2z M86,212.4v-2.6h0.4v2.6H86z M86,220.3
			v-2.6h0.4v2.6H86z M86.9,212.6v-2.8h0.4v3.2L86.9,212.6z M86.9,220.3v-2.8l0.4-0.4v3.2H86.9z M87.8,220.3v-10.5l0.4,0.4v9.7
			L87.8,220.3z M87.8,220.3v-10.5l0.4,0.4v9.7L87.8,220.3z M89.9,218.5v-6.9l-0.4-0.5v7.8L89.9,218.5z"/>
		<path class="st6" d="M92.4,218.6v-7.1l0.4-0.5v8L92.4,218.6z M93.3,219.6v-8.9l0.4-0.4v9.7L93.3,219.6z M93.3,219.6v-8.9l0.4-0.4
			v9.7L93.3,219.6z M95,213v-3.2h0.4v2.8L95,213z M95,220.3v-3.2l0.4,0.4v2.8H95z M95.9,212.4v-2.6h0.4v2.6H95.9z M95.9,220.3v-2.6
			h0.4v2.6H95.9z M96.7,212.6v-2.8h0.4v3.2L96.7,212.6z M96.7,220.3v-2.8l0.4-0.4v3.2H96.7z M97.6,220.3v-10.5l0.4,0.4v9.7
			L97.6,220.3z M97.6,220.3v-10.5l0.4,0.4v9.7L97.6,220.3z M99.7,218.5v-6.9l-0.4-0.5v7.8L99.7,218.5z"/>
		<path class="st6" d="M102.3,218.7v-5.5l0.4-0.3v5.8H102.3z M104,218.7v-6.5l0.4-0.3v6.8H104z M104.8,214.8v-3.1l0.4-0.3v3.1
			L104.8,214.8z M104.8,218.7v-2.1h0.4v2.1H104.8z M105.7,214.3v-3.1l0.4-0.3v3.1L105.7,214.3z M105.7,218.7v-2.1h0.4v2.1H105.7z
			 M107.4,213.3v-3.1l0.4-0.3v3.1L107.4,213.3z M107.4,220.3v-4.2h0.4v4.2H107.4z M108.2,213v-3.1h0.4v3.1H108.2z M108.2,220.3v-4.2
			h0.4v4.2H108.2z M109.1,213v-3.1h0.4v3.1H109.1z M109.1,220.3v-4.2h0.4v4.2H109.1z"/>
		<path class="st6" d="M112.1,213.2v-2l0.4-0.8v2.8H112.1z M112.1,218.8v-2h0.4v2.8L112.1,218.8z M113.8,213.3v-3.5h0.4v3.5H113.8z
			 M113.8,220.2v-3.5h0.4v3.5H113.8z M114.6,212.7v-2.9h0.4v2.9H114.6z M114.6,220.3v-2.9h0.4v2.9H114.6z M116.3,212.4v-2.6h0.4v2.6
			H116.3z M116.3,216.1V214h0.4v2.1H116.3z M116.3,220.2v-2.6h0.4v2.6H116.3z M117.2,212.4v-2.6h0.4v2.6H117.2z M117.2,216.1V214
			h0.4v2.1H117.2z M117.2,220.2v-2.6h0.4v2.6H117.2z M118.1,220.3v-10.5l0.4,0.1v10.2L118.1,220.3z M118.9,214.5v-4.2l0.4,0.9v3.3
			H118.9z M118.9,219.7v-4.2h0.4v3.3L118.9,219.7z"/>
		<path class="st6" d="M121.9,215.8v-6h0.4v6H121.9z M121.9,220.3v-2.4h0.4v2.4H121.9z M122.8,215.8v-6h0.4v6H122.8z M122.8,220.3
			v-2.4h0.4v2.4H122.8z M123.6,212.2v-2.4h0.4v2.4H123.6z M123.6,215.8v-2.1h0.4v2.1H123.6z M123.6,220.3v-2.4h0.4v2.4H123.6z
			 M124.5,212.2v-2.4h0.4v2.4H124.5z M124.5,215.8v-2.1h0.4v2.1H124.5z M124.5,220.3v-2.4h0.4v2.4H124.5z M126.2,212.2v-2.4h0.4v2.4
			H126.2z M126.2,215.8v-2.1h0.4v2.1H126.2z M126.2,220.3v-2.4h0.4v2.4H126.2z M127.9,212.2v-2.4h0.4v2.4H127.9z M127.9,220.3v-6.5
			l0.4,0.3v6L127.9,220.3z M128.7,212.2v-2.4h0.4v2.4H128.7z M128.7,219.8v-5.4l0.4,0.9v3.6L128.7,219.8z"/>
		<path class="st6" d="M131.7,218.8v-7.6l0.4-0.8v9.2L131.7,218.8z M132.6,220v-9.9l0.4-0.3v10.5L132.6,220z M133.4,211.9v-2.1h0.4
			v2.1H133.4z M133.4,216.1V214h0.4v2.1H133.4z M133.4,220.2v-2.1h0.4v2.1L133.4,220.2z M135.1,211.9v-2.1h0.4v2.1H135.1z
			 M135.1,216.1V214h0.4v2.1H135.1z M135.1,220.2v-2.1h0.4v2.1H135.1z M136,211.9v-2.1h0.4v2.1H136z M136,216.1V214h0.4v2.1H136z
			 M136,220.2v-2.1h0.4v2.1H136z M137.7,212.4v-2.6l0.4,0.1v2.5H137.7z M137.7,220.3V214l0.4,0.1v6L137.7,220.3z M138.6,212.4v-2.1
			l0.4,0.8v1.3H138.6z M138.6,219.7v-5.2l0.4,0.8v3.7L138.6,219.7z"/>
	</g>
	<g>
		<g>
			<path class="st6" d="M153.4,218.6v-7.1l0.4-0.5v8L153.4,218.6z M154.3,219.6v-8.9l0.4-0.4v9.7L154.3,219.6z M154.3,219.6v-8.9
				l0.4-0.4v9.7L154.3,219.6z M156,213v-3.2h0.4v2.8L156,213z M156,220.3v-3.2l0.4,0.4v2.8H156z M156.8,212.4v-2.6h0.4v2.6H156.8z
				 M156.8,220.3v-2.6h0.4v2.6H156.8z M157.7,212.6v-2.8h0.4v3.2L157.7,212.6z M157.7,220.3v-2.8l0.4-0.4v3.2H157.7z M158.6,220.3
				v-10.5l0.4,0.4v9.7L158.6,220.3z M158.6,220.3v-10.5l0.4,0.4v9.7L158.6,220.3z M160.7,218.5v-6.9l-0.4-0.5v7.8L160.7,218.5z"/>
			<path class="st6" d="M163.3,214.6V212l0.4-0.3v2.6L163.3,214.6z M163.3,220.3v-3.5h0.4v3.5H163.3z M165,213.7v-2.6l0.4-0.3v2.6
				L165,213.7z M165,220.3v-3.5h0.4v3.5H165z M165.8,213.3v-2.6l0.4-0.3v2.6L165.8,213.3z M165.8,220.3v-3.5h0.4v3.5H165.8z
				 M166.7,220.3v-10l0.4-0.3v10.3H166.7z M167.5,220.3v-10.5h0.4v10.5H167.5z M169.2,220.3v-4.7h0.4v4.7H169.2z M170.1,220.3v-4.7
				h0.4v4.7H170.1z"/>
			<path class="st6" d="M173.1,214v-2.7l0.4-0.9v3.7H173.1z M173.1,218.8v-2.7h0.4v3.7L173.1,218.8z M173.9,214.5v-4.6l0.4-0.1v4.7
				H173.9z M173.9,220.1v-4.6h0.4v4.7L173.9,220.1z M175.6,211.9v-2.1h0.4v2.1H175.6z M175.6,216.1V214h0.4v2.1H175.6z M175.6,216.1
				V214h0.4v2.1H175.6z M175.6,216.1V214h0.4v2.1H175.6z M175.6,220.3v-2.1h0.4v2.1H175.6z M176.5,211.9v-2.1h0.4v2.1H176.5z
				 M176.5,216.1V214h0.4v2.1H176.5z M176.5,216.1V214h0.4v2.1H176.5z M176.5,216.1V214h0.4v2.1H176.5z M176.5,220.3v-2.1h0.4v2.1
				H176.5z M177.3,211.9v-2.1h0.4v2.1H177.3z M177.3,216.1V214h0.4v2.1H177.3z M177.3,216.1V214h0.4v2.1H177.3z M177.3,216.1V214
				h0.4v2.1H177.3z M177.3,220.3v-2.1h0.4v2.1H177.3z M179.1,214.5v-4.7l0.4,0.1v4.6H179.1z M179.1,220.3v-4.7h0.4v4.6L179.1,220.3z
				 M179.9,214v-3.7l0.4,0.9v2.7H179.9z M179.9,219.8v-3.7h0.4v2.7L179.9,219.8z"/>
			<path class="st6" d="M182.9,214.6V212l0.4-0.3v2.6L182.9,214.6z M182.9,220.3v-3.5h0.4v3.5H182.9z M184.6,213.7v-2.6l0.4-0.3v2.6
				L184.6,213.7z M184.6,220.3v-3.5h0.4v3.5H184.6z M185.5,213.3v-2.6l0.4-0.3v2.6L185.5,213.3z M185.5,220.3v-3.5h0.4v3.5H185.5z
				 M186.3,220.3v-10l0.4-0.3v10.3H186.3z M187.2,220.3v-10.5h0.4v10.5H187.2z M188.9,220.3v-4.7h0.4v4.7H188.9z M189.7,220.3v-4.7
				h0.4v4.7H189.7z"/>
			<path class="st6" d="M192.7,213.5v-3.7h0.4v3.7H192.7z M192.7,220.3v-2.6h0.4v2.6H192.7z M194.4,212.2v-2.4h0.4v2.4H194.4z
				 M194.4,220.3v-3.4l0.4-0.5v3.9H194.4z M196.1,212.2v-2.4h0.4v2.4H196.1z M196.1,218.8v-3.9l0.4-0.5v3.9L196.1,218.8z M197,212.2
				v-2.4h0.4v2.4H197z M197,217.8v-3.9l0.4-0.5v4L197,217.8z M197.8,216.9v-7.1h0.4v6.6L197.8,216.9z M198.7,216v-6.1h0.4v5.7
				L198.7,216z M199.5,215.1v-5.3h0.4v4.8L199.5,215.1z"/>
			<path class="st6" d="M202.5,218.7v-5.5l0.4-0.3v5.8H202.5z M204.2,218.7v-6.5l0.4-0.3v6.8H204.2z M205.1,214.8v-3.1l0.4-0.3v3.1
				L205.1,214.8z M205.1,218.7v-2.1h0.4v2.1H205.1z M205.9,214.3v-3.1l0.4-0.3v3.1L205.9,214.3z M205.9,218.7v-2.1h0.4v2.1H205.9z
				 M207.7,213.3v-3.1l0.4-0.3v3.1L207.7,213.3z M207.7,220.3v-4.2h0.4v4.2H207.7z M208.5,213v-3.1h0.4v3.1H208.5z M208.5,220.3
				v-4.2h0.4v4.2H208.5z M209.4,213v-3.1h0.4v3.1H209.4z M209.4,220.3v-4.2h0.4v4.2H209.4z"/>
			<path class="st6" d="M212.4,213.5v-2.1l0.4-0.9v3H212.4z M212.4,220.2v-3.4l0.4-0.2v3.6H212.4z M213.2,213.5v-3.4l0.4-0.3v3.7
				H213.2z M213.2,220.2v-3.8l0.4-0.2v4H213.2z M214.9,211.9v-2.1h0.4v2.1H214.9z M214.9,220.3v-4.8l0.4-0.2v5H214.9z M216.6,211.9
				v-2.1h0.4v2.1H216.6z M216.6,216.8v-2.2l0.4-0.2v2.1L216.6,216.8z M216.6,220.3v-2.1h0.4v2.1H216.6z M217.5,211.9v-2.1h0.4v2.1
				H217.5z M217.5,216.3v-2.2l0.4-0.2v2.1L217.5,216.3z M217.5,220.3v-2.1h0.4v2.1H217.5z M218.3,215.7v-5.9l0.4,0.3v5.4
				L218.3,215.7z M218.3,220.3v-2.1h0.4v2.1H218.3z M219.2,215.2v-4.8l0.4,0.8v3.7L219.2,215.2z M219.2,220.3v-2.1h0.4v2.1H219.2z"
				/>
			<path class="st6" d="M222.2,218.6v-7.1l0.4-0.5v8L222.2,218.6z M223,219.6v-8.9l0.4-0.4v9.7L223,219.6z M223,219.6v-8.9l0.4-0.4
				v9.7L223,219.6z M224.7,213v-3.2h0.4v2.8L224.7,213z M224.7,220.3v-3.2l0.4,0.4v2.8H224.7z M225.6,212.4v-2.6h0.4v2.6H225.6z
				 M225.6,220.3v-2.6h0.4v2.6H225.6z M226.4,212.6v-2.8h0.4v3.2L226.4,212.6z M226.4,220.3v-2.8l0.4-0.4v3.2H226.4z M227.3,220.3
				v-10.5l0.4,0.4v9.7L227.3,220.3z M227.3,220.3v-10.5l0.4,0.4v9.7L227.3,220.3z M229.4,218.5v-6.9l-0.4-0.5v7.8L229.4,218.5z"/>
			<path class="st6" d="M232,218.7v-5.5l0.4-0.3v5.8H232z M233.7,218.7v-6.5l0.4-0.3v6.8H233.7z M234.6,214.8v-3.1l0.4-0.3v3.1
				L234.6,214.8z M234.6,218.7v-2.1h0.4v2.1H234.6z M235.4,214.3v-3.1l0.4-0.3v3.1L235.4,214.3z M235.4,218.7v-2.1h0.4v2.1H235.4z
				 M237.1,213.3v-3.1l0.4-0.3v3.1L237.1,213.3z M237.1,220.3v-4.2h0.4v4.2H237.1z M238,213v-3.1h0.4v3.1H238z M238,220.3v-4.2h0.4
				v4.2H238z M238.8,213v-3.1h0.4v3.1H238.8z M238.8,220.3v-4.2h0.4v4.2H238.8z"/>
			<path class="st6" d="M241.8,218.8v-7.6l0.4-0.8v9.2L241.8,218.8z M242.7,220v-9.9l0.4-0.3v10.5L242.7,220z M243.5,211.9v-2.1h0.4
				v2.1H243.5z M243.5,216.1V214h0.4v2.1H243.5z M243.5,220.2v-2.1h0.4v2.1L243.5,220.2z M245.2,211.9v-2.1h0.4v2.1H245.2z
				 M245.2,216.1V214h0.4v2.1H245.2z M245.2,220.2v-2.1h0.4v2.1H245.2z M246.1,211.9v-2.1h0.4v2.1H246.1z M246.1,216.1V214h0.4v2.1
				H246.1z M246.1,220.2v-2.1h0.4v2.1H246.1z M247.8,212.4v-2.6l0.4,0.1v2.5H247.8z M247.8,220.3V214l0.4,0.1v6L247.8,220.3z
				 M248.6,212.4v-2.1l0.4,0.8v1.3H248.6z M248.6,219.7v-5.2l0.4,0.8v3.7L248.6,219.7z"/>
		</g>
	</g>
	<g>
		<path class="st6" d="M262.9,213.5v-3.7h0.4v3.7H262.9z M262.9,220.3v-2.6h0.4v2.6H262.9z M264.6,212.2v-2.4h0.4v2.4H264.6z
			 M264.6,220.3v-3.4l0.4-0.5v3.9H264.6z M266.3,212.2v-2.4h0.4v2.4H266.3z M266.3,218.8v-3.9l0.4-0.5v3.9L266.3,218.8z
			 M267.2,212.2v-2.4h0.4v2.4H267.2z M267.2,217.8v-3.9l0.4-0.5v4L267.2,217.8z M268,216.9v-7.1h0.4v6.6L268,216.9z M268.9,216v-6.1
			h0.4v5.7L268.9,216z M269.7,215.1v-5.3h0.4v4.8L269.7,215.1z"/>
		<path class="st6" d="M272.7,218.6v-7.1l0.4-0.5v8L272.7,218.6z M273.6,219.6v-8.9l0.4-0.4v9.7L273.6,219.6z M273.6,219.6v-8.9
			l0.4-0.4v9.7L273.6,219.6z M275.3,213v-3.2h0.4v2.8L275.3,213z M275.3,220.3v-3.2l0.4,0.4v2.8H275.3z M276.2,212.4v-2.6h0.4v2.6
			H276.2z M276.2,220.3v-2.6h0.4v2.6H276.2z M277,212.6v-2.8h0.4v3.2L277,212.6z M277,220.3v-2.8l0.4-0.4v3.2H277z M277.9,220.3
			v-10.5l0.4,0.4v9.7L277.9,220.3z M277.9,220.3v-10.5l0.4,0.4v9.7L277.9,220.3z M280,218.5v-6.9l-0.4-0.5v7.8L280,218.5z"/>
		<path class="st6" d="M282.6,213.5v-2.1l0.4-0.9v3H282.6z M282.6,220.2v-3.4l0.4-0.2v3.6H282.6z M283.4,213.5v-3.4l0.4-0.3v3.7
			H283.4z M283.4,220.2v-3.8l0.4-0.2v4H283.4z M285.1,211.9v-2.1h0.4v2.1H285.1z M285.1,220.3v-4.8l0.4-0.2v5H285.1z M286.8,211.9
			v-2.1h0.4v2.1H286.8z M286.8,216.8v-2.2l0.4-0.2v2.1L286.8,216.8z M286.8,220.3v-2.1h0.4v2.1H286.8z M287.7,211.9v-2.1h0.4v2.1
			H287.7z M287.7,216.3v-2.2l0.4-0.2v2.1L287.7,216.3z M287.7,220.3v-2.1h0.4v2.1H287.7z M288.5,215.7v-5.9l0.4,0.3v5.4L288.5,215.7
			z M288.5,220.3v-2.1h0.4v2.1H288.5z M289.4,215.2v-4.8l0.4,0.8v3.7L289.4,215.2z M289.4,220.3v-2.1h0.4v2.1H289.4z"/>
		<path class="st6" d="M292.4,218.6v-7.1l0.4-0.5v8L292.4,218.6z M293.2,219.6v-8.9l0.4-0.4v9.7L293.2,219.6z M293.2,219.6v-8.9
			l0.4-0.4v9.7L293.2,219.6z M294.9,213v-3.2h0.4v2.8L294.9,213z M294.9,220.3v-3.2l0.4,0.4v2.8H294.9z M295.8,212.4v-2.6h0.4v2.6
			H295.8z M295.8,220.3v-2.6h0.4v2.6H295.8z M296.6,212.6v-2.8h0.4v3.2L296.6,212.6z M296.6,220.3v-2.8l0.4-0.4v3.2H296.6z
			 M297.5,220.3v-10.5l0.4,0.4v9.7L297.5,220.3z M297.5,220.3v-10.5l0.4,0.4v9.7L297.5,220.3z M299.6,218.5v-6.9l-0.4-0.5v7.8
			L299.6,218.5z"/>
		<path class="st6" d="M302.2,218.6v-7.1l0.4-0.5v8L302.2,218.6z M303,219.6v-8.9l0.4-0.4v9.7L303,219.6z M303,219.6v-8.9l0.4-0.4
			v9.7L303,219.6z M304.8,213v-3.2h0.4v2.8L304.8,213z M304.8,220.3v-3.2l0.4,0.4v2.8H304.8z M305.6,212.4v-2.6h0.4v2.6H305.6z
			 M305.6,220.3v-2.6h0.4v2.6H305.6z M306.5,212.6v-2.8h0.4v3.2L306.5,212.6z M306.5,220.3v-2.8l0.4-0.4v3.2H306.5z M307.3,220.3
			v-10.5l0.4,0.4v9.7L307.3,220.3z M307.3,220.3v-10.5l0.4,0.4v9.7L307.3,220.3z M309.5,218.5v-6.9l-0.4-0.5v7.8L309.5,218.5z"/>
		<path class="st6" d="M312,215.8v-6h0.4v6H312z M312,220.3v-2.4h0.4v2.4H312z M312.9,215.8v-6h0.4v6H312.9z M312.9,220.3v-2.4h0.4
			v2.4H312.9z M313.7,212.2v-2.4h0.4v2.4H313.7z M313.7,215.8v-2.1h0.4v2.1H313.7z M313.7,220.3v-2.4h0.4v2.4H313.7z M314.6,212.2
			v-2.4h0.4v2.4H314.6z M314.6,215.8v-2.1h0.4v2.1H314.6z M314.6,220.3v-2.4h0.4v2.4H314.6z M316.3,212.2v-2.4h0.4v2.4H316.3z
			 M316.3,215.8v-2.1h0.4v2.1H316.3z M316.3,220.3v-2.4h0.4v2.4H316.3z M318,212.2v-2.4h0.4v2.4H318z M318,220.3v-6.5l0.4,0.3v6
			L318,220.3z M318.8,212.2v-2.4h0.4v2.4H318.8z M318.8,219.8v-5.4l0.4,0.9v3.6L318.8,219.8z"/>
		<path class="st6" d="M321.8,218.7v-5.5l0.4-0.3v5.8H321.8z M323.6,218.7v-6.5l0.4-0.3v6.8H323.6z M324.4,214.8v-3.1l0.4-0.3v3.1
			L324.4,214.8z M324.4,218.7v-2.1h0.4v2.1H324.4z M325.3,214.3v-3.1l0.4-0.3v3.1L325.3,214.3z M325.3,218.7v-2.1h0.4v2.1H325.3z
			 M327,213.3v-3.1l0.4-0.3v3.1L327,213.3z M327,220.3v-4.2h0.4v4.2H327z M327.8,213v-3.1h0.4v3.1H327.8z M327.8,220.3v-4.2h0.4v4.2
			H327.8z M328.7,213v-3.1h0.4v3.1H328.7z M328.7,220.3v-4.2h0.4v4.2H328.7z"/>
		<path class="st6" d="M331.7,218.6v-7.1l0.4-0.5v8L331.7,218.6z M332.5,219.6v-8.9l0.4-0.4v9.7L332.5,219.6z M332.5,219.6v-8.9
			l0.4-0.4v9.7L332.5,219.6z M334.2,213v-3.2h0.4v2.8L334.2,213z M334.2,220.3v-3.2l0.4,0.4v2.8H334.2z M335.1,212.4v-2.6h0.4v2.6
			H335.1z M335.1,220.3v-2.6h0.4v2.6H335.1z M335.9,212.6v-2.8h0.4v3.2L335.9,212.6z M335.9,220.3v-2.8l0.4-0.4v3.2H335.9z
			 M336.8,220.3v-10.5l0.4,0.4v9.7L336.8,220.3z M336.8,220.3v-10.5l0.4,0.4v9.7L336.8,220.3z M338.9,218.5v-6.9l-0.4-0.5v7.8
			L338.9,218.5z"/>
		<path class="st6" d="M341.5,214v-2.7l0.4-0.9v3.7H341.5z M341.5,218.8v-2.7h0.4v3.7L341.5,218.8z M342.3,214.5v-4.6l0.4-0.1v4.7
			H342.3z M342.3,220.1v-4.6h0.4v4.7L342.3,220.1z M344,211.9v-2.1h0.4v2.1H344z M344,216.1V214h0.4v2.1H344z M344,216.1V214h0.4
			v2.1H344z M344,216.1V214h0.4v2.1H344z M344,220.3v-2.1h0.4v2.1H344z M344.9,211.9v-2.1h0.4v2.1H344.9z M344.9,216.1V214h0.4v2.1
			H344.9z M344.9,216.1V214h0.4v2.1H344.9z M344.9,216.1V214h0.4v2.1H344.9z M344.9,220.3v-2.1h0.4v2.1H344.9z M345.7,211.9v-2.1
			h0.4v2.1H345.7z M345.7,216.1V214h0.4v2.1H345.7z M345.7,216.1V214h0.4v2.1H345.7z M345.7,216.1V214h0.4v2.1H345.7z M345.7,220.3
			v-2.1h0.4v2.1H345.7z M347.5,214.5v-4.7l0.4,0.1v4.6H347.5z M347.5,220.3v-4.7h0.4v4.6L347.5,220.3z M348.3,214v-3.7l0.4,0.9v2.7
			H348.3z M348.3,219.8v-3.7h0.4v2.7L348.3,219.8z"/>
		<path class="st6" d="M351.3,213.5v-2.1l0.4-0.9v3H351.3z M351.3,220.2v-3.4l0.4-0.2v3.6H351.3z M352.2,213.5v-3.4l0.4-0.3v3.7
			H352.2z M352.2,220.2v-3.8l0.4-0.2v4H352.2z M353.9,211.9v-2.1h0.4v2.1H353.9z M353.9,220.3v-4.8l0.4-0.2v5H353.9z M355.6,211.9
			v-2.1h0.4v2.1H355.6z M355.6,216.8v-2.2l0.4-0.2v2.1L355.6,216.8z M355.6,220.3v-2.1h0.4v2.1H355.6z M356.4,211.9v-2.1h0.4v2.1
			H356.4z M356.4,216.3v-2.2l0.4-0.2v2.1L356.4,216.3z M356.4,220.3v-2.1h0.4v2.1H356.4z M357.3,215.7v-5.9l0.4,0.3v5.4L357.3,215.7
			z M357.3,220.3v-2.1h0.4v2.1H357.3z M358.1,215.2v-4.8l0.4,0.8v3.7L358.1,215.2z M358.1,220.3v-2.1h0.4v2.1H358.1z"/>
		<path class="st6" d="M361.1,214.7v-3.4l0.4-0.9v5.2L361.1,214.7z M361.1,219v-1.3h0.4v2.1L361.1,219z M362,215.8v-5.8l0.4-0.3v6.3
			L362,215.8z M362,220v-2.4h0.4v2.6L362,220z M363.7,211.9v-2.1h0.4v2.1H363.7z M363.7,216.1V214h0.4v2.1H363.7z M363.7,220.2v-2.1
			h0.4v2.1H363.7z M364.5,211.9v-2.1h0.4v2.1H364.5z M364.5,216.1V214h0.4v2.1H364.5z M364.5,220.2v-2.1h0.4v2.1H364.5z
			 M366.2,211.9v-2.1h0.4v2.1H366.2z M366.2,216.1V214h0.4v2.1H366.2z M366.2,220.2v-2.1h0.4v2.1H366.2z M367.1,220.3v-10.5l0.4,0.3
			v9.9L367.1,220.3z M367.9,219.7v-9.4l0.4,0.8v7.8L367.9,219.7z"/>
		<path class="st6" d="M370.9,213.2v-2l0.4-0.8v2.8H370.9z M370.9,218.8v-2h0.4v2.8L370.9,218.8z M372.7,213.3v-3.5h0.4v3.5H372.7z
			 M372.7,220.2v-3.5h0.4v3.5H372.7z M373.5,212.7v-2.9h0.4v2.9H373.5z M373.5,220.3v-2.9h0.4v2.9H373.5z M375.2,212.4v-2.6h0.4v2.6
			H375.2z M375.2,216.1V214h0.4v2.1H375.2z M375.2,220.2v-2.6h0.4v2.6H375.2z M376.1,212.4v-2.6h0.4v2.6H376.1z M376.1,216.1V214
			h0.4v2.1H376.1z M376.1,220.2v-2.6h0.4v2.6H376.1z M376.9,220.3v-10.5l0.4,0.1v10.2L376.9,220.3z M377.8,214.5v-4.2l0.4,0.9v3.3
			H377.8z M377.8,219.7v-4.2h0.4v3.3L377.8,219.7z"/>
		<path class="st6" d="M380.8,218.6v-7.1l0.4-0.5v8L380.8,218.6z M381.6,219.6v-8.9l0.4-0.4v9.7L381.6,219.6z M381.6,219.6v-8.9
			l0.4-0.4v9.7L381.6,219.6z M383.3,213v-3.2h0.4v2.8L383.3,213z M383.3,220.3v-3.2l0.4,0.4v2.8H383.3z M384.2,212.4v-2.6h0.4v2.6
			H384.2z M384.2,220.3v-2.6h0.4v2.6H384.2z M385,212.6v-2.8h0.4v3.2L385,212.6z M385,220.3v-2.8l0.4-0.4v3.2H385z M385.9,220.3
			v-10.5l0.4,0.4v9.7L385.9,220.3z M385.9,220.3v-10.5l0.4,0.4v9.7L385.9,220.3z M388,218.5v-6.9l-0.4-0.5v7.8L388,218.5z"/>
	</g>
</g>
</svg>
