<?xml version="1.0" encoding="UTF-8" standalone="no"?>
<!-- Created with Inkscape (http://www.inkscape.org/) -->

<svg
   xmlns:dc="http://purl.org/dc/elements/1.1/"
   xmlns:cc="http://creativecommons.org/ns#"
   xmlns:rdf="http://www.w3.org/1999/02/22-rdf-syntax-ns#"
   xmlns:svg="http://www.w3.org/2000/svg"
   xmlns="http://www.w3.org/2000/svg"
   xmlns:sodipodi="http://sodipodi.sourceforge.net/DTD/sodipodi-0.dtd"
   xmlns:inkscape="http://www.inkscape.org/namespaces/inkscape"
   id="svg2"
   version="1.1"
   inkscape:version="0.48.5 r10040"
   width="298.75"
   height="303.75"
   xml:space="preserve"
   sodipodi:docname="phone_icons.eps"><metadata
     id="metadata8"><rdf:RDF><cc:Work
         rdf:about=""><dc:format>image/svg+xml</dc:format><dc:type
           rdf:resource="http://purl.org/dc/dcmitype/StillImage" /><dc:title></dc:title></cc:Work></rdf:RDF></metadata><defs
     id="defs6" /><sodipodi:namedview
     pagecolor="#ffffff"
     bordercolor="#666666"
     borderopacity="1"
     objecttolerance="10"
     gridtolerance="10"
     guidetolerance="10"
     inkscape:pageopacity="0"
     inkscape:pageshadow="2"
     inkscape:window-width="1600"
     inkscape:window-height="861"
     id="namedview4"
     showgrid="false"
     inkscape:zoom="2.1975598"
     inkscape:cx="170.94667"
     inkscape:cy="134.38518"
     inkscape:window-x="1366"
     inkscape:window-y="0"
     inkscape:window-maximized="1"
     inkscape:current-layer="g10" /><g
     id="g10"
     inkscape:groupmode="layer"
     inkscape:label="ink_ext_XXXXXX"
     transform="matrix(1.25,0,0,-1.25,0,303.75)"><g
       id="g12"
       transform="scale(0.1,0.1)"><path
         d="m 0,0 2390,0 0,2430 L 0,2430 0,0 z"
         style="fill:#ffffff;fill-opacity:1;fill-rule:nonzero;stroke:none"
         id="path14" /><path
         d="m 432.289,375.262 c 0,-8.774 -7.105,-15.883 -15.871,-15.883 l -90.816,0 c -8.766,0 -15.875,7.109 -15.875,15.883 l 0,46.648 c 0,8.77 7.109,15.879 15.875,15.879 l 90.816,0 c 8.766,0 15.871,-7.109 15.871,-15.879 0,-0.41 0,-46.648 0,-46.648 z m -15.875,-68.864 c -8.766,0 -15.871,7.102 -15.871,15.872 0,8.769 7.105,15.871 15.871,15.871 8.77,0 15.875,-7.102 15.875,-15.871 0,-8.77 -7.105,-15.872 -15.875,-15.872 z m 0,-44.566 c -8.766,0 -15.871,7.098 -15.871,15.867 0,8.77 7.105,15.871 15.871,15.871 8.77,0 15.875,-7.101 15.875,-15.871 0,-8.769 -7.105,-15.867 -15.875,-15.867 z m 0,-44.57 c -8.766,0 -15.871,7.109 -15.871,15.867 0,8.769 7.105,15.883 15.871,15.883 8.77,0 15.875,-7.114 15.875,-15.883 0,-8.758 -7.105,-15.867 -15.875,-15.867 z m -45.406,89.136 c -8.766,0 -15.871,7.102 -15.871,15.872 0,8.769 7.105,15.871 15.871,15.871 8.765,0 15.875,-7.102 15.875,-15.871 0,-8.77 -7.11,-15.872 -15.875,-15.872 z m 0,-44.566 c -8.766,0 -15.871,7.098 -15.871,15.867 0,8.77 7.105,15.871 15.871,15.871 8.765,0 15.875,-7.101 15.875,-15.871 0,-8.769 -7.11,-15.867 -15.875,-15.867 z m 0,-44.57 c -8.766,0 -15.871,7.109 -15.871,15.867 0,8.769 7.105,15.883 15.871,15.883 8.765,0 15.875,-7.114 15.875,-15.883 0,-8.758 -7.11,-15.867 -15.875,-15.867 z m -45.406,89.136 c -8.766,0 -15.875,7.102 -15.875,15.872 0,8.769 7.109,15.871 15.875,15.871 8.765,0 15.875,-7.102 15.875,-15.871 0,-8.77 -7.11,-15.872 -15.875,-15.872 z m 0,-44.566 c -8.766,0 -15.875,7.098 -15.875,15.867 0,8.77 7.109,15.871 15.875,15.871 8.765,0 15.875,-7.101 15.875,-15.871 0,-8.769 -7.11,-15.867 -15.875,-15.867 z m 0,-44.57 c -8.766,0 -15.875,7.109 -15.875,15.867 0,8.769 7.109,15.883 15.875,15.883 8.765,0 15.875,-7.114 15.875,-15.883 0,-8.758 -7.11,-15.867 -15.875,-15.867 z m 104.695,251.597 -108.32,0 0,25.61 c 0,11.051 -8.954,20 -20,20 -11.043,0 -20.454,-8.949 -20.454,-20 l 0,-274.949 c 0,-16.93 13.266,-30.649 30.196,-30.649 l 118.578,0 c 16.93,0 30.656,13.719 30.656,30.649 l 0,218.691 c 0,16.93 -13.726,30.648 -30.656,30.648"
         style="fill:#5c5d5f;fill-opacity:1;fill-rule:nonzero;stroke:none"
         id="path16" /><path
         d="m 1583.68,1992.32 c -23.7,17.83 -61.57,29.96 -89.27,28.39 -7.37,-6.64 -21.14,-25.12 -25.76,-33.94 -16.49,4.73 -36.16,21.25 -54.07,39.16 -17.91,17.9 -34.43,37.57 -39.15,54.07 8.81,4.61 27.29,18.39 33.93,25.75 1.57,27.71 -10.56,65.57 -28.38,89.28 -16.87,2.04 -56.44,-0.58 -83.15,-15.05 -6.5,-35.86 2.96,-108.88 81.08,-189.72 80.85,-78.12 153.86,-87.58 189.73,-81.09 14.47,26.72 17.08,66.29 15.04,83.15"
         style="fill:#5c5d5f;fill-opacity:1;fill-rule:nonzero;stroke:none"
         id="path18" /><path
         d="m 1625.21,2175.77 -35.28,-20.35 12.58,-21.66 35.2,20.34 -12.5,21.67"
         style="fill:#5c5d5f;fill-opacity:1;fill-rule:nonzero;stroke:none"
         id="path20" /><path
         d="m 1487.88,2240.61 0,-40.72 25.06,0.01 0,40.71 -25.06,0"
         style="fill:#5c5d5f;fill-opacity:1;fill-rule:nonzero;stroke:none"
         id="path22" /><path
         d="m 1565.23,2226.58 -20.35,-35.21 21.66,-12.59 20.36,35.29 -21.67,12.51"
         style="fill:#5c5d5f;fill-opacity:1;fill-rule:nonzero;stroke:none"
         id="path24" /><path
         d="m 1611.35,2076.74 40.3984,0 0,25.0586 -40.3984,0 0,-25.0586 z"
         style="fill:#5c5d5f;fill-opacity:1;fill-rule:nonzero;stroke:none"
         id="path26" /><path
         d="m 1602.52,2044.8 -12.59,-21.68 35.28,-20.34 12.5,21.66 -35.19,20.36"
         style="fill:#5c5d5f;fill-opacity:1;fill-rule:nonzero;stroke:none"
         id="path28" /><path
         d="m 1435.57,2226.58 -21.66,-12.51 20.36,-35.28 21.66,12.58 -20.36,35.21"
         style="fill:#5c5d5f;fill-opacity:1;fill-rule:nonzero;stroke:none"
         id="path30" /><path
         d="m 1544.62,2114.91 0,-18.8 -19.06,0 0,0.27 11.35,18.53 c 2.87,5.35 5.1,10.31 7.83,15.79 l 0.52,0 c -0.38,-5.48 -0.64,-10.7 -0.64,-15.79 z m 18.79,-18.8 0,49.74 -24.27,0 -32.11,-51.68 0,-12.93 37.59,0 0,-20.24 18.79,0 0,20.24 10.19,0 0,14.87 -10.19,0"
         style="fill:#5c5d5f;fill-opacity:1;fill-rule:nonzero;stroke:none"
         id="path32" /><path
         d="m 1448.94,2124.31 c 4.43,3.39 10.84,7.05 18.14,7.05 9.79,0 13.97,-5.49 13.97,-12.4 -0.26,-9.92 -9.27,-19.46 -27.8,-36.03 l -10.96,-9.91 0,-12.02 60.17,0 0,16.33 -31.99,0 0,0.25 7.84,6.53 c 12.27,10.98 22.58,22.32 22.58,36.54 0,15.41 -10.57,26.64 -29.76,26.64 -11.48,0 -21.4,-3.91 -27.8,-8.75 l 5.61,-14.23"
         style="fill:#5c5d5f;fill-opacity:1;fill-rule:nonzero;stroke:none"
         id="path34" /><path
         d="m 1066.8,2008.54 c -24.14,18.15 -62.71,30.5 -90.925,28.91 -7.508,-6.77 -21.531,-25.59 -26.234,-34.57 -16.801,4.81 -36.836,21.64 -55.075,39.87 -18.242,18.25 -35.066,38.28 -39.875,55.08 8.977,4.7 27.801,18.73 34.567,26.23 1.594,28.22 -10.758,66.79 -28.914,90.93 -17.184,2.08 -57.485,-0.58 -84.692,-15.32 -6.613,-36.53 3.024,-110.9 82.586,-193.24 82.344,-79.57 156.712,-89.2 193.242,-82.59 14.74,27.21 17.4,67.51 15.32,84.7"
         style="fill:#5c5d5f;fill-opacity:1;fill-rule:nonzero;stroke:none"
         id="path36" /><path
         d="m 1079.01,2188.09 -43.66,43.67 -63.428,-63.43 -26.539,26.54 -3.004,-99.74 99.741,3 -26.54,26.54 63.43,63.42"
         style="fill:#5c5d5f;fill-opacity:1;fill-rule:nonzero;stroke:none"
         id="path38" /><path
         d="m 515.133,2008.54 c -24.141,18.15 -62.711,30.5 -90.926,28.91 -7.504,-6.77 -21.531,-25.59 -26.234,-34.57 -16.801,4.81 -36.832,21.64 -55.075,39.87 -18.238,18.25 -35.062,38.28 -39.875,55.08 8.981,4.7 27.801,18.73 34.567,26.23 1.594,28.22 -10.754,66.79 -28.914,90.93 -17.18,2.08 -57.481,-0.58 -84.692,-15.32 -6.613,-36.53 3.024,-110.9 82.586,-193.24 82.344,-79.57 156.711,-89.2 193.242,-82.59 14.739,27.21 17.399,67.51 15.321,84.7"
         style="fill:#5c5d5f;fill-opacity:1;fill-rule:nonzero;stroke:none"
         id="path40" /><path
         d="m 405.77,2206.93 26.542,-26.54 -63.429,-63.43 43.664,-43.66 63.426,63.42 26.539,-26.54 3,99.75 -99.742,-3"
         style="fill:#5c5d5f;fill-opacity:1;fill-rule:nonzero;stroke:none"
         id="path42" /><path
         d="m 1887.92,2076.8 c 27.12,3.84 59.77,20.65 76.83,39.76 0.48,9.15 -2.6,30.21 -5.34,38.98 13.86,7.69 37.49,9.75 60.88,9.75 23.39,0 47.02,-2.06 60.88,-9.75 -2.75,-8.77 -5.82,-29.83 -5.34,-38.98 17.06,-19.11 49.71,-35.92 76.83,-39.76 12.35,9.68 36.48,37.23 44.48,64.12 -19.19,27.67 -73.04,69.17 -176.85,70.95 -103.81,-1.78 -157.67,-43.28 -176.85,-70.94 8,-26.9 32.13,-54.45 44.48,-64.13"
         style="fill:#5c5d5f;fill-opacity:1;fill-rule:nonzero;stroke:none"
         id="path44" /><path
         d="m 2057.06,2017.17 0,74.68 -73.54,0 0,-74.68 -44.7,0 81.47,-86.53 81.47,86.53 -44.7,0"
         style="fill:#5c5d5f;fill-opacity:1;fill-rule:nonzero;stroke:none"
         id="path46" /><path
         d="m 1891.6,1618.85 c -16.52,0 -32.13,-5.54 -46.2,-15.21 l 0,-215.92 c 14.07,-9.68 29.68,-15.22 46.2,-15.22 16.51,0 32.12,5.54 46.19,15.22 l 0,215.92 c -14.07,9.67 -29.68,15.21 -46.19,15.21"
         style="fill:#5c5d5f;fill-opacity:1;fill-rule:nonzero;stroke:none"
         id="path48" /><path
         d="m 2123.48,1529.56 -91.55,0 c -7.2,0 -13.04,5.84 -13.04,13.04 0,7.2 5.84,13.04 13.04,13.04 l 91.55,0 c 7.2,0 13.04,-5.84 13.04,-13.04 0,-7.2 -5.84,-13.04 -13.04,-13.04 z m 0,-46.02 c -7.2,0 -13.04,5.84 -13.04,13.05 0,7.2 5.84,13.03 13.04,13.03 7.2,0 13.04,-5.83 13.04,-13.03 0,-7.21 -5.84,-13.05 -13.04,-13.05 z m 0,-40.99 c -7.2,0 -13.04,5.84 -13.04,13.04 0,7.21 5.84,13.04 13.04,13.04 7.2,0 13.04,-5.83 13.04,-13.04 0,-7.2 -5.84,-13.04 -13.04,-13.04 z m -45.77,40.99 c -7.21,0 -13.05,5.84 -13.05,13.05 0,7.2 5.84,13.03 13.05,13.03 7.2,0 13.04,-5.83 13.04,-13.03 0,-7.21 -5.84,-13.05 -13.04,-13.05 z m 0,-40.99 c -7.21,0 -13.05,5.84 -13.05,13.04 0,7.21 5.84,13.04 13.05,13.04 7.2,0 13.04,-5.83 13.04,-13.04 0,-7.2 -5.84,-13.04 -13.04,-13.04 z m -45.78,40.99 c -7.2,0 -13.04,5.84 -13.04,13.05 0,7.2 5.84,13.03 13.04,13.03 7.2,0 13.04,-5.83 13.04,-13.03 0,-7.21 -5.84,-13.05 -13.04,-13.05 z m 0,-40.99 c -7.2,0 -13.04,5.84 -13.04,13.04 0,7.21 5.84,13.04 13.04,13.04 7.2,0 13.04,-5.83 13.04,-13.04 0,-7.2 -5.84,-13.04 -13.04,-13.04 z m 136.79,162.26 -205.92,0 0,-216.42 205.92,0 c 13.19,0 23.89,10.7 23.89,23.89 l 0,168.64 c 0,13.19 -10.7,23.89 -23.89,23.89"
         style="fill:#5c5d5f;fill-opacity:1;fill-rule:nonzero;stroke:none"
         id="path50" /><path
         d="m 1473.21,1629.79 c -103.8,-1.78 -153.67,-31.86 -175.59,-57.42 5.2,-27.57 11.75,-46.32 21.07,-58.94 27.17,-3.53 62.49,6.76 84.03,20.64 2.9,8.69 3.46,30.29 1.63,39.3 14.57,6.23 45.48,9.84 68.86,9.84 23.39,0 54.3,-3.61 68.87,-9.84 -1.84,-9.01 -1.27,-30.61 1.63,-39.3 21.54,-13.88 56.86,-24.17 84.03,-20.64 9.32,12.62 15.87,31.37 21.07,58.94 -21.92,25.56 -71.79,55.64 -175.6,57.42"
         style="fill:#5c5d5f;fill-opacity:1;fill-rule:nonzero;stroke:none"
         id="path52" /><path
         d="m 1473.22,1407.75 c -27.57,0 -49.92,22.35 -49.92,49.92 0,27.56 22.35,49.91 49.91,49.91 27.57,0 49.92,-22.35 49.92,-49.91 0,-27.57 -22.35,-49.92 -49.91,-49.92 z m 55.55,133.01 0,25.29 -30.58,0 0,-22.66 -49.95,0 0,22.66 -30.58,0 0,-25.29 -76.17,-89.04 1.75,-57.13 c 0,0 50.2,-29.12 129.38,-29.35 0.1,0 0.18,-0.02 0.28,-0.02 0.11,0 0.21,0.01 0.31,0.01 0.11,0 0.21,-0.01 0.32,-0.01 0.1,0 0.18,0.02 0.28,0.02 79.18,0.23 129.38,29.35 129.38,29.35 l 1.75,57.13 -76.17,89.04"
         style="fill:#5c5d5f;fill-opacity:1;fill-rule:nonzero;stroke:none"
         id="path54" /><path
         d="m 1066.8,1430.6 c -24.14,18.16 -62.71,30.51 -90.925,28.92 -7.508,-6.77 -21.531,-25.59 -26.234,-34.57 -16.801,4.81 -36.836,21.64 -55.075,39.87 -18.242,18.24 -35.066,38.28 -39.875,55.08 8.977,4.7 27.801,18.73 34.567,26.23 1.594,28.22 -10.758,66.79 -28.914,90.93 -17.184,2.08 -57.485,-0.58 -84.692,-15.32 -6.613,-36.53 3.024,-110.9 82.586,-193.24 82.344,-79.57 156.712,-89.2 193.242,-82.59 14.74,27.21 17.4,67.51 15.32,84.69"
         style="fill:#5c5d5f;fill-opacity:1;fill-rule:nonzero;stroke:none"
         id="path56" /><path
         d="m 1023.2,1594.68 -18.39,-11.6 64.69,-26.61 1.72,68.51 -16.87,-10.64 c -15.16,16.06 -37.18,26.25 -60.991,25.36 -30.632,-1.14 -56.511,-19.52 -68.781,-45.44 l 21.52,-9.3 c 14.664,30.01 51.804,37.37 77.102,9.72"
         style="fill:#5c5d5f;fill-opacity:1;fill-rule:nonzero;stroke:none"
         id="path58" /><path
         d="m 969.023,1536.68 18.391,11.61 -64.691,26.61 -1.727,-68.51 16.871,10.64 c 15.164,-16.07 37.184,-26.25 60.992,-25.37 30.641,1.15 56.511,19.53 68.781,45.45 l -21.52,9.3 c -14.66,-30.02 -51.8,-37.37 -77.097,-9.73"
         style="fill:#5c5d5f;fill-opacity:1;fill-rule:nonzero;stroke:none"
         id="path60" /><path
         d="m 381.82,1635.16 -2.668,-29.87 c 53.274,-4.72 95.282,-48.92 96.614,-103.09 l 29.961,0.75 c -1.707,69.46 -55.582,126.15 -123.907,132.21"
         style="fill:#5c5d5f;fill-opacity:1;fill-rule:nonzero;stroke:none"
         id="path62" /><path
         d="m 506.133,1428.17 c -24.141,18.15 -62.711,30.51 -90.926,28.91 -7.504,-6.77 -21.531,-25.59 -26.234,-34.57 -16.801,4.81 -36.832,21.64 -55.075,39.88 -18.238,18.24 -35.062,38.27 -39.875,55.07 8.981,4.71 27.801,18.73 34.567,26.24 1.594,28.21 -10.754,66.78 -28.914,90.92 -17.18,2.08 -57.481,-0.58 -84.692,-15.32 -6.613,-36.53 3.024,-110.9 82.586,-193.24 82.344,-79.56 156.711,-89.2 193.242,-82.59 14.739,27.21 17.399,67.51 15.321,84.7"
         style="fill:#5c5d5f;fill-opacity:1;fill-rule:nonzero;stroke:none"
         id="path64" /><path
         d="m 376.941,1580.54 -2.671,-29.91 c 24.363,-5.05 43.285,-24.95 47,-49.77 l 30.199,0.75 c -4.293,40.12 -35.117,72.35 -74.528,78.93"
         style="fill:#5c5d5f;fill-opacity:1;fill-rule:nonzero;stroke:none"
         id="path66" /><path
         d="m 494.273,850.148 c -10.261,0 -18.582,8.321 -18.582,18.582 0,10.258 8.321,18.579 18.582,18.579 10.262,0 18.582,-8.321 18.582,-18.579 0,-10.261 -8.32,-18.582 -18.582,-18.582 z m 22.055,128.493 -13.906,0 0,-43.153 -161.137,0 0,43.153 -25.683,0 0,-160.801 200.726,0 c 14.051,0 25.438,11.39 25.438,25.441 l 0,109.93 c 0,14.051 -11.387,25.43 -25.438,25.43"
         style="fill:#5c5d5f;fill-opacity:1;fill-rule:nonzero;stroke:none"
         id="path68" /><path
         d="m 248.738,1052.29 c -17.582,0 -34.207,-5.91 -49.191,-16.2 l 0,-229.91 c 14.984,-10.289 31.609,-16.2 49.191,-16.2 17.578,0 34.203,5.911 49.188,16.2 l 0,229.91 c -14.985,10.29 -31.61,16.2 -49.188,16.2"
         style="fill:#5c5d5f;fill-opacity:1;fill-rule:nonzero;stroke:none"
         id="path70" /><path
         d="m 355.711,930.699 0,114.641 c 0,1.23 1,2.23 2.23,2.23 l 76.774,0 0,-41.49 c 0,-9.092 7.363,-16.451 16.453,-16.451 l 42.18,0 0,-58.93 18.953,0 0,68.442 -67.735,67.379 -86.625,0 c -11.675,0 -21.179,-9.5 -21.179,-21.18 l 0,-114.641 18.949,0"
         style="fill:#5c5d5f;fill-opacity:1;fill-rule:nonzero;stroke:none"
         id="path72" /><path
         d="m 984.84,802.551 -123.778,41.961 27.391,80.808 c 3.098,0.258 6.164,0.59 9.184,1.032 14.371,-13.391 34.769,-27.942 64.394,-43.293 8.926,-4.618 11.336,-1.547 6.664,7.351 -11.453,21.82 -13.695,42.75 -13.383,59.828 16.055,12.641 26.965,29.172 30.45,47.582 L 1044.3,977.98 984.84,802.551 z m -48.645,-3.961 -1.293,-3.82 c -1.55,-4.571 -6.515,-7.02 -11.09,-5.469 l -22.359,7.578 c -4.574,1.551 -7.027,6.512 -5.476,11.09 l 1.293,3.812 c 1.55,4.578 6.515,7.028 11.093,5.481 l 22.36,-7.582 c 4.574,-1.551 7.023,-6.52 5.472,-11.09 z m -77.429,231.73 -0.18,0 c -0.359,-8.29 -0.637,-17.76 -1.094,-25.4 l -1.094,-23.311 -12.843,0 3.918,61.371 18.492,0 6.008,-20.49 c 1.91,-7.1 3.82,-14.75 5.187,-21.95 l 0.278,0 c 1.73,7.11 3.82,15.21 5.828,22.04 l 6.546,20.4 18.122,0 3.375,-61.371 -13.575,0 -0.902,23.491 c -0.277,7.37 -0.555,16.3 -0.555,25.22 l -0.273,0 c -1.91,-7.83 -4.457,-16.57 -6.824,-23.76 l -7.465,-23.951 -10.836,0 -6.563,23.761 c -1.996,7.2 -4.097,15.94 -5.55,23.95 z m -47.938,-49.629 c -7.016,0 -13.937,1.829 -17.398,3.739 l 2.824,11.468 c 3.738,-1.91 9.469,-3.82 15.391,-3.82 6.371,0 9.746,2.633 9.746,6.641 0,3.831 -2.918,6.021 -10.297,8.651 -10.192,3.55 -16.848,9.2 -16.848,18.12 0,10.47 8.75,18.49 23.227,18.49 6.922,0 12.015,-1.45 15.66,-3.1 l -3.09,-11.2 c -2.465,1.19 -6.836,2.92 -12.844,2.92 -6.008,0 -8.929,-2.73 -8.929,-5.92 0,-3.91 3.46,-5.64 11.39,-8.65 10.828,-4.01 15.934,-9.65 15.934,-18.3 0,-10.3 -7.93,-19.039 -24.766,-19.039 z m 126.36,26.679 c -10.188,3.55 -16.844,9.2 -16.844,18.12 0,10.47 8.746,18.49 23.226,18.49 6.918,0 12.016,-1.45 15.657,-3.1 l -3.09,-11.2 c -2.461,1.19 -6.836,2.92 -12.844,2.92 -6.008,0 -8.93,-2.73 -8.93,-5.92 0,-3.91 3.461,-5.64 11.395,-8.65 10.824,-4.01 15.93,-9.65 15.93,-18.3 0,-10.3 -7.918,-19.039 -24.762,-19.039 -7.02,0 -13.942,1.829 -17.399,3.739 l 2.821,11.468 c 3.738,-1.91 9.468,-3.82 15.394,-3.82 6.367,0 9.742,2.633 9.742,6.641 0,3.831 -2.918,6.021 -10.296,8.651 z m 119.212,2.25 -73.912,25.05 c -13.488,35.36 -55.527,61.17 -105.371,61.17 -60.726,0 -109.953,-38.28 -109.953,-85.51 0,-43.228 41.266,-78.861 94.801,-84.611 l -31.926,-94.188 c -4.242,-12.511 2.461,-26.09 14.973,-30.332 L 971.246,758.41 c 12.512,-4.238 26.09,2.461 30.334,14.969 l 69.79,205.91 c 4.24,12.512 -2.46,26.091 -14.97,30.331"
         style="fill:#5c5d5f;fill-opacity:1;fill-rule:nonzero;stroke:none"
         id="path74" /><path
         d="m 2147.84,1038.65 -23.03,-19.25 c 35.5,-52.002 33.82,-121.822 -4.95,-172.162 l 21.88,-20.816 c 49.21,61.547 51.17,148.519 6.1,212.228 z m -47.78,-39.939 -23.03,-19.262 c 8.38,-12.558 12.88,-27.308 12.88,-42.758 0,-16.921 -5.47,-32.953 -15.45,-46.242 l 21.87,-20.808 c 15.25,18.968 23.58,42.347 23.58,67.05 0,22.571 -7.01,44.008 -19.85,62.02"
         style="fill:#5c5d5f;fill-opacity:1;fill-rule:nonzero;stroke:none"
         id="path76" /><path
         d="m 2017.77,845.531 -128.6,0 0,180.439 128.6,0 0,-180.439 z m -40.59,-26.992 c 0,-5.57 -4.52,-10.09 -10.09,-10.09 l -27.24,0 c -5.57,0 -10.09,4.52 -10.09,10.09 l 0,4.652 c 0,5.571 4.52,10.09 10.09,10.09 l 27.24,0 c 5.57,0 10.09,-4.519 10.09,-10.09 l 0,-4.652 z m 42.09,246.481 -131.6,0 c -15.24,0 -27.59,-12.36 -27.59,-27.6 l 0,-217.561 c 0,-15.238 12.35,-27.589 27.59,-27.589 l 131.6,0 c 15.24,0 27.59,12.351 27.59,27.589 l 0,217.561 c 0,15.24 -12.35,27.6 -27.59,27.6"
         style="fill:#5c5d5f;fill-opacity:1;fill-rule:nonzero;stroke:none"
         id="path78" /><path
         d="m 1601.1,961.262 -68.52,-18.481 9.77,-28.441 67.55,18.219 -8.8,28.703 z m -125.17,102.158 -21.72,-67.408 29.08,-7.571 21.47,66.629 -28.83,8.35 z m 73.56,-33.91 -48.29,-51.1 21.71,-20.691 48.3,51.101 -21.72,20.69"
         style="fill:#5c5d5f;fill-opacity:1;fill-rule:nonzero;stroke:none"
         id="path80" /><path
         d="m 1606.12,862.371 c -24.14,18.16 -62.71,30.508 -90.92,28.918 -7.51,-6.769 -21.54,-25.59 -26.24,-34.57 -16.8,4.812 -36.83,21.64 -55.07,39.883 -18.24,18.238 -35.07,38.269 -39.88,55.07 8.98,4.699 27.8,18.726 34.57,26.226 1.59,28.222 -10.76,66.792 -28.92,90.932 -17.18,2.08 -57.48,-0.58 -84.69,-15.32 -6.61,-36.53 3.02,-110.901 82.59,-193.24 82.34,-79.571 156.71,-89.2 193.24,-82.59 14.74,27.211 17.4,67.511 15.32,84.691"
         style="fill:#5c5d5f;fill-opacity:1;fill-rule:nonzero;stroke:none"
         id="path82" /><path
         d="m 1941.36,485.332 c -17.65,0 -34.35,-5.934 -49.41,-16.273 l 0,-192.43 c 15.06,-10.34 31.76,-16.27 49.41,-16.27 17.66,0 34.36,5.93 49.42,16.27 l 0,192.43 c -15.06,10.339 -31.76,16.273 -49.42,16.273"
         style="fill:#5c5d5f;fill-opacity:1;fill-rule:nonzero;stroke:none"
         id="path84" /><path
         d="m 2149.05,371.77 -98.25,0 c -3.14,4.562 -4.93,9.609 -4.93,14.96 0,5.348 1.79,10.399 4.93,14.961 l 98.25,0 c 3.14,-4.562 4.93,-9.613 4.93,-14.961 0,-5.351 -1.79,-10.398 -4.93,-14.96 z m -12.21,-41.469 c -7.4,0 -13.39,5.988 -13.39,13.39 0,7.391 5.99,13.387 13.39,13.387 7.39,0 13.39,-5.996 13.39,-13.387 0,-7.402 -6,-13.39 -13.39,-13.39 z m 0,-35.59 c -7.4,0 -13.39,5.988 -13.39,13.391 0,7.386 5.99,13.386 13.39,13.386 7.39,0 13.39,-6 13.39,-13.386 0,-7.403 -6,-13.391 -13.39,-13.391 z m 0,-35.59 c -7.4,0 -13.39,6 -13.39,13.391 0,7.398 5.99,13.386 13.39,13.386 7.39,0 13.39,-5.988 13.39,-13.386 0,-7.391 -6,-13.391 -13.39,-13.391 z m -38.05,71.18 c -7.39,0 -13.39,5.988 -13.39,13.39 0,7.391 6,13.387 13.39,13.387 7.4,0 13.39,-5.996 13.39,-13.387 0,-7.402 -5.99,-13.39 -13.39,-13.39 z m 0,-35.59 c -7.39,0 -13.39,5.988 -13.39,13.391 0,7.386 6,13.386 13.39,13.386 7.4,0 13.39,-6 13.39,-13.386 0,-7.403 -5.99,-13.391 -13.39,-13.391 z m 0,-35.59 c -7.39,0 -13.39,6 -13.39,13.391 0,7.398 6,13.386 13.39,13.386 7.4,0 13.39,-5.988 13.39,-13.386 0,-7.391 -5.99,-13.391 -13.39,-13.391 z m -38.04,71.18 c -7.4,0 -13.39,5.988 -13.39,13.39 0,7.391 5.99,13.387 13.39,13.387 7.39,0 13.39,-5.996 13.39,-13.387 0,-7.402 -6,-13.39 -13.39,-13.39 z m 0,-35.59 c -7.4,0 -13.39,5.988 -13.39,13.391 0,7.386 5.99,13.386 13.39,13.386 7.39,0 13.39,-6 13.39,-13.386 0,-7.403 -6,-13.391 -13.39,-13.391 z m 0,-35.59 c -7.4,0 -13.39,6 -13.39,13.391 0,7.398 5.99,13.386 13.39,13.386 7.39,0 13.39,-5.988 13.39,-13.386 0,-7.391 -6,-13.391 -13.39,-13.391 z m 132.39,171.219 c -53.2,10.941 -112.21,17.219 -174.62,17.219 -2.6,0 -5.16,-0.079 -7.74,-0.098 l 0,-181.352 -8.68,-5.961 c -19.11,-13.128 -39.54,-19.789 -60.74,-19.789 -21.19,0 -41.62,6.661 -60.73,19.789 l -8.68,5.961 0,169.411 c -9.49,-1.598 -18.88,-3.29 -28.03,-5.18 l 0,-203.539 c 53.2,-10.942 112.2,-17.211 174.61,-17.211 62.4,0 121.41,6.269 174.61,17.211 l 0,203.539"
         style="fill:#5c5d5f;fill-opacity:1;fill-rule:nonzero;stroke:none"
         id="path86" /><path
         d="m 1306.34,406.422 0,-125.434 81.24,-0.539 96.23,-80.16 0,286.293 -96.23,-80.16 -81.24,0"
         style="fill:#5c5d5f;fill-opacity:1;fill-rule:nonzero;stroke:none"
         id="path88" /><path
         d="m 1544.34,403.039 -25.68,-26.008 c 7.04,-6.941 11.24,-18.32 11.24,-30.441 0,-13.719 -5.51,-26.61 -14.04,-32.828 l 21.55,-29.532 c 18.18,13.282 29.04,36.59 29.04,62.36 0,22.012 -8.07,42.59 -22.11,56.449"
         style="fill:#5c5d5f;fill-opacity:1;fill-rule:nonzero;stroke:none"
         id="path90" /><path
         d="M 1591.82,453.859 1567.9,426.23 c 20.19,-17.48 32.24,-47.25 32.24,-79.64 0,-33.488 -13.29,-64.781 -34.69,-81.649 l 22.63,-28.703 c 30.44,23.992 48.61,65.25 48.61,110.352 0,42.84 -16.78,82.941 -44.87,107.269"
         style="fill:#5c5d5f;fill-opacity:1;fill-rule:nonzero;stroke:none"
         id="path92" /><path
         d="m 868.523,299.629 c 0,-17.391 -14.093,-31.481 -31.472,-31.481 -17.383,0 -31.477,14.09 -31.477,31.481 0,17.383 14.094,31.473 31.477,31.473 17.379,0 31.472,-14.09 31.472,-31.473"
         style="fill:#5c5d5f;fill-opacity:1;fill-rule:nonzero;stroke:none"
         id="path94" /><path
         d="m 949.004,299.629 c 0,-17.391 -14.094,-31.481 -31.473,-31.481 -17.383,0 -31.472,14.09 -31.472,31.481 0,17.383 14.089,31.473 31.472,31.473 17.379,0 31.473,-14.09 31.473,-31.473"
         style="fill:#5c5d5f;fill-opacity:1;fill-rule:nonzero;stroke:none"
         id="path96" /><path
         d="m 1029.48,299.629 c 0,-17.391 -14.09,-31.481 -31.468,-31.481 -17.383,0 -31.473,14.09 -31.473,31.481 0,17.383 14.09,31.473 31.473,31.473 17.378,0 31.468,-14.09 31.468,-31.473"
         style="fill:#5c5d5f;fill-opacity:1;fill-rule:nonzero;stroke:none"
         id="path98" /><path
         d="m 868.523,224.352 c 0,-17.391 -14.093,-31.481 -31.472,-31.481 -17.383,0 -31.477,14.09 -31.477,31.481 0,17.378 14.094,31.468 31.477,31.468 17.379,0 31.472,-14.09 31.472,-31.468"
         style="fill:#5c5d5f;fill-opacity:1;fill-rule:nonzero;stroke:none"
         id="path100" /><path
         d="m 949.004,224.352 c 0,-17.391 -14.094,-31.481 -31.473,-31.481 -17.383,0 -31.472,14.09 -31.472,31.481 0,17.378 14.089,31.468 31.472,31.468 17.379,0 31.473,-14.09 31.473,-31.468"
         style="fill:#5c5d5f;fill-opacity:1;fill-rule:nonzero;stroke:none"
         id="path102" /><path
         d="m 1029.48,224.34 c 0,-17.379 -14.09,-31.469 -31.468,-31.469 -17.383,0 -31.473,14.09 -31.473,31.469 0,17.39 14.09,31.48 31.473,31.48 17.378,0 31.468,-14.09 31.468,-31.48"
         style="fill:#5c5d5f;fill-opacity:1;fill-rule:nonzero;stroke:none"
         id="path104" /><path
         d="m 868.523,374.91 c 0,-17.39 -14.093,-31.48 -31.472,-31.48 -17.383,0 -31.477,14.101 -31.477,31.48 0,17.379 14.094,31.469 31.477,31.469 17.379,0 31.472,-14.09 31.472,-31.469"
         style="fill:#5c5d5f;fill-opacity:1;fill-rule:nonzero;stroke:none"
         id="path106" /><path
         d="m 949.004,374.91 c 0,-17.39 -14.094,-31.48 -31.473,-31.48 -17.383,0 -31.472,14.09 -31.472,31.48 0,17.379 14.089,31.469 31.472,31.469 17.379,0 31.473,-14.09 31.473,-31.469"
         style="fill:#5c5d5f;fill-opacity:1;fill-rule:nonzero;stroke:none"
         id="path108" /><path
         d="m 1029.48,374.91 c 0,-17.39 -14.09,-31.48 -31.468,-31.48 -17.383,0 -31.473,14.09 -31.473,31.48 0,17.379 14.09,31.469 31.473,31.469 17.378,0 31.468,-14.09 31.468,-31.469"
         style="fill:#5c5d5f;fill-opacity:1;fill-rule:nonzero;stroke:none"
         id="path110" /><path
         d="m 1034.27,465.961 c 0,11.309 -3.79,22.008 -10.42,31.648 l -207.854,0 c -6.621,-9.648 -10.422,-20.339 -10.422,-31.648 0,-11.313 3.801,-22 10.422,-31.641 l 207.854,0 c 6.63,9.641 10.42,20.328 10.42,31.641"
         style="fill:#5c5d5f;fill-opacity:1;fill-rule:nonzero;stroke:none"
         id="path112" /></g></g></svg>