<?xml version="1.0" encoding="UTF-8" standalone="no"?>
<!-- Created with Inkscape (http://www.inkscape.org/) -->

<svg
   xmlns:dc="http://purl.org/dc/elements/1.1/"
   xmlns:cc="http://creativecommons.org/ns#"
   xmlns:rdf="http://www.w3.org/1999/02/22-rdf-syntax-ns#"
   xmlns:svg="http://www.w3.org/2000/svg"
   xmlns="http://www.w3.org/2000/svg"
   xmlns:sodipodi="http://sodipodi.sourceforge.net/DTD/sodipodi-0.dtd"
   xmlns:inkscape="http://www.inkscape.org/namespaces/inkscape"
   id="svg2"
   version="1.1"
   inkscape:version="0.48.5 r10040"
   width="1875"
   height="1875"
   xml:space="preserve"
   sodipodi:docname="phones.eps"><metadata
     id="metadata8"><rdf:RDF><cc:Work
         rdf:about=""><dc:format>image/svg+xml</dc:format><dc:type
           rdf:resource="http://purl.org/dc/dcmitype/StillImage" /><dc:title></dc:title></cc:Work></rdf:RDF></metadata><defs
     id="defs6" /><sodipodi:namedview
     pagecolor="#ffffff"
     bordercolor="#666666"
     borderopacity="1"
     objecttolerance="10"
     gridtolerance="10"
     guidetolerance="10"
     inkscape:pageopacity="0"
     inkscape:pageshadow="2"
     inkscape:window-width="1600"
     inkscape:window-height="861"
     id="namedview4"
     showgrid="false"
     inkscape:zoom="0.35600469"
     inkscape:cx="1207.6766"
     inkscape:cy="1045.8465"
     inkscape:window-x="1366"
     inkscape:window-y="0"
     inkscape:window-maximized="1"
     inkscape:current-layer="g10" /><g
     id="g10"
     inkscape:groupmode="layer"
     inkscape:label="ink_ext_XXXXXX"
     transform="matrix(1.25,0,0,-1.25,0,1875)"><g
       id="g12"
       transform="scale(0.102249,0.102249)"><path
         d="m 0,0 14670,0 0,14670 L 0,14670 0,0 z"
         style="fill:#2b8f7e;fill-opacity:1;fill-rule:evenodd;stroke:none"
         id="path14" /><path
         d="m 4507.71,2474.63 c 0,-211.05 -171.08,-382.1 -382.16,-382.1 l -2074.54,0 c -211.05,0 -382.16,171.05 -382.16,382.1 l 0,3876.16 c 0,211.06 171.11,382.16 382.16,382.16 l 2074.54,0 c 211.08,0 382.16,-171.1 382.16,-382.16 l 0,-3876.16"
         style="fill:#e2e2e2;fill-opacity:1;fill-rule:evenodd;stroke:none"
         id="path16" /><path
         d="m 2051.01,2911.41 c -60.2,0 -109.18,49 -109.18,109.24 l 0,3330.14 c 0,60.21 48.98,109.19 109.18,109.19 l 2074.54,0 c 60.22,0 109.19,-48.98 109.19,-109.19 l 0,-3330.14 c 0,-60.24 -48.97,-109.24 -109.19,-109.24 l -2074.54,0"
         style="fill:#e6c657;fill-opacity:1;fill-rule:nonzero;stroke:none"
         id="path18" /><path
         d="m 4125.55,6459.98 -1801.58,0 1910.77,-1910.81 0,1801.62 c 0,60.21 -48.97,109.19 -109.19,109.19"
         style="fill:#ebd27b;fill-opacity:1;fill-rule:nonzero;stroke:none"
         id="path20" /><path
         d="m 5373.81,5642.95 -955.06,952.98 c 55.49,-66.4 88.96,-151.85 88.96,-245.14 l 0,-3876.16 c 0,-211.05 -171.08,-382.1 -382.16,-382.1 l -2074.54,0 c -80.05,0 -154.33,24.65 -215.72,66.7 l 892.88,-898.1 c 69.95,-89.29 178.69,-146.7 300.89,-146.7 l 2074.55,0 c 211.07,0 382.15,171.05 382.15,382.11 l 0,3876.15 c 0,105.55 -42.78,201.1 -111.95,270.26"
         style="fill:#007864;fill-opacity:1;fill-rule:evenodd;stroke:none"
         id="path22" /><path
         d="m 9146.5,8645.59 c 0,-90.45 73.33,-163.79 163.78,-163.79 l 2784.22,0 c 90.5,0 163.9,73.34 163.9,163.79 l 0,3139.11 c 0,90.5 -73.4,163.8 -163.9,163.8 l -2784.22,0 c -90.45,0 -163.78,-73.3 -163.78,-163.8 l 0,-3139.11"
         style="fill:#cecece;fill-opacity:1;fill-rule:evenodd;stroke:none"
         id="path24" /><path
         d="m 10061,11948.5 0,-2456.71 c 0,-120.63 97.7,-218.38 218.4,-218.38 l 1119.1,0 c 120.6,0 218.4,97.75 218.4,218.38 l 0,2456.71 -1555.9,0"
         style="fill:#b9b9b9;fill-opacity:1;fill-rule:evenodd;stroke:none"
         id="path26" /><path
         d="m 9924.45,9628.27 c 0,-120.6 97.75,-218.38 218.35,-218.38 l 1119.2,0 c 120.6,0 218.4,97.78 218.4,218.38 l 0,3958.03 c 0,120.6 -97.8,218.4 -218.4,218.4 l -1119.2,0 c -120.6,0 -218.35,-97.8 -218.35,-218.4 l 0,-3958.03"
         style="fill:#e2e2e2;fill-opacity:1;fill-rule:evenodd;stroke:none"
         id="path28" /><path
         d="m 10238.4,11675.5 928.023,0 0,1719.7 -928.023,0 0,-1719.7 z"
         style="fill:#e6c657;fill-opacity:1;fill-rule:nonzero;stroke:none"
         id="path30" /><path
         d="m 10238.4,9751.1 928.023,0 0,996.336 -928.023,0 0,-996.336 z"
         style="fill:#1f1f1f;fill-opacity:1;fill-rule:nonzero;stroke:none"
         id="path32" /><path
         d="m 9924.45,11102.3 1555.9,0 0,163.785 -1555.9,0 0,-163.785 z"
         style="fill:#b9b9b9;fill-opacity:1;fill-rule:evenodd;stroke:none"
         id="path34" /><path
         d="m 11166.4,12634.8 0,760.4 -760.4,0 760.4,-760.4"
         style="fill:#ebd27b;fill-opacity:1;fill-rule:nonzero;stroke:none"
         id="path36" /><path
         d="m 9189.86,8534.84 c -0.07,-0.18 2.6,-2.84 2.6,-2.84 -0.89,0.91 -1.73,1.89 -2.6,2.84"
         style="fill:#007864;fill-opacity:1;fill-rule:evenodd;stroke:none"
         id="path38" /><path
         d="m 11414.3,13742.6 -1.8,2 c 0.6,-0.7 1.3,-1.3 1.8,-2"
         style="fill:#007864;fill-opacity:1;fill-rule:evenodd;stroke:none"
         id="path40" /><path
         d="m 13196.3,10913.8 c 0,0.1 -1.4,1.5 -1.4,1.5 -4.1,4.7 -8.5,9.1 -13.2,13.3 l -723.3,725.3 0,954.3 c 0,57.6 -22.3,109.9 -58.5,148.9 0,0 -0.4,0.4 -0.4,0.4 -3.4,3.5 -6.7,6.8 -10.2,10.1 l -971,971.1 c 38.4,-39.4 62.1,-93.1 62.1,-152.4 l 0,-1637.8 614.1,0 c 90.5,0 163.9,-73.3 163.9,-163.8 l 0,-3139.11 c 0,-90.45 -73.4,-163.79 -163.9,-163.79 l -2784.22,0 c -44.13,0 -84.11,17.55 -113.56,45.93 l 966.68,-966.06 c 30.1,-35.35 74.9,-57.92 125,-57.92 l 2784.2,0 c 90.5,0 163.8,73.34 163.8,163.79 l 0,3139.16 c 0,41 -15.2,78.4 -40.1,107.1"
         style="fill:#007864;fill-opacity:1;fill-rule:evenodd;stroke:none"
         id="path42" /><path
         d="m 12441.7,2794.93 c 0,-286.46 -232.2,-518.63 -518.6,-518.63 l -4694.74,0 c -286.43,0 -518.65,232.17 -518.65,518.63 l 0,3261.71 c 0,286.45 232.22,518.63 518.65,518.63 l 4694.74,0 c 286.4,0 518.6,-232.18 518.6,-518.63 l 0,-3261.71"
         style="fill:#e2e2e2;fill-opacity:1;fill-rule:evenodd;stroke:none"
         id="path44" /><path
         d="m 7031.66,6536.41 c -63.93,-86.21 -102.21,-192.63 -102.21,-308.21 l 0,-3856.65 c 84.53,-59.85 187.5,-95.25 298.91,-95.25 l 1460.15,0 c 3.63,24.74 6.13,49.97 6.13,75.79 l 0,3876.11 c 0,133.65 -50.96,255.11 -134.02,347.07 l -1332.26,0 c -69.65,0 -136.01,-13.93 -196.7,-38.86"
         style="fill:#b9b9b9;fill-opacity:1;fill-rule:evenodd;stroke:none"
         id="path46" /><path
         d="m 7202.41,6228.2 0,-3876.11 c 0,-25.52 2.46,-50.37 6.01,-74.82 6.66,-0.29 13.2,-0.97 19.94,-0.97 l 1733.13,0 c 3.62,24.74 6.13,49.97 6.13,75.79 l 0,3876.11 c 0,133.65 -50.98,255.11 -134.04,347.07 l -1497.12,0 c -83.05,-91.96 -134.05,-213.42 -134.05,-347.07"
         style="fill:#b9b9b9;fill-opacity:1;fill-rule:evenodd;stroke:none"
         id="path48" /><path
         d="m 8831.14,2488.52 c 0,-286.45 -232.2,-518.63 -518.65,-518.63 l -727.9,0 c -286.46,0 -518.66,232.18 -518.66,518.63 l 0,3876.16 c 0,286.45 232.2,518.63 518.66,518.63 l 727.9,0 c 286.45,0 518.65,-232.18 518.65,-518.63 l 0,-3876.16"
         style="fill:#e2e2e2;fill-opacity:1;fill-rule:evenodd;stroke:none"
         id="path50" /><path
         d="m 9258.79,5074.93 2711.45,0 0,909.883 -2711.45,0 0,-909.883 z"
         style="fill:#e6c657;fill-opacity:1;fill-rule:nonzero;stroke:none"
         id="path52" /><path
         d="m 9982.15,4081.59 -661.44,0 c -34.2,0 -61.92,27.68 -61.92,61.9 l 0,342.3 c 0,34.23 27.72,61.91 61.92,61.91 l 661.44,0 c 34.25,0 61.95,-27.68 61.95,-61.91 l 0,-342.3 c 0,-34.22 -27.7,-61.9 -61.95,-61.9"
         style="fill:#1f1f1f;fill-opacity:1;fill-rule:nonzero;stroke:none"
         id="path54" /><path
         d="m 9982.15,3444.03 -661.44,0 c -34.2,0 -61.92,27.77 -61.92,61.9 l 0,342.3 c 0,34.23 27.72,61.91 61.92,61.91 l 661.44,0 c 34.25,0 61.95,-27.68 61.95,-61.91 l 0,-342.3 c 0,-34.13 -27.7,-61.9 -61.95,-61.9"
         style="fill:#1f1f1f;fill-opacity:1;fill-rule:nonzero;stroke:none"
         id="path56" /><path
         d="m 9982.15,2806.47 -661.44,0 c -34.2,0 -61.92,27.78 -61.92,61.91 l 0,342.3 c 0,34.23 27.72,61.91 61.92,61.91 l 661.44,0 c 34.25,0 61.95,-27.68 61.95,-61.91 l 0,-342.3 c 0,-34.13 -27.7,-61.91 -61.95,-61.91"
         style="fill:#1f1f1f;fill-opacity:1;fill-rule:nonzero;stroke:none"
         id="path58" /><path
         d="m 10935.9,4081.59 -661.4,0 c -34.3,0 -61.9,27.68 -61.9,61.9 l 0,342.3 c 0,34.23 27.6,61.91 61.9,61.91 l 661.4,0 c 34.2,0 61.9,-27.68 61.9,-61.91 l 0,-342.3 c 0,-34.22 -27.7,-61.9 -61.9,-61.9"
         style="fill:#1f1f1f;fill-opacity:1;fill-rule:nonzero;stroke:none"
         id="path60" /><path
         d="m 10935.9,3444.03 -661.4,0 c -34.3,0 -61.9,27.77 -61.9,61.9 l 0,342.3 c 0,34.23 27.6,61.91 61.9,61.91 l 661.4,0 c 34.2,0 61.9,-27.68 61.9,-61.91 l 0,-342.3 c 0,-34.13 -27.7,-61.9 -61.9,-61.9"
         style="fill:#1f1f1f;fill-opacity:1;fill-rule:nonzero;stroke:none"
         id="path62" /><path
         d="m 10935.9,2806.47 -661.4,0 c -34.3,0 -61.9,27.78 -61.9,61.91 l 0,342.3 c 0,34.23 27.6,61.91 61.9,61.91 l 661.4,0 c 34.2,0 61.9,-27.68 61.9,-61.91 l 0,-342.3 c 0,-34.13 -27.7,-61.91 -61.9,-61.91"
         style="fill:#1f1f1f;fill-opacity:1;fill-rule:nonzero;stroke:none"
         id="path64" /><path
         d="m 11902.1,4081.59 -661.5,0 c -34.2,0 -62,27.68 -62,61.9 l 0,342.3 c 0,34.23 27.8,61.91 62,61.91 l 661.5,0 c 34.1,0 61.9,-27.68 61.9,-61.91 l 0,-342.3 c 0,-34.22 -27.8,-61.9 -61.9,-61.9"
         style="fill:#1f1f1f;fill-opacity:1;fill-rule:nonzero;stroke:none"
         id="path66" /><path
         d="m 11902.1,3444.03 -661.5,0 c -34.2,0 -62,27.77 -62,61.9 l 0,342.3 c 0,34.23 27.8,61.91 62,61.91 l 661.5,0 c 34.1,0 61.9,-27.68 61.9,-61.91 l 0,-342.3 c 0,-34.13 -27.8,-61.9 -61.9,-61.9"
         style="fill:#1f1f1f;fill-opacity:1;fill-rule:nonzero;stroke:none"
         id="path68" /><path
         d="m 11902.1,2806.47 -661.5,0 c -34.2,0 -62,27.78 -62,61.91 l 0,342.3 c 0,34.23 27.8,61.91 62,61.91 l 661.5,0 c 34.1,0 61.9,-27.68 61.9,-61.91 l 0,-342.3 c 0,-34.13 -27.8,-61.91 -61.9,-61.91"
         style="fill:#1f1f1f;fill-opacity:1;fill-rule:nonzero;stroke:none"
         id="path70" /><path
         d="m 11166.5,5074.93 803.7,0 0,909.88 -1713.5,0 909.8,-909.88"
         style="fill:#ebd27b;fill-opacity:1;fill-rule:nonzero;stroke:none"
         id="path72" /><path
         d="m 9258.79,4818.51 2703.52,0 0,259.094 -2703.52,0 0,-259.094 z"
         style="fill:#ffffff;fill-opacity:1;fill-rule:evenodd;stroke:none"
         id="path74" /><path
         d="m 6817.42,2478.64 c -0.08,0 0.4,-0.48 0.4,-0.48 -0.13,0.19 -0.26,0.39 -0.4,0.48"
         style="fill:#007864;fill-opacity:1;fill-rule:evenodd;stroke:none"
         id="path76" /><path
         d="m 12288.6,6424.64 -3.5,3.38 c 1.1,-1.23 2.3,-2.27 3.5,-3.38"
         style="fill:#007864;fill-opacity:1;fill-rule:evenodd;stroke:none"
         id="path78" /><path
         d="m 13266.2,5446.98 -975.1,975.06 c 93.1,-93.74 150.6,-222.84 150.6,-365.4 l 0,-3261.71 c 0,-286.46 -232.2,-518.63 -518.6,-518.63 l -3137.43,0 c -81.13,-180.64 -262.4,-306.41 -473.18,-306.41 l -727.9,0 c -216.55,0 -402.01,132.71 -479.66,321.27 -72.38,17.7 -138.75,50.56 -195.66,95.06 l 917.55,-922.74 c 67.83,-72.77 156.33,-126.07 256.18,-150.42 77.67,-188.56 263.14,-321.271 479.67,-321.271 l 727.92,0 c 210.78,0 392.05,125.771 473.18,306.411 l 3137.43,0 c 286.4,0 518.6,232.18 518.6,518.63 l 0,3261.71 c 0,144.12 -58.8,274.46 -153.6,368.44"
         style="fill:#007864;fill-opacity:1;fill-rule:evenodd;stroke:none"
         id="path80" /><path
         d="M 6937.69,12743.3 C 4928.5,12626 3803,12626 1793.81,12743.3 l 25.9,29.2 132.73,149 143.95,161.8 c 1811.27,506.6 2805.1,476.5 4547.9,-14.4 L 6777.2,12921.4 6911,12773 c 0,-0.1 26.69,-29.7 26.69,-29.7"
         style="fill:#e2e2e2;fill-opacity:1;fill-rule:nonzero;stroke:none"
         id="path82" /><path
         d="m 1819.71,12772.5 -25.9,-29.2 c 2009.19,-117.3 3134.69,-117.3 5143.88,0 l -26.69,29.6 c 0,0.1 -95.64,106.2 -95.64,106.2 -1965.29,169 -3038.11,168.4 -4900.71,0 l -94.94,-106.6"
         style="fill:#b9b9b9;fill-opacity:1;fill-rule:nonzero;stroke:none"
         id="path84" /><path
         d="m 7261.18,12734.1 c -2.73,54 -48.68,99.5 -102.65,101.8 l -379.62,15.9 0.88,0 c -566.3,-187.5 -709.72,-451.8 -801.72,-1023.6 l 1233.92,-51.7 c 53.97,-2.3 95.51,39.6 92.79,93.5 l -43.6,864.1"
         style="fill:#e2e2e2;fill-opacity:1;fill-rule:nonzero;stroke:none"
         id="path86" /><path
         d="m 5907.92,12036.4 c 15.6,-15.2 36.98,-24.8 61.57,-25.9 l 1280.62,-53.7 c 18.37,-0.8 35.28,3.5 49.72,11.4 l 4.95,-98.2 c 2.72,-53.9 -38.82,-95.8 -92.79,-93.5 l -1233.92,51.7 c -53.96,2.3 -91.86,47.5 -84.62,101 l 14.47,107.2"
         style="fill:#cecece;fill-opacity:1;fill-rule:evenodd;stroke:none"
         id="path88" /><path
         d="m 5893.45,11929.2 128.88,954.3 757.46,-31.7 c -566.3,-187.5 -709.72,-451.8 -801.72,-1023.6 -53.96,2.3 -91.86,47.5 -84.62,101"
         style="fill:#b9b9b9;fill-opacity:1;fill-rule:nonzero;stroke:none"
         id="path90" /><path
         d="m 1470.09,12734.1 c 2.73,54 48.69,99.5 102.66,101.8 l 379.61,15.9 -0.87,0 c 566.3,-187.5 709.71,-451.8 801.72,-1023.6 l -1233.92,-51.7 c -53.98,-2.3 -95.52,39.6 -92.8,93.5 l 43.6,864.1"
         style="fill:#e2e2e2;fill-opacity:1;fill-rule:nonzero;stroke:none"
         id="path92" /><path
         d="m 2823.36,12036.4 c -15.61,-15.2 -36.98,-24.8 -61.57,-25.9 l -1280.63,-53.7 c -18.37,-0.8 -35.28,3.5 -49.71,11.4 l -4.96,-98.2 c -2.72,-53.9 38.82,-95.8 92.8,-93.5 l 1233.92,51.7 c 53.95,2.3 91.85,47.5 84.61,101 l -14.46,107.2"
         style="fill:#cecece;fill-opacity:1;fill-rule:evenodd;stroke:none"
         id="path94" /><path
         d="m 2837.82,11929.2 -128.88,954.3 -757.45,-31.7 c 566.3,-187.5 709.71,-451.8 801.72,-1023.6 53.95,2.3 91.85,47.5 84.61,101"
         style="fill:#b9b9b9;fill-opacity:1;fill-rule:nonzero;stroke:none"
         id="path96" /><path
         d="m 6570.32,8772.66 -4440.58,0 c -54.01,0 -97.8,28.9 -97.8,64.57 l 0,729.65 4636.18,0 0,-729.65 c 0,-35.67 -43.78,-64.57 -97.8,-64.57"
         style="fill:#cecece;fill-opacity:1;fill-rule:evenodd;stroke:none"
         id="path98" /><path
         d="m 5298.85,11767.6 -1897.64,0 C 2974.87,10897 2653.88,10417.3 2031.94,9566.88 l 4636.18,0 c -678.91,840.22 -983.76,1321.42 -1369.27,2200.72"
         style="fill:#e2e2e2;fill-opacity:1;fill-rule:nonzero;stroke:none"
         id="path100" /><path
         d="m 3347.92,12771.5 c -18.87,50.6 -70.6,94 -124.62,94 l -291.56,0 c -54.01,0 -97.8,-43.8 -97.8,-97.8 l 0,-259.1 c 0,-108 66.04,-195.6 147.53,-195.6 l 30.15,0 389.59,-547.9 1897.64,0 389.59,547.9 c 0,0 -44.33,0 45.76,0 90.1,0 163.14,87.6 163.14,195.6 l 0,259.1 c 0,54 -43.79,97.8 -97.8,97.8 -151.38,0 -115.02,0 -291.57,0 -54.01,0 -105.74,-43.4 -124.62,-94 -123.88,-332.1 -532.59,-575.8 -1017.71,-575.8 -485.13,0 -893.84,243.7 -1017.72,575.8"
         style="fill:#cecece;fill-opacity:1;fill-rule:evenodd;stroke:none"
         id="path102" /><path
         d="m 5799.54,12865.5 c -151.38,0 -115.02,0 -291.57,0 -54.01,0 -105.74,-43.4 -124.62,-94 -4.24,-11.3 -8.9,-22.6 -13.81,-33.8 40.8,18 90.46,30 138.43,30 176.55,0 140.19,0 291.57,0 54.01,0 97.8,-43.8 97.8,-97.8 l 0,97.8 c 0,54 -43.79,97.8 -97.8,97.8 z m -2965.6,-195.6 0,97.8 c 0,54 43.79,97.8 97.8,97.8 l 291.56,0 c 54.02,0 105.75,-43.4 124.62,-94 4.6,-12.3 9.7,-24.4 15.07,-36.5 -37.82,19.3 -86.01,32.7 -139.69,32.7 l -291.56,0 c -54.01,0 -97.8,-43.8 -97.8,-97.8"
         style="fill:#e2e2e2;fill-opacity:1;fill-rule:nonzero;stroke:none"
         id="path104" /><path
         d="m 4942.15,10599.2 c -64.44,59.3 -64.44,155.4 0,214.7 64.43,59.3 168.89,59.3 233.32,0 64.43,-59.3 64.43,-155.4 0,-214.7 -64.43,-59.2 -168.89,-59.2 -233.32,0 z m -81.78,290.5 c -88.62,19.5 -143.25,101.5 -122.03,183 21.22,81.5 110.26,131.8 198.87,112.2 88.61,-19.5 143.25,-101.4 122.02,-182.9 -21.21,-81.5 -110.25,-131.8 -198.86,-112.3 z M 4754.78,9915 c -47.21,-71.72 -148.64,-94.66 -226.6,-51.21 -77.93,43.42 -102.86,136.81 -55.64,208.51 47.19,71.6 148.65,94.6 226.58,51.1 77.95,-43.4 102.86,-136.72 55.66,-208.4 z m -231.59,1471.6 c 86.63,26 179.76,-17.6 208.02,-97.3 28.25,-79.6 -19.06,-165.3 -105.68,-191.3 -86.63,-26 -179.77,17.5 -208.02,97.2 -28.26,79.7 19.06,165.4 105.68,191.4 z M 4298.05,9819.24 c -81.01,-38.42 -180.5,-9.15 -222.25,65.38 -41.74,74.5 -9.92,166.08 71.09,204.48 80.97,38.4 180.49,9.1 222.22,-65.4 41.75,-74.54 9.91,-166.08 -71.06,-204.46 z m -266.93,278.16 c -6.79,-83.6 -85.95,-146.27 -176.79,-140.03 -90.89,6.24 -159.06,79.03 -152.27,162.63 6.78,83.6 85.94,146.3 176.82,140.1 90.84,-6.2 159.03,-79.1 152.24,-162.7 z m -476.47,191.2 c -73.92,49.1 -90.62,143.9 -37.31,211.9 53.29,68 156.42,83.4 230.32,34.3 73.88,-49 90.6,-143.9 37.3,-211.9 -53.31,-68 -156.42,-83.3 -230.31,-34.3 z m 21.53,625.1 c 84.07,32.3 180.71,-4.2 215.81,-81.6 35.12,-77.3 -4.58,-166.2 -88.66,-198.5 -84.08,-32.3 -180.7,4.2 -215.81,81.5 -35.12,77.4 4.57,166.3 88.66,198.6 z m 96.59,197.3 c 14.05,82.8 98.42,139.5 188.45,126.6 90.02,-13 151.62,-90.6 137.58,-173.4 -14.06,-82.8 -98.42,-139.5 -188.45,-126.6 -90.04,12.9 -151.63,90.6 -137.58,173.4 z m 382.92,248.2 c 59.06,63.9 163.18,71.6 232.58,17.2 69.37,-54.3 77.77,-150.1 18.71,-213.9 -59.06,-63.9 -163.19,-71.6 -232.58,-17.2 -69.39,54.3 -77.78,150.1 -18.71,213.9 z m 294.35,161.6 c -540.14,0 -978,-402.8 -978,-899.7 0,-496.9 437.86,-899.78 978,-899.78 540.13,0 978,402.88 978,899.78 0,496.9 -437.87,899.7 -978,899.7"
         style="fill:#b9b9b9;fill-opacity:1;fill-rule:evenodd;stroke:none"
         id="path106" /><path
         d="m 4942.15,10648.1 c -64.44,59.3 -64.44,155.4 0,214.7 64.43,59.3 168.89,59.3 233.32,0 64.43,-59.3 64.43,-155.4 0,-214.7 -64.43,-59.2 -168.89,-59.2 -233.32,0 z m -81.78,290.5 c -88.62,19.5 -143.25,101.5 -122.03,183 21.22,81.5 110.26,131.8 198.87,112.2 88.61,-19.5 143.25,-101.4 122.02,-182.9 -21.21,-81.5 -110.25,-131.8 -198.86,-112.3 z m -105.59,-974.7 c -47.21,-71.72 -148.64,-94.66 -226.6,-51.21 -77.93,43.42 -102.86,136.71 -55.64,208.51 47.19,71.6 148.65,94.6 226.58,51.1 77.95,-43.4 102.86,-136.7 55.66,-208.4 z m -231.59,1471.6 c 86.63,26 179.76,-17.6 208.02,-97.3 28.25,-79.6 -19.06,-165.3 -105.68,-191.3 -86.63,-26 -179.77,17.5 -208.02,97.2 -28.26,79.7 19.06,165.4 105.68,191.4 z M 4298.05,9868.14 c -81.01,-38.42 -180.5,-9.15 -222.25,65.38 -41.74,74.48 -9.92,166.08 71.09,204.48 80.97,38.4 180.49,9.1 222.22,-65.4 41.75,-74.55 9.91,-166.08 -71.06,-204.46 z m -266.93,278.16 c -6.79,-83.6 -85.95,-146.3 -176.79,-140 -90.89,6.2 -159.06,79 -152.27,162.6 6.78,83.6 85.94,146.3 176.82,140.1 90.84,-6.2 159.03,-79.1 152.24,-162.7 z m -476.47,191.2 c -73.92,49.1 -90.62,143.9 -37.31,211.9 53.29,68 156.42,83.4 230.32,34.3 73.88,-49 90.6,-143.9 37.3,-211.9 -53.31,-68 -156.42,-83.3 -230.31,-34.3 z m 21.53,625.1 c 84.07,32.3 180.71,-4.2 215.81,-81.6 35.12,-77.3 -4.58,-166.2 -88.66,-198.5 -84.08,-32.3 -180.7,4.2 -215.81,81.5 -35.12,77.4 4.57,166.3 88.66,198.6 z m 96.59,197.3 c 14.05,82.8 98.42,139.5 188.45,126.6 90.02,-13 151.62,-90.6 137.58,-173.4 -14.06,-82.8 -98.42,-139.5 -188.45,-126.6 -90.04,12.9 -151.63,90.6 -137.58,173.4 z m 382.92,248.2 c 59.06,63.9 163.18,71.6 232.58,17.2 69.37,-54.3 77.77,-150.1 18.71,-213.9 -59.06,-63.9 -163.19,-71.6 -232.58,-17.2 -69.39,54.3 -77.78,150.1 -18.71,213.9 z m 294.35,161.6 c -540.14,0 -978,-402.8 -978,-899.7 0,-496.9 437.86,-899.78 978,-899.78 540.13,0 978,402.88 978,899.78 0,496.9 -437.87,899.7 -978,899.7"
         style="fill:#e6c657;fill-opacity:1;fill-rule:evenodd;stroke:none"
         id="path108" /><path
         d="m 4306.98,11211.4 c -59.06,-63.9 -163.19,-71.6 -232.58,-17.2 -69.39,54.3 -77.78,150.1 -18.71,213.9 59.06,63.9 163.18,71.6 232.58,17.2 69.37,-54.3 77.77,-150.1 18.71,-213.9 z m 216.21,224.1 c 86.63,26 179.76,-17.6 208.02,-97.3 28.25,-79.6 -19.06,-165.3 -105.68,-191.3 -86.63,-26 -179.77,17.5 -208.02,97.2 -28.26,79.7 19.06,165.4 105.68,191.4 z m 414.02,-201.7 c 88.61,-19.5 143.25,-101.4 122.02,-182.9 -21.21,-81.5 -110.25,-131.8 -198.86,-112.3 -88.62,19.5 -143.25,101.5 -122.03,183 21.22,81.5 110.26,131.8 198.87,112.2 z m 238.26,-585.7 c -64.43,-59.2 -168.89,-59.2 -233.32,0 -64.44,59.3 -64.44,155.4 0,214.7 64.43,59.3 168.89,59.3 233.32,0 64.43,-59.3 64.43,-155.4 0,-214.7 z m -859.58,921 c -5.69,-0.1 -11.38,-0.3 -17.04,-0.6 -3.32,-0.1 -6.6,-0.4 -9.91,-0.6 -5.14,-0.3 -10.31,-0.5 -15.45,-0.9 -3.53,-0.2 -7.05,-0.6 -10.58,-0.8 -4.86,-0.4 -9.71,-0.8 -14.55,-1.3 -3.67,-0.3 -7.32,-0.8 -10.98,-1.1 -4.67,-0.5 -9.36,-1 -14,-1.6 -3.71,-0.4 -7.39,-0.9 -11.06,-1.4 -4.59,-0.6 -9.18,-1.2 -13.75,-1.8 -3.69,-0.5 -7.37,-1.1 -11.06,-1.7 -4.51,-0.7 -9.03,-1.4 -13.51,-2.1 -3.7,-0.6 -7.37,-1.3 -11.05,-2 -4.45,-0.8 -8.91,-1.6 -13.34,-2.4 -3.67,-0.7 -7.31,-1.5 -10.96,-2.2 -4.41,-0.9 -8.83,-1.8 -13.22,-2.7 -3.63,-0.8 -7.25,-1.7 -10.87,-2.5 -4.36,-1 -8.72,-2 -13.06,-3 -3.6,-0.9 -7.19,-1.8 -10.79,-2.7 -4.31,-1.1 -8.64,-2.2 -12.93,-3.3 -3.54,-1 -7.07,-2 -10.6,-2.9 -4.31,-1.2 -8.63,-2.4 -12.91,-3.7 -3.47,-1 -6.93,-2 -10.39,-3.1 -4.29,-1.3 -8.58,-2.6 -12.84,-4 -3.42,-1 -6.83,-2.2 -10.25,-3.3 -4.26,-1.4 -8.5,-2.8 -12.73,-4.2 -3.36,-1.2 -6.71,-2.4 -10.06,-3.6 -4.24,-1.5 -8.46,-3 -12.67,-4.6 -3.29,-1.2 -6.56,-2.4 -9.83,-3.7 -4.23,-1.6 -8.46,-3.2 -12.66,-4.9 -3.2,-1.3 -6.39,-2.5 -9.57,-3.8 -4.22,-1.8 -8.44,-3.5 -12.63,-5.3 -3.11,-1.3 -6.23,-2.7 -9.32,-4 -4.22,-1.9 -8.41,-3.7 -12.59,-5.6 -3.03,-1.4 -6.07,-2.8 -9.07,-4.2 -4.21,-1.9 -8.41,-3.9 -12.59,-5.9 -2.92,-1.4 -5.84,-2.9 -8.75,-4.3 -4.23,-2.1 -8.45,-4.2 -12.64,-6.4 -2.8,-1.4 -5.6,-2.8 -8.38,-4.3 -4.26,-2.2 -8.48,-4.5 -12.72,-6.8 -2.67,-1.4 -5.35,-2.8 -8,-4.3 -4.31,-2.4 -8.58,-4.8 -12.83,-7.3 -2.51,-1.4 -5.05,-2.8 -7.54,-4.3 -4.37,-2.6 -8.71,-5.2 -13.04,-7.8 -2.35,-1.4 -4.69,-2.8 -7.02,-4.3 -4.46,-2.7 -8.87,-5.5 -13.27,-8.3 -2.14,-1.4 -4.31,-2.7 -6.43,-4.1 -4.6,-3 -9.14,-6 -13.67,-9.1 -1.9,-1.3 -3.81,-2.5 -5.71,-3.8 -4.8,-3.3 -9.55,-6.7 -14.29,-10 -1.57,-1.2 -3.15,-2.2 -4.7,-3.4 -5.18,-3.7 -10.29,-7.5 -15.38,-11.3 -1.08,-0.8 -2.19,-1.6 -3.26,-2.4 -5.84,-4.4 -11.62,-8.9 -17.35,-13.5 -0.3,-0.2 -0.61,-0.4 -0.91,-0.7 -24.46,-19.4 -47.86,-39.9 -70.11,-61.4 l 64.89,-59.7 c 35.67,41.8 94.13,65.1 155.26,56.4 90.02,-13 151.62,-90.6 137.58,-173.4 -6.72,-39.6 -29.6,-73.1 -61.38,-96 l 1086.28,-999.4 c 623.21,544.9 230.89,1552 -673.66,1552 -8.59,0 -17.15,-0.1 -25.68,-0.3 -2.82,0 -5.64,-0.2 -8.47,-0.3"
         style="fill:#ebd27b;fill-opacity:1;fill-rule:nonzero;stroke:none"
         id="path110" /><path
         d="m 4812.95,10670 c 0,-125.8 -59.27,-238.9 -153.56,-316.8 -82.06,-67.9 -190.41,-109.1 -309.34,-109.1 -255.65,0 -462.98,190.7 -462.98,425.9 0,109.8 45.28,210 119.61,285.6 84.88,86.3 207.33,140.3 343.37,140.3 255.66,0 462.9,-190.7 462.9,-425.9"
         style="fill:#1f1f1f;fill-opacity:1;fill-rule:nonzero;stroke:none"
         id="path112" /><path
         d="m 4812.95,10670 c 0,-125.8 -59.27,-238.9 -153.56,-316.8 -0.2,-0.1 -652.71,602.4 -652.71,602.4 84.88,86.3 207.33,140.3 343.37,140.3 255.66,0 462.9,-190.7 462.9,-425.9"
         style="fill:#424242;fill-opacity:1;fill-rule:nonzero;stroke:none"
         id="path114" /><path
         d="m 8277.92,10892.3 -38.65,766 c -1.27,25.2 -12.12,48.6 -28.75,66.6 l -969.01,1064.8 c 11.44,-16.1 18.64,-35.2 19.67,-55.6 l 38.64,-765.9 4.96,-98.2 c 2.72,-53.9 -38.82,-95.8 -92.79,-93.5 l -1233.92,51.7 c -53.96,2.3 -91.86,47.5 -84.62,101 l 103.34,765.2 c -33.35,-1.5 -66.53,-2.9 -99.45,-4.3 l 0,-181.5 c 0,-108 -73.04,-195.6 -163.14,-195.6 -23.1,0 -37.32,0 -45.76,0 l -388.9,-546.9 c 28.16,-64.3 55.88,-126.3 83.36,-186.6 255.46,0.4 511.29,3.8 775.15,10.3 l 85.87,-94.4 c -143.57,-174.1 -375.44,-303.3 -649.15,-353.1 275.97,-532.2 573.12,-956.3 1073.35,-1575.42 l 0,-729.65 c 0,-35.67 -43.78,-64.57 -97.8,-64.57 l -4440.58,0 c -32.62,0 -61.45,10.59 -79.22,26.81 -0.1,-0.02 970.21,-1067.42 970.21,-1067.42 16.18,-20.91 49.06,-35.24 87.06,-35.24 l 4440.59,0 c 54.01,0 97.8,28.9 97.8,64.56 l 0,582.96 c 0,81.01 -41.32,197.74 -91.86,261.06 -615.06,770.75 -909.39,1247.13 -1276.74,2084.81 l 306.56,431.1 304.82,-335.1 c 15.28,-19.7 38.99,-32.6 67.15,-33.8 l 1233.98,-51.8 c 53.96,-2.2 95.5,39.6 92.78,93.6 l -4.95,98.1"
         style="fill:#007864;fill-opacity:1;fill-rule:evenodd;stroke:none"
         id="path116" /><path
         d="m 3396.46,12669.8 c 162.42,-278.9 535.12,-474.1 969.18,-474.1 434.05,0 806.75,195.2 969.17,474.1 -665.82,-19.3 -1272.52,-19.3 -1938.35,0"
         style="fill:#007864;fill-opacity:1;fill-rule:evenodd;stroke:none"
         id="path118" /><path
         d="m 2497.33,10700.6 326.82,13.7 c 197.19,317 375.05,640.9 576.34,1051.8 l -388.87,546.9 -30.15,0 c -81.49,0 -147.53,87.6 -147.53,195.6 l 0,181.5 c -32.93,1.4 -66.11,2.8 -99.45,4.3 l 103.33,-765.2 c 7.24,-53.5 -30.66,-98.7 -84.61,-101 l -1233.92,-51.7 c -27.86,-1.2 -52.34,9.5 -69.2,27.4 -0.06,-0.1 972.07,-1068.7 972.07,-1068.7 16.73,-22.2 43.81,-35.9 75.17,-34.6"
         style="fill:#007864;fill-opacity:1;fill-rule:evenodd;stroke:none"
         id="path120" /><path
         d="m 3489.26,2464.56 c 0,-26.99 -21.9,-48.9 -48.9,-48.9 l -704.16,0 c -27,0 -48.9,21.91 -48.9,48.9 l 0,205.38 c 0,26.99 21.9,48.9 48.9,48.9 l 704.16,0 c 27,0 48.9,-21.91 48.9,-48.9 l 0,-205.38"
         style="fill:#1f1f1f;fill-opacity:1;fill-rule:nonzero;stroke:none"
         id="path122" /></g></g></svg>