<?xml version="1.0" encoding="UTF-8" standalone="no"?>
<!-- Created with Inkscape (http://www.inkscape.org/) -->

<svg
   xmlns:dc="http://purl.org/dc/elements/1.1/"
   xmlns:cc="http://creativecommons.org/ns#"
   xmlns:rdf="http://www.w3.org/1999/02/22-rdf-syntax-ns#"
   xmlns:svg="http://www.w3.org/2000/svg"
   xmlns="http://www.w3.org/2000/svg"
   xmlns:sodipodi="http://sodipodi.sourceforge.net/DTD/sodipodi-0.dtd"
   xmlns:inkscape="http://www.inkscape.org/namespaces/inkscape"
   id="svg2"
   version="1.1"
   inkscape:version="0.48.5 r10040"
   width="251.425"
   height="247.65"
   xml:space="preserve"
   sodipodi:docname="image.svg"><metadata
     id="metadata8"><rdf:RDF><cc:Work
         rdf:about=""><dc:format>image/svg+xml</dc:format><dc:type
           rdf:resource="http://purl.org/dc/dcmitype/StillImage" /><dc:title></dc:title></cc:Work></rdf:RDF></metadata><defs
     id="defs6" /><sodipodi:namedview
     pagecolor="#ffffff"
     bordercolor="#666666"
     borderopacity="1"
     objecttolerance="10"
     gridtolerance="10"
     guidetolerance="10"
     inkscape:pageopacity="0"
     inkscape:pageshadow="2"
     inkscape:window-width="1600"
     inkscape:window-height="861"
     id="namedview4"
     showgrid="false"
     inkscape:zoom="2.6953718"
     inkscape:cx="157.67882"
     inkscape:cy="126.91739"
     inkscape:window-x="1366"
     inkscape:window-y="0"
     inkscape:window-maximized="1"
     inkscape:current-layer="g10" /><g
     id="g10"
     inkscape:groupmode="layer"
     inkscape:label="ink_ext_XXXXXX"
     transform="matrix(1.25,0,0,-1.25,0,247.65)"><path
       inkscape:connector-curvature="0"
       id="path18"
       style="fill:#ffffff;fill-opacity:1;fill-rule:nonzero;stroke:none"
       d="m 85.1465,119.934 c -19.6852,7.851 -18.5945,6.988 -19.9883,14.446 -0.2035,1.088 -2.7117,1.046 -2.7117,1.046 -0.4527,2.034 -0.1137,5.932 -0.1137,5.932 1.9215,2.374 3.2766,8.756 3.2766,8.756 0.2261,-0.28 1.1308,-3.315 2.8254,4.039 1.5496,6.726 -0.5,6.265 -1.0602,6.002 l -0.0391,0.018 -0.0027,0.001 -0.0113,0.002 c 1.014,5.706 1.2183,9.386 1.0562,12.313 -0.1132,2.033 -0.625,4.371 -1.45,6.307 -0.9789,2.299 -3.0129,4.746 -3.0129,4.746 -1.4312,-2.975 -5.3054,-1.618 -7.0808,-1.317 -4.7395,0.8 -10.8043,0.848 -15.236,-1.489 -2.3707,-1.25 -7.0613,-2.994 -7.5136,-8.982 -0.352,-4.669 1.464,-11.318 1.464,-11.318 0.0161,-0.094 0.0313,-0.187 0.0473,-0.281 -0.559,0.263 -2.6086,0.724 -1.059,-6.002 1.6945,-7.354 2.5985,-4.319 2.8242,-4.039 0,0 1.3563,-6.382 3.2778,-8.756 0,0 0.3386,-3.898 -0.1133,-5.932 0,0 -2.5094,0.042 -2.7117,-1.046 -1.3938,-7.458 0.4441,-6.595 -19.241,-14.446 -1.6993,-0.678 -3.3657,-3.238 -4.0668,-7.766 l 74.7082,0 c -0.9762,4.328 -2.3684,7.088 -4.0676,7.766" /><path
       inkscape:connector-curvature="0"
       id="path36"
       style="fill:#ffffff;fill-opacity:1;fill-rule:nonzero;stroke:none"
       d="m 181.178,119.825 c -6.855,2.9 -15.684,7.682 -15.684,7.682 -1.331,5.771 -4.18,6.027 -4.18,6.027 l -0.734,4.632 c 13.984,0.622 9.429,2.6 8.544,4.03 -0.909,1.47 -2.201,3.634 -2.336,5.009 -0.904,9.228 6.385,33.824 -11.639,35.029 -1.875,0.125 -2.138,0.765 -5.68,0.712 -3.539,0.053 -3.44,-0.481 -5.305,-0.712 -18.025,-2.234 -10.734,-25.801 -11.64,-35.029 -0.133,-1.375 -1.425,-3.539 -2.333,-5.009 -0.886,-1.43 -5.439,-3.408 8.542,-4.03 l -0.734,-4.632 c 0,0 -3.196,-0.506 -4.181,-6.027 0,0 -9.201,-4.782 -16.054,-7.682 -3.118,-1.32 -4.031,-2.827 -5.198,-7.741 l 73.808,0 c -1.167,4.914 -2.079,6.421 -5.196,7.741" /><path
       inkscape:connector-curvature="0"
       id="path70"
       style="fill:#ffffff;fill-opacity:1;fill-rule:nonzero;stroke:none"
       d="m 179.722,25.025 c -6.338,3.0898 -15.783,7.2391 -15.783,7.2391 -1.739,5.2308 -3.942,4.7449 -3.942,4.7449 l -0.41,3.5211 c 1.396,-1.5699 4.209,-1.6512 5.415,-1.7582 0.071,0.223 0.185,0.3711 0.298,0.5152 0.554,-0.2391 1.165,-0.4269 1.843,-0.5223 0.06,0.2922 0.238,0.1934 0.356,0.3364 0.841,-0.366 1.505,-0.3141 2,-0.2801 -0.046,0.1789 0.172,0.1301 0.292,0.4359 0.521,-0.3449 1.222,-0.373 2.706,-0.2761 -1.13,0.9632 -2.449,2.7031 -2.949,3.8871 -0.799,1.891 -1.352,3.1152 -1.776,9.2859 -0.687,9.9961 -2.984,35.368 -13.689,31.9563 -0.64,1.1207 -2.716,1.741 -4.535,1.741 -3.338,0 -5.605,-0.8051 -7.206,-1.5621 -4.653,-2.2012 -6.544,-5.8262 -7.318,-7.9172 -2.305,-6.243 -2.603,-13.0578 -3.037,-19.993 -0.143,-1.5848 -0.252,-3.023 -0.333,-4.225 -0.074,-1.073 -0.152,-1.9949 -0.233,-2.798 -0.012,-0.095 -0.022,-0.1899 -0.03,-0.2868 -0.387,-3.5882 -0.87,-4.68 -1.512,-6.2011 -0.502,-1.184 -1.819,-2.9239 -2.951,-3.8871 0.343,-0.0227 0.643,-0.011 0.919,0.0191 0.919,0.0641 1.169,0.059 1.579,0.3352 0.12,-0.3051 0.446,-0.3352 0.402,-0.5141 l 0.201,0 c 0.475,-0.002 0.995,-0.0441 1.75,0.2801 0.11,-0.141 0.35,-0.0641 0.404,-0.3364 l 0.094,0.0192 0.004,-0.0192 c 0.649,0.0911 1.024,0.0801 1.556,0.3043 0.102,-0.1382 0.392,-0.116 0.392,-0.3043 l 0.192,0.0172 0.002,-0.0101 c 1.192,0.1031 3.947,0.1883 5.361,1.7043 l 0.037,-0.0453 -0.393,-3.4219 c 0,0 -2.35,0.05 -3.943,-4.7449 0,0 -9.442,-4.1493 -15.78,-7.2391 -2.431,-1.182 -4.801,-3.8168 -5.475,-6.4469 l -0.066,-0.264 71.085,0 c -0.571,2.6539 -3.017,5.4871 -5.527,6.7109" /><path
       inkscape:connector-curvature="0"
       id="path88"
       style="fill:#ffffff;fill-opacity:1;fill-rule:nonzero;stroke:none"
       d="m 83.2984,27.634 c -8.4796,3.6281 -13.6808,6.4191 -15.9629,7.7531 0,0 -1.1636,1.432 -1.4578,1.9688 -0.2461,0.4531 -0.7531,0.875 -1.2668,0.875 0,0 -0.1714,-0.0028 -0.4644,0.0332 -0.5684,0.0711 -0.6629,0.173 -0.6934,0.2769 -0.614,2.1059 -1.1039,6.868 -1.1039,6.868 3.9442,3.5859 4.0555,10.0629 4.0555,10.0629 0.2375,-0.2957 1.7453,-3.5649 2.973,4.25 1.1285,7.1801 -0.4972,6.4543 -1.1156,6.3191 0.0176,0.0988 0.0348,0.1969 0.0516,0.2969 0,0 0.6672,2.6871 -0.2028,7.5391 -1.0312,5.75 -4.4039,8.0812 -6.9004,9.398 -2.5929,1.3672 -5.5128,2.2238 -8.446,2.323 -0.3422,0.0122 -1.0262,0.0122 -1.368,0 -2.9336,-0.1128 -5.8539,-0.9558 -8.4461,-2.323 -2.4969,-1.3168 -5.8699,-3.648 -6.9008,-9.398 -0.8703,-4.852 -0.2023,-7.5391 -0.2023,-7.5391 0.016,-0.1 0.0332,-0.1981 0.0507,-0.2969 -0.6183,0.1352 -2.2441,0.861 -1.116,-6.3191 1.2282,-7.8149 2.736,-4.5457 2.9746,-4.25 0,0 0.111,-6.477 4.0559,-10.0629 0,0 -0.491,-4.7621 -1.1047,-6.868 -0.0308,-0.1039 -0.0844,-0.1922 -0.7355,-0.282 -0.2922,-0.0391 -0.5778,-0.0238 -0.5778,-0.0238 -0.514,0 -1.0843,-0.3922 -1.2675,-0.875 l -1.3008,-1.9731 c -2.793,-1.3039 -7.4848,-4.125 -15.9629,-7.7531 -1.7711,-0.759 -3.4512,-4.5371 -4.2821,-9.227 l 70.9993,0 c -0.7617,4.595 -2.5117,8.468 -4.2821,9.227" /></g></svg>