<?xml version="1.0" encoding="UTF-8" standalone="no"?>
<!-- Created with Inkscape (http://www.inkscape.org/) -->

<svg
   xmlns:dc="http://purl.org/dc/elements/1.1/"
   xmlns:cc="http://creativecommons.org/ns#"
   xmlns:rdf="http://www.w3.org/1999/02/22-rdf-syntax-ns#"
   xmlns:svg="http://www.w3.org/2000/svg"
   xmlns="http://www.w3.org/2000/svg"
   xmlns:sodipodi="http://sodipodi.sourceforge.net/DTD/sodipodi-0.dtd"
   xmlns:inkscape="http://www.inkscape.org/namespaces/inkscape"
   width="281.6936"
   height="147.60255"
   id="svg6475"
   version="1.1"
   inkscape:version="0.48.5 r10040"
   sodipodi:docname="New document 5">
  <defs
     id="defs6477" />
  <sodipodi:namedview
     id="base"
     pagecolor="#ffffff"
     bordercolor="#666666"
     borderopacity="1.0"
     inkscape:pageopacity="0.0"
     inkscape:pageshadow="2"
     inkscape:zoom="0.35"
     inkscape:cx="-7.0103487"
     inkscape:cy="53.801277"
     inkscape:document-units="px"
     inkscape:current-layer="layer1"
     showgrid="false"
     fit-margin-top="0"
     fit-margin-left="0"
     fit-margin-right="0"
     fit-margin-bottom="0"
     inkscape:window-width="501"
     inkscape:window-height="434"
     inkscape:window-x="2739"
     inkscape:window-y="115"
     inkscape:window-maximized="0" />
  <metadata
     id="metadata6480">
    <rdf:RDF>
      <cc:Work
         rdf:about="">
        <dc:format>image/svg+xml</dc:format>
        <dc:type
           rdf:resource="http://purl.org/dc/dcmitype/StillImage" />
        <dc:title></dc:title>
      </cc:Work>
    </rdf:RDF>
  </metadata>
  <g
     inkscape:label="Layer 1"
     inkscape:groupmode="layer"
     id="layer1"
     transform="translate(-382.01035,-438.56091)">
    <path
       inkscape:connector-curvature="0"
       id="path1876"
       style="fill:#3e3f42;fill-opacity:1;fill-rule:nonzero;stroke:none"
       d="m 628.81709,438.56091 c 4.8,0 8.725,3.47375 8.725,7.72 l 0,129.685 c 0,4.245 -3.925,7.72125 -8.725,7.72125 l -211.58875,0 c -4.7975,0 -8.72,-3.47625 -8.72,-7.72125 l 0,-129.685 c 0,-4.24625 3.9225,-7.72 8.72,-7.72 l 211.58875,0" />
    <path
       inkscape:connector-curvature="0"
       id="path1878"
       style="fill:#8dba65;fill-opacity:1;fill-rule:nonzero;stroke:none"
       d="m 415.82084,569.55716 214.43375,0 0,-124.02788 -214.43375,0 0,124.02788 z" />
    <path
       inkscape:connector-curvature="0"
       id="path1880"
       style="fill:#789b53;fill-opacity:1;fill-rule:nonzero;stroke:none"
       d="m 415.13209,528.64466 0,41.0975 214.8225,-0.185 0.4625,-77.815 -19.575,17.42875 -22.525,-28.33125 -30.4525,54.515 -21.25875,-35.36 -14.7925,17.1875 -21.88125,-25.71875 -32.63,35.14 -25.45625,-19.05875 -26.71375,21.1" />
    <path
       inkscape:connector-curvature="0"
       id="path1882"
       style="fill:#ffffff;fill-opacity:1;fill-rule:nonzero;stroke:none"
       d="m 558.19834,537.20466 -21.9625,-36.045 -14.405,17.17625 -21.91875,-25.2025 -32.22125,34.72 -25.2525,-19.13 -26.03375,20.92625 -1.16625,-1.45 27.16625,-21.835 25.06875,18.99 32.485,-35.00375 21.84625,25.12 14.67125,-17.49 21.6475,35.525 30.09375,-54.335 22.8875,28.74875 45.675,-42.0625 1.2625,1.36875 -47.15,43.41625 -22.4,-28.135 -30.29375,54.6975" />
    <path
       inkscape:connector-curvature="0"
       id="path1884"
       style="fill:#ffffff;fill-opacity:1;fill-rule:nonzero;stroke:none"
       d="m 655.86709,477.82841 -2.25,-7.73875 -7.4625,-3.88125 7.4625,-1.2975 7.4625,-1.29625 -2.6125,7.10625 -2.6,7.1075" />
    <path
       inkscape:connector-curvature="0"
       id="path1886"
       style="fill:#434449;fill-opacity:1;fill-rule:nonzero;stroke:none"
       d="m 441.93209,505.12091 c -1.79875,0 -3.26125,1.46375 -3.26125,3.26 0,1.8 1.4625,3.2625 3.26125,3.2625 1.79875,0 3.26125,-1.4625 3.26125,-3.2625 0,-1.79625 -1.4625,-3.26 -3.26125,-3.26" />
    <path
       inkscape:connector-curvature="0"
       id="path1888"
       style="fill:#ffffff;fill-opacity:1;fill-rule:nonzero;stroke:none"
       d="m 441.93209,505.12091 0,-0.625 c -2.145,0.001 -3.885,1.74125 -3.88625,3.885 10e-4,2.14625 1.74125,3.88625 3.88625,3.8875 2.145,0 3.885,-1.74125 3.88625,-3.8875 -10e-4,-2.14375 -1.74125,-3.88375 -3.88625,-3.885 l 0,1.25 c 1.4525,0.002 2.63375,1.185 2.63625,2.635 0,1.45375 -1.18375,2.635 -2.63625,2.6375 -1.45125,-0.002 -2.6325,-1.18375 -2.63625,-2.6375 0,-1.45 1.185,-2.6325 2.63625,-2.635 l 0,-0.625" />
    <path
       inkscape:connector-curvature="0"
       id="path1890"
       style="fill:#434449;fill-opacity:1;fill-rule:nonzero;stroke:none"
       d="m 467.09334,523.57216 c -1.79875,0 -3.2625,1.4625 -3.2625,3.26125 0,1.79875 1.46375,3.26125 3.2625,3.26125 1.7975,0 3.26125,-1.4625 3.26125,-3.26125 0,-1.79875 -1.46375,-3.26125 -3.26125,-3.26125" />
    <path
       inkscape:connector-curvature="0"
       id="path1892"
       style="fill:#ffffff;fill-opacity:1;fill-rule:nonzero;stroke:none"
       d="m 467.09334,523.57216 0,-0.625 c -2.145,10e-4 -3.88625,1.74125 -3.8875,3.88625 10e-4,2.145 1.7425,3.885 3.8875,3.88625 2.14375,-10e-4 3.885,-1.74125 3.88625,-3.88625 -10e-4,-2.145 -1.7425,-3.885 -3.88625,-3.88625 l 0,1.25 c 1.45125,0.002 2.63375,1.185 2.63625,2.63625 0,1.45125 -1.185,2.63375 -2.63625,2.63625 -1.4525,-0.002 -2.635,-1.185 -2.6375,-2.63625 0,-1.45125 1.185,-2.63375 2.6375,-2.63625 l 0,-0.625" />
    <path
       inkscape:connector-curvature="0"
       id="path1894"
       style="fill:#434449;fill-opacity:1;fill-rule:nonzero;stroke:none"
       d="m 499.80209,489.18591 c -1.79875,0 -3.2625,1.46125 -3.2625,3.26 0,1.8 1.46375,3.2625 3.2625,3.2625 1.79875,0 3.26125,-1.4625 3.26125,-3.2625 0,-1.79875 -1.4625,-3.26 -3.26125,-3.26" />
    <path
       inkscape:connector-curvature="0"
       id="path1896"
       style="fill:#ffffff;fill-opacity:1;fill-rule:nonzero;stroke:none"
       d="m 499.80209,489.18591 0,-0.625 c -2.145,0 -3.88625,1.74 -3.8875,3.885 0.001,2.14625 1.7425,3.88625 3.8875,3.8875 2.145,-0.001 3.885,-1.74125 3.88625,-3.8875 -10e-4,-2.145 -1.74125,-3.885 -3.88625,-3.885 l 0,1.25 c 1.4525,0.002 2.63375,1.1825 2.63625,2.635 0,1.45375 -1.18375,2.635 -2.63625,2.6375 -1.4525,-0.002 -2.635,-1.18375 -2.6375,-2.6375 0,-1.45125 1.185,-2.6325 2.6375,-2.635 l 0,-0.625" />
    <path
       inkscape:connector-curvature="0"
       id="path1898"
       style="fill:#434449;fill-opacity:1;fill-rule:nonzero;stroke:none"
       d="m 521.60709,513.50716 c -1.79875,0 -3.26,1.4625 -3.26,3.2625 0,1.7975 1.46125,3.26 3.26,3.26 1.79875,0 3.26125,-1.4625 3.26125,-3.26 0,-1.8 -1.4625,-3.2625 -3.26125,-3.2625" />
    <path
       inkscape:connector-curvature="0"
       id="path1900"
       style="fill:#ffffff;fill-opacity:1;fill-rule:nonzero;stroke:none"
       d="m 521.60709,513.50716 0,-0.625 c -2.145,10e-4 -3.885,1.74125 -3.885,3.8875 0,2.14375 1.74,3.88375 3.885,3.885 2.145,-0.001 3.885,-1.74125 3.88625,-3.885 0,-2.14625 -1.74125,-3.88625 -3.88625,-3.8875 l 0,1.25125 c 1.45375,0.002 2.63375,1.1825 2.63625,2.63625 0,1.45125 -1.1825,2.6325 -2.63625,2.635 -1.4525,-0.003 -2.6325,-1.18375 -2.635,-2.635 0,-1.45375 1.1825,-2.63375 2.635,-2.63625 l 0,-0.62625" />
    <path
       inkscape:connector-curvature="0"
       id="path1902"
       style="fill:#434449;fill-opacity:1;fill-rule:nonzero;stroke:none"
       d="m 536.70459,496.73466 c -1.79875,0 -3.2625,1.4625 -3.2625,3.26125 0,1.7975 1.46375,3.26125 3.2625,3.26125 1.7975,0 3.2625,-1.46375 3.2625,-3.26125 0,-1.79875 -1.465,-3.26125 -3.2625,-3.26125" />
    <path
       inkscape:connector-curvature="0"
       id="path1904"
       style="fill:#ffffff;fill-opacity:1;fill-rule:nonzero;stroke:none"
       d="m 536.70459,496.73466 0,-0.62625 c -2.145,0.001 -3.88625,1.74125 -3.8875,3.8875 10e-4,2.145 1.7425,3.885 3.8875,3.88625 2.145,-10e-4 3.88625,-1.74125 3.8875,-3.88625 -10e-4,-2.14625 -1.74375,-3.88625 -3.8875,-3.8875 l 0,1.25125 c 1.4525,0.002 2.63375,1.18375 2.63625,2.63625 0,1.45125 -1.185,2.63375 -2.63625,2.63625 -1.4525,-0.002 -2.635,-1.185 -2.6375,-2.63625 0,-1.4525 1.185,-2.63375 2.6375,-2.63625 l 0,-0.625" />
    <path
       inkscape:connector-curvature="0"
       id="path1906"
       style="fill:#434449;fill-opacity:1;fill-rule:nonzero;stroke:none"
       d="m 558.51084,531.95841 c -1.79875,0 -3.2625,1.46375 -3.2625,3.2625 0,1.79875 1.46375,3.26125 3.2625,3.26125 1.7975,0 3.26125,-1.4625 3.26125,-3.26125 0,-1.79875 -1.46375,-3.2625 -3.26125,-3.2625" />
    <path
       inkscape:connector-curvature="0"
       id="path1908"
       style="fill:#ffffff;fill-opacity:1;fill-rule:nonzero;stroke:none"
       d="m 558.51084,531.95841 0,-0.625 c -2.145,0.001 -3.88625,1.7425 -3.8875,3.8875 10e-4,2.145 1.7425,3.885 3.8875,3.88625 2.14375,-10e-4 3.885,-1.74125 3.88625,-3.88625 -0.001,-2.145 -1.7425,-3.88625 -3.88625,-3.8875 l 0,1.25 c 1.45125,0.003 2.63375,1.185 2.63625,2.6375 0,1.4525 -1.185,2.63375 -2.63625,2.63625 -1.4525,-0.003 -2.635,-1.18375 -2.6375,-2.63625 0,-1.4525 1.185,-2.635 2.6375,-2.6375 l 0,-0.625" />
    <path
       inkscape:connector-curvature="0"
       id="path1910"
       style="fill:#434449;fill-opacity:1;fill-rule:nonzero;stroke:none"
       d="m 588.70459,477.44466 c -1.8,0 -3.2625,1.4625 -3.2625,3.26 0,1.8 1.4625,3.2625 3.2625,3.2625 1.8,0 3.2625,-1.4625 3.2625,-3.2625 0,-1.7975 -1.4625,-3.26 -3.2625,-3.26" />
    <path
       inkscape:connector-curvature="0"
       id="path1912"
       style="fill:#ffffff;fill-opacity:1;fill-rule:nonzero;stroke:none"
       d="m 588.70459,477.44466 0,-0.62625 c -2.15,0.001 -3.8875,1.74125 -3.8875,3.88625 0,2.14625 1.7375,3.88625 3.8875,3.8875 2.1375,-10e-4 3.8875,-1.74125 3.8875,-3.8875 0,-2.145 -1.75,-3.885 -3.8875,-3.88625 l 0,1.25125 c 1.45,0.002 2.6375,1.18375 2.6375,2.635 0,1.45375 -1.1875,2.635 -2.6375,2.6375 -1.45,-0.002 -2.6375,-1.18375 -2.6375,-2.6375 0,-1.45125 1.1875,-2.6325 2.6375,-2.635 l 0,-0.625" />
    <path
       inkscape:connector-curvature="0"
       id="path1914"
       style="fill:#434449;fill-opacity:1;fill-rule:nonzero;stroke:none"
       d="m 610.50459,505.95966 c -1.8,0 -3.2625,1.4625 -3.2625,3.26125 0,1.79875 1.4625,3.2625 3.2625,3.2625 1.8,0 3.2625,-1.46375 3.2625,-3.2625 0,-1.79875 -1.4625,-3.26125 -3.2625,-3.26125" />
    <path
       inkscape:connector-curvature="0"
       id="path1916"
       style="fill:#ffffff;fill-opacity:1;fill-rule:nonzero;stroke:none"
       d="m 610.50459,505.95966 0,-0.625 c -2.1375,0.001 -3.8875,1.74125 -3.8875,3.88625 0,2.145 1.75,3.88625 3.8875,3.8875 2.15,-0.001 3.8875,-1.7425 3.8875,-3.8875 0,-2.145 -1.7375,-3.885 -3.8875,-3.88625 l 0,1.25 c 1.4625,0.002 2.6375,1.18375 2.6375,2.63625 0,1.4525 -1.175,2.635 -2.6375,2.6375 -1.45,-0.002 -2.625,-1.185 -2.6375,-2.6375 0.0125,-1.4525 1.1875,-2.63375 2.6375,-2.63625 l 0,-0.625" />
    <path
       inkscape:connector-curvature="0"
       id="path1918"
       style="fill:#4cbfd3;fill-opacity:1;fill-rule:nonzero;stroke:none"
       d="m 627.97959,584.07466 -106.31125,0 0,-0.3875 107.14875,0 c 1.1875,0 2.325,-0.21375 3.3625,-0.59875 -1.2875,0.62375 -2.725,0.98625 -4.2,0.98625" />
    <path
       inkscape:connector-curvature="0"
       id="path1920"
       style="fill:#56575c;fill-opacity:1;fill-rule:nonzero;stroke:none"
       d="m 628.81709,583.68716 -107.14875,0 0,-14.0375 108.28625,-0.0925 0.3,0 0,-49.63375 0.1625,-27.25875 6.8375,-6.30375 0,89.605 c 0,2.94625 -2.15,5.7075 -5.075,7.1225 -1.0375,0.385 -2.175,0.59875 -3.3625,0.59875 m 1.4375,-93.40125 0,-44.75625 -108.58625,0 0,-6.29 106.31125,0 c 4.8,0 9.275,2.795 9.275,7.04125 l 0,37.55125 -7,6.45375" />
    <path
       inkscape:connector-curvature="0"
       id="path1922"
       style="fill:#9bc37a;fill-opacity:1;fill-rule:nonzero;stroke:none"
       d="m 630.25459,569.55716 -0.3,0 0.3,-49.63375 0,49.63375 m -71.74375,-37.59875 0,-0.625 c -0.54,0 -1.055,0.11125 -1.5225,0.31 l -17.5825,-28.855 c 0.73,-0.70625 1.185,-1.69625 1.18625,-2.7925 -10e-4,-2.14625 -1.74375,-3.88625 -3.8875,-3.8875 l 0,0.62625 0,-0.62625 c -2.145,0.001 -3.88625,1.74125 -3.8875,3.8875 0,0.65375 0.1625,1.27 0.44875,1.81125 l -9.7225,11.5925 c -0.55375,-0.31875 -1.19375,-0.505 -1.875,-0.51625 l 0,-67.35375 108.58625,0 0,44.75625 -17.2875,15.9225 c -0.675,-0.54625 -1.525,-0.87375 -2.4625,-0.87375 l 0,0.625 0,-0.625 c -0.45,0 -0.875,0.0775 -1.2875,0.22 l -17.675,-22.2 c 0.65,-0.695 1.05,-1.62625 1.05,-2.65 0,-2.145 -1.75,-3.885 -3.8875,-3.88625 l 0,0.62625 0,-0.62625 c -2.15,0.001 -3.8875,1.74125 -3.8875,3.88625 0,1.03625 0.4,1.9775 1.0625,2.675 l -26.59625,48.03125 c -0.25,-0.05 -0.50875,-0.0775 -0.7725,-0.0775 l 0,0.625" />
    <path
       inkscape:connector-curvature="0"
       id="path1924"
       style="fill:#88a86b;fill-opacity:1;fill-rule:nonzero;stroke:none"
       d="m 521.66834,569.64966 0,-48.995 c 2.1175,-0.0338 3.82375,-1.76125 3.825,-3.885 0,-0.76625 -0.22125,-1.48 -0.60375,-2.08125 l 9.62875,-11.48 c 0.6225,0.42375 1.37625,0.67375 2.18625,0.67375 0.38,0 0.7475,-0.055 1.095,-0.1575 l 17.69625,29.04375 c -0.545,0.67 -0.87125,1.5225 -0.8725,2.4525 10e-4,2.145 1.7425,3.885 3.8875,3.88625 2.14375,-10e-4 3.885,-1.74125 3.88625,-3.88625 -0.001,-1.21375 -0.55875,-2.29875 -1.43125,-3.01125 l 26.48875,-47.82375 c 0.3875,0.13375 0.8125,0.20625 1.25,0.20625 0.45,0 0.875,-0.0762 1.275,-0.21625 l 17.675,22.20375 c -0.6375,0.69375 -1.0375,1.62125 -1.0375,2.64125 0,2.145 1.75,3.88625 3.8875,3.8875 2.15,-0.001 3.8875,-1.7425 3.8875,-3.8875 0,-0.53875 -0.1125,-1.0525 -0.3,-1.52 l 16.325,-15.03625 -0.1625,27.25875 -0.3,49.63375 -108.28625,0.0925" />
    <path
       inkscape:connector-curvature="0"
       id="path1926"
       style="fill:#ffffff;fill-opacity:1;fill-rule:nonzero;stroke:none"
       d="m 555.49584,532.76841 -17.69625,-29.04375 c 0.61125,-0.17875 1.16,-0.505 1.60625,-0.93625 l 17.5825,28.855 c -0.585,0.25 -1.09625,0.63875 -1.4925,1.125 m 5.47,-0.55875 c -0.48,-0.39125 -1.05375,-0.67125 -1.6825,-0.79875 l 26.59625,-48.03125 c 0.4375,0.45125 0.975,0.80125 1.575,1.00625 l -26.48875,47.82375 m -36.07625,-17.52125 c -0.3375,-0.53125 -0.8,-0.97375 -1.34625,-1.28875 l 9.7225,-11.5925 c 0.2975,0.5625 0.72875,1.04375 1.2525,1.40125 l -9.62875,11.48 m 89.2025,-6.9875 c -0.25,-0.585 -0.6375,-1.09625 -1.125,-1.4925 l 17.2875,-15.9225 7,-6.45375 0,2.52875 -6.8375,6.30375 -16.325,15.03625 m -6.4375,-1.12125 -17.675,-22.20375 c 0.6,-0.21 1.1375,-0.565 1.5625,-1.02125 l 17.675,22.2 c -0.6,0.21125 -1.1375,0.5675 -1.5625,1.025" />
    <path
       inkscape:connector-curvature="0"
       id="path1928"
       style="fill:#5a5b62;fill-opacity:1;fill-rule:nonzero;stroke:none"
       d="m 521.66834,519.40466 0,-5.27125 c 1.425,0.035 2.5725,1.20375 2.575,2.63625 0,1.43125 -1.15,2.6 -2.575,2.635" />
    <path
       inkscape:connector-curvature="0"
       id="path1930"
       style="fill:#ffffff;fill-opacity:1;fill-rule:nonzero;stroke:none"
       d="m 521.66834,520.65466 0,-1.25 c 1.425,-0.035 2.5725,-1.20375 2.575,-2.635 0,-1.4325 -1.15,-2.60125 -2.575,-2.63625 l 0,-1.25 c 0.68125,0.0113 1.32125,0.1975 1.875,0.51625 0.54625,0.315 1.00875,0.7575 1.34625,1.28875 0.3825,0.60125 0.60375,1.315 0.60375,2.08125 -10e-4,2.12375 -1.7075,3.85125 -3.825,3.885" />
    <path
       inkscape:connector-curvature="0"
       id="path1932"
       style="fill:#5a5b62;fill-opacity:1;fill-rule:nonzero;stroke:none"
       d="m 536.70459,502.63216 c -1.4525,-0.002 -2.635,-1.185 -2.6375,-2.63625 0,-1.4525 1.185,-2.63375 2.6375,-2.63625 l 0,-0.625 0,0.625 c 1.4525,0.002 2.63375,1.18375 2.63625,2.63625 0,1.45125 -1.185,2.63375 -2.63625,2.63625" />
    <path
       inkscape:connector-curvature="0"
       id="path1934"
       style="fill:#ffffff;fill-opacity:1;fill-rule:nonzero;stroke:none"
       d="m 536.70459,503.88216 c -0.81,0 -1.56375,-0.25 -2.18625,-0.67375 -0.52375,-0.3575 -0.955,-0.83875 -1.2525,-1.40125 -0.28625,-0.54125 -0.44875,-1.1575 -0.44875,-1.81125 10e-4,-2.14625 1.7425,-3.88625 3.8875,-3.8875 l 0,1.25125 c -1.4525,0.002 -2.635,1.18375 -2.6375,2.63625 0,1.45125 1.185,2.63375 2.6375,2.63625 1.45125,-0.002 2.63375,-1.185 2.63625,-2.63625 0,-1.4525 -1.18375,-2.63375 -2.63625,-2.63625 l 0,-1.25125 c 2.14375,0.001 3.88625,1.74125 3.8875,3.8875 -10e-4,1.09625 -0.45625,2.08625 -1.18625,2.7925 -0.44625,0.43125 -0.995,0.7575 -1.60625,0.93625 -0.3475,0.1025 -0.715,0.1575 -1.095,0.1575" />
    <path
       inkscape:connector-curvature="0"
       id="path1936"
       style="fill:#5a5b62;fill-opacity:1;fill-rule:nonzero;stroke:none"
       d="m 558.51084,537.85716 c -1.4525,-0.003 -2.635,-1.18375 -2.6375,-2.63625 0,-1.4525 1.185,-2.635 2.6375,-2.6375 l 0,-0.625 0,0.625 c 1.45125,0.003 2.63375,1.185 2.63625,2.6375 0,1.4525 -1.185,2.63375 -2.63625,2.63625" />
    <path
       inkscape:connector-curvature="0"
       id="path1938"
       style="fill:#ffffff;fill-opacity:1;fill-rule:nonzero;stroke:none"
       d="m 558.51084,539.10716 c -2.145,-10e-4 -3.88625,-1.74125 -3.8875,-3.88625 10e-4,-0.93 0.3275,-1.7825 0.8725,-2.4525 0.39625,-0.48625 0.9075,-0.875 1.4925,-1.125 0.4675,-0.19875 0.9825,-0.31 1.5225,-0.31 l 0,1.25 c -1.4525,0.003 -2.635,1.185 -2.6375,2.6375 0,1.4525 1.185,2.63375 2.6375,2.63625 1.45125,-0.003 2.63375,-1.18375 2.63625,-2.63625 0,-1.4525 -1.185,-2.635 -2.63625,-2.6375 l 0,-1.25 c 0.26375,0 0.5225,0.0275 0.7725,0.0775 0.62875,0.1275 1.2025,0.4075 1.6825,0.79875 0.8725,0.7125 1.43,1.7975 1.43125,3.01125 -0.001,2.145 -1.7425,3.885 -3.88625,3.88625" />
    <path
       inkscape:connector-curvature="0"
       id="path1940"
       style="fill:#5a5b62;fill-opacity:1;fill-rule:nonzero;stroke:none"
       d="m 588.70459,483.34216 c -1.45,-0.002 -2.6375,-1.18375 -2.6375,-2.6375 0,-1.45125 1.1875,-2.6325 2.6375,-2.635 l 0,-0.625 0,0.625 c 1.45,0.002 2.6375,1.18375 2.6375,2.635 0,1.45375 -1.1875,2.635 -2.6375,2.6375" />
    <path
       inkscape:connector-curvature="0"
       id="path1942"
       style="fill:#ffffff;fill-opacity:1;fill-rule:nonzero;stroke:none"
       d="m 588.70459,484.59216 c -0.4375,0 -0.8625,-0.0725 -1.25,-0.20625 -0.6,-0.205 -1.1375,-0.555 -1.575,-1.00625 -0.6625,-0.6975 -1.0625,-1.63875 -1.0625,-2.675 0,-2.145 1.7375,-3.885 3.8875,-3.88625 l 0,1.25125 c -1.45,0.002 -2.6375,1.18375 -2.6375,2.635 0,1.45375 1.1875,2.635 2.6375,2.6375 1.45,-0.002 2.6375,-1.18375 2.6375,-2.6375 0,-1.45125 -1.1875,-2.6325 -2.6375,-2.635 l 0,-1.25125 c 2.1375,0.001 3.8875,1.74125 3.8875,3.88625 0,1.02375 -0.4,1.955 -1.05,2.65 -0.425,0.45625 -0.9625,0.81125 -1.5625,1.02125 -0.4,0.14 -0.825,0.21625 -1.275,0.21625" />
    <path
       inkscape:connector-curvature="0"
       id="path1944"
       style="fill:#5a5b62;fill-opacity:1;fill-rule:nonzero;stroke:none"
       d="m 610.50459,511.85841 c -1.45,-0.002 -2.625,-1.185 -2.6375,-2.6375 0.0125,-1.4525 1.1875,-2.63375 2.6375,-2.63625 l 0,-0.625 0,0.625 c 1.4625,0.002 2.6375,1.18375 2.6375,2.63625 0,1.4525 -1.175,2.635 -2.6375,2.6375" />
    <path
       inkscape:connector-curvature="0"
       id="path1946"
       style="fill:#ffffff;fill-opacity:1;fill-rule:nonzero;stroke:none"
       d="m 610.50459,513.10841 c -2.1375,-0.001 -3.8875,-1.7425 -3.8875,-3.8875 0,-1.02 0.4,-1.9475 1.0375,-2.64125 0.425,-0.4575 0.9625,-0.81375 1.5625,-1.025 0.4125,-0.1425 0.8375,-0.22 1.2875,-0.22 l 0,1.25 c -1.45,0.002 -2.625,1.18375 -2.6375,2.63625 0.0125,1.4525 1.1875,2.635 2.6375,2.6375 1.4625,-0.002 2.6375,-1.185 2.6375,-2.6375 0,-1.4525 -1.175,-2.63375 -2.6375,-2.63625 l 0,-1.25 c 0.9375,0 1.7875,0.3275 2.4625,0.87375 0.4875,0.39625 0.875,0.9075 1.125,1.4925 0.1875,0.4675 0.3,0.98125 0.3,1.52 0,2.145 -1.7375,3.88625 -3.8875,3.8875" />
    <path
       inkscape:connector-curvature="0"
       id="path1948"
       style="fill:#eaeaea;fill-opacity:1;fill-rule:nonzero;stroke:none"
       d="m 663.42959,573.41341 -281.1425,0.0138 c 0,0 -2.0075,10.6475 4.79125,12.73625 l 271.55125,0 c 6.8,-2.08875 4.8,-12.75 4.8,-12.75" />
    <path
       inkscape:connector-curvature="0"
       id="path1950"
       style="fill:#aeaeaf;fill-opacity:1;fill-rule:nonzero;stroke:none"
       d="m 501.47584,574.32591 0,-0.73375 c 0,4.0275 3.805,7.00125 7.8325,7.00125 l 27.095,0 c 4.0275,0 6.85125,-2.97375 6.85125,-7.00125 l 0,0.73375 -41.77875,0" />
  </g>
</svg>
