<?xml version="1.0" encoding="UTF-8" standalone="no"?>
<!-- Created with Inkscape (http://www.inkscape.org/) -->

<svg
   xmlns:dc="http://purl.org/dc/elements/1.1/"
   xmlns:cc="http://creativecommons.org/ns#"
   xmlns:rdf="http://www.w3.org/1999/02/22-rdf-syntax-ns#"
   xmlns:svg="http://www.w3.org/2000/svg"
   xmlns="http://www.w3.org/2000/svg"
   xmlns:sodipodi="http://sodipodi.sourceforge.net/DTD/sodipodi-0.dtd"
   xmlns:inkscape="http://www.inkscape.org/namespaces/inkscape"
   width="170.68687"
   height="184.75888"
   id="svg6457"
   version="1.1"
   inkscape:version="0.48.5 r10040"
   sodipodi:docname="New document 3">
  <defs
     id="defs6459">
    <clipPath
       clipPathUnits="userSpaceOnUse"
       id="clipPath460">
      <path
         inkscape:connector-curvature="0"
         d="m 2279.03,1428.61 c 0,-377.07 -305.68,-682.739 -682.74,-682.739 -377.08,0 -682.755,305.669 -682.755,682.739 0,141.41 42.988,764.1 116.605,873.06 122.7,181.61 330.47,301.02 566.15,301.02 228.76,0 431.25,-112.52 555.14,-285.21 80.31,-111.98 127.6,-740.56 127.6,-888.87"
         id="path462" />
    </clipPath>
    <clipPath
       clipPathUnits="userSpaceOnUse"
       id="clipPath426">
      <path
         inkscape:connector-curvature="0"
         d="m 2279.03,1428.61 c 0,-377.07 -305.68,-682.739 -682.74,-682.739 -377.08,0 -682.755,305.669 -682.755,682.739 0,141.41 42.988,764.1 116.605,873.06 122.7,181.61 330.47,301.02 566.15,301.02 228.76,0 431.25,-112.52 555.14,-285.21 80.31,-111.98 127.6,-740.56 127.6,-888.87"
         id="path428" />
    </clipPath>
    <clipPath
       clipPathUnits="userSpaceOnUse"
       id="clipPath432">
      <path
         inkscape:connector-curvature="0"
         d="m 1725,916.109 c 0,30.25 -10.8,57.832 -29.25,78.911 -22.01,25.37 -54.26,41.42 -90.48,41.42 -66.31,0 -119.96,-53.749 -119.96,-120.049 0,-66.309 52.98,-120.059 119.29,-120.059 l 0.07,0.027 0,-0.109 C 1671.76,796.551 1725,850 1725,916.109"
         id="path434" />
    </clipPath>
    <clipPath
       clipPathUnits="userSpaceOnUse"
       id="clipPath310">
      <path
         inkscape:connector-curvature="0"
         d="m 2279.03,1428.61 c 0,-377.07 -305.68,-682.739 -682.74,-682.739 -377.08,0 -682.755,305.669 -682.755,682.739 0,141.41 42.988,764.1 116.605,873.06 122.7,181.61 330.47,301.02 566.15,301.02 228.76,0 431.25,-112.52 555.14,-285.21 80.31,-111.98 127.6,-740.56 127.6,-888.87"
         id="path312" />
    </clipPath>
  </defs>
  <sodipodi:namedview
     id="base"
     pagecolor="#ffffff"
     bordercolor="#666666"
     borderopacity="1.0"
     inkscape:pageopacity="0.0"
     inkscape:pageshadow="2"
     inkscape:zoom="0.35"
     inkscape:cx="6.057725"
     inkscape:cy="292.37944"
     inkscape:document-units="px"
     inkscape:current-layer="layer1"
     showgrid="false"
     fit-margin-top="0"
     fit-margin-left="0"
     fit-margin-right="0"
     fit-margin-bottom="0"
     inkscape:window-width="501"
     inkscape:window-height="434"
     inkscape:window-x="2739"
     inkscape:window-y="115"
     inkscape:window-maximized="0" />
  <metadata
     id="metadata6462">
    <rdf:RDF>
      <cc:Work
         rdf:about="">
        <dc:format>image/svg+xml</dc:format>
        <dc:type
           rdf:resource="http://purl.org/dc/dcmitype/StillImage" />
        <dc:title></dc:title>
      </cc:Work>
    </rdf:RDF>
  </metadata>
  <g
     inkscape:label="Layer 1"
     inkscape:groupmode="layer"
     id="layer1"
     transform="translate(-368.94228,-639.98275)">
    <g
       id="g306"
       transform="matrix(0.125,0,0,-0.125,254.7504,917.9755)">
      <g
         clip-path="url(#clipPath310)"
         id="g308">
        <path
           inkscape:connector-curvature="0"
           id="path314"
           style="fill:#db9256;fill-opacity:1;fill-rule:nonzero;stroke:none"
           d="m 2279.03,1428.61 c 0,-377.07 -305.68,-682.739 -682.74,-682.739 -377.08,0 -682.755,305.669 -682.755,682.739 0,377.08 305.675,682.76 682.755,682.76 377.06,0 682.74,-305.68 682.74,-682.76" />
        <path
           inkscape:connector-curvature="0"
           id="path316"
           style="fill:#ebebf2;fill-opacity:1;fill-rule:nonzero;stroke:none"
           d="m 1034.38,739.492 1115.43,0 0,1484.45 -1115.43,0 0,-1484.45 z" />
        <path
           inkscape:connector-curvature="0"
           id="path318"
           style="fill:#cccccc;fill-opacity:1;fill-rule:nonzero;stroke:none"
           d="m 1739.74,1314.22 49.6836,0 0,358.477 -49.6836,0 0,-358.477 z" />
        <path
           inkscape:connector-curvature="0"
           id="path320"
           style="fill:#cccccc;fill-opacity:1;fill-rule:nonzero;stroke:none"
           d="m 1567.07,1314.22 49.6914,0 0,358.477 -49.6914,0 0,-358.477 z" />
        <path
           inkscape:connector-curvature="0"
           id="path322"
           style="fill:#cccccc;fill-opacity:1;fill-rule:nonzero;stroke:none"
           d="m 1651.53,1314.22 53.418,0 0,358.477 -53.418,0 0,-358.477 z" />
        <path
           inkscape:connector-curvature="0"
           id="path324"
           style="fill:#cccccc;fill-opacity:1;fill-rule:nonzero;stroke:none"
           d="m 1479.48,1314.22 53.418,0 0,358.477 -53.418,0 0,-358.477 z" />
        <path
           inkscape:connector-curvature="0"
           id="path326"
           style="fill:#cccccc;fill-opacity:1;fill-rule:nonzero;stroke:none"
           d="m 1391.28,1314.22 53.418,0 0,358.477 -53.418,0 0,-358.477 z" />
        <path
           inkscape:connector-curvature="0"
           id="path328"
           style="fill:#ce4141;fill-opacity:1;fill-rule:nonzero;stroke:none"
           d="m 1391.9,1314.22 52.1836,0 0,143.469 -52.1836,0 0,-143.469 z" />
        <path
           inkscape:connector-curvature="0"
           id="path330"
           style="fill:#ce4141;fill-opacity:1;fill-rule:nonzero;stroke:none"
           d="m 1480.11,1314.22 52.1602,0 0,272.387 -52.1602,0 0,-272.387 z" />
        <path
           inkscape:connector-curvature="0"
           id="path332"
           style="fill:#ce4141;fill-opacity:1;fill-rule:nonzero;stroke:none"
           d="m 1567.07,1314.22 49.6914,0 0,245.156 -49.6914,0 0,-245.156 z" />
        <path
           inkscape:connector-curvature="0"
           id="path334"
           style="fill:#ce4141;fill-opacity:1;fill-rule:nonzero;stroke:none"
           d="m 1651.53,1314.22 53.418,0 0,189.43 -53.418,0 0,-189.43 z" />
        <path
           inkscape:connector-curvature="0"
           id="path336"
           style="fill:#ce4141;fill-opacity:1;fill-rule:nonzero;stroke:none"
           d="m 1739.74,1314.22 49.6836,0 0,358.477 -49.6836,0 0,-358.477 z" />
        <path
           inkscape:connector-curvature="0"
           id="path338"
           style="fill:#737682;fill-opacity:1;fill-rule:nonzero;stroke:none"
           d="m 1076.31,2005.9 1039.95,0 0,159.34 -1039.95,0 0,-159.34 z" />
        <path
           inkscape:connector-curvature="0"
           id="path340"
           style="fill:#737682;fill-opacity:1;fill-rule:nonzero;stroke:none"
           d="m 1076.31,1167.21 1039.95,0 0,100.648 -1039.95,0 0,-100.648 z" />
        <path
           inkscape:connector-curvature="0"
           id="path342"
           style="fill:#737682;fill-opacity:1;fill-rule:nonzero;stroke:none"
           d="m 1076.31,1938.8 1039.95,0 0,25.1602 -1039.95,0 0,-25.1602 z" />
        <path
           inkscape:connector-curvature="0"
           id="path344"
           style="fill:#c4d4d9;fill-opacity:1;fill-rule:nonzero;stroke:none"
           d="m 1076.31,1871.71 1039.95,0 0,25.1484 -1039.95,0 0,-25.1484 z" />
        <path
           inkscape:connector-curvature="0"
           id="path346"
           style="fill:#c4d4d9;fill-opacity:1;fill-rule:nonzero;stroke:none"
           d="m 1076.31,1066.58 1039.95,0 0,33.5391 -1039.95,0 0,-33.5391 z" />
        <path
           inkscape:connector-curvature="0"
           id="path348"
           style="fill:#c4d4d9;fill-opacity:1;fill-rule:nonzero;stroke:none"
           d="m 1076.31,982.711 377.402,0 0,25.1602 -377.402,0 0,-25.1602 z" />
        <path
           inkscape:connector-curvature="0"
           id="path350"
           style="fill:#c4d4d9;fill-opacity:1;fill-rule:nonzero;stroke:none"
           d="m 1738.86,982.711 377.402,0 0,25.1602 -377.402,0 0,-25.1602 z" />
        <path
           inkscape:connector-curvature="0"
           id="path352"
           style="fill:#c4d4d9;fill-opacity:1;fill-rule:nonzero;stroke:none"
           d="m 1076.31,898.852 377.402,0 0,25.1484 -377.402,0 0,-25.1484 z" />
        <path
           inkscape:connector-curvature="0"
           id="path354"
           style="fill:#c4d4d9;fill-opacity:1;fill-rule:nonzero;stroke:none"
           d="m 1738.86,898.852 377.402,0 0,25.1484 -377.402,0 0,-25.1484 z" />
        <path
           inkscape:connector-curvature="0"
           id="path356"
           style="fill:#c4d4d9;fill-opacity:1;fill-rule:nonzero;stroke:none"
           d="m 1076.31,814.98 377.402,0 0,25.1523 -377.402,0 0,-25.1523 z" />
        <path
           inkscape:connector-curvature="0"
           id="path358"
           style="fill:#c4d4d9;fill-opacity:1;fill-rule:nonzero;stroke:none"
           d="m 1738.86,814.98 377.402,0 0,25.1523 -377.402,0 0,-25.1523 z" />
        <path
           inkscape:connector-curvature="0"
           id="path360"
           style="fill:#c4d4d9;fill-opacity:1;fill-rule:nonzero;stroke:none"
           d="m 1076.31,1804.61 930.93,0 0,33.5508 -930.93,0 0,-33.5508 z" />
        <path
           inkscape:connector-curvature="0"
           id="path362"
           style="fill:#c4d4d9;fill-opacity:1;fill-rule:nonzero;stroke:none"
           d="m 1076.31,1745.91 587.07,0 0,33.5391 -587.07,0 0,-33.5391 z" />
        <path
           inkscape:connector-curvature="0"
           id="path364"
           style="fill:#c4d4d9;fill-opacity:1;fill-rule:nonzero;stroke:none"
           d="m 1780.79,1745.91 327.09,0 0,33.5391 -327.09,0 0,-33.5391 z" />
        <path
           inkscape:connector-curvature="0"
           id="path366"
           style="fill:#737682;fill-opacity:1;fill-rule:nonzero;stroke:none"
           d="m 1831.11,1636.87 285.152,0 0,33.5508 -285.152,0 0,-33.5508 z" />
        <path
           inkscape:connector-curvature="0"
           id="path368"
           style="fill:#c4d4d9;fill-opacity:1;fill-rule:nonzero;stroke:none"
           d="m 1831.11,1578.17 285.152,0 0,25.1602 -285.152,0 0,-25.1602 z" />
        <path
           inkscape:connector-curvature="0"
           id="path370"
           style="fill:#c4d4d9;fill-opacity:1;fill-rule:nonzero;stroke:none"
           d="m 1831.11,1502.68 285.152,0 0,33.5625 -285.152,0 0,-33.5625 z" />
        <path
           inkscape:connector-curvature="0"
           id="path372"
           style="fill:#c4d4d9;fill-opacity:1;fill-rule:nonzero;stroke:none"
           d="m 1831.11,1452.37 218.062,0 0,25.1602 -218.062,0 0,-25.1602 z" />
        <path
           inkscape:connector-curvature="0"
           id="path374"
           style="fill:#737682;fill-opacity:1;fill-rule:nonzero;stroke:none"
           d="m 1881.43,1376.88 234.832,0 0,25.1719 -234.832,0 0,-25.1719 z" />
        <path
           inkscape:connector-curvature="0"
           id="path376"
           style="fill:#c4d4d9;fill-opacity:1;fill-rule:nonzero;stroke:none"
           d="m 1831.11,1318.18 285.152,0 0,25.1602 -285.152,0 0,-25.1602 z" />
        <path
           inkscape:connector-curvature="0"
           id="path378"
           style="fill:#737682;fill-opacity:1;fill-rule:nonzero;stroke:none"
           d="m 1067.92,1636.87 285.148,0 0,33.5508 -285.148,0 0,-33.5508 z" />
        <path
           inkscape:connector-curvature="0"
           id="path380"
           style="fill:#c4d4d9;fill-opacity:1;fill-rule:nonzero;stroke:none"
           d="m 1067.92,1578.17 285.148,0 0,25.1602 -285.148,0 0,-25.1602 z" />
        <path
           inkscape:connector-curvature="0"
           id="path382"
           style="fill:#c4d4d9;fill-opacity:1;fill-rule:nonzero;stroke:none"
           d="m 1067.92,1502.68 285.148,0 0,33.5625 -285.148,0 0,-33.5625 z" />
        <path
           inkscape:connector-curvature="0"
           id="path384"
           style="fill:#c4d4d9;fill-opacity:1;fill-rule:nonzero;stroke:none"
           d="m 1067.92,1452.37 218.059,0 0,25.1602 -218.059,0 0,-25.1602 z" />
        <path
           inkscape:connector-curvature="0"
           id="path386"
           style="fill:#737682;fill-opacity:1;fill-rule:nonzero;stroke:none"
           d="m 1118.24,1376.88 234.832,0 0,25.1719 -234.832,0 0,-25.1719 z" />
        <path
           inkscape:connector-curvature="0"
           id="path388"
           style="fill:#c4d4d9;fill-opacity:1;fill-rule:nonzero;stroke:none"
           d="m 1067.92,1318.18 285.148,0 0,25.1602 -285.148,0 0,-25.1602 z" />
        <path
           inkscape:connector-curvature="0"
           id="path390"
           style="fill:#ce4141;fill-opacity:1;fill-rule:nonzero;stroke:none"
           d="m 1605.47,823.219 c -51.45,0 -93.16,41.722 -93.16,93.172 0,51.461 41.71,93.169 93.16,93.169 51.46,0 93.17,-41.708 93.17,-93.169 0,-51.45 -41.71,-93.172 -93.17,-93.172 m 0,213.221 c -66.3,0 -120.05,-53.749 -120.05,-120.049 0,-66.309 53.75,-120.059 120.05,-120.059 66.31,0 120.06,53.75 120.06,120.059 0,66.3 -53.75,120.049 -120.06,120.049" />
        <path
           inkscape:connector-curvature="0"
           id="path392"
           style="fill:#ebebf2;fill-opacity:1;fill-rule:nonzero;stroke:none"
           d="m 1605.47,851.141 c -36.03,0 -65.24,29.218 -65.24,65.25 0,36.031 29.21,65.238 65.24,65.238 36.03,0 65.24,-29.207 65.24,-65.238 0,-36.032 -29.21,-65.25 -65.24,-65.25 m 0,158.419 c -51.45,0 -93.16,-41.708 -93.16,-93.169 0,-51.45 41.71,-93.172 93.16,-93.172 51.46,0 93.17,41.722 93.17,93.172 0,51.461 -41.71,93.169 -93.17,93.169" />
        <path
           inkscape:connector-curvature="0"
           id="path394"
           style="fill:#ce4141;fill-opacity:1;fill-rule:nonzero;stroke:none"
           d="m 1605.47,876.66 c -21.94,0 -39.73,17.789 -39.73,39.731 0,21.941 17.79,39.73 39.73,39.73 21.95,0 39.73,-17.789 39.73,-39.73 0,-21.942 -17.78,-39.731 -39.73,-39.731 m 0,104.969 c -36.03,0 -65.24,-29.207 -65.24,-65.238 0,-36.032 29.21,-65.25 65.24,-65.25 36.03,0 65.24,29.218 65.24,65.25 0,36.031 -29.21,65.238 -65.24,65.238" />
        <path
           inkscape:connector-curvature="0"
           id="path396"
           style="fill:#ebebf2;fill-opacity:1;fill-rule:nonzero;stroke:none"
           d="m 1605.47,898.18 c -10.06,0 -18.22,8.152 -18.22,18.211 0,10.062 8.16,18.211 18.22,18.211 10.07,0 18.22,-8.149 18.22,-18.211 0,-10.059 -8.15,-18.211 -18.22,-18.211 m 0,57.941 c -21.94,0 -39.73,-17.789 -39.73,-39.73 0,-21.942 17.79,-39.731 39.73,-39.731 21.95,0 39.73,17.789 39.73,39.731 0,21.941 -17.78,39.73 -39.73,39.73" />
        <path
           inkscape:connector-curvature="0"
           id="path398"
           style="fill:#ce4141;fill-opacity:1;fill-rule:nonzero;stroke:none"
           d="m 1605.47,934.602 c -10.06,0 -18.22,-8.149 -18.22,-18.211 0,-10.059 8.16,-18.211 18.22,-18.211 10.07,0 18.22,8.152 18.22,18.211 0,10.062 -8.15,18.211 -18.22,18.211" />
        <path
           inkscape:connector-curvature="0"
           id="path400"
           style="fill:#b93737;fill-opacity:1;fill-rule:nonzero;stroke:none"
           d="m 1605.77,798.199 -1.1,0 0,25.031 c 0.27,-0.011 0.54,-0.011 0.8,-0.011 21.08,0 40.53,7.004 56.14,18.812 l 7.65,-7.929 -5.42,-21.582 c -17.21,-9.161 -37,-14.321 -58.07,-14.321" />
        <path
           inkscape:connector-curvature="0"
           id="path402"
           style="fill:#d3c7cd;fill-opacity:1;fill-rule:nonzero;stroke:none"
           d="m 1605.47,823.219 c -0.26,0 -0.53,0 -0.8,0.011 l 0,27.922 c 0.27,-0.011 0.53,-0.011 0.8,-0.011 13.55,0 26.12,4.129 36.55,11.191 l 19.59,-20.301 c -15.61,-11.808 -35.06,-18.812 -56.14,-18.812" />
        <path
           inkscape:connector-curvature="0"
           id="path404"
           style="fill:#b93737;fill-opacity:1;fill-rule:nonzero;stroke:none"
           d="m 1605.47,851.141 c -0.27,0 -0.53,0 -0.8,0.011 l 0,25.52 c 0.27,-0.012 0.54,-0.012 0.8,-0.012 6.64,0 12.89,1.621 18.39,4.5 l 18.16,-18.828 c -10.43,-7.062 -23,-11.191 -36.55,-11.191" />
        <path
           inkscape:connector-curvature="0"
           id="path406"
           style="fill:#d3c7cd;fill-opacity:1;fill-rule:nonzero;stroke:none"
           d="m 1605.47,876.66 c -0.26,0 -0.53,0 -0.8,0.012 l 0,21.527 c 0.27,-0.008 0.53,-0.019 0.8,-0.019 0.63,0 1.26,0.031 1.87,0.101 l 16.52,-17.121 c -5.5,-2.879 -11.75,-4.5 -18.39,-4.5" />
        <path
           inkscape:connector-curvature="0"
           id="path408"
           style="fill:#b93737;fill-opacity:1;fill-rule:nonzero;stroke:none"
           d="m 1605.47,898.18 c -0.27,0 -0.53,0.011 -0.8,0.019 l 0,2.844 2.67,-2.762 c -0.61,-0.07 -1.24,-0.101 -1.87,-0.101" />
        <path
           inkscape:connector-curvature="0"
           id="path410"
           style="fill:#d3c7cd;fill-opacity:1;fill-rule:nonzero;stroke:none"
           d="m 1696.67,838.312 c 17.99,20.989 28.86,48.258 28.86,78.079 0,11.718 -1.68,23.05 -4.82,33.769 3.33,-10.867 5.12,-22.457 5.12,-34.558 0,-29.981 -10.99,-56.852 -29.16,-77.29" />
        <path
           inkscape:connector-curvature="0"
           id="path412"
           style="fill:#b93737;fill-opacity:1;fill-rule:nonzero;stroke:none"
           d="m 1687.5,829.082 c 3.81,3.59 7.38,7.418 10.69,11.48 4.14,5.071 7.86,10.489 11.13,16.208 l -21.27,-4.54 -8,8.301 c 11.67,15.559 18.59,34.899 18.59,55.86 l 0,0 c 0,51.461 -41.71,93.169 -93.17,93.169 -0.26,0 -0.53,0 -0.8,-0.01 l 0,23.48 1.1,0 c 54.21,0 100.03,-34.171 114.94,-82.87 3.14,-10.719 4.82,-22.051 4.82,-33.769 0,-29.821 -10.87,-57.09 -28.86,-78.079 -2.88,-3.242 -5.94,-6.32 -9.17,-9.23" />
        <path
           inkscape:connector-curvature="0"
           id="path414"
           style="fill:#d3c7cd;fill-opacity:1;fill-rule:nonzero;stroke:none"
           d="M 1680.05,860.531 1660.29,881 c 6.59,10.199 10.42,22.352 10.42,35.391 l 0,0 c 0,36.031 -29.21,65.238 -65.24,65.238 -0.27,0 -0.53,0 -0.8,-0.008 l 0,27.929 c 0.27,0.01 0.54,0.01 0.8,0.01 51.46,0 93.17,-41.708 93.17,-93.169 l 0,0 c 0,-20.961 -6.92,-40.301 -18.59,-55.86" />
        <path
           inkscape:connector-curvature="0"
           id="path416"
           style="fill:#b93737;fill-opacity:1;fill-rule:nonzero;stroke:none"
           d="m 1660.29,881 -18.52,19.211 c 2.2,4.941 3.43,10.422 3.43,16.18 l 0,0 c 0,21.941 -17.78,39.73 -39.73,39.73 -0.26,0 -0.53,0 -0.8,-0.012 l 0,25.512 c 0.27,0.008 0.53,0.008 0.8,0.008 36.03,0 65.24,-29.207 65.24,-65.238 l 0,0 c 0,-13.039 -3.83,-25.192 -10.42,-35.391" />
        <path
           inkscape:connector-curvature="0"
           id="path418"
           style="fill:#d3c7cd;fill-opacity:1;fill-rule:nonzero;stroke:none"
           d="m 1641.77,900.211 -18.29,18.949 c -1.34,8.75 -8.89,15.442 -18.01,15.442 -0.27,0 -0.53,-0.012 -0.8,-0.02 l 0,21.527 c 0.27,0.012 0.54,0.012 0.8,0.012 21.95,0 39.73,-17.789 39.73,-39.73 l 0,0 c 0,-5.758 -1.23,-11.239 -3.43,-16.18" />
        <path
           inkscape:connector-curvature="0"
           id="path420"
           style="fill:#b93737;fill-opacity:1;fill-rule:nonzero;stroke:none"
           d="m 1623.48,919.16 -0.51,0.531 c -4.23,4.399 -9.16,7.168 -13.81,7.168 -1.54,0 -3.05,-0.297 -4.49,-0.949 l 0,8.672 c 0.27,0.008 0.53,0.02 0.8,0.02 9.12,0 16.67,-6.692 18.01,-15.442" />
      </g>
    </g>
    <g
       id="g422"
       transform="matrix(0.125,0,0,-0.125,254.7504,917.9755)">
      <g
         clip-path="url(#clipPath426)"
         id="g424">
        <g
           clip-path="url(#clipPath432)"
           id="g430">
          <path
             inkscape:connector-curvature="0"
             id="path436"
             style="fill:#913233;fill-opacity:1;fill-rule:nonzero;stroke:none"
             d="m 1680.85,823.262 -0.14,0.148 c 2.34,1.813 4.6,3.699 6.79,5.672 -2.14,-2.02 -4.36,-3.961 -6.65,-5.82" />
          <path
             inkscape:connector-curvature="0"
             id="path438"
             style="fill:#913233;fill-opacity:1;fill-rule:nonzero;stroke:none"
             d="m 1604.67,901.043 -0.49,0.508 c -6.83,7.09 -9.39,15.789 -3.02,21.941 1.11,1.07 2.29,1.867 3.51,2.418 l 0,-24.867" />
          <path
             inkscape:connector-curvature="0"
             id="path440"
             style="fill:#822a2b;fill-opacity:1;fill-rule:nonzero;stroke:none"
             d="m 1680.71,823.41 -11.21,11.629 -0.24,-0.937 -7.65,7.929 c 6.98,5.27 13.19,11.5 18.44,18.5 l 8,-8.301 -0.94,-0.199 11.08,-11.469 c -3.31,-4.062 -6.88,-7.89 -10.69,-11.48 -2.19,-1.973 -4.45,-3.859 -6.79,-5.672" />
          <path
             inkscape:connector-curvature="0"
             id="path442"
             style="fill:#949aa2;fill-opacity:1;fill-rule:nonzero;stroke:none"
             d="m 1661.61,842.031 -19.59,20.301 c 7.27,4.93 13.5,11.289 18.27,18.668 l 19.76,-20.469 c -5.25,-7 -11.46,-13.23 -18.44,-18.5" />
          <path
             inkscape:connector-curvature="0"
             id="path444"
             style="fill:#822a2b;fill-opacity:1;fill-rule:nonzero;stroke:none"
             d="m 1642.02,862.332 -18.16,18.828 c 7.91,4.141 14.25,10.86 17.91,19.051 L 1660.29,881 c -4.77,-7.379 -11,-13.738 -18.27,-18.668" />
          <path
             inkscape:connector-curvature="0"
             id="path446"
             style="fill:#949aa2;fill-opacity:1;fill-rule:nonzero;stroke:none"
             d="m 1623.86,881.16 -16.52,17.121 c 9.19,0.93 16.35,8.68 16.35,18.11 l 0,0 c 0,0.941 -0.07,1.871 -0.21,2.769 l 18.29,-18.949 c -3.66,-8.191 -10,-14.91 -17.91,-19.051" />
          <path
             inkscape:connector-curvature="0"
             id="path448"
             style="fill:#822a2b;fill-opacity:1;fill-rule:nonzero;stroke:none"
             d="m 1607.34,898.281 -2.67,2.762 0,24.867 c 1.44,0.652 2.95,0.949 4.49,0.949 4.65,0 9.58,-2.769 13.81,-7.168 l 0.51,-0.531 c 0.14,-0.898 0.21,-1.828 0.21,-2.769 l 0,0 c 0,-9.43 -7.16,-17.18 -16.35,-18.11" />
          <path
             inkscape:connector-curvature="0"
             id="path450"
             style="fill:#822a2b;fill-opacity:1;fill-rule:nonzero;stroke:none"
             d="m 1698.19,840.562 -11.08,11.469 0.94,0.199 21.27,4.54 c -3.27,-5.719 -6.99,-11.137 -11.13,-16.208" />
          <path
             inkscape:connector-curvature="0"
             id="path452"
             style="fill:#913233;fill-opacity:1;fill-rule:nonzero;stroke:none"
             d="m 1663.6,811.582 0.24,0.938 c 5.95,3.171 11.59,6.812 16.87,10.89 l 0.14,-0.148 c -5.37,-4.36 -11.14,-8.282 -17.25,-11.68" />
          <path
             inkscape:connector-curvature="0"
             id="path454"
             style="fill:#822a2b;fill-opacity:1;fill-rule:nonzero;stroke:none"
             d="m 1663.84,812.52 5.42,21.582 0.24,0.937 11.21,-11.629 c -5.28,-4.078 -10.92,-7.719 -16.87,-10.89" />
        </g>
      </g>
    </g>
    <g
       id="g456"
       transform="matrix(0.125,0,0,-0.125,254.7504,917.9755)">
      <g
         clip-path="url(#clipPath460)"
         id="g458">
        <path
           inkscape:connector-curvature="0"
           id="path464"
           style="fill:#636363;fill-opacity:1;fill-rule:nonzero;stroke:none"
           d="m 1805.1,915.152 c 0,-8.84 -8.05,-13.16 -17.89,-13.16 l -171.39,0 c -9.84,0 -17.9,4.32 -17.9,13.16 0,8.848 8.06,13.168 17.9,13.168 l 171.39,0 c 9.84,0 17.89,-4.32 17.89,-13.168" />
        <path
           inkscape:connector-curvature="0"
           id="path466"
           style="fill:#444c72;fill-opacity:1;fill-rule:nonzero;stroke:none"
           d="m 1790.71,926.93 -81.67,0 25.93,41.582 81.68,0 -25.94,-41.582" />
        <path
           inkscape:connector-curvature="0"
           id="path468"
           style="fill:#444c72;fill-opacity:1;fill-rule:nonzero;stroke:none"
           d="m 1734.97,861.109 81.68,0 -25.94,41.563 -81.67,0 25.93,-41.563" />
      </g>
    </g>
  </g>
</svg>
