<?xml version="1.0" encoding="UTF-8" standalone="no"?>
<!-- Created with Inkscape (http://www.inkscape.org/) -->

<svg
   xmlns:dc="http://purl.org/dc/elements/1.1/"
   xmlns:cc="http://creativecommons.org/ns#"
   xmlns:rdf="http://www.w3.org/1999/02/22-rdf-syntax-ns#"
   xmlns:svg="http://www.w3.org/2000/svg"
   xmlns="http://www.w3.org/2000/svg"
   xmlns:sodipodi="http://sodipodi.sourceforge.net/DTD/sodipodi-0.dtd"
   xmlns:inkscape="http://www.inkscape.org/namespaces/inkscape"
   width="213.21249"
   height="180.26875"
   id="svg6175"
   version="1.1"
   inkscape:version="0.48.5 r10040"
   sodipodi:docname="New document 3">
  <defs
     id="defs6177" />
  <sodipodi:namedview
     id="base"
     pagecolor="#ffffff"
     bordercolor="#666666"
     borderopacity="1.0"
     inkscape:pageopacity="0.0"
     inkscape:pageshadow="2"
     inkscape:zoom="1.979899"
     inkscape:cx="49.738926"
     inkscape:cy="4.0131091"
     inkscape:document-units="px"
     inkscape:current-layer="layer1"
     showgrid="false"
     fit-margin-top="0"
     fit-margin-left="0"
     fit-margin-right="0"
     fit-margin-bottom="0"
     inkscape:window-width="1366"
     inkscape:window-height="702"
     inkscape:window-x="2560"
     inkscape:window-y="27"
     inkscape:window-maximized="1" />
  <metadata
     id="metadata6180">
    <rdf:RDF>
      <cc:Work
         rdf:about="">
        <dc:format>image/svg+xml</dc:format>
        <dc:type
           rdf:resource="http://purl.org/dc/dcmitype/StillImage" />
        <dc:title></dc:title>
      </cc:Work>
    </rdf:RDF>
  </metadata>
  <g
     inkscape:label="Layer 1"
     inkscape:groupmode="layer"
     id="layer1"
     transform="translate(-404.82232,-487.94209)">
    <path
       inkscape:connector-curvature="0"
       id="path96"
       style="fill:#c9c9c9;fill-opacity:1;fill-rule:nonzero;stroke:none"
       d="m 541.58482,632.64959 -59.875,0 -4.2625,20.715 67.9875,0.0462 -3.85,-20.76125" />
    <path
       inkscape:connector-curvature="0"
       id="path98"
       style="fill:#c9c9c9;fill-opacity:1;fill-rule:nonzero;stroke:none"
       d="m 466.69732,668.21084 90.9375,0 0,-3.75 -90.9375,0 0,3.75 z" />
    <path
       inkscape:connector-curvature="0"
       id="path100"
       style="fill:#c9c9c9;fill-opacity:1;fill-rule:nonzero;stroke:none"
       d="m 545.43482,653.63834 -67.9875,0.0687 -10.7625,10.75375 91.0625,0 -12.3125,-10.8225" />
    <path
       inkscape:connector-curvature="0"
       id="path102"
       style="fill:#c9c9c9;fill-opacity:1;fill-rule:nonzero;stroke:none"
       d="m 404.82232,607.03709 0,19.35625 c 0,3.63875 3.1375,6.25625 6.6875,6.25625 l 200.1625,0 c 3.55,0 6.3625,-2.6175 6.3625,-6.25625 l 0,-19.35625 -213.2125,0" />
    <path
       inkscape:connector-curvature="0"
       id="path104"
       style="fill:#434449;fill-opacity:1;fill-rule:nonzero;stroke:none"
       d="m 610.99732,598.71459 -199.1375,0 0,-103.73 199.1375,0 0,103.73 m 0.675,-110.7725 -200.1625,0 c -3.55,0 -6.6875,3.25375 -6.6875,6.89125 l 0,112.20375 213.2125,0 0,-112.20375 c 0,-3.6375 -2.8125,-6.89125 -6.3625,-6.89125" />
    <path
       inkscape:connector-curvature="0"
       id="path106"
       style="fill:#ffffff;fill-opacity:1;fill-rule:nonzero;stroke:none"
       d="m 411.85982,598.71459 199.1375,0 0,-103.7305 -199.1375,0 0,103.7305 z" />
    <path
       inkscape:connector-curvature="0"
       id="path108"
       style="fill:#b94a4a;fill-opacity:1;fill-rule:nonzero;stroke:none"
       d="m 418.88482,590.39459 57.1875,0 0,-41.2525 -57.1875,0 0,41.2525 z" />
    <path
       inkscape:connector-curvature="0"
       id="path110"
       style="fill:#8eb968;fill-opacity:1;fill-rule:nonzero;stroke:none"
       d="m 481.69732,590.39459 58.125,0 0,-41.2525 -58.125,0 0,41.2525 z" />
    <path
       inkscape:connector-curvature="0"
       id="path112"
       style="fill:#93b3c3;fill-opacity:1;fill-rule:nonzero;stroke:none"
       d="m 546.38482,590.39459 57.1875,0 0,-41.2525 -57.1875,0 0,41.2525 z" />
    <path
       inkscape:connector-curvature="0"
       id="path114"
       style="fill:#c9c9c9;fill-opacity:1;fill-rule:nonzero;stroke:none"
       d="m 418.88482,541.64209 57.1875,0 0,-40.315 -57.1875,0 0,40.315 z" />
    <path
       inkscape:connector-curvature="0"
       id="path116"
       style="fill:#6e6eb4;fill-opacity:1;fill-rule:nonzero;stroke:none"
       d="m 481.69732,541.64209 58.125,0 0,-40.315 -58.125,0 0,40.315 z" />
    <path
       inkscape:connector-curvature="0"
       id="path118"
       style="fill:#dd904b;fill-opacity:1;fill-rule:nonzero;stroke:none"
       d="m 546.38482,541.64209 57.1875,0 0,-40.315 -57.1875,0 0,40.315 z" />
    <path
       inkscape:connector-curvature="0"
       id="path120"
       style="fill:#c9c9c9;fill-opacity:1;fill-rule:nonzero;stroke:none"
       d="m 611.67232,632.58459 -99.0375,0 0,-25.5475 105,0 0,19.35625 c 0,3.63875 -2.4125,6.19125 -5.9625,6.19125" />
    <path
       inkscape:connector-curvature="0"
       id="path122"
       style="fill:#66676f;fill-opacity:1;fill-rule:nonzero;stroke:none"
       d="m 617.63482,607.03709 -105,0 0,-8.3225 98.3625,0 0,-103.73 -98.3625,0 0,-6.7825 99.0375,0 c 3.55,0 5.9625,2.99375 5.9625,6.63125 l 0,112.20375" />
    <path
       inkscape:connector-curvature="0"
       id="path124"
       style="fill:#ffffff;fill-opacity:1;fill-rule:nonzero;stroke:none"
       d="m 610.99732,598.71459 -98.3625,0 0,-8.32 27.1875,0 0,-41.2525 -27.1875,0 0,-7.5 27.1875,0 0,-40.315 -27.1875,0 0,-6.3425 98.3625,0 0,103.73 m -64.6125,-49.5725 0,41.2525 57.1875,0 0,-41.2525 -57.1875,0 m 0,-47.815 0,40.315 57.1875,0 0,-40.315 -57.1875,0" />
    <path
       inkscape:connector-curvature="0"
       id="path126"
       style="fill:#a3c687;fill-opacity:1;fill-rule:nonzero;stroke:none"
       d="m 512.63482,590.39459 27.1875,0 0,-41.2525 -27.1875,0 0,41.2525 z" />
    <path
       inkscape:connector-curvature="0"
       id="path128"
       style="fill:#a7c1cf;fill-opacity:1;fill-rule:nonzero;stroke:none"
       d="m 546.38482,590.39459 57.1875,0 0,-41.2525 -57.1875,0 0,41.2525 z" />
    <path
       inkscape:connector-curvature="0"
       id="path130"
       style="fill:#8989c4;fill-opacity:1;fill-rule:nonzero;stroke:none"
       d="m 512.63482,541.64209 27.1875,0 0,-40.315 -27.1875,0 0,40.315 z" />
    <path
       inkscape:connector-curvature="0"
       id="path132"
       style="fill:#e3a570;fill-opacity:1;fill-rule:nonzero;stroke:none"
       d="m 546.38482,541.64209 57.1875,0 0,-40.315 -57.1875,0 0,40.315 z" />
  </g>
</svg>
