<?xml version="1.0" encoding="UTF-8" standalone="no"?>
<!-- Created with Inkscape (http://www.inkscape.org/) -->

<svg
   xmlns:dc="http://purl.org/dc/elements/1.1/"
   xmlns:cc="http://creativecommons.org/ns#"
   xmlns:rdf="http://www.w3.org/1999/02/22-rdf-syntax-ns#"
   xmlns:svg="http://www.w3.org/2000/svg"
   xmlns="http://www.w3.org/2000/svg"
   xmlns:sodipodi="http://sodipodi.sourceforge.net/DTD/sodipodi-0.dtd"
   xmlns:inkscape="http://www.inkscape.org/namespaces/inkscape"
   width="32"
   height="32"
   id="svg2"
   version="1.1"
   inkscape:version="0.48.5 r10040"
   sodipodi:docname="k.svg">
  <defs
     id="defs4" />
  <sodipodi:namedview
     id="base"
     pagecolor="#ffffff"
     bordercolor="#666666"
     borderopacity="1.0"
     inkscape:pageopacity="0.0"
     inkscape:pageshadow="2"
     inkscape:zoom="7.9195959"
     inkscape:cx="7.1426883"
     inkscape:cy="15.9874"
     inkscape:document-units="px"
     inkscape:current-layer="layer1"
     showgrid="false"
     inkscape:window-width="1366"
     inkscape:window-height="702"
     inkscape:window-x="0"
     inkscape:window-y="159"
     inkscape:window-maximized="1" />
  <metadata
     id="metadata7">
    <rdf:RDF>
      <cc:Work
         rdf:about="">
        <dc:format>image/svg+xml</dc:format>
        <dc:type
           rdf:resource="http://purl.org/dc/dcmitype/StillImage" />
        <dc:title></dc:title>
      </cc:Work>
    </rdf:RDF>
  </metadata>
  <g
     inkscape:label="Layer 1"
     inkscape:groupmode="layer"
     id="layer1"
     transform="translate(0,-1020.3622)">
    <g
       id="g3473"
       transform="matrix(0.08714635,0,0,0.08714635,13.172001,947.05153)">
      <path
         d="m 32.451151,881.39864 c -79.2175,0 -143.436251,64.2188 -143.436251,143.43626 0,79.2175 64.218751,143.4375 143.436251,143.4375 79.217499,0 143.436249,-64.22 143.436249,-143.4375 0,-79.21746 -64.21875,-143.43626 -143.436249,-143.43626 z m 87.659999,211.97746 -40.657499,-40.6562 c -0.285,0.5912 -0.5875,1.1712 -0.9125,1.7337 0.8675,3.9088 0.93375,8 0.12125,11.8675 -0.5975,2.8475 -1.65125,5.49 -3.10625,7.8488 0.24,1.5375 0.345,3.12 0.31125,4.7237 -0.0888,4.4238 -1.23625,8.6763 -3.24125,12.4163 l 24.2575,24.2562 c -18.19625,12.96 -40.44125,20.59 -64.4325,20.59 -61.3825,0 -111.32125,-49.9375 -111.32125,-111.3212 0,-23.9925 7.63,-46.23496 20.59,-64.43256 l 52.9487496,52.94876 c 3.68875,-2.2662 7.105,-3.9975 10.45625,-5.2237 -2.14625,-5.6125 -5.04750003,-11.11746 -8.08375,-16.84376 -3.83,-7.2212 -7.7899996,-14.6887 -10.1924996,-22.6637 l -1.4325,-4.755 1.72875,-3.455 -23.235,-23.2338 c 18.91,-14.8175 42.7112496,-23.6625 68.54125,-23.6625 61.38375,0 111.321249,49.94 111.321249,111.32126 0,25.8312 -8.845,49.6325 -23.66125,68.5412"
         style="fill:#2a394c;fill-opacity:1;fill-rule:nonzero;stroke:none"
         id="path60"
         inkscape:connector-curvature="0" />
      <path
         d="m 19.557401,1012.4311 c 1.25125,-0.1362 2.46875,-0.2037 3.66875,-0.2037 5.14,0 9.94,1.2387 15.5075,3.6112 3.36625,1.435 6.74625,3.155 9.245,5.9238 1.8125,0.067 14.735,0.7125 14.735,0.7125 0.0475,10e-4 0.0925,0.01 0.14,0.011 8.46875,-21.1463 25.80125,-40.87246 35.0425,-58.90746 -4.87375,-13.4125 -23.5725,-21.2663 -39.5125,-21.2663 -4.95,0 -9.63375,0.7575 -13.555,2.34 -2.2575,0.9125 -4.335,2.09 -6.1475,3.5638 -1.17125,17.7175 -2.9825,36.5662 -5.83375,56.09366 -2.6325,0.6575 -4.92625,2.0888 -6.5225,4.0663 -1.5575,-8.41876 -6.1275,-16.82126 -7.88875,-25.21626 3.7425,-3.11 5.79875,-11.585 4.4075,-20.7012 1.7875,-0.9813 6.54,-1.6725 8.39875,-2.07 l 0,-16.385 c -8.99125,0.8787 -25.9050004,7.9712 -32.4250004,21.0112 4.55625,15.1238 16.5137504,29.6825 20.7400004,47.41626 z m 26.985,-43.29616 c 5.03875,-1.395 9.27125,-3.3013 11.29875,-12.3 5.46,0 11.73125,0.8975 16.105,4.4537 -2.885,8.7613 -0.80875,12.4088 2.80125,16.1988 -4.595,11.535 -13.3275,23.13246 -17.47625,34.80246 -0.50125,-8.1625 -4.9025,-11.405 -9.555,-11.405 -3.855,0 -7.8825,2.2262 -10.00625,5.7237 2.5075,-12.43996 4.8,-24.91616 6.8325,-37.47366"
         style="fill:#2a394c;fill-opacity:1;fill-rule:nonzero;stroke:none"
         id="path62"
         inkscape:connector-curvature="0" />
      <path
         d="m 70.457401,1036.3049 c -1.25875,-4.955 -4.67875,-8.0063 -9.12875,-8.165 l -12.9,-0.6638 -0.1375,0 0.3525,6.59 12.42375,0.6388 c 2.27375,0.081 3.20375,2.7162 3.31625,5.1562 0.16,3.5013 -1.32125,7.4913 -3.9975,7.9 l -10.6625,0 c -0.12,0 -0.2325,0.023 -0.34875,0.035 l 0.34875,6.5325 9.59,0 c 1.58625,1.91 2.65625,5.6788 1.81,8.7413 -0.63875,2.3162 -2.2175,3.805 -4.695,4.4237 -0.19875,0.05 -0.39625,0.1213 -0.59,0.2138 l -12.38,1.145 c 0.11125,-0.8713 0.1225,-2.015 0.1225,-3.6313 0,-6.2312 -0.495,-16.9262 -0.96125,-24.8562 -0.0625,-1.105 -0.105,-2.1175 -0.1425,-3.0488 -0.32,-7.8725 -0.9175,-11.8462 -10.95375,-16.1237 -5.55875,-2.37 -10.21625,-3.9475 -14.8825,-3.9475 -8.9812504,0 -17.07500043,5.515 -36.10875,20.0862 l -31.4925,0 c -1.81,0 -3.28375,1.4725 -3.28375,3.2838 0,1.8112 1.47375,3.2837 3.28375,3.2837 l 32.605,0 c 0.71875,0 1.43,-0.2412 1.99875,-0.6787 18.3712496,-14.0818 25.9887496,-19.4043 33.1425,-19.4043 3.48375,0 6.9625,1.2013 12.16375,3.4175 6.66125,2.8413 6.695,3.6963 6.965,10.3475 0.0387,0.9675 0.0825,2.0188 0.14875,3.1688 0.46,7.8175 0.94875,18.3512 0.94875,24.4712 0,0.5738 -0.005,1.04 -0.0112,1.4188 -0.61125,-0.049 -1.63125,-0.2525 -3.28,-0.8638 -6.48125,-2.405 -7.35375,-6.2837 -7.35375,-9.7612 0,-1.3888 0.16625,-2.8088 0.3175,-4.0963 0.355,-2.9975 0.7575,-6.3962 -2.12,-8.055 -1.77375,-1.025 -3.51375,-1.2275 -5.0575,-0.6025 -2.7025,1.1 -3.5125,3.9788 -4.4475,7.3138 -1.47375,5.2525 -3.14375,11.2049 -10.8400004,12.9212 -0.85625,0.1913 -1.5875,0.7038 -2.0575,1.4425 -0.47,0.7413 -0.62375,1.6213 -0.4325,2.4788 0.3325,1.4887 1.67875,2.5687 3.20375,2.5687 0.24125,0 0.4825,-0.028 0.71625,-0.079 8.5025004,-1.8975 12.2225004,-7.7012 14.1812504,-12.7212 0.31375,5.8225 3.0125,10.2112 8.04375,13.0987 -4.49,0.2113 -8.6675,3.4913 -10.2175,8.0563 -1.4525,4.2737 -0.3375,8.6075 2.97625,11.8225 -1.8975,2.49 -3.56,7.3637 -2.0025,11.7712 -14.3962504,-0.7025 -24.6012504,-4.75 -34.82,-13.7125 -0.59875,-0.525 -1.3675,-0.815 -2.16625,-0.815 l -12.605,0 c -1.81,0 -3.28375,1.4725 -3.28375,3.2837 0,1.8101 1.47375,3.2838 3.28375,3.2838 l 11.38375,0 c 15.1587496,12.855 29.81375,14.6363 43.4025,14.6363 5.94875,0 12.145,-0.3975 18.72625,-0.82 l 3.41,-0.2163 c 5.28375,-0.33 9.7375,-3.2362 11.91625,-7.7725 1.61875,-3.3687 1.7075,-7.0288 0.30375,-9.8687 4.13125,-2.7463 5.64125,-6.2613 6.17125,-8.8163 0.755,-3.64 -0.0775,-7.2025 -1.37625,-9.555 2.34125,-1.7612 3.93375,-4.2925 4.63375,-7.3887 0.8775,-3.8663 0.2025,-8.2925 -1.75625,-11.8413 4.56125,-3.5237 5.95875,-10.6862 4.6025,-16.025 z m -17.9225,58.735 c -0.3225,2.0787 -2.155,5.6762 -6.98375,5.9775 l -3.4175,0.2175 c -4.61,0.295 -9.37375,0.6012 -13.8225,0.7375 -0.3,-0.087 -0.605,-0.1313 -0.9075,-0.1313 -1.39875,0 -2.28625,-0.8 -2.64125,-2.375 -0.53125,-2.3637 0.48125,-5.17 1.65125,-5.7237 0.45125,-0.2125 0.69125,-0.2313 2.44,-0.3088 l 23.085,-1.1075 c 0.54125,0.365 0.79,1.4588 0.59625,2.7138 z m 5.43625,-15.3288 c -0.3625,2.1013 -1.75375,4.8475 -6.305,6.0525 l -23.33,1.1238 c -3.0575,-0.014 -4.75625,-2.2438 -4.8525,-4.4388 -0.105,-2.3687 1.64,-5.3062 6.9025,-5.7937 l 26.45625,-2.4463 c 0.7075,0.8288 1.5525,3.0425 1.12875,5.5025"
         style="fill:#2a394c;fill-opacity:1;fill-rule:nonzero;stroke:none"
         id="path64"
         inkscape:connector-curvature="0" />
    </g>
  </g>
</svg>
