<?xml version="1.0" encoding="UTF-8" standalone="no"?>
<!-- Created with Inkscape (http://www.inkscape.org/) -->

<svg
   xmlns:dc="http://purl.org/dc/elements/1.1/"
   xmlns:cc="http://creativecommons.org/ns#"
   xmlns:rdf="http://www.w3.org/1999/02/22-rdf-syntax-ns#"
   xmlns:svg="http://www.w3.org/2000/svg"
   xmlns="http://www.w3.org/2000/svg"
   xmlns:sodipodi="http://sodipodi.sourceforge.net/DTD/sodipodi-0.dtd"
   xmlns:inkscape="http://www.inkscape.org/namespaces/inkscape"
   width="32"
   height="32"
   id="svg2"
   version="1.1"
   inkscape:version="0.48.5 r10040"
   sodipodi:docname="0.svg">
  <defs
     id="defs4" />
  <sodipodi:namedview
     id="base"
     pagecolor="#ffffff"
     bordercolor="#666666"
     borderopacity="1.0"
     inkscape:pageopacity="0.0"
     inkscape:pageshadow="2"
     inkscape:zoom="7.9195959"
     inkscape:cx="7.1426883"
     inkscape:cy="15.9874"
     inkscape:document-units="px"
     inkscape:current-layer="layer1"
     showgrid="false"
     inkscape:window-width="1366"
     inkscape:window-height="702"
     inkscape:window-x="0"
     inkscape:window-y="159"
     inkscape:window-maximized="1" />
  <metadata
     id="metadata7">
    <rdf:RDF>
      <cc:Work
         rdf:about="">
        <dc:format>image/svg+xml</dc:format>
        <dc:type
           rdf:resource="http://purl.org/dc/dcmitype/StillImage" />
        <dc:title></dc:title>
      </cc:Work>
    </rdf:RDF>
  </metadata>
  <g
     inkscape:label="Layer 1"
     inkscape:groupmode="layer"
     id="layer1"
     transform="translate(0,-1020.3622)">
    <g
       id="g3532"
       transform="matrix(0.09036526,0,0,0.09036526,12.679592,943.77549)">
      <path
         d="m -100.45008,892.5055 274.38875,0 0,-6.25 -274.38875,0 0,6.25 z"
         style="fill:#2a394c;fill-opacity:1;fill-rule:nonzero;stroke:none"
         id="path66"
         inkscape:connector-curvature="0" />
      <path
         d="m -24.406451,916.2555 -76.043629,0 0,6.25 72.581129,0 c 0.88625,-1.8525 1.845,-3.665 2.915,-5.41 0.175,-0.2887 0.36625,-0.5562 0.5475,-0.84"
         style="fill:#2a394c;fill-opacity:1;fill-rule:nonzero;stroke:none"
         id="path68"
         inkscape:connector-curvature="0" />
      <path
         d="m 101.3448,922.5055 72.59375,0 0,-6.25 -76.091246,0 c 0.2275,0.3563 0.46625,0.695 0.69,1.0588 1.02625,1.685 1.952496,3.4225 2.807496,5.1912"
         style="fill:#2a394c;fill-opacity:1;fill-rule:nonzero;stroke:none"
         id="path70"
         inkscape:connector-curvature="0" />
      <path
         d="m 173.93855,952.5055 0,-6.25 -65.06375,0 c 0.44624,2.1088 0.85875,4.1963 1.255,6.25 l 63.80875,0"
         style="fill:#2a394c;fill-opacity:1;fill-rule:nonzero;stroke:none"
         id="path72"
         inkscape:connector-curvature="0" />
      <path
         d="m -100.45008,946.2555 0,6.25 63.814879,0 c 0.4,-2.0562 0.8175,-4.1437 1.2675,-6.25 l -65.082379,0"
         style="fill:#2a394c;fill-opacity:1;fill-rule:nonzero;stroke:none"
         id="path74"
         inkscape:connector-curvature="0" />
      <path
         d="m -46.260201,976.2555 -54.189879,0 0,6.25 54.122379,0 c -0.09125,-2.1637 -0.065,-4.2487 0.0675,-6.25"
         style="fill:#2a394c;fill-opacity:1;fill-rule:nonzero;stroke:none"
         id="path76"
         inkscape:connector-curvature="0" />
      <path
         d="m 119.81604,982.5055 54.12251,0 0,-6.25 -54.1925,0 c 0.135,2.0013 0.15875,4.0863 0.07,6.25"
         style="fill:#2a394c;fill-opacity:1;fill-rule:nonzero;stroke:none"
         id="path78"
         inkscape:connector-curvature="0" />
      <path
         d="m 110.93229,1012.5055 63.00626,0 0,-6.25 -59.26125,0 c -0.9375,1.7188 -2.05875,3.35 -3.4275,4.8163 -0.11,0.4812 -0.20875,0.9537 -0.3175,1.4337"
         style="fill:#2a394c;fill-opacity:1;fill-rule:nonzero;stroke:none"
         id="path80"
         inkscape:connector-curvature="0" />
      <path
         d="m -41.195201,1006.2555 -59.254879,0 0,6.25 62.999879,0 c -0.10625,-0.48 -0.20625,-0.9525 -0.31625,-1.4325 -1.3675,-1.4675 -2.48875,-3.0987 -3.42875,-4.8175"
         style="fill:#2a394c;fill-opacity:1;fill-rule:nonzero;stroke:none"
         id="path82"
         inkscape:connector-curvature="0" />
      <path
         d="m -100.45008,1036.2555 0,6.25 71.644879,0 c -0.98,-2.0362 -1.835,-4.1237 -2.595,-6.25 l -69.049879,0"
         style="fill:#2a394c;fill-opacity:1;fill-rule:nonzero;stroke:none"
         id="path84"
         inkscape:connector-curvature="0" />
      <path
         d="m 173.93855,1042.5055 0,-6.25 -69.05375,0 c -0.76,2.1263 -1.61626,4.2138 -2.59625,6.25 l 71.65,0"
         style="fill:#2a394c;fill-opacity:1;fill-rule:nonzero;stroke:none"
         id="path86"
         inkscape:connector-curvature="0" />
      <path
         d="m -8.3289511,1048.8993 c 17.195005,13.6725 31.0174951,20.4462 44.7274951,20.4462 0.11375,0 0.22875,0 0.3425,-10e-4 0.11375,10e-4 0.22875,10e-4 0.34125,10e-4 13.715,0 27.535,-6.7737 44.73125,-20.4462 12.64625,-10.0588 13.7675,-26.945 18.238746,-44.7388 4.9025,-2.7362 6.28,-10.3287 7.1125,-19.5825 1.0175,-11.35 -1.76625,-21.1 -7.962496,-22.6775 -4.63875,-23.7062 -8.36125,-54.6725 -43.135,-54.6725 l -38.64625,0 c -34.354995,0 -38.239995,29.6013 -43.138745,54.6725 -6.19375,1.5775 -8.9775,11.3275 -7.95875,22.6775 0.82875,9.2538 2.20625,16.8463 7.10875,19.5825 4.47125,17.7938 5.5925,34.68 18.2387499,44.7388 z m -5.2562499,-48 -1.40875,-5.6088 -3.77125,-2.105 c -0.4075,-1.1487 -1.0375,-3.7962 -1.5775,-9.8037 -0.38625,-4.305 0.0425,-7.46 0.51125,-9.1625 l 5.63,-1.4338 1.88375,-9.6262 c 1.47125,-7.54 4.0924999,-9.2275 7.5449999,-14.9288 5.313745,-5.8425 11.396245,-9.9437 19.1124951,-9.945 1.75375,0 3.5925,0.2125 5.52625,0.6638 4.8275,1.1275 10.8325,1.6887 16.83875,1.6887 6.04625,0 12.09375,-0.5675 16.95625,-1.6975 1.92,-0.4475 3.74875,-0.6575 5.49375,-0.6575 7.70625,0 13.78125,4.095 19.08875,9.9275 3.45875,5.7038 6.0875,7.3988 7.55875,14.9488 l 1.885,9.6262 5.62625,1.4338 c 0.47126,1.7025 0.8975,4.8575 0.51375,9.1625 -0.53999,6.0075 -1.17,8.655 -1.58,9.8037 l -3.76875,2.105 -1.40999,5.6088 c -4.10251,16.3225 -4.12876,29.9962 -13.59251,37.52 -13.9675,11.11 -30.8925,17.5412 -36.43375,17.5412 -0.0937,0 -0.19999,0 -0.30125,-0.01 -0.10124,0.01 -0.20499,0.01 -0.29875,0.01 -5.54375,0 -22.46625,-6.4312 -36.4375001,-17.5412 -9.459995,-7.5238 -9.483745,-21.1975 -13.5899949,-37.52"
         style="fill:#2a394c;fill-opacity:1;fill-rule:nonzero;stroke:none"
         id="path88"
         inkscape:connector-curvature="0" />
      <path
         d="m 173.93855,1129.0005 c 0,-51.8075 -48.21375,-53.6412 -73.86376,-67.1512 -2.459996,1.2325 -28.646246,20.6375 -46.566246,33.99 l 53.861256,0 c 3.4525,0 6.25,2.7987 6.25,6.25 l 0,55.1325 c 35.32249,-3.8513 60.31875,-11.955 60.31875,-28.2213"
         style="fill:#2a394c;fill-opacity:1;fill-rule:nonzero;stroke:none"
         id="path90"
         inkscape:connector-curvature="0" />
      <path
         d="m -100.45008,1129.0005 c 0,16.2563 24.997504,24.3613 60.317379,28.2138 l 0,-55.125 c 0,-3.4513 2.79875,-6.25 6.25,-6.25 l 53.878745,0 c -17.8599901,-13.3225 -43.951245,-32.6725 -46.583745,-33.99 -25.65125,13.51 -73.862379,15.3437 -73.862379,67.1512"
         style="fill:#2a394c;fill-opacity:1;fill-rule:nonzero;stroke:none"
         id="path92"
         inkscape:connector-curvature="0" />
      <path
         d="m -15.453951,1156.423 0,-23.5837 c 7.1249999,0 12.9012499,-5.7763 12.9012499,-12.9013 l 33.8350051,0 0,5.0688 -1.47501,0 c -3.34375,0 -6.05499,2.71 -6.05499,6.055 l 0,10.6987 c 0,3.3425 2.71125,6.055 6.05499,6.055 l 10.5575,0 0,8.7525 -7.2425,0 0,-4.51 -9.37,0 0,6.1425 c 0,1.9138 0.905,3.6 2.29125,4.71 l 21.39875,0 c 1.3875,-1.11 2.2925,-2.7962 2.2925,-4.71 l 0,-10.7 c 0,-3.3437 -2.71125,-6.0537 -6.05625,-6.0537 l -10.55625,0 0,-8.7538 7.2425,0 0,4.51 9.37,0 0,-6.1412 c 0,-3.345 -2.71125,-6.055 -6.05624,-6.055 l -1.47375,0 0,-5.0688 33.83375,0 c 0,7.125 5.7775,12.9013 12.9025,12.9013 l 0,23.5837 c -4.78751,0 -8.9575,2.6138 -11.18375,6.4875 l 23.362496,0 0,-54.5712 -128.752501,0 0,54.5712 23.3624999,0 c -2.22625,-3.8737 -6.3962499,-6.4875 -11.1837499,-6.4875"
         style="fill:#2a394c;fill-opacity:1;fill-rule:nonzero;stroke:none"
         id="path94"
         inkscape:connector-curvature="0" />
    </g>
  </g>
</svg>
