<?xml version="1.0" encoding="UTF-8" standalone="no"?>
<!-- Created with Inkscape (http://www.inkscape.org/) -->

<svg
   xmlns:dc="http://purl.org/dc/elements/1.1/"
   xmlns:cc="http://creativecommons.org/ns#"
   xmlns:rdf="http://www.w3.org/1999/02/22-rdf-syntax-ns#"
   xmlns:svg="http://www.w3.org/2000/svg"
   xmlns="http://www.w3.org/2000/svg"
   xmlns:sodipodi="http://sodipodi.sourceforge.net/DTD/sodipodi-0.dtd"
   xmlns:inkscape="http://www.inkscape.org/namespaces/inkscape"
   width="32"
   height="32"
   id="svg2"
   version="1.1"
   inkscape:version="0.48.5 r10040"
   sodipodi:docname="b.svg">
  <defs
     id="defs4" />
  <sodipodi:namedview
     id="base"
     pagecolor="#ffffff"
     bordercolor="#666666"
     borderopacity="1.0"
     inkscape:pageopacity="0.0"
     inkscape:pageshadow="2"
     inkscape:zoom="7.9195959"
     inkscape:cx="7.1426883"
     inkscape:cy="15.9874"
     inkscape:document-units="px"
     inkscape:current-layer="layer1"
     showgrid="false"
     inkscape:window-width="1366"
     inkscape:window-height="702"
     inkscape:window-x="0"
     inkscape:window-y="159"
     inkscape:window-maximized="1" />
  <metadata
     id="metadata7">
    <rdf:RDF>
      <cc:Work
         rdf:about="">
        <dc:format>image/svg+xml</dc:format>
        <dc:type
           rdf:resource="http://purl.org/dc/dcmitype/StillImage" />
        <dc:title></dc:title>
      </cc:Work>
    </rdf:RDF>
  </metadata>
  <g
     inkscape:label="Layer 1"
     inkscape:groupmode="layer"
     id="layer1"
     transform="translate(0,-1020.3622)">
    <path
       inkscape:connector-curvature="0"
       id="path38"
       style="fill:#365568;fill-opacity:1;fill-rule:nonzero;stroke:none"
       d="m 16.440913,1026.0654 c -0.1487,0.15 -0.29615,0.3124 -0.4411,0.4874 -0.14495,-0.175 -0.29114,-0.3374 -0.43984,-0.4874 -4.56503,-4.7108 -11.1489701,0.125 -7.5151201,5.4706 1.39052,2.1693 7.9555901,8.3571 7.9555901,8.3571 0,0 6.56882,-6.1941 7.95546,-8.3571 3.6341,-5.3768 -2.94997,-10.1814 -7.51487,-5.4706" />
    <path
       inkscape:connector-curvature="0"
       id="path40"
       style="fill:#365568;fill-opacity:1;fill-rule:nonzero;stroke:none"
       d="m 26.475013,1041.6512 c 0.69351,-0.9871 1.72915,-4.967 0.61854,-6.334 -0.77098,-0.9497 -1.02839,-0.9372 -1.17084,-0.7372 -0.4511,0.6372 -0.40736,1.9955 -0.4336,2.624 0.004,0 0.008,0 0.0119,0.01 1.15459,0.7748 0.84095,1.602 0.0875,2.6753 -1.11211,1.5757 -1.64592,1.6382 -2.45089,2.2018 0,0 2.25358,-3.4176 2.25533,-3.4201 0.19868,-0.2749 -0.44984,-1.0121 -0.91593,-0.6373 -0.0625,0 -3.28447,3.2077 -5.26302,6.0117 -3.8e-4,0 -5e-4,0 -8.8e-4,0 -0.0625,0.125 -1.59207,2.2605 -1.59207,2.2605 -0.1,-0.3624 -0.75348,-0.3624 0.8797,-2.764 1.86134,-2.7416 5.1928,-5.9954 5.42472,-6.1841 0.20867,-0.175 0.45109,-0.2749 0.701,-0.2999 0.0375,-0.9122 0.0625,-2.2467 0.5873,-2.989 0.20992,-0.2999 0.51606,-0.4623 0.86344,-0.4748 0.84096,0 1.82386,1.1621 2.11151,1.8743 0.83971,2.0893 -0.20743,5.7093 -0.92467,6.7277 -0.29865,0.4248 -1.52347,1.3245 -4.48231,3.59 -0.17618,0.1374 -0.34612,0.2624 -0.45983,0.3499 -0.54107,1.5769 -1.03214,2.0667 -1.48336,2.4391 l 0.77973,-2.9939 c 0,0 4.43594,-3.3376 4.86092,-3.9399" />
    <path
       inkscape:connector-curvature="0"
       id="path42"
       style="fill:#365568;fill-opacity:1;fill-rule:nonzero;stroke:none"
       d="m 5.5256129,1041.6512 c -0.6935,-0.9871 -1.72914,-4.967 -0.61853,-6.334 0.77098,-0.9497 1.02839,-0.9372 1.17084,-0.7372 0.45109,0.6372 0.40736,1.9955 0.4336,2.624 -0.004,0 -0.008,0 -0.012,0.01 -1.15459,0.7748 -0.84095,1.602 -0.0875,2.6753 1.11211,1.5757 1.64592,1.6382 2.45077,2.2018 0,0 -2.25359,-3.4176 -2.25534,-3.4201 -0.19868,-0.2749 0.44985,-1.0121 0.91593,-0.6373 0.0625,0 3.2843501,3.2077 5.2630301,6.0117 3.8e-4,0 6.3e-4,0 8.8e-4,0 0.0625,0.125 1.59206,2.2605 1.59206,2.2605 0.1,-0.3624 0.75349,-0.3624 -0.87969,-2.764 -1.86135,-2.7416 -5.1928001,-5.9954 -5.4247201,-6.1841 -0.20868,-0.175 -0.45109,-0.2749 -0.70101,-0.2999 -0.0375,-0.9122 -0.0625,-2.2467 -0.58729,-2.989 -0.20993,-0.2999 -0.51607,-0.4623 -0.86345,-0.4748 -0.8422,0 -1.82398,1.1621 -2.11138,1.8743 -0.84096,2.0893 0.20743,5.7093 0.92467,6.7277 0.29865,0.4248 1.52335,1.3245 4.48218,3.59 0.17619,0.1374 0.34613,0.2624 0.45984,0.3499 0.5410601,1.5769 1.0321401,2.0667 1.4833601,2.4391 l -0.77973,-2.9939 c 0,0 -4.4360701,-3.3376 -4.8610501,-3.9399" />
  </g>
</svg>
