<?xml version="1.0" encoding="UTF-8" standalone="no"?>
<!-- Created with Inkscape (http://www.inkscape.org/) -->

<svg
   xmlns:dc="http://purl.org/dc/elements/1.1/"
   xmlns:cc="http://creativecommons.org/ns#"
   xmlns:rdf="http://www.w3.org/1999/02/22-rdf-syntax-ns#"
   xmlns:svg="http://www.w3.org/2000/svg"
   xmlns="http://www.w3.org/2000/svg"
   xmlns:sodipodi="http://sodipodi.sourceforge.net/DTD/sodipodi-0.dtd"
   xmlns:inkscape="http://www.inkscape.org/namespaces/inkscape"
   width="32"
   height="32"
   id="svg2"
   version="1.1"
   inkscape:version="0.48.5 r10040"
   sodipodi:docname="c.svg">
  <defs
     id="defs4" />
  <sodipodi:namedview
     id="base"
     pagecolor="#ffffff"
     bordercolor="#666666"
     borderopacity="1.0"
     inkscape:pageopacity="0.0"
     inkscape:pageshadow="2"
     inkscape:zoom="7.9195959"
     inkscape:cx="7.1426883"
     inkscape:cy="15.9874"
     inkscape:document-units="px"
     inkscape:current-layer="layer1"
     showgrid="false"
     inkscape:window-width="1366"
     inkscape:window-height="702"
     inkscape:window-x="0"
     inkscape:window-y="159"
     inkscape:window-maximized="1" />
  <metadata
     id="metadata7">
    <rdf:RDF>
      <cc:Work
         rdf:about="">
        <dc:format>image/svg+xml</dc:format>
        <dc:type
           rdf:resource="http://purl.org/dc/dcmitype/StillImage" />
        <dc:title></dc:title>
      </cc:Work>
    </rdf:RDF>
  </metadata>
  <g
     inkscape:label="Layer 1"
     inkscape:groupmode="layer"
     id="layer1"
     transform="translate(0,-1020.3622)">
    <g
       id="g3127"
       transform="matrix(0.082762,0,0,0.082762,16.135853,950.92819)">
      <path
         d="m -8.0470045,915.43032 c 11.40875,7.555 18.9524995,20.4975 18.9524995,35.1762 0,0.1775 -0.01,0.3525 -0.0125,0.5288 1.15625,0.4012 2.3425,0.7362 3.55875,0.9925 7.65875,-11.8063 20.30875,-20.0788 34.94125,-21.81 0.5775,-2.3088 0.8875,-4.7238 0.8875,-7.2113 0,-16.3862 -13.28375,-29.6675 -29.66875,-29.6675 -13.7287495,0 -25.2749995,9.3275 -28.6587495,21.9913"
         style="fill:#365568;fill-opacity:1;fill-rule:nonzero;stroke:none"
         id="path58"
         inkscape:connector-curvature="0" />
      <path
         d="m -80.165755,914.12032 c 5.56,3.2275 10.32375,7.6787 13.90375,12.995 7.57875,-11.2563 20.4375,-18.6763 34.99875,-18.6763 1.81875,0 3.60625,0.1288 5.36375,0.3538 -5.05125,-9.1525 -14.795,-15.3538 -25.98875,-15.3538 -13.25,0 -24.47,8.69 -28.2775,20.6813"
         style="fill:#365568;fill-opacity:1;fill-rule:nonzero;stroke:none"
         id="path60"
         inkscape:connector-curvature="0" />
      <path
         d="m 20.150495,1014.6428 0,-2.7313 c -4.8,-5.0112 -8.535,-11.0462 -10.8437495,-17.74368 -9.57000001,-5.21 -24.2750005,-7.8925 -39.1425005,-8.055 -0.5575,7.8562 -3.265,15.12618 -7.5525,21.21368 0.0263,0.4875 0.0388,0.9538 0.0388,1.3975 l 0,2.0613 c 1.85625,0.5675 3.665,1.1662 5.36,1.83 20.895,8.1725 24.0150005,21.4325 24.0150005,28.6087 l 0,0.5038 0.8875,-3.5213 c 3.29625,-13.3475 16.33125,-20.0687 27.2374995,-23.5637"
         style="fill:#365568;fill-opacity:1;fill-rule:nonzero;stroke:none"
         id="path62"
         inkscape:connector-curvature="0" />
      <path
         d="m -31.263255,920.93902 c -13.63875,0 -25.12125,9.2075 -28.58875,21.7463 0.0012,0 0.0025,0.01 0.0037,0.015 16.5213,4.9312 28.8163,19.7337 30.02005,37.5362 15.71875,-0.7487 28.2337505,-13.7275 28.2337505,-29.63 0,-16.3862 -13.2837505,-29.6675 -29.6687505,-29.6675"
         style="fill:#365568;fill-opacity:1;fill-rule:nonzero;stroke:none"
         id="path64"
         inkscape:connector-curvature="0" />
      <path
         d="m -135.802,1067.3428 0,-26.1188 c 0,-7.1775 3.11975,-20.4375 24.01125,-28.6087 2.36087,-0.9238 4.88675,-1.7563 7.55125,-2.4925 -5.39788,-6.4538 -8.90125,-14.54128 -9.65763,-23.39998 -20.86862,2.0812 -38.77987,9.4112 -38.77987,22.00118 l 0,46.415 c 0,7.0988 5.755,12.8538 12.8545,12.8538 1.40575,0 2.75487,-0.2338 4.0205,-0.65"
         style="fill:#365568;fill-opacity:1;fill-rule:nonzero;stroke:none"
         id="path66"
         inkscape:connector-curvature="0" />
      <path
         d="m -101.26288,920.93902 c -16.38325,0 -29.6665,13.2813 -29.6665,29.6675 0,11.9488 7.07025,22.2425 17.25238,26.9425 2.67337,-20.2062 19.701245,-35.935 40.473745,-36.5762 -4,-11.6538 -15.0475,-20.0338 -28.059625,-20.0338"
         style="fill:#365568;fill-opacity:1;fill-rule:nonzero;stroke:none"
         id="path68"
         inkscape:connector-curvature="0" />
      <path
         d="m -46.179505,1087.639 c 0,7.0988 5.7525,12.8538 12.8525,12.8538 7.1,0 12.8525,-5.755 12.8525,-12.8538 l 0,-46.415 c 0,-15.0812 -25.71,-22.625 -51.42,-22.6237 -25.703875,0 -51.407495,7.54 -51.407495,22.6237 l 0,46.415 c 0,7.0988 5.755,12.8538 12.8545,12.8538 7.09962,0 12.85262,-5.755 12.85262,-12.8538 l 0,47.7788 c 0,7.1 5.755375,12.8537 12.854125,12.8537 7.1,0 12.8525,-5.7537 12.8525,-12.8537 0,7.1 5.755,12.8537 12.85375,12.8537 7.1,0 12.855,-5.7537 12.855,-12.8537 l 0,-47.7788"
         style="fill:#365568;fill-opacity:1;fill-rule:nonzero;stroke:none"
         id="path70"
         inkscape:connector-curvature="0" />
      <path
         d="m -71.888255,1012.7728 c 16.385,0 29.66875,-13.28378 29.66875,-29.66628 0,-16.3862 -13.28375,-29.6675 -29.66875,-29.6675 -16.3825,0 -29.666125,13.2813 -29.666125,29.6675 0,16.3825 13.283625,29.66628 29.666125,29.66628"
         style="fill:#365568;fill-opacity:1;fill-rule:nonzero;stroke:none"
         id="path72"
         inkscape:connector-curvature="0" />
      <path
         d="m 138.91675,978.36032 c -1.6875,-0.5863 -3.41,-0.865 -5.105,-0.865 -6.4475,0 -12.48125,4.035 -14.715,10.4737 L 107.453,1020.5528 c 0,0 -9.562505,-0.62 -22.856255,-0.62 -28.7775,0 -75.0287495,2.9037 -79.5524995,21.2837 l -13.435,53.37 c -2.0550005,8.3563 3.0525,16.7925 11.40375,18.8463 1.25,0.31 2.5025,0.4575 3.735,0.4575 7.0012495,0 13.3649995,-4.7588 15.1099995,-11.8638 l 4.6,-18.7012 c 0.002,0 0.006,24.0487 0.006,24.0487 l -0.006,0.094 0.008,48.09 c 0,8.6038 6.97375,15.5738 15.57875,15.5738 8.6025,0 15.575,-6.97 15.575,-15.5738 0,8.6038 6.97375,15.5738 15.5775,15.5738 8.60375,0 15.575,-6.97 15.575,-15.5738 l 0,-50.1662 0.0563,-44.9888 33.327505,-3.015 c 5.395,-1.3662 9.95625,-4.9325 11.7825,-10.1912 l 14.59195,-49.01748 c 2.8175,-8.1262 -1.48625,-17.0012 -9.61375,-19.8187"
         style="fill:#365568;fill-opacity:1;fill-rule:nonzero;stroke:none"
         id="path74"
         inkscape:connector-curvature="0" />
      <path
         d="m 55.116745,942.46782 c -19.85625,0 -35.95125,16.0937 -35.95125,35.9512 0,19.8538 16.095,35.95128 35.95125,35.95128 19.85625,0 35.95125,-16.09748 35.95125,-35.95128 0,-19.8575 -16.095,-35.9512 -35.95125,-35.9512"
         style="fill:#365568;fill-opacity:1;fill-rule:nonzero;stroke:none"
         id="path76"
         inkscape:connector-curvature="0" />
    </g>
  </g>
</svg>
