<?xml version="1.0" encoding="UTF-8" standalone="no"?>
<!-- Created with Inkscape (http://www.inkscape.org/) -->

<svg
   xmlns:dc="http://purl.org/dc/elements/1.1/"
   xmlns:cc="http://creativecommons.org/ns#"
   xmlns:rdf="http://www.w3.org/1999/02/22-rdf-syntax-ns#"
   xmlns:svg="http://www.w3.org/2000/svg"
   xmlns="http://www.w3.org/2000/svg"
   xmlns:sodipodi="http://sodipodi.sourceforge.net/DTD/sodipodi-0.dtd"
   xmlns:inkscape="http://www.inkscape.org/namespaces/inkscape"
   width="32"
   height="32"
   id="svg2"
   version="1.1"
   inkscape:version="0.48.5 r10040"
   sodipodi:docname="e.svg">
  <defs
     id="defs4" />
  <sodipodi:namedview
     id="base"
     pagecolor="#ffffff"
     bordercolor="#666666"
     borderopacity="1.0"
     inkscape:pageopacity="0.0"
     inkscape:pageshadow="2"
     inkscape:zoom="7.9195959"
     inkscape:cx="7.1426883"
     inkscape:cy="15.9874"
     inkscape:document-units="px"
     inkscape:current-layer="layer1"
     showgrid="false"
     inkscape:window-width="1366"
     inkscape:window-height="702"
     inkscape:window-x="0"
     inkscape:window-y="159"
     inkscape:window-maximized="1" />
  <metadata
     id="metadata7">
    <rdf:RDF>
      <cc:Work
         rdf:about="">
        <dc:format>image/svg+xml</dc:format>
        <dc:type
           rdf:resource="http://purl.org/dc/dcmitype/StillImage" />
        <dc:title></dc:title>
      </cc:Work>
    </rdf:RDF>
  </metadata>
  <g
     inkscape:label="Layer 1"
     inkscape:groupmode="layer"
     id="layer1"
     transform="translate(0,-1020.3622)">
    <g
       id="g3216"
       transform="matrix(0.08732939,0,0,0.08732939,12.504441,946.98524)">
      <path
         d="m 101.58167,929.47663 c -13.585,0 -22.78625,-11.0075 -22.78625,-24.5863 0,-13.5725 9.20125,-24.58 22.78625,-24.58 13.5725,0 22.7725,11.0075 22.7725,24.58 0,13.5788 -9.2,24.5863 -22.7725,24.5863"
         style="fill:#365568;fill-opacity:1;fill-rule:nonzero;stroke:none"
         id="path78"
         inkscape:connector-curvature="0" />
      <path
         d="m 90.32917,964.50033 -44.595,34.2288 -0.0163,-9.7 41.4775,-41.9313 3.13375,17.4025"
         style="fill:#365568;fill-opacity:1;fill-rule:nonzero;stroke:none"
         id="path80"
         inkscape:connector-curvature="0" />
      <path
         d="m 94.56542,1077.7253 -4.28375,-34.9087 c -0.56875,-5.055 -0.04,-10.1738 1.5475,-15.0063 l 12.4375,-37.87497 -9.06125,-43.615 c 0.285,-5.98 5.95625,-10.7687 11.93625,-11.0787 24.11,-1.25 52.58125,8.5912 56.02125,57.0825 l -10.39125,-2.0388 c -4.70375,-31.825 -24.6925,-27.865 -24.6925,-27.865 0,0 21.51875,29.975 11.045,39.21247 l -16.7325,14.765 -11.47375,21.185 c -0.68,1.2563 -1.07875,2.6463 -1.16625,4.0713 l -2.52625,43.98 -22.8025,0 0,-6.7038 10.1425,-1.205"
         style="fill:#365568;fill-opacity:1;fill-rule:nonzero;stroke:none"
         id="path82"
         inkscape:connector-curvature="0" />
      <path
         d="m 124.47667,1023.1966 19.46875,-12.315 c 0.67625,3.2537 16.87875,62.6462 16.87875,62.6462 l 0.20875,12.1063 -22.8025,0 0,-6.7038 10.14125,-1.205 -23.895,-54.5287"
         style="fill:#365568;fill-opacity:1;fill-rule:nonzero;stroke:none"
         id="path84"
         inkscape:connector-curvature="0" />
      <path
         d="m -23.02958,998.72913 c 13.1437497,0 22.04624967,-10.6513 22.04624967,-23.7888 0,-13.1325 -8.90249997,-23.7837 -22.04624967,-23.7837 -13.13375,0 -22.03375,10.6512 -22.03375,23.7837 0,13.1375 8.9,23.7888 22.03375,23.7888"
         style="fill:#365568;fill-opacity:1;fill-rule:nonzero;stroke:none"
         id="path86"
         inkscape:connector-curvature="0" />
      <path
         d="m -36.73958,1093.3466 -17.5875,-8.165 c -0.65375,3.1475 -5.08125,54.3637 -5.08125,54.3637 l -0.20125,11.7138 22.0625,0 0,-6.4863 -9.8125,-1.1662 10.62,-50.26"
         style="fill:#365568;fill-opacity:1;fill-rule:nonzero;stroke:none"
         id="path88"
         inkscape:connector-curvature="0" />
      <path
         d="m 41.16167,1085.6341 0,46.0825 -58.52,0 0,19.5425 -42.25125,0 0,15.3237 220.6425,0 0,-80.9487 -119.87125,0"
         style="fill:#365568;fill-opacity:1;fill-rule:nonzero;stroke:none"
         id="path90"
         inkscape:connector-curvature="0" />
      <path
         d="m -52.27833,1031.5828 3.1875,-15.3062 c -10.81625,8.5387 -19.74875,20.3637 -34.0175,45.1962 l 11.35375,0 c 6.2375,-8.9987 11.95625,-16.9662 18.12125,-23.3775 l 0.0012,-0.01 1.35375,-6.5037"
         style="fill:#365568;fill-opacity:1;fill-rule:nonzero;stroke:none"
         id="path92"
         inkscape:connector-curvature="0" />
      <path
         d="m -42.87208,1018.4503 -3.3125,15.9113 c 0.005,0 0.01,-0.01 0.01625,-0.01 l -1.38,6.5567 -4.67625,22.215 c -0.97625,4.6388 -3.0425,10.6625 2.5625,15.6075 l 31.23125,16.49 1.0725,36.4938 22.0624997,0 0,-6.4875 -9.8125,-1.1663 4.14374997,-30.0262 c 0.71125,-6.325 0.265,-5.8688 -14.96999967,-26.6225 l 2.82375,-48.6375 c -0.0075,-0.1513 -0.0325,-0.2988 -0.04625,-0.4475 l 52.22125,-16.4638 0.015,-8.13617 c 0,0 -61.67,11.15367 -71.30625,12.99867 -5.335,1.02 -9.5375,6.405 -10.645,11.7225"
         style="fill:#365568;fill-opacity:1;fill-rule:nonzero;stroke:none"
         id="path94"
         inkscape:connector-curvature="0" />
    </g>
  </g>
</svg>
