<?xml version="1.0" encoding="UTF-8" standalone="no"?>
<!-- Created with Inkscape (http://www.inkscape.org/) -->

<svg
   xmlns:dc="http://purl.org/dc/elements/1.1/"
   xmlns:cc="http://creativecommons.org/ns#"
   xmlns:rdf="http://www.w3.org/1999/02/22-rdf-syntax-ns#"
   xmlns:svg="http://www.w3.org/2000/svg"
   xmlns="http://www.w3.org/2000/svg"
   xmlns:sodipodi="http://sodipodi.sourceforge.net/DTD/sodipodi-0.dtd"
   xmlns:inkscape="http://www.inkscape.org/namespaces/inkscape"
   width="32"
   height="32"
   id="svg2"
   version="1.1"
   inkscape:version="0.48.5 r10040"
   sodipodi:docname="f.svg">
  <defs
     id="defs4" />
  <sodipodi:namedview
     id="base"
     pagecolor="#ffffff"
     bordercolor="#666666"
     borderopacity="1.0"
     inkscape:pageopacity="0.0"
     inkscape:pageshadow="2"
     inkscape:zoom="7.9195959"
     inkscape:cx="7.1426883"
     inkscape:cy="15.9874"
     inkscape:document-units="px"
     inkscape:current-layer="layer1"
     showgrid="false"
     inkscape:window-width="1366"
     inkscape:window-height="702"
     inkscape:window-x="0"
     inkscape:window-y="159"
     inkscape:window-maximized="1" />
  <metadata
     id="metadata7">
    <rdf:RDF>
      <cc:Work
         rdf:about="">
        <dc:format>image/svg+xml</dc:format>
        <dc:type
           rdf:resource="http://purl.org/dc/dcmitype/StillImage" />
        <dc:title></dc:title>
      </cc:Work>
    </rdf:RDF>
  </metadata>
  <g
     inkscape:label="Layer 1"
     inkscape:groupmode="layer"
     id="layer1"
     transform="translate(0,-1020.3622)">
    <g
       id="g3271"
       transform="matrix(0.08647483,0,0,0.08647483,11.817986,947.36847)">
      <path
         d="m 25.428339,945.98297 c -2.54875,-2.2412 -18.5399998,-11.2425 -18.0437498,-12.0937 0.18625,-0.38 2.26375,-0.1313 7.2412498,1.755 12.74125,5.1387 16.5425,8.515 19.0825,9.4587 3.63875,1.6425 4.64125,-3.945 1.22125,-6.7775 -1.24875,-1.04 -6.66375,-4.51 -12.1775,-7.3225 -5.48875,-2.9062 -11.075,-5.1512 -12.03,-5.9537 -2.4187498,-1.9988 14.42625,1.9337 28.725,9.7962 7.54875,4.1875 6.6675,-5.5862 2.79375,-7.7712 -11.56875,-6.8638 -30.69875,-13.46 -30.73625,-13.1513 -0.15375,-0.9937 14.9925,0.6988 24.5675,5.105 4.8275,2.1275 6.01125,-4.9887 1.2225,-7.4975 0.135,-0.3562 -17.495,-7.05 -25.97,-8.0862 -3.9349998,-0.7625 -7.9087478,-1.315 -11.90374784,-1.655 -0.245,-2.1888 4.29500004,-3.0825 6.86874804,-3.435 9.0474998,-2.3175 10.2624998,-8.7738 7.0024998,-11.0475 -0.48625,-0.9338 -22.3512478,7.0112 -22.7499978,7.775 -6.0700002,3.4312 -14.4212502,11.5825 -14.4175002,11.6175 -0.0037,0 -0.005,0 -0.01,0 -8.58125,1.005 -15.38875,7.6475 -16.625,16.2 -0.63,4.3587 -1.26,8.7175 -1.89125,13.0787 4.8575,-1.2375 9.76375,-2.14 14.6875,-2.7175 5.505,4.4575 15.41625,5.9413 19.2712502,6.3088 2.42,0.092 10.235,2.1187 17.236248,5.075 7.0349998,2.805 13.2537498,6.54 13.2437498,6.5025 5.45375,3.4537 6.35625,-3.085 3.39125,-5.1638"
         style="fill:#365568;fill-opacity:1;fill-rule:nonzero;stroke:none"
         id="path96"
         inkscape:connector-curvature="0" />
      <path
         d="m 78.214589,948.54427 c -0.745,-3.3113 -8.39125,-19.9925 -7.48875,-20.39 0.3725,-0.1975 1.90875,1.225 4.82625,5.6775 7.2875,11.645 8.3775,16.6112 9.87875,18.8687 1.9775,3.4663 6.0725,-0.465 4.97125,-4.7662 -0.4,-1.575 -2.74,-7.565 -5.54875,-13.0813 -2.7325,-5.5775 -5.93125,-10.6775 -6.2325,-11.8887 -0.78125,-3.0388 10.535,10.045 17.48,24.81 3.64625,7.825 8.678751,-0.6 6.830001,-4.645 -5.325001,-12.3525 -16.925001,-28.9338 -17.136251,-28.7063 0.45875,-0.8937 11.7175,9.3775 16.873751,18.5713 2.655,4.5587 7.795,-0.5038 5.39625,-5.3475 0.31875,-0.2088 -10.008751,-15.9875 -16.256251,-21.8063 -2.735,-2.93 -5.62625,-5.7137 -8.65875,-8.3362 1.08875,-1.915 5.28625,0.031 7.57625,1.2587 8.6825,3.4425 13.460001,-1.065 12.158751,-4.8212 0.15625,-1.0413 -22.203751,-7.4663 -22.975001,-7.0825 -6.9275,-0.7925 -18.47625,0.8937 -18.4925,0.9237 -0.004,0 -0.005,0 -0.009,-0.01 -7.5325,-4.2312 -16.94375,-2.8587 -22.97125,3.3338 -3.0725,3.1562 -6.145,6.3125 -9.2175,9.4687 4.65625,1.855 9.1575,4.0075 13.47875,6.435 1.83375,6.8413 8.98,13.8675 11.8825,16.4313 1.90375,1.4975 7.03625,7.73 10.9625,14.2375 4.0425,6.4037 6.87875,13.08 6.8925,13.045 2.3825,6 6.955,1.24 5.77875,-2.185"
         style="fill:#365568;fill-opacity:1;fill-rule:nonzero;stroke:none"
         id="path98"
         inkscape:connector-curvature="0" />
      <path
         d="m 119.88334,984.15927 c 1.34375,-3.1163 4.96375,-21.1063 5.92625,-20.8975 0.41875,0.059 0.825,2.1125 0.5675,7.4287 -0.94875,13.7063 -2.98625,18.3638 -3.0975,21.0725 -0.4375,3.9675 5.185,3.1938 6.8225,-0.9337 0.6025,-1.51 2.23,-7.7313 3.2,-13.845 1.06875,-6.1175 1.47875,-12.1238 1.94625,-13.2813 1.15375,-2.9175 2.6175,14.3188 -0.44125,30.3475 -1.65,8.47383 7.37375,4.615 8.255,0.2563 2.9525,-13.125 3.315,-33.3575 3.01,-33.2975 0.89625,-0.4525 3.9675,14.475 2.73625,24.9437 -0.53125,5.2475 6.60125,4.1738 7.50875,-1.155 0.38,0.019 1.29875,-18.8162 -0.335,-27.1975 -0.49125,-3.9775 -1.19375,-7.9287 -2.105,-11.8325 2.00625,-0.91 4.25875,3.1325 5.39,5.4713 5,7.8887 11.515,7.0487 12.67,3.2462 0.7375,-0.7512 -13.575,-19.0912 -14.425,-19.2337 -5.13875,-4.7138 -15.4725,-10.1375 -15.50375,-10.1238 -0.001,0 -0.001,0 -0.004,-0.01 -3.6075,-7.85 -12.0275,-12.2725 -20.54375,-10.805 -4.34,0.7475 -8.68125,1.495 -13.0225,2.2425 2.6775,4.2375 5.0525,8.625 7.1225,13.1288 -2.5375,6.6137 -0.88625,16.4987 -0.045,20.2775 0.66,2.3312 1.14875,10.39 0.5,17.9625 -0.49375,7.5575 -2.12375,14.625 -2.09125,14.6037 -1.6,6.255 4.8975,5.0913 5.95875,1.63"
         style="fill:#365568;fill-opacity:1;fill-rule:nonzero;stroke:none"
         id="path100"
         inkscape:connector-curvature="0" />
      <path
         d="m 132.85584,1036.6743 c 2.91875,-1.7325 16.42125,-14.1575 17.0775,-13.4238 0.30375,0.2938 -0.575,2.1938 -3.90625,6.345 -8.82375,10.53 -13.21125,13.1013 -14.8925,15.225 -2.6875,2.9538 2.3175,5.6325 6.0675,3.2563 1.375,-0.8675 6.34875,-4.9438 10.72625,-9.32 4.46,-4.3213 8.3225,-8.94 9.38125,-9.6013 2.64875,-1.6825 -6.2975,13.1238 -18.19375,24.2925 -6.31625,5.885 3.2525,8.0675 6.5275,5.0588 10.1025,-8.8813 22.2875,-25.0375 22.00625,-25.1688 0.99125,0.1613 -5.2975,14.0438 -12.4475,21.7888 -3.51375,3.9325 2.8875,7.2575 6.75375,3.4787 0.29625,0.2388 12.11,-14.4587 15.715,-22.2 1.94125,-3.5062 3.695,-7.1162 5.25125,-10.81 2.15875,0.4438 1.605,5.0375 1.145,7.595 -0.59125,9.3213 5.1725,12.4713 8.3425,10.0738 1.03875,-0.1738 0.23875,-23.425 -0.365,-24.04 -1.38625,-6.8325 -6.5575,-17.295 -6.59125,-17.3025 0,0 0,0 0.002,-0.01 1.695,-8.47253 -2.5175,-16.99883 -10.27,-20.81753 -3.95125,-1.9463 -7.9025,-3.8925 -11.85375,-5.84 -0.325,5.0025 -0.98125,9.9475 -1.955,14.8075 -5.94,3.8587 -10.415,12.82623 -11.955,16.37873 -0.835,2.2738 -5.1775,9.08 -10.15375,14.825 -4.84,5.8238 -10.31375,10.585 -10.275,10.5875 -4.97125,4.1188 0.96875,6.9963 3.8625,4.82"
         style="fill:#365568;fill-opacity:1;fill-rule:nonzero;stroke:none"
         id="path102"
         inkscape:connector-curvature="0" />
      <path
         d="m 113.81084,1085.9618 c 3.37875,0.3137 21.6075,-1.8025 21.70625,-0.8225 0.0737,0.4162 -1.755,1.4375 -6.89,2.8362 -13.3275,3.3325 -18.3875,2.8338 -20.9975,3.565 -3.90875,0.81 -1.43625,5.9188 2.99625,6.2 1.62125,0.1063 8.04125,-0.2675 14.155,-1.235 6.14875,-0.8737 11.9875,-2.34 13.2325,-2.2537 3.1325,0.1962 -12.8075,6.9162 -28.9975,8.96 -8.56875,1.0487 -2.11125,8.4375 2.3075,7.9287 13.39375,-1.2462 32.74875,-7.155 32.59625,-7.4262 0.70875,0.7125 -12.54,8.2475 -22.87625,10.31 -5.155,1.1162 -1.93,7.5687 3.41875,6.785 0.1,0.3662 18.2975,-4.58 25.7625,-8.7225 3.63125,-1.6975 7.1725,-3.5863 10.6025,-5.6588 1.48625,1.6263 -1.6625,5.0175 -3.53625,6.8163 -5.9575,7.1937 -3.14625,13.13 0.8275,13.0527 0.9425,0.4703 13.96125,-18.8102 13.835,-19.6615 2.89375,-6.3437 4.85875,-17.8475 4.83625,-17.8737 0.002,0 0.004,0 0.007,-0.01 6.35125,-5.8563 7.955,-15.2313 3.92875,-22.8775 -2.05375,-3.8963 -4.105,-7.7938 -6.15875,-11.6913 -3.2025,3.855 -6.64,7.47 -10.285,10.83 -7.07375,-0.37 -15.96375,4.255 -19.29875,6.2238 -2.0125,1.3475 -9.525,4.3025 -16.9275,6.0262 -7.34,1.8663 -14.56625,2.5 -14.53625,2.5238 -6.44375,0.4112 -3.32875,6.2312 0.29125,6.1712"
         style="fill:#365568;fill-opacity:1;fill-rule:nonzero;stroke:none"
         id="path104"
         inkscape:connector-curvature="0" />
      <path
         d="m 70.520839,1114.0205 c 2.54875,2.24 18.53875,11.2429 18.04375,12.094 -0.18625,0.3794 -2.265,0.1308 -7.24125,-1.7553 -12.7425,-5.1387 -16.5425,-8.5162 -19.08375,-9.4587 -3.6375,-1.6425 -4.64,3.945 -1.22,6.7775 1.24875,1.04 6.66375,4.5093 12.1775,7.3213 5.48875,2.9062 11.075,5.1527 12.03,5.9545 2.41875,1.9995 -14.42625,-1.934 -28.725,-9.7964 -7.54875,-4.1869 -6.6675,5.5865 -2.79375,7.7715 11.56875,6.8643 30.69875,13.46 30.73625,13.1514 0.15375,0.9931 -14.9925,-0.6988 -24.5675,-5.1055 -4.8275,-2.1269 -6.01125,4.9889 -1.2225,7.4981 -0.135,0.3559 17.495,7.0498 25.97,8.0864 3.93375,0.7622 7.90875,1.315 11.90375,1.6544 0.245,2.1893 -4.295,3.082 -6.86875,3.4355 -9.04875,2.3178 -10.2625,8.7728 -7.00375,11.0468 0.4875,0.9342 22.352501,-7.0112 22.751251,-7.7753 6.07,-3.4303 14.42125,-11.5825 14.4175,-11.6163 0.004,-10e-4 0.005,-10e-4 0.01,-10e-4 8.58125,-1.0049 15.38875,-7.6469 16.625,-16.1996 0.63,-4.3589 1.26,-8.7179 1.89125,-13.0781 -4.8575,1.2367 -9.76375,2.1401 -14.6875,2.7167 -5.505,-4.4569 -15.41625,-5.9419 -19.27125,-6.3094 -2.42,-0.091 -10.236251,-2.1175 -17.236251,-5.075 -7.035,-2.8037 -13.25375,-6.5387 -13.245,-6.5012 -5.4525,-3.4538 -6.355,3.085 -3.39,5.1637"
         style="fill:#365568;fill-opacity:1;fill-rule:nonzero;stroke:none"
         id="path106"
         inkscape:connector-curvature="0" />
      <path
         d="m 16.400839,1109.723 c 0.745,3.3113 8.39,19.9925 7.48875,20.39 -0.37375,0.1978 -1.90875,-1.2251 -4.82625,-5.6767 -7.28875,-11.6458 -8.3775,-16.612 -9.8787498,-18.8683 -1.97875,-3.4675 -6.072498,0.4638 -4.97125,4.765 0.4,1.575 2.74,7.565 5.54875,13.0818 2.7312498,5.5771 5.9299998,10.6777 6.2324998,11.8881 0.78125,3.0391 -10.5349998,-10.0444 -17.4812478,-24.8099 -3.64625,-7.825 -8.6787502,0.6 -6.82875,4.645 5.325,12.3529 16.924998,28.934 17.136248,28.7064 -0.45875,0.8936 -11.718748,-9.3779 -16.874998,-18.5712 -2.6550002,-4.5577 -7.7937502,0.5033 -5.3962502,5.3476 -0.3175,0.2085 10.0100002,15.9864 16.2575002,21.8066 2.734998,2.9298 5.626248,5.713 8.6574978,8.335 -1.08875,1.9155 -5.2862498,-0.031 -7.5762498,-1.2572 -8.682498,-3.4434 -13.458748,1.0648 -12.158748,4.8202 -0.155,1.042 22.2049978,7.4659 22.9762478,7.0825 6.9275,0.7925 18.475,-0.8935 18.4925,-0.9234 0.002,10e-4 0.004,0 0.007,0 7.53375,4.2309 16.945,2.8589 22.9725,-3.3335 3.07125,-3.1562 6.14375,-6.3125 9.21625,-9.4692 -4.65625,-1.8545 -9.15625,-4.0079 -13.4775,-6.4346 -1.835,-6.8423 -8.98125,-13.8682 -11.88375,-16.4317 -1.90375,-1.4971 -7.035,-7.73 -10.96125,-14.2375 -4.04375,-6.4037 -6.87875,-13.08 -6.89375,-13.0437 -2.38125,-6.0013 -6.95375,-1.2413 -5.7775,2.1837"
         style="fill:#365568;fill-opacity:1;fill-rule:nonzero;stroke:none"
         id="path108"
         inkscape:connector-curvature="0" />
      <path
         d="m -24.265409,1074.398 c -1.34375,3.1163 -4.96375,21.105 -5.92625,20.8975 -0.41875,-0.06 -0.825,-2.1137 -0.56875,-7.43 0.95,-13.705 2.9875,-18.3637 3.09875,-21.0712 0.4375,-3.9675 -5.18625,-3.195 -6.8225,0.9337 -0.6025,1.5088 -2.23,7.73 -3.2,13.8438 -1.06875,6.1187 -1.47875,12.125 -1.94625,13.2812 -1.15375,2.9188 -2.61875,-14.3175 0.44125,-30.3462 1.64875,-8.4738 -7.37375,-4.615 -8.255,-0.2563 -2.953125,13.1238 -3.314875,33.3563 -3.00975,33.2963 -0.897,0.4537 -3.96825,-14.475 -2.73625,-24.9425 0.53125,-5.2475 -6.602125,-4.175 -7.508875,1.1537 -0.379875,-0.018 -1.29875,18.8175 0.335,27.1988 0.49075,3.9775 1.193375,7.9287 2.105,11.8312 -2.006875,0.91 -4.258875,-3.1312 -5.390125,-5.47 -5.0005,-7.8887 -11.515125,-7.05 -12.67,-3.2475 -0.73825,0.7525 13.57525,19.0918 14.424875,19.2349 5.138125,4.7129 15.472625,10.1368 15.503875,10.1225 0.0012,0 0.0012,0.01 0.0025,0.01 3.60875,7.851 12.02875,12.2729 20.545,10.8056 4.34,-0.748 8.68,-1.4951 13.02125,-2.2431 -2.67625,-4.2374 -5.05125,-8.6245 -7.12125,-13.128 2.5375,-6.6132 0.88625,-16.4982 0.045,-20.2782 -0.66,-2.33 -1.14875,-10.3888 -0.5,-17.9613 0.49375,-7.5575 2.12375,-14.6262 2.09,-14.605 1.6,-6.255 -4.89625,-5.0912 -5.9575,-1.6287"
         style="fill:#365568;fill-opacity:1;fill-rule:nonzero;stroke:none"
         id="path110"
         inkscape:connector-curvature="0" />
      <path
         d="m -36.134159,1023.2418 c -2.9175,1.7325 -16.42075,14.1575 -17.077,13.4237 -0.30375,-0.2937 0.575125,-2.1937 3.907125,-6.345 8.823625,-10.53 13.211125,-13.1012 14.892375,-15.225 2.68625,-2.9537 -2.3175,-5.6325 -6.06875,-3.2562 -1.37375,0.8675 -6.3475,4.9437 -10.725875,9.32 -4.46,4.3212 -8.32275,8.94 -9.380375,9.6012 -2.649,1.6825 6.296875,-13.1225 18.19375,-24.2925 6.315,-5.885 -3.2525,-8.06753 -6.52775,-5.0587 -10.103,8.8812 -22.288625,25.0375 -22.006375,25.1675 -0.99175,-0.16 5.297875,-14.0425 12.44775,-21.7875 3.514125,-3.9325 -2.887625,-7.25753 -6.753375,-3.4788 -0.296875,-0.2387 -12.111375,14.46 -15.715875,22.2 -1.940875,3.5063 -3.694375,7.1163 -5.251875,10.81 -2.15775,-0.4437 -1.604,-5.0375 -1.144625,-7.595 0.591375,-9.3212 -5.172375,-12.4712 -8.34225,-10.0737 -1.039125,0.1737 -0.23875,23.425 0.36425,24.04 1.38725,6.8325 6.559125,17.295 6.59275,17.3025 -5e-4,0 -0.001,0 -0.0024,0.01 -1.695875,8.4712 2.517,16.9987 10.2695,20.8175 3.950625,1.9462 7.901875,3.8925 11.8535,5.8387 0.32475,-5.0012 0.982,-9.9462 1.955125,-14.8062 5.939875,-3.8588 10.414,-12.8263 11.955,-16.3788 0.8355,-2.2737 5.17725,-9.08 10.152875,-14.825 4.84125,-5.8237 10.315,-10.585 10.27625,-10.5875 4.97125,-4.1187 -0.97,-6.9962 -3.86375,-4.82"
         style="fill:#365568;fill-opacity:1;fill-rule:nonzero;stroke:none"
         id="path112"
         inkscape:connector-curvature="0" />
      <path
         d="m -15.782909,974.32677 c -3.37875,-0.3138 -21.60625,1.8025 -21.70625,0.8225 -0.0725,-0.4163 1.755,-1.4375 6.89125,-2.8363 13.3275,-3.3325 18.3875,-2.8337 20.9975002,-3.565 3.90875,-0.8087 1.435,-5.9187 -2.9962502,-6.2 -1.62125,-0.1075 -8.04125,0.2675 -14.155,1.235 -6.14875,0.875 -11.98875,2.34 -13.2325,2.2538 -3.1325,-0.1963 12.8075,-6.915 28.9975,-8.9588 8.5675002,-1.05 2.1100002,-8.4387 -2.3075,-7.93 -13.39375,1.2463 -32.74875,7.155 -32.5975,7.4263 -0.70875,-0.7125 12.54,-8.2475 22.8775,-10.31 5.155,-1.1163 1.93,-7.5688 -3.41875,-6.7838 -0.1,-0.3675 -18.2975,4.5788 -25.763125,8.7225 -3.631375,1.6963 -7.171875,3.585 -10.602625,5.6575 -1.48525,-1.6262 1.662625,-5.0175 3.537125,-6.8162 5.958,-7.1938 3.146,-13.13 -0.827625,-13.0525 -0.942375,-0.47 -13.961875,18.81 -13.835,19.6612 -2.8945,6.3438 -4.859375,17.8488 -4.836375,17.8738 -0.0024,0 -0.0034,0 -0.0074,0.01 -6.3515,5.8562 -7.955,15.2312 -3.928125,22.8775 2.05275,3.8962 4.1045,7.79373 6.157125,11.69123 3.20275,-3.855 6.641125,-7.47003 10.28525,-10.83003 7.07375,0.37 15.964375,-4.255 19.2995,-6.2237 2.0125,-1.3475 9.525,-4.3025 16.9275,-6.025 7.34,-1.8663 14.56625,-2.5013 14.53625,-2.525 6.4425002,-0.4113 3.32875,-6.2313 -0.2925,-6.1713"
         style="fill:#365568;fill-opacity:1;fill-rule:nonzero;stroke:none"
         id="path114"
         inkscape:connector-curvature="0" />
    </g>
  </g>
</svg>
