<?xml version="1.0" encoding="UTF-8" standalone="no"?>
<!-- Created with Inkscape (http://www.inkscape.org/) -->

<svg
   xmlns:dc="http://purl.org/dc/elements/1.1/"
   xmlns:cc="http://creativecommons.org/ns#"
   xmlns:rdf="http://www.w3.org/1999/02/22-rdf-syntax-ns#"
   xmlns:svg="http://www.w3.org/2000/svg"
   xmlns="http://www.w3.org/2000/svg"
   xmlns:sodipodi="http://sodipodi.sourceforge.net/DTD/sodipodi-0.dtd"
   xmlns:inkscape="http://www.inkscape.org/namespaces/inkscape"
   width="32"
   height="32"
   id="svg2"
   version="1.1"
   inkscape:version="0.48.5 r10040"
   sodipodi:docname="g.svg">
  <defs
     id="defs4" />
  <sodipodi:namedview
     id="base"
     pagecolor="#ffffff"
     bordercolor="#666666"
     borderopacity="1.0"
     inkscape:pageopacity="0.0"
     inkscape:pageshadow="2"
     inkscape:zoom="7.9195959"
     inkscape:cx="7.1426883"
     inkscape:cy="15.9874"
     inkscape:document-units="px"
     inkscape:current-layer="layer1"
     showgrid="false"
     inkscape:window-width="1366"
     inkscape:window-height="702"
     inkscape:window-x="0"
     inkscape:window-y="159"
     inkscape:window-maximized="1" />
  <metadata
     id="metadata7">
    <rdf:RDF>
      <cc:Work
         rdf:about="">
        <dc:format>image/svg+xml</dc:format>
        <dc:type
           rdf:resource="http://purl.org/dc/dcmitype/StillImage" />
        <dc:title></dc:title>
      </cc:Work>
    </rdf:RDF>
  </metadata>
  <g
     inkscape:label="Layer 1"
     inkscape:groupmode="layer"
     id="layer1"
     transform="translate(0,-1020.3622)">
    <g
       id="g3309"
       transform="matrix(0.08419154,0,0,0.08419154,14.171505,951.03649)">
      <path
         d="m 107.96903,939.2306 c -2.69125,14.715 -22.736247,118.5963 -19.409997,41.3138 2.13125,-49.7075 2.55875,-72.6738 1.52125,-82.6688 -1.50875,-14.6025 -23.0775,-13.8862 -26.1175,0.8588 -2.23875,10.8487 -7.5425,89.4762 -11.3925,97.6475 -4.755,10.0687 -5.9725,-52.8075 -9.93875,-111.4738 -2.1075,-31.205 -34.2249973,-20.255 -32.9987473,-4.165 5.8699973,77.0963 0.1,206.3488 -15.55,28.93 -1.705,-19.3225 -30.4787497,-17.9687 -29.8549997,1.5013 0,0 6.88625,68.6987 9.08,99.785 l 3.06375,45.2637 c -7.91375,0.023 -14.62875,-16.0475 -17.335,-23.2137 -4.08125,-7.8113 -9.6675,-20.6 -24.56125,-24.07 -9.275,-2.1638 -19.877501,-1.5075 -23.113751,7.5425 -0.81625,2.2987 42.652501,75.08 43.503751,76.22 14.59375,19.4816 45.46874974,44.2101 45.46874974,44.2101 l 0,25.0303 98.00249726,0 0,-30.3325 c 27.136247,-26.1329 33.411247,-184.1592 33.411247,-184.1592 3.52,-22.3812 -21.51375,-20.5837 -23.77875,-8.22 z m -17.822497,138.8688 c -7.525,11.7325 -43.17,45.3502 -43.17,45.3502 0,0 -35.62375,-33.584 -43.1699973,-45.3502 -19.7187497,-29.1775 16.0087473,-55.2513 40.7799973,-29.6875 0.81,0.835 1.60625,1.725 2.39,2.6725 0.78375,-0.9475 1.58,-1.8388 2.39125,-2.6738 24.77,-25.5637 60.497497,0.5113 40.77875,29.6888"
         style="fill:#365568;fill-opacity:1;fill-rule:nonzero;stroke:none"
         id="path50"
         inkscape:connector-curvature="0" />
    </g>
  </g>
</svg>
