<?xml version="1.0" encoding="UTF-8" standalone="no"?>
<!-- Created with Inkscape (http://www.inkscape.org/) -->

<svg
   xmlns:dc="http://purl.org/dc/elements/1.1/"
   xmlns:cc="http://creativecommons.org/ns#"
   xmlns:rdf="http://www.w3.org/1999/02/22-rdf-syntax-ns#"
   xmlns:svg="http://www.w3.org/2000/svg"
   xmlns="http://www.w3.org/2000/svg"
   xmlns:sodipodi="http://sodipodi.sourceforge.net/DTD/sodipodi-0.dtd"
   xmlns:inkscape="http://www.inkscape.org/namespaces/inkscape"
   width="32"
   height="32"
   id="svg2"
   version="1.1"
   inkscape:version="0.48.5 r10040"
   sodipodi:docname="h.svg">
  <defs
     id="defs4" />
  <sodipodi:namedview
     id="base"
     pagecolor="#ffffff"
     bordercolor="#666666"
     borderopacity="1.0"
     inkscape:pageopacity="0.0"
     inkscape:pageshadow="2"
     inkscape:zoom="7.9195959"
     inkscape:cx="7.1426883"
     inkscape:cy="15.9874"
     inkscape:document-units="px"
     inkscape:current-layer="layer1"
     showgrid="false"
     inkscape:window-width="1366"
     inkscape:window-height="702"
     inkscape:window-x="0"
     inkscape:window-y="159"
     inkscape:window-maximized="1" />
  <metadata
     id="metadata7">
    <rdf:RDF>
      <cc:Work
         rdf:about="">
        <dc:format>image/svg+xml</dc:format>
        <dc:type
           rdf:resource="http://purl.org/dc/dcmitype/StillImage" />
        <dc:title></dc:title>
      </cc:Work>
    </rdf:RDF>
  </metadata>
  <g
     inkscape:label="Layer 1"
     inkscape:groupmode="layer"
     id="layer1"
     transform="translate(0,-1020.3622)">
    <g
       id="g3352"
       transform="matrix(0.07843414,0,0,0.07843414,12.246458,956.04943)">
      <path
         d="m 12.747852,1005.1135 c -0.6575,-0.1037 -1.3025,0.014 -1.8775,0.3138 l -18.9675001,9.905 c 1.1875,3.1012 2.93,6.0162 5.18125,8.6987 l 7.11625,-5.675 c 1.22625,-0.9787 2.695,-1.5962 4.245,-1.785 l 0.575,-0.07 c 6.8625001,-0.8387 11.0025001,-1.345 12.5612501,-9.2375 0.0725,-0.3687 -0.0513,-0.76 -0.35,-1.1 -0.34125,-0.3875 -0.88,-0.6462 -1.4625,-0.7312 -0.685,0.084 -1.39,0.1362 -2.12625,0.1362 -1.76,0 -3.38375,-0.225 -4.895,-0.455"
         style="fill:#365568;fill-opacity:1;fill-rule:nonzero;stroke:none"
         id="path116"
         inkscape:connector-curvature="0" />
      <path
         d="m 26.240352,990.92601 c -0.355,-0.455 -0.96,-0.7762 -1.615,-0.86 l -7.155,-0.9187 -26.9887501,11.55119 c -0.5162499,3.07 -0.5362499,6.2075 -0.0175,9.2813 l 17.90125,-9.3525 c 1.59,-0.82879 3.4300001,-1.13499 5.2000001,-0.86629 1.30375,0.1988 2.695,0.39379 4.075,0.39379 3.36125,0 7.0425,-0.96379 8.88625,-8.11129 0.0937,-0.365 -0.007,-0.7612 -0.28625,-1.1175"
         style="fill:#365568;fill-opacity:1;fill-rule:nonzero;stroke:none"
         id="path118"
         inkscape:connector-curvature="0" />
      <path
         d="m 33.921602,977.37851 c -0.3375,0.011 -0.6675,0.031 -1.0175,0.031 -1.4075,0 -2.88,-0.097 -4.3775,-0.2888 -2.36375,-0.3012 -4.69375,-0.4537 -6.925,-0.4537 -11.9475001,0 -20.90000009,4.265 -26.6087501,12.6787 -0.99125,1.4613 -1.825,3.0125 -2.525,4.615 l 23.1037501,-9.89 c 1.62,-0.6925 3.4125,-0.8637 5.13125,-0.49 1.6575,0.3588 3.28125,0.6825 4.92,0.6825 2.72875,0 6.1025,-0.815 8.29875,-6.885"
         style="fill:#365568;fill-opacity:1;fill-rule:nonzero;stroke:none"
         id="path120"
         inkscape:connector-curvature="0" />
      <path
         d="m -29.720898,1074.3985 c 13.70625,0 23.8362499,-5.6612 33.7187499,-5.6612 2.27,0 4.525,0.2987 6.8087501,1.0337 12.6925,4.0825 21.33125,13.1 25.63875,13.1 0.13875,0 0.27125,-0.01 0.4,-0.027 4.7275,-0.6987 7.66125,-6.995 6.32875,-13.4437 C 39.946602,1053.784 5.3203519,1041.084 0.83410191,1038.0878 -20.594648,1023.7753 -22.347148,1000.4353 -11.727148,984.78531 c 9.0024999,-13.2663 22.6575,-16.24 33.32875,-16.24 2.92875,0 5.6325,0.2237 7.95375,0.52 1.1875,0.1525 2.30375,0.2237 3.34875,0.2237 10.64375,0 14.06375,-7.3475 12.66625,-11.8175 -0.41125,-1.3162 -3.10875,-3.1675 -4.36375,-3.7412 -9.6425,-4.4126 -17.99625,-5.9988 -26.70625,-5.9988 -2.3825,0 -4.7900001,0.1187 -7.2600001,0.33 -13.095,1.125 -28.2524999,6.8475 -56.6224999,23.1688 -36.36,20.9587 -55.105002,82.26249 -62.131252,128.94249 l 59.386252,0 4.545,-29.0275 c 6.6275,2.3925 12.5175,3.2537 17.86125,3.2537"
         style="fill:#365568;fill-opacity:1;fill-rule:nonzero;stroke:none"
         id="path122"
         inkscape:connector-curvature="0" />
      <path
         d="m 84.840352,1005.426 c -0.57375,-0.2987 -1.23,-0.4112 -1.87125,-0.3137 -1.51625,0.2312 -3.14125,0.4562 -4.89875,0.4562 -0.73875,0 -1.4425,-0.052 -2.12875,-0.1362 -0.5825,0.084 -1.11875,0.3437 -1.45875,0.73 -0.3,0.3412 -0.425,0.7312 -0.35125,1.1 1.55625,7.8937 5.69625,8.4 12.55875,9.2387 l 0.5775,0.07 c 1.5475,0.1888 3.01625,0.8063 4.2425,1.785 l 7.11375,5.6738 c 2.254998,-2.685 3.996248,-5.5988 5.182498,-8.6963 l -18.966248,-9.9075"
         style="fill:#365568;fill-opacity:1;fill-rule:nonzero;stroke:none"
         id="path124"
         inkscape:connector-curvature="0" />
      <path
         d="m 78.070352,1000.1548 c 1.38,0 2.77125,-0.19499 4.08,-0.39379 1.755,-0.265 3.6075,0.037 5.195,0.86499 l 17.902498,9.3525 c 0.51875,-3.0737 0.49875,-6.2125 -0.0187,-9.2837 l -26.989998,-11.54629 -7.15375,0.9175 c -0.655,0.084 -1.26,0.405 -1.615,0.86 -0.2775,0.3563 -0.38,0.7538 -0.28625,1.1188 1.84375,7.1462 5.5275,8.10999 8.88625,8.10999"
         style="fill:#365568;fill-opacity:1;fill-rule:nonzero;stroke:none"
         id="path126"
         inkscape:connector-curvature="0" />
      <path
         d="m 70.089102,984.26351 c 1.6375,0 3.26125,-0.3237 4.92125,-0.6825 0.58875,-0.1287 1.195,-0.195 1.7975,-0.195 1.1475,0 2.2675,0.23 3.33,0.685 l 23.103748,9.8863 c -0.69875,-1.6013 -1.5325,-3.1513 -2.52375,-4.6125 -5.708748,-8.4125 -14.661248,-12.6775 -26.608748,-12.6775 -2.23125,0 -4.56125,0.1525 -6.925,0.4537 -1.49625,0.1913 -2.96875,0.2888 -4.3775,0.2888 -0.35,0 -0.67875,-0.02 -1.0175,-0.031 2.19625,6.0688 5.57,6.885 8.3,6.885"
         style="fill:#365568;fill-opacity:1;fill-rule:nonzero;stroke:none"
         id="path128"
         inkscape:connector-curvature="0" />
      <path
         d="m 58.865352,1082.8435 c 0.13,0.019 0.2625,0.027 0.4,0.027 4.3075,0 12.94625,-9.0175 25.63875,-13.1 2.285,-0.735 4.54,-1.0337 6.81,-1.0337 9.882498,0 20.012498,5.6612 33.717498,5.6612 5.34375,0 11.235,-0.8612 17.8625,-3.2537 l 4.545,29.0275 59.38625,0 c -7.0275,-46.68 -25.7725,-107.98379 -62.13125,-128.94249 -28.37125,-16.3213 -43.52875,-22.0438 -56.623748,-23.1688 -2.46875,-0.2113 -4.8775,-0.33 -7.26,-0.33 -8.70875,0 -17.06375,1.5862 -26.70625,5.9988 -1.255,0.5737 -3.9525,2.425 -4.36375,3.7412 -1.3975,4.47 2.0225,11.8175 12.66625,11.8175 1.045,0 2.1625,-0.071 3.34875,-0.2237 2.3225,-0.2963 5.025,-0.52 7.95375,-0.52 10.6725,0 24.32625,2.9737 33.328748,16.24 10.62,15.64999 8.8675,38.98999 -12.559998,53.30249 -4.48625,2.9962 -39.1125,15.6962 -42.34,31.3125 -1.3325,6.4487 1.6,12.745 6.3275,13.4437"
         style="fill:#365568;fill-opacity:1;fill-rule:nonzero;stroke:none"
         id="path130"
         inkscape:connector-curvature="0" />
    </g>
  </g>
</svg>
