<?xml version="1.0" encoding="UTF-8" standalone="no"?>
<!-- Created with Inkscape (http://www.inkscape.org/) -->

<svg
   xmlns:dc="http://purl.org/dc/elements/1.1/"
   xmlns:cc="http://creativecommons.org/ns#"
   xmlns:rdf="http://www.w3.org/1999/02/22-rdf-syntax-ns#"
   xmlns:svg="http://www.w3.org/2000/svg"
   xmlns="http://www.w3.org/2000/svg"
   xmlns:sodipodi="http://sodipodi.sourceforge.net/DTD/sodipodi-0.dtd"
   xmlns:inkscape="http://www.inkscape.org/namespaces/inkscape"
   width="32"
   height="32"
   id="svg2"
   version="1.1"
   inkscape:version="0.48.5 r10040"
   sodipodi:docname="j.svg">
  <defs
     id="defs4" />
  <sodipodi:namedview
     id="base"
     pagecolor="#ffffff"
     bordercolor="#666666"
     borderopacity="1.0"
     inkscape:pageopacity="0.0"
     inkscape:pageshadow="2"
     inkscape:zoom="7.9195959"
     inkscape:cx="7.1426883"
     inkscape:cy="15.9874"
     inkscape:document-units="px"
     inkscape:current-layer="layer1"
     showgrid="false"
     inkscape:window-width="1366"
     inkscape:window-height="702"
     inkscape:window-x="0"
     inkscape:window-y="159"
     inkscape:window-maximized="1" />
  <metadata
     id="metadata7">
    <rdf:RDF>
      <cc:Work
         rdf:about="">
        <dc:format>image/svg+xml</dc:format>
        <dc:type
           rdf:resource="http://purl.org/dc/dcmitype/StillImage" />
        <dc:title></dc:title>
      </cc:Work>
    </rdf:RDF>
  </metadata>
  <g
     inkscape:label="Layer 1"
     inkscape:groupmode="layer"
     id="layer1"
     transform="translate(0,-1020.3622)">
    <g
       id="g3392"
       transform="matrix(0.08791788,0,0,0.08791788,13.435598,946.89361)">
      <path
         d="m 87.38128,983.36294 c 0,43.85366 0.89,84.32366 1.01375,103.66616 0,1.655 1.10375,16.4413 3.33875,21.3238 2.81125,6.1437 9.575,8.5912 14.53125,9.5225 4.1,0.7712 65.08125,13.8937 65.08125,13.8937 l -0.0213,-60.05 -27.145,-4.4037 -5.8425,-42.3475 -28.515,-108.46626 c -2.56375,-7.6812 -19.5075,-19.6237 -14.795,8.9138 0.225,1.3625 0.48125,2.8262 0.76375,4.3862 -4.24625,0.2938 -8.1425,14.0788 -4.665,41.1013 -2.6375,0.8925 -3.745,4.6025 -3.745,12.46"
         style="fill:#2a394c;fill-opacity:1;fill-rule:nonzero;stroke:none"
         id="path54"
         inkscape:connector-curvature="0" />
      <path
         d="m -15.60372,1006.6291 c 4.72125,2.0125 9.4612498,4.4238 12.9649998,8.3075 2.54249999,0.095 20.6662502,0.9988 20.6662502,0.9988 0.0675,0 0.13,0.014 0.1975,0.017 11.8775,-29.65996 36.185,-57.32496 49.1475,-82.61876 -8.95875,-24.65 -51.2175,-35.9162 -74.4287502,-26.5437 -3.1662498,1.2787 -6.0799998,2.9312 -8.6212498,4.9975 -1.64375,24.8487 -4.18375,51.285 -8.1825,78.67 -3.6925,0.925 -6.90875,2.9325 -9.1475,5.7037 -2.18375,-11.8062 -8.59375,-23.5912 -11.06375,-35.365 5.24875,-4.3612 8.1325,-16.2462 6.18125,-29.0337 2.5075,-1.3775 9.1725,-2.345 11.77875,-2.9038 l 0,-22.9787 c -12.61,1.2325 -36.33125,11.1787 -45.475375,29.4675 6.389125,21.2112 23.160375,41.63 29.087875,66.50246 9.27,-1.0113 17.265,0.675 26.895,4.7787 z m 49.38625,-76.50746 c -4.0475,12.2875 -1.135,17.405 3.92625,22.72 -6.4425,16.1775 -18.69,32.4413 -24.5075,48.80876 -1.2875,-20.93126 -20.8612502,-18.79246 -27.43625,-7.96746 3.51625,-17.445 6.7312498,-34.9438 9.5824998,-52.555 7.06625,-1.9575 13.0025,-4.6313 15.8462502,-17.2513 7.6575,0 16.45375,1.2588 22.58875,6.245"
         style="fill:#2a394c;fill-opacity:1;fill-rule:nonzero;stroke:none"
         id="path56"
         inkscape:connector-curvature="0" />
      <path
         d="m 22.28003,1054.7279 c -0.4025,-0.3113 -0.57625,-0.8363 -0.43875,-1.3263 0.1375,-0.49 0.55875,-0.8475 1.06375,-0.9037 6.0275,-0.6738 9.0175,-7.925 8.7725,-14.4038 -0.18125,-4.7925 -2.36,-10.4575 -7.90375,-10.655 l -22.6062502,-0.8787 c 0.70125,14.285 1.62625,38.2337 1.62625,47.0812 0,7.29 -1.2975,16.9813 -12.5125,16.9813 -4.7412498,0 -21.8912498,-3.2688 -25.6187498,-18.6325 -4.205,5.4075 -11.47375,5.4075 -16.08125,5.4075 -1.5625,0 -3.01125,-0.1688 -4.08,-0.4738 -0.55,-0.1575 -0.9225,-0.6675 -0.905,-1.24 0.01625,-0.5713 0.41875,-1.0575 0.97625,-1.1825 12.7625,-2.8487 15.63,-13.0587 17.72375,-20.5138 1.305,-4.6462 2.33625,-8.3162 5.5925,-8.3162 0.86625,0 1.79375,0.2925 2.83625,0.895 2.12,1.2238 1.7675,4.2163 1.32,8.005 -0.22,1.865 -0.47,3.9787 -0.47,6.1463 0,12.8225 11.92875,18.145 18.315,18.145 1.4362498,0 2.6174998,-0.2813 3.2362498,-0.7588 0.55875,-3.205 -0.63375,-28.9862 -1.22125,-39.0162 -0.0925,-1.5913 -0.15125,-3.0475 -0.20625,-4.3863 -0.39375,-9.7275 -0.51375,-12.6625 -11.8174998,-17.4837 -7.5725,-3.2263 -13.01625,-5.095 -18.435,-5.095 -10.9675,0 -22.61625,8.0925 -48.53875,27.965 -0.21875,0.1662 -0.485875,0.2575 -0.76075,0.2575 l -25.15675,0 0,66.4862 26.015625,0 c 0.297875,0 0.585375,0.1063 0.812,0.3 19.884875,16.9825 41.246125,19.5188 52.209875,19.5188 12.8175,0 35.8787498,-0.4163 36.1099998,-0.4213 8.5312502,0 12.2512502,-5.0687 12.8975002,-9.8125 0.535,-3.9362 -0.9775,-7.57 -3.455,-8.3487 l -0.5175,-0.037 c -0.6175,-0.037 -1.1150002,-0.5225 -1.1675002,-1.14 -0.0538,-0.6163 0.3512502,-1.18 0.9537502,-1.3238 8.625,-2.06 11.82,-8.9062 11.93625,-14.625 0.095,-4.735 -1.9025,-8.625 -4.86,-9.4587 -0.545,-0.1538 -0.91875,-0.655 -0.91,-1.2225 0.009,-0.5663 0.3975,-1.0563 0.94625,-1.1938 6.38875,-1.5962 8.5475,-5.8287 9.23375,-9.0987 1.1375,-5.4263 -1.06625,-12.2625 -4.915,-15.24"
         style="fill:#2a394c;fill-opacity:1;fill-rule:nonzero;stroke:none"
         id="path58"
         inkscape:connector-curvature="0" />
    </g>
  </g>
</svg>
