<?xml version="1.0" encoding="UTF-8" standalone="no"?>
<!-- Created with Inkscape (http://www.inkscape.org/) -->

<svg
   xmlns:dc="http://purl.org/dc/elements/1.1/"
   xmlns:cc="http://creativecommons.org/ns#"
   xmlns:rdf="http://www.w3.org/1999/02/22-rdf-syntax-ns#"
   xmlns:svg="http://www.w3.org/2000/svg"
   xmlns="http://www.w3.org/2000/svg"
   xmlns:sodipodi="http://sodipodi.sourceforge.net/DTD/sodipodi-0.dtd"
   xmlns:inkscape="http://www.inkscape.org/namespaces/inkscape"
   width="32"
   height="32"
   id="svg2"
   version="1.1"
   inkscape:version="0.48.5 r10040"
   sodipodi:docname="j.svg">
  <defs
     id="defs4" />
  <sodipodi:namedview
     id="base"
     pagecolor="#ffffff"
     bordercolor="#666666"
     borderopacity="1.0"
     inkscape:pageopacity="0.0"
     inkscape:pageshadow="2"
     inkscape:zoom="7.9195959"
     inkscape:cx="7.1426883"
     inkscape:cy="15.9874"
     inkscape:document-units="px"
     inkscape:current-layer="layer1"
     showgrid="false"
     inkscape:window-width="1366"
     inkscape:window-height="702"
     inkscape:window-x="0"
     inkscape:window-y="159"
     inkscape:window-maximized="1" />
  <metadata
     id="metadata7">
    <rdf:RDF>
      <cc:Work
         rdf:about="">
        <dc:format>image/svg+xml</dc:format>
        <dc:type
           rdf:resource="http://purl.org/dc/dcmitype/StillImage" />
        <dc:title></dc:title>
      </cc:Work>
    </rdf:RDF>
  </metadata>
  <g
     inkscape:label="Layer 1"
     inkscape:groupmode="layer"
     id="layer1"
     transform="translate(0,-1020.3622)">
    <g
       id="g3427"
       transform="matrix(0.08667199,0,0,0.08667199,11.622404,947.3735)">
      <path
         d="m 113.56954,1060.2385 1.05625,-3.25 0.0475,-0.145 0.875,-2.6925 -3.4225,-3.8825 -4.32375,-4.9025 c 4.065,-3.5838 4.45375,-9.7838 0.87125,-13.8475 l 13.4525,-11.8613 c 0.27,0.305 0.5575,0.5825 0.855,0.8463 0.88,0.7837 1.87125,1.3812 2.92375,1.7925 l 0.84875,-2.6075 3.1675,-9.745 2.285,-7.0275 -1.98875,-2.255 -0.24,-0.2738 -41.404998,36.505 20.112498,22.8125 3.695,4.1913 1.19,-3.6575"
         style="fill:#2a394c;fill-opacity:1;fill-rule:nonzero;stroke:none"
         id="path34"
         inkscape:connector-curvature="0" />
      <path
         d="m -49.004212,1014.5285 0.005,-0.3538 c 1.76125,-1.9312 3.6725,-4.5712 4.35875,-7.5887 0.7525,-0.4638 0.96375,-1.7513 1.0925,-3.3213 0.155,-1.925 -0.2725,-3.57872 -1.225,-3.84622 -0.595,-3.3775 -1.11125,-6.4838 -2.8575,-7.5975 -0.68375,-2.1538 -4.05125,-2.6113 -6.69125,-2.6113 -0.905,0 -1.72625,0.054 -2.32125,0.1113 -4.77125,0.4637 -6.435,4.1362 -7.25875,10.0875 -0.9825,0.2225 -1.4325,1.90252 -1.265,3.86622 0.1425,1.665 0.42625,3.0125 1.24375,3.3913 0.7,2.9787 2.60875,5.5875 4.3525,7.5 l 0.0063,0.3625 c -0.2425,5.955 -12.22375,-0.3275 -12.5775,10.1337 10.44,0.7738 25.2725,0.775 35.715,0 -0.35625,-10.3875 -12.33625,-4.2237 -12.5775,-10.1337"
         style="fill:#2a394c;fill-opacity:1;fill-rule:nonzero;stroke:none"
         id="path36"
         inkscape:connector-curvature="0" />
      <path
         d="m 114.82829,1090.6747 c 4.07875,7.7513 10.97875,13.2463 19.06,16.5188 5.97625,2.42 12.50875,3.5887 18.97875,3.5887 3.5925,0 7.16625,-0.36 10.615,-1.0675 11.59875,-2.3762 22.05125,-8.7137 27.48375,-19.04 2.79625,-5.3112 0.6,-9.6962 -0.6025,-12.9925 l 4.36625,-3.8487 c -6.47375,-7.3425 -45.66625,-51.7963 -49.52375,-56.1713 2.48125,-7.4762 5.67625,-17.11 7.69125,-23.18372 1.04125,3.1362 10.6725,32.16872 11.94625,36.00622 l 14.1675,16.0688 c -2.475,-6.7863 -20.9975,-57.57252 -23.955,-65.68132 0,-1.8375 0,-2.3575 0,-4.2425 l 5.66375,0.95 c 0.44375,0.074 0.88625,0.11 1.32125,0.11 3.61875,0 6.86,-2.4787 7.7225,-6.11 0.8125,-3.4162 -1.29875,-6.8425 -4.715,-7.655 l -102.771248,-24.4212 0,-15.8775 c 0,0 -0.31875,-6.2325 -5.0225,-6.2325 l -0.0187,0 -2.11255,-21.1038 c -0.22375,-1.3963 -1.4275,-2.425 -2.84375,-2.425 -1.39,0 -2.20875,0 -2.6825,0 0,0 -0.15,0 -0.565,0 -0.475,0 -1.2975,0 -2.6975,0 -1.41625,0 -2.62,1.0287 -2.84375,2.425 l -2.1125,21.1038 -0.0188,0 c -4.7025,0 -5.0225,6.2325 -5.0225,6.2325 l 0,9.7125 c -79.386204,-18.8638 -94.544954,-22.935 -98.676204,-22.935 -1.29,0 -1.50375,0.3962 -2.2625,0.8637 -1.435,0.885 -2.46125,2.3025 -2.85125,3.9438 -0.96625,4.0675 1.385,8.1875 5.37875,9.4262 l 5.6325,1.745 c 0,1.95 0,2.215 0,2.2425 0,0 0,0 0,0 0,0.028 0,0.2925 0,2.2425 l -36.55625,100.24132 c -1.14375,3.1375 -0.91,6.6112 0.645,9.5662 7.05625,13.4088 22.57,20.1225 38.08,20.1225 15.5,0 30.99625,-6.7012 38.05875,-20.1225 1.555,-2.955 1.78875,-6.4287 0.645,-9.5662 l -36.55625,-100.23632 c 0,-1.8375 0,-2.3937 0,-2.5412 0,0 0,-0.02 0,-0.054 0,-0.069 0,-0.2187 0,-0.5587 l 88.462504,29.9075 c 0,0 -1.25,167.32622 -1.25,167.33002 l -10.79375,0.055 c -6.2125,0 -12.49875,8.7875 -12.49875,14.9987 l -14.5837537,0 c -6.21375,0 -11.2500003,8.7875 -11.2500003,15 0,2.5325 2.0525,4.585 4.5850003,4.585 l 117.5225017,0 c 2.53375,0 4.585,-2.0525 4.585,-4.585 0,-6.2125 -5.03625,-15 -11.25,-15 l -14.582498,0 c 0,-6.2112 -5.0375,-14.9987 -11.25,-14.9987 l -12.04375,-0.055 c 0,0 -1.1525,-149.30882 -1.24375,-161.38632 l 88.456248,12.335 c 0,1.2563 0,1.9938 0,2.4175 0,0 0,0.1263 0,0.5038 0,0.3812 0,1.02 0,2.0462 -39.435,108.13252 -39.3475,103.27382 -35.91125,109.80252 z m -141.455002,-62.8325 c -11.45625,0.8888 -19.5575,1.3338 -27.6525,1.3338 -8.10375,0 -16.20125,-0.445 -27.6625,-1.3338 l 27.6575,-83.36372 27.6575,83.36372 z m 159.713752,26.3488 c 5.8775,-17.715 6.08125,-18.33 8.905,-26.8375 3.285,3.7262 7.74,8.78 10.99875,12.475 -0.345,0.305 -2.54625,2.245 -2.8925,2.55 -1.10125,-1.2513 -2.0025,-2.3263 -4.06,-2.3875 -0.075,0 -0.1475,0 -0.21875,0 -2.1875,0 -2.92,1.1037 -9.065,6.5212 -1.9075,1.6813 -2.09125,4.5913 -0.40875,6.5 l 2.7025,3.065 2.6075,2.9563 -4.9925,4.4025 -0.0412,-0.046 -3.6025,-4.0863 2.5725,-2.2675 -2.505,-2.8412 z m -2.77625,16.705 2.89125,-2.5475 c 1.08375,1.2287 1.84375,2.085 3.53125,2.3312 0.32875,0.047 0.62375,0.075 0.90125,0.075 1.94375,0 3.03125,-1.3525 8.9125,-6.5375 1.90875,-1.6825 2.09,-4.5912 0.40875,-6.5 l -1.3575,-1.5387 -3.9525,-4.4838 4.9925,-4.4012 c 1.4025,1.5887 1.3675,1.5487 3.64375,4.1312 l -2.5725,2.2688 4.71125,5.345 3.50375,-3.0888 c 1.90875,-1.6825 2.09125,-4.5925 0.40875,-6.5 l -0.74125,-0.8412 2.89125,-2.5488 17.01625,19.3 c -3.01,2.6538 -3.99875,6.74 -2.8575,10.3338 l 7.20125,0 c -3.125,2.0412 -10.43375,3.4812 -26.80375,3.4812 -0.2025,0 -0.40375,0 -0.60875,0 -6.80625,-0.015 -21.01625,0.1975 -26.47625,-3.4812 5.0825,0 5.32875,0 8.58625,0 -1.60875,-1.8238 -2.5825,-2.9288 -4.23,-4.7975"
         style="fill:#2a394c;fill-opacity:1;fill-rule:nonzero;stroke:none"
         id="path38"
         inkscape:connector-curvature="0" />
    </g>
  </g>
</svg>
