<?xml version="1.0" encoding="UTF-8" standalone="no"?>
<!-- Created with Inkscape (http://www.inkscape.org/) -->

<svg
   xmlns:dc="http://purl.org/dc/elements/1.1/"
   xmlns:cc="http://creativecommons.org/ns#"
   xmlns:rdf="http://www.w3.org/1999/02/22-rdf-syntax-ns#"
   xmlns:svg="http://www.w3.org/2000/svg"
   xmlns="http://www.w3.org/2000/svg"
   xmlns:sodipodi="http://sodipodi.sourceforge.net/DTD/sodipodi-0.dtd"
   xmlns:inkscape="http://www.inkscape.org/namespaces/inkscape"
   width="32"
   height="32"
   id="svg3847"
   version="1.1"
   inkscape:version="0.48.5 r10040"
   sodipodi:docname="New document 3">
  <defs
     id="defs3849" />
  <sodipodi:namedview
     id="base"
     pagecolor="#ffffff"
     bordercolor="#666666"
     borderopacity="1.0"
     inkscape:pageopacity="0.0"
     inkscape:pageshadow="2"
     inkscape:zoom="7.9195959"
     inkscape:cx="3.9508462"
     inkscape:cy="15.031012"
     inkscape:document-units="px"
     inkscape:current-layer="layer1"
     showgrid="false"
     inkscape:window-width="1600"
     inkscape:window-height="861"
     inkscape:window-x="1366"
     inkscape:window-y="0"
     inkscape:window-maximized="1" />
  <metadata
     id="metadata3852">
    <rdf:RDF>
      <cc:Work
         rdf:about="">
        <dc:format>image/svg+xml</dc:format>
        <dc:type
           rdf:resource="http://purl.org/dc/dcmitype/StillImage" />
        <dc:title></dc:title>
      </cc:Work>
    </rdf:RDF>
  </metadata>
  <g
     inkscape:label="Layer 1"
     inkscape:groupmode="layer"
     id="layer1"
     transform="translate(0,-1020.3622)">
    <g
       id="g3870"
       transform="matrix(0.08754152,0,0,0.08754152,12.042745,945.60748)">
      <path
         d="m 10.937636,923.76424 c -3.3824995,0.8637 -4.9024995,6.1862 -4.3474995,12.3825 0.45375,5.0512 1.20625,9.195 3.8799995,10.6887 2.4425,9.715 3.05375,18.9363 9.95875,24.4263 9.46625,7.525 17.06,11.2237 24.607505,11.1625 7.5475,0.061 15.14125,-3.6375 24.60625,-11.1625 6.90375,-5.49 7.5175,-14.7113 9.95875,-24.4263 2.675,-1.4937 3.4275,-5.6375 3.88125,-10.6887 0.55625,-6.1963 -0.96375,-11.5188 -4.3475,-12.3825 -2.53125,-12.94 -2.93,-29.8488 -23.55,-29.8488 l -21.096255,0 c -20.39125,0 -20.8775,16.1625 -23.55125,29.8488 z m 24.885,-12.7763 c 5.288755,1.2363 13.159995,1.2263 18.451245,-0.01 8.40875,-1.9525 15.44625,2.705 17.54626,13.47 l 1.02749,5.2538 3.075,0.7837 c 0.25501,0.93 0.48876,2.6513 0.28001,5.0025 -0.29501,3.2788 -0.63876,4.7238 -0.86251,5.3513 l -2.05874,1.15 -0.77125,3.0612 c -2.23875,8.9113 -2.2525,16.38 -7.41625,20.4838 -7.6275,6.0662 -16.86625,9.5775 -19.89375,9.5775 -0.0513,0 -0.10875,0 -0.16375,-0.01 -0.055,0 -0.11375,0.01 -0.16375,0.01 -3.02625,0 -12.266255,-3.5113 -19.893755,-9.5775 -5.16375,-4.1038 -5.17875,-11.5725 -7.41875,-20.4838 l -0.76875,-3.0612 -2.05875,-1.15 c -0.22375,-0.6275 -0.5675,-2.0725 -0.8625,-5.3513 -0.21125,-2.3512 0.02375,-4.0725 0.28125,-5.0025 l 3.07375,-0.7837 1.02625,-5.2538 c 2.10625,-10.7937 9.20125,-15.4175 17.57125,-13.465"
         style="fill:#2c3e50;fill-opacity:1;fill-rule:nonzero;stroke:none"
         id="path82"
         inkscape:connector-curvature="0" />
      <path
         d="m 39.538886,1006.7842 -1.0325,8.0962 13.057505,0 -1.02875,-8.0962 -1.14126,-6.2625 c -0.0825,-0.4463 -0.32374,-0.82496 -0.65,-1.06876 0.33125,-0.225 0.58125,-0.5637 0.67,-0.9762 l 1.27625,-5.8375 0.5925,-2.6988 c 0.125,-2.3112 -12.601245,-2.4212 -12.514995,-0.1087 l 0.61375,2.8075 1.276245,5.8375 c 0.0888,0.4125 0.34,0.7512 0.6725,0.9762 -0.32875,0.2438 -0.57125,0.62246 -0.65375,1.06876 l -1.137495,6.2625"
         style="fill:#2c3e50;fill-opacity:1;fill-rule:nonzero;stroke:none"
         id="path84"
         inkscape:connector-curvature="0" />
      <path
         d="m -30.346114,1013.2004 c 0,0.5738 0.0775,1.13 0.1875,1.68 l 60.86125,0 -1.63875,-3.985 -1.47,-16.40616 -8.80375,0.1325 -5.51875,-16.7338 c -14.09249952,7.4213 -43.6175,6.8425 -43.6175,35.31246"
         style="fill:#2c3e50;fill-opacity:1;fill-rule:nonzero;stroke:none"
         id="path86"
         inkscape:connector-curvature="0" />
      <path
         d="m 71.283881,994.62174 -8.805,-0.1325 -1.47,16.40616 -1.65249,3.985 60.874989,0 c 0.11125,-0.55 0.18625,-1.1062 0.18625,-1.68 0,-28.46996 -29.523749,-27.89116 -43.616249,-35.31246 l -5.5175,16.7338"
         style="fill:#2c3e50;fill-opacity:1;fill-rule:nonzero;stroke:none"
         id="path88"
         inkscape:connector-curvature="0" />
      <path
         sodipodi:nodetypes="cccccccccc"
         d="m -59.458989,1057.0092 25.724125,0 0,122.485 157.542504,0 0,-112.175 c -31.047499,-2.0388 -78.771249,-5.8913 -78.771249,-10.31 l 104.831249,0 0,-30.2763 -209.326629,0 z"
         style="fill:#2c3e50;fill-opacity:1;fill-rule:nonzero;stroke:none"
         id="path90"
         inkscape:connector-curvature="0" />
    </g>
  </g>
</svg>
