<?xml version="1.0" encoding="UTF-8" standalone="no"?>
<!-- Created with Inkscape (http://www.inkscape.org/) -->

<svg
   xmlns:dc="http://purl.org/dc/elements/1.1/"
   xmlns:cc="http://creativecommons.org/ns#"
   xmlns:rdf="http://www.w3.org/1999/02/22-rdf-syntax-ns#"
   xmlns:svg="http://www.w3.org/2000/svg"
   xmlns="http://www.w3.org/2000/svg"
   xmlns:sodipodi="http://sodipodi.sourceforge.net/DTD/sodipodi-0.dtd"
   xmlns:inkscape="http://www.inkscape.org/namespaces/inkscape"
   width="32"
   height="32"
   id="svg2"
   version="1.1"
   inkscape:version="0.48.5 r10040"
   sodipodi:docname="1.svg">
  <defs
     id="defs4" />
  <sodipodi:namedview
     id="base"
     pagecolor="#ffffff"
     bordercolor="#666666"
     borderopacity="1.0"
     inkscape:pageopacity="0.0"
     inkscape:pageshadow="2"
     inkscape:zoom="7.9195959"
     inkscape:cx="7.1426883"
     inkscape:cy="15.9874"
     inkscape:document-units="px"
     inkscape:current-layer="layer1"
     showgrid="false"
     inkscape:window-width="1366"
     inkscape:window-height="702"
     inkscape:window-x="0"
     inkscape:window-y="159"
     inkscape:window-maximized="1" />
  <metadata
     id="metadata7">
    <rdf:RDF>
      <cc:Work
         rdf:about="">
        <dc:format>image/svg+xml</dc:format>
        <dc:type
           rdf:resource="http://purl.org/dc/dcmitype/StillImage" />
        <dc:title></dc:title>
      </cc:Work>
    </rdf:RDF>
  </metadata>
  <g
     inkscape:label="Layer 1"
     inkscape:groupmode="layer"
     id="layer1"
     transform="translate(0,-1020.3622)">
    <g
       id="g3579"
       transform="matrix(0.08278659,0,0,0.08278659,13.815242,952.00042)">
      <path
         d="m -2.4128847,1090.8897 c -1.60375,0.4162 -1.07625,2.8175 0.53,2.5475 7.03375,-1.1138 11.52375,2.0675 12.9037497,8.6437 2.87625,13.6913 -23.5575,28.445 -36.252501,23.2363 -3.19375,-1.31 -5.86375,-4.485 -6.34875,-7.5488 -0.64,-4.0525 2.4475,-8.2637 5.00625,-11.7537 0.85625,-1.1675 -0.565,-2.6488 -1.765,-1.86 -6.8225,4.4737 -13.86,11.14 -24.9225,8.6125 -3.51625,-0.8063 -9.72625,-2.9225 -11.81625,-8.05 -1.66,-4.0688 0.7675,-8.9975 2.6575,-12.955 0.5525,-1.1588 -0.74,-2.33 -1.8375,-1.6825 -10.97125,6.4537 -20.54375,3.4237 -23,-2.74 -1.8,-4.5175 0.22375,-10.005 5.55375,-15.0538 0.4625,-0.4375 0.54,-1.1475 0.18375,-1.675 -0.7575,-1.1237 -1.92125,-0.3225 -3.15,0.2625 -3.91125,1.8575 -8.465,4.0213 -12.2375,2.4762 -4.888754,-2.0074 -9.001254,-7.8299 -7.335004,-13.2999 1.6125,-5.285 9.958754,-11.3725 15.112504,-13.5588 2.31125,-0.9812 4.75125,-1.5012 7.05875,-1.5012 2.89625,0 6.97125,0.81 9.94,4.665 1.8025,2.3387 2.36,4.65 1.66125,6.8675 -0.93625,2.97 -3.23125,5.6362 -5.1175,8.2662 -0.80375,1.1237 0.4725,2.565 1.685,1.9013 7.86375,-4.305 15.705,-9.56 24.76875,-8.1101 5.975,0.9538 12.385,5.0613 13.07375,11.0676 0.47375,4.1262 -2.965,6.98 -5.83375,10.1962 -0.96125,1.0763 -2.4075,2.1688 -1.565,3.3087 0.3675,0.4976 1.03125,0.665 1.595,0.4088 6.95,-3.2175 16.3975,-8.165 24.186251,-8.165 8.0775003,0 11.3575003,5.4763 9.7300003,12.32 -0.38,1.5963 1.9575,2.2763 2.4975,0.7338 1.325,-3.7738 1.2025,-7.6926 -0.33375,-10.7551 -1.44875,-2.8975 -4.15875,-5.0562 -7.6275003,-6.0812 -5.38625,-1.5912 -11.0775,-0.6437 -16.520001,0.8287 2.09875,-12.1125 -11.28,-24.7299 -29.28125,-21.375 -9.36375,-13.7687 -14.1925,-19.375 -32.49375,-19.375 -7.955,0 -18.443754,1.0525 -31.745004,2.6326 -0.6575,0.08 -1.15125,0.6374 -1.14875,1.3 0.002,0.6612 0.50125,1.2162 1.15875,1.29 0.1725,0.019 15.025,1.6575 27.196254,2.4662 -7.532504,3.9113 -16.036254,11.1038 -17.818754,19.5125 -2.13375,10.0713 4.90125,21.1475 15.190004,24.2613 -0.5775,11.3112 11.03625,22.2587 24.285,21.9825 0.16125,1.4 1.25375,5.44 4.39375,9.12 6.965,8.165 20.11625,10.9125 29.57625,6.8425 3.45375,10.2937 16.546251,18.31 35.3662513,8.8612 34.6112497,-17.3725 19.6787497,-43.455 2.84,-39.0712"
         style="fill:#2a394c;fill-opacity:1;fill-rule:nonzero;stroke:none"
         id="path40"
         inkscape:connector-curvature="0" />
      <path
         d="m 135.31837,1060.8759 c -0.57875,-1.19 -2.395,-0.8462 -2.47125,0.4975 -0.22125,3.865 -0.34,11.485 -18.4225,10.6913 -0.68375,-0.043 -1.325,0.505 -1.35875,1.2462 -0.41625,9.7638 -3.96,16.3725 -19.786255,16.8988 -0.19,-0.01 -5.68125,-0.235 -5.68125,-0.235 -1.82875,0 -2.12625,-0.5388 -2.43625,3.4337 -0.325,4.1813 -0.59125,7.3038 -4.99,9.8563 -0.37,0.036 -0.6575,0.1962 -0.9025,0.49 -2.01125,1.0062 -4.67875,1.8675 -6.9125,2.3575 -8.68625,1.9412 -15.44875,-0.8863 -15.825,1.65 -2.40625,16.26 -24.7225,15.53 -40.7475,11.62 -1.15375,-0.2825 -2.2,-0.705 -2.76625,0.3337 -0.27875,0.5138 -0.18125,1.15 0.2375,1.5575 7.0225,6.8113 13.9025,11.1413 25.55125,11.1413 8.60375,0 17.04,-2.77 22.5675,-7.4125 2.26375,-1.9 3.90625,-4.195 4.89125,-6.835 11.91375,-0.5225 25.4125,-5.1813 29.18125,-16.7625 6.865005,-0.3775 13.167505,-2.3263 18.275005,-5.6575 5.20375,-3.39 8.755,-7.9438 9.87625,-12.6138 8.4125,-1.655 17.22,-10.9925 11.72,-22.2575"
         style="fill:#2a394c;fill-opacity:1;fill-rule:nonzero;stroke:none"
         id="path42"
         inkscape:connector-curvature="0" />
      <path
         d="m 169.16962,1028.7834 c -0.15375,-0.021 -15.265,-2.1575 -26.43625,-2.9862 l 34.6475,-36.1713 c -6.36125,-6.9737 -46.95,-56.9425 -53.4225,-64.0362 -11.34375,10.3487 -61.778755,56.3637 -70.255005,64.0962 -5.23125,-1.8612 -9.66625,-3.1212 -15.1775,-3.7912 l 16.7175,-15.2525 -4.34125,-1.975 c 1.7575,-3.8638 15.02875,-33.0375 16.73125,-36.7788 7.7425,3.5213 16.88,0.1013 20.40375,-7.6462 l 12.053755,5.4837 11.6875,-10.6625 -44.352505,-15.175 c -7.63875,16.7925 -31.1425,63.465 -39.44625,81.7188 -6.71875,0.405 -13.115,1.7087 -19.4262497,3.9987 -20.8725003,7.5613 -22.2412503,16.06 -38.7137513,16.15 -9.21375,0 -18.4475,-3.97 -18.98875,-9.5175 0.0075,-0.033 0.01125,-0.066 0.0125,-0.1 0.01625,-0.04 0.04875,-0.1225 0.0525,-0.1312 l -0.0625,-0.023 c -0.015,-0.08 -0.025,-0.079 -0.04125,-0.1475 l 0.165,0.016 c 4.09625,-10.8587 48.30125129,-41.6025 61.898751,-50.1675 4.625,-2.9125 15.675,-3.8512 21.11375,-4.0562 0.24625,-0.01 0.4675,-0.1575 0.56875,-0.3813 4.16375,-9.155 4.705,-9.4912 3.40125,-9.7212 -7.38375,0.091 -21.75375,1.0175 -28.2499997,4.4625 -38.0187513,0 -72.6137513,0.35 -110.7962553,4.5675 -0.78625,0.086 -0.76,1.2462 0.0288,1.2987 34.718754,2.28 86.493755,2.7938 97.3500053,2.8788 -15.6687503,11.0437 -43.4687513,30.48 -52.3887513,43.43 -12.99625,18.86 18.65625,34.845 42.838751,24.1562 7.5137503,-3.32 29.615,-22.2612 56.4425,-15.4762 26.86625,6.84 65.726255,36.6262 65.726255,36.6262 6.92875,5.1663 12.70625,9.78 19.265,14.6 0.2375,0.1763 0.5675,0.17 0.80375,-0.024 l 15.02875,-12.5087 c 0,0 25.75375,-5.2425 25.72125,-6.1337 -0.0125,-0.315 -0.24875,-0.5763 -0.56,-0.6213 z m -97.488755,-36.75 c 1.56,1.71 2.50875,2.75 4.08,4.4725 -1.30375,1.1888 -1.54625,1.3325 -2.15875,2.1763 -2.025,-1.09 -3.9625,-2.0863 -5.885,-3.0313 l 3.96375,-3.6175 z m 37.496255,25.0063 c -0.6025,0.55 -2.02625,1.8487 -2.62625,2.3975 -1.95375,-1.3863 -5.44,-3.7888 -8.860005,-6.0663 l 4.442505,-4.0525 c 0.335,0.3675 6.715,7.36 7.04375,7.7213 z m 1.98875,-61.03 c 5.6925,6.24 15.44125,6.7687 21.7675,0.9975 3.97875,4.3612 15.08125,16.5312 18.9825,20.8062 -6.285,5.735 -6.7325,15.4813 -0.99875,21.7663 l -29.84875,27.2337 c -1.67875,-1.84 -0.8925,-0.9787 -4.08,-4.4712 l 1.30125,-1.1875 c 2.9275,-2.6713 3.14875,-7.1925 0.5225,-10.1438 -0.0213,-0.023 -0.0337,-0.05 -0.0538,-0.072 l -4.71875,-5.1725 -3.89375,-4.2662 c -2.6925,-2.9513 -7.265,-3.16 -10.216255,-0.4675 -4.60125,4.1987 -4.3925,4.0087 -8.81625,8.045 -0.7275,-0.4625 -0.54625,-0.3513 -2.15,-1.36 l -5.3925,-5.91 6.39,-5.83 3.63,3.9787 8.267505,-7.5412 c -5.046255,-5.53 -6.340005,-7.7763 -10.288755,-7.7763 -3.06375,0 -4.6,1.64 -6.17375,3.0763 -1.6025,-1.7563 -0.425,-0.4663 -4.08,-4.4713 14.18125,-12.9375 29.296255,-26.7287 29.850005,-27.2337"
         style="fill:#2a394c;fill-opacity:1;fill-rule:nonzero;stroke:none"
         id="path44"
         inkscape:connector-curvature="0" />
    </g>
  </g>
</svg>
