<?xml version="1.0" encoding="UTF-8" standalone="no"?>
<!-- Created with Inkscape (http://www.inkscape.org/) -->

<svg
   xmlns:dc="http://purl.org/dc/elements/1.1/"
   xmlns:cc="http://creativecommons.org/ns#"
   xmlns:rdf="http://www.w3.org/1999/02/22-rdf-syntax-ns#"
   xmlns:svg="http://www.w3.org/2000/svg"
   xmlns="http://www.w3.org/2000/svg"
   xmlns:sodipodi="http://sodipodi.sourceforge.net/DTD/sodipodi-0.dtd"
   xmlns:inkscape="http://www.inkscape.org/namespaces/inkscape"
   width="32"
   height="32"
   id="svg2"
   version="1.1"
   inkscape:version="0.48.5 r10040"
   sodipodi:docname="2.svg">
  <defs
     id="defs4" />
  <sodipodi:namedview
     id="base"
     pagecolor="#ffffff"
     bordercolor="#666666"
     borderopacity="1.0"
     inkscape:pageopacity="0.0"
     inkscape:pageshadow="2"
     inkscape:zoom="7.9195959"
     inkscape:cx="7.1426883"
     inkscape:cy="15.9874"
     inkscape:document-units="px"
     inkscape:current-layer="layer1"
     showgrid="false"
     inkscape:window-width="1366"
     inkscape:window-height="702"
     inkscape:window-x="0"
     inkscape:window-y="159"
     inkscape:window-maximized="1" />
  <metadata
     id="metadata7">
    <rdf:RDF>
      <cc:Work
         rdf:about="">
        <dc:format>image/svg+xml</dc:format>
        <dc:type
           rdf:resource="http://purl.org/dc/dcmitype/StillImage" />
        <dc:title></dc:title>
      </cc:Work>
    </rdf:RDF>
  </metadata>
  <g
     inkscape:label="Layer 1"
     inkscape:groupmode="layer"
     id="layer1"
     transform="translate(0,-1020.3622)">
    <g
       id="g3616"
       transform="matrix(0.08743171,0,0,0.08743171,12.787383,945.95316)">
      <path
         d="m 144.94242,970.00324 -75.489996,-78.9188 -139.98875,133.90496 60.9574999,63.7263 c 5.09875,5.3312 6.35125,13.2775 3.135,19.9162 -2.83625,5.8563 -5.0662499,11.5363 -5.0662499,14.9225 0,9.2963 7.5374999,16.8338 16.8349999,16.8338 9.2987501,0 16.8375001,-7.5375 16.8375001,-16.8338 0,-4.3325 -3.6525,-12.4212 -7.55375,-19.8275 -1.88,-3.5687 -1.16375,-7.94 1.75,-10.7287 L 144.94242,970.00324 z m -90.696246,-40.2238 c 7.41,7.7475 19.7,8.0188 27.445,0.61 l 24.528746,25.6413 c -7.746246,7.41 -8.021246,19.6987 -0.61125,27.445 l -36.787496,35.18866 -5.27,-5.51 1.6025,-1.5337 c 3.6375,-3.4788 3.76375,-9.2463 0.28625,-12.88246 l -11.1275,-11.6325 c -3.47875,-3.6375 -9.24375,-3.7638 -12.88,-0.285 l -11.47875,10.98 -9.10375,-9.5175 7.875,-7.5338 4.69125,4.9038 10.1875,-9.7438 -6.3875,-6.6775 c -3.47875,-3.6375 -9.24625,-3.765 -12.8825,-0.2862 l -1.60375,1.5337 -5.27125,-5.5112 36.7875,-35.1888 z m -86.06,109.18246 c 7.74625,-7.41 8.02125,-19.6987 0.61,-27.4462 l 36.7874999,-35.18876 5.2712501,5.5113 -1.6037501,1.5337 c -3.63625,3.4788 -3.76375,9.245 -0.285,12.8825 l 11.1262501,11.63126 c 3.4775,3.635 9.245,3.765 12.88125,0.2862 l 11.47875,-10.97996 9.1025,9.51626 -7.875,7.5337 -4.69,-4.9025 -10.1875,9.7438 6.38875,6.6775 c 3.47625,3.6362 9.24375,3.7649 12.88125,0.2862 l 1.60375,-1.5337 5.27,5.51 -36.7875,35.1887 c -7.40875,-7.7462 -19.6987501,-8.0175 -27.4437501,-0.6087 l -24.5287499,-25.6413"
         style="fill:#2a394c;fill-opacity:1;fill-rule:nonzero;stroke:none"
         id="path100"
         inkscape:connector-curvature="0" />
      <path
         d="m 53.226174,1070.7244 c 0,0 -10.735,16.9788 -10.735,22.9088 0,5.9287 4.8075,10.735 10.735,10.735 5.93,0 10.73625,-4.8063 10.73625,-10.735 0,-5.93 -10.73625,-22.9088 -10.73625,-22.9088"
         style="fill:#2a394c;fill-opacity:1;fill-rule:nonzero;stroke:none"
         id="path102"
         inkscape:connector-curvature="0" />
      <path
         d="m -44.371326,1070.7244 c 0,0 -12.3775,22.76 -12.3775,30.7125 0,7.9463 5.5425,14.3888 12.3775,14.3888 6.8375,0 12.38,-6.4425 12.38,-14.3888 0,-7.9525 -12.38,-30.7125 -12.38,-30.7125"
         style="fill:#2a394c;fill-opacity:1;fill-rule:nonzero;stroke:none"
         id="path104"
         inkscape:connector-curvature="0" />
      <path
         d="m 96.878674,1166.8919 c 0,5.595 -37.6825,10.13 -84.16625,10.13 -46.48375,0 -84.16625,-4.535 -84.16625,-10.13 0,-5.595 37.6825,-10.1312 84.16625,-10.1312 46.48375,0 84.16625,4.5362 84.16625,10.1312"
         style="fill:#2a394c;fill-opacity:1;fill-rule:nonzero;stroke:none"
         id="path106"
         inkscape:connector-curvature="0" />
    </g>
  </g>
</svg>
