<?xml version="1.0" encoding="UTF-8" standalone="no"?>
<!-- Created with Inkscape (http://www.inkscape.org/) -->

<svg
   xmlns:dc="http://purl.org/dc/elements/1.1/"
   xmlns:cc="http://creativecommons.org/ns#"
   xmlns:rdf="http://www.w3.org/1999/02/22-rdf-syntax-ns#"
   xmlns:svg="http://www.w3.org/2000/svg"
   xmlns="http://www.w3.org/2000/svg"
   xmlns:sodipodi="http://sodipodi.sourceforge.net/DTD/sodipodi-0.dtd"
   xmlns:inkscape="http://www.inkscape.org/namespaces/inkscape"
   width="32"
   height="32"
   id="svg2"
   version="1.1"
   inkscape:version="0.48.5 r10040"
   sodipodi:docname="3.svg">
  <defs
     id="defs4" />
  <sodipodi:namedview
     id="base"
     pagecolor="#ffffff"
     bordercolor="#666666"
     borderopacity="1.0"
     inkscape:pageopacity="0.0"
     inkscape:pageshadow="2"
     inkscape:zoom="7.9195959"
     inkscape:cx="7.1426883"
     inkscape:cy="15.9874"
     inkscape:document-units="px"
     inkscape:current-layer="layer1"
     showgrid="false"
     inkscape:window-width="1366"
     inkscape:window-height="702"
     inkscape:window-x="0"
     inkscape:window-y="159"
     inkscape:window-maximized="1" />
  <metadata
     id="metadata7">
    <rdf:RDF>
      <cc:Work
         rdf:about="">
        <dc:format>image/svg+xml</dc:format>
        <dc:type
           rdf:resource="http://purl.org/dc/dcmitype/StillImage" />
        <dc:title></dc:title>
      </cc:Work>
    </rdf:RDF>
  </metadata>
  <g
     inkscape:label="Layer 1"
     inkscape:groupmode="layer"
     id="layer1"
     transform="translate(0,-1020.3622)">
    <g
       id="g3650"
       transform="matrix(0.08257419,0,0,0.08257419,12.924163,951.72681)">
      <path
         d="m -19.68215,987.65821 c 7.26125,0 14.04375,1.7512 21.90875,5.1025 4.755,2.0275 9.53125,4.4562 13.06,8.36869 2.56125,0.095 20.8175,1.0063 20.8175,1.0063 0.0675,0 0.13125,0.014 0.19875,0.016 11.965,-29.87499 36.45125,-57.74369 49.5075,-83.22249 -6.88625,-18.9475 -33.30375,-30.045 -55.82375,-30.045 -6.99375,0 -13.61,1.07 -19.15,3.3062 -3.18875,1.2888 -6.125,2.9538 -8.685,5.0351 -1.65499998,25.03 -4.21375,51.66 -8.24125,79.2462 -3.71875,0.93 -6.96,2.9525 -9.21625,5.745 -2.19875,-11.8925 -8.655,-23.765 -11.1425,-35.6237 5.285,-4.3938 8.19125,-16.3663 6.225,-29.2463 2.5275,-1.3875 9.24,-2.3625 11.86625,-2.925 l 0,-23.1475 c -12.7025,1.2413 -36.59875,11.2613 -45.80875,29.6825 6.43625,21.3663 23.33,41.935 29.3,66.99 1.7675,-0.1925 3.48875,-0.2887 5.18375,-0.2887 z m 32.94,-60.8788 c 7.11875,-1.9712 13.0975,-4.6637 15.9625,-17.3775 7.71375,0 16.57375,1.2675 22.75375,6.2913 -4.07625,12.3775 -1.1425,17.5325 3.955,22.8862 -6.49,16.2963 -18.82625,32.6788 -24.6875,49.1663 -0.70875,-11.5313 -6.92625,-16.1113 -13.5,-16.1113 -5.44625,0 -11.135,3.1438 -14.13625,8.085 3.5425,-17.5725 6.78125,-35.2 9.6525,-52.94"
         style="fill:#2a394c;fill-opacity:1;fill-rule:nonzero;stroke:none"
         id="path108"
         inkscape:connector-curvature="0" />
      <path
         d="m 152.7316,1011.0094 c -28.13,-10.425 -59.59125,4.4863 -68.73875,29.1725 -3.0525,8.2363 -3.87875,18.26 -2.5825,28.35 0.63375,4.9313 0.35875,9.8663 -0.79375,14.7025 l -8.4225,35.3513 c -0.98375,4.1315 1.27,8.3453 5.25125,9.82 l 7.9275,2.938 0.13125,0.048 c -0.3675,0.5126 -0.70625,1.0527 -1.01125,1.6176 -0.8375,1.5504 -1.3875,3.1997 -1.6425,4.8657 -2.21,0.3233 -4.23375,1.1207 -5.935,2.273 -2.255,-1.5268 -5.07375,-2.4463 -8.13875,-2.4463 -3.065,0 -5.88375,0.9195 -8.1375,2.4463 -2.255,-1.5268 -5.07375,-2.4463 -8.13875,-2.4463 -3.065,0 -5.8825,0.9195 -8.1375,2.4463 -2.255,-1.5268 -5.0725,-2.4463 -8.13875,-2.4463 -3.065,0 -5.8825,0.9195 -8.1375,2.4463 -2.255,-1.5268 -5.0725,-2.4463 -8.1375,-2.4463 -3.065,0 -5.88375,0.9195 -8.13875,2.4463 -2.25375,-1.5268 -5.0725,-2.4463 -8.1375,-2.4463 -3.06499998,0 -5.88375,0.9195 -8.13875,2.4463 -2.25375,-1.5268 -5.0725,-2.4463 -8.1375,-2.4463 -3.065,0 -5.8825,0.9195 -8.1375,2.4463 -2.255,-1.5268 -5.07375,-2.4463 -8.13875,-2.4463 -3.065,0 -5.88375,0.9195 -8.1375,2.4463 -2.255,-1.5268 -5.0725,-2.4463 -8.1375,-2.4463 -3.065,0 -5.88375,0.919 -8.13875,2.4463 -2.25375,-1.5273 -5.0725,-2.4463 -8.138,-2.4463 -3.064875,0 -5.88325,0.9195 -8.137625,2.4463 -2.254375,-1.5268 -5.07275,-2.4463 -8.13775,-2.4463 -1.63175,0 -3.189375,0.2705 -4.63575,0.7422 l 0,-6.7832 4.462875,0 0,-26.6504 c 20.60625,16.4659 40.5275,18.812 59.045,18.812 8.40375,0 17.1575,-0.561 26.4575,-1.1576 l 4.81625,-0.3063 c 7.46375,-0.4667 13.7575,-4.5706 16.835,-10.9806 2.285,-4.76 2.41125,-9.93 0.4275,-13.9425 5.8375,-3.88 7.97125,-8.845 8.72,-12.4563 1.065,-5.1425 -0.10875,-10.1737 -1.94625,-13.4975 3.30875,-2.4887 5.55875,-6.0637 6.54875,-10.4387 1.23875,-5.4613 0.285,-11.7163 -2.48125,-16.7288 6.4425,-4.9787 8.4175,-15.0975 6.50125,-22.6412 -1.77875,-6.9988 -6.61,-11.3113 -12.89625,-11.5338 l -18.225,-0.9375 -0.19375,0 0.49625,9.3088 17.55375,0.9037 c 3.2125,0.115 4.52625,3.8375 4.685,7.285 0.22625,4.9463 -1.8675,10.5825 -5.6475,11.16 l -15.06375,0 c -0.16875,0 -0.32875,0.033 -0.4925,0.05 l 0.4925,9.2288 13.5475,0 c 2.2425,2.6987 3.7525,8.0225 2.5575,12.3487 -0.9025,3.2738 -3.13375,5.3762 -6.6325,6.25 -0.28125,0.071 -0.56,0.1725 -0.835,0.3025 l -17.48875,1.6175 c 0.1575,-1.2312 0.1725,-2.8462 0.1725,-5.1312 0,-8.8025 -0.7,-23.9113 -1.3575,-35.115 -0.0888,-1.5625 -0.1475,-2.9925 -0.20125,-4.3088 -0.4525,-11.1212 -1.29625,-16.735 -15.475,-22.7775 -7.85375,-3.34749 -14.435,-5.57619 -21.025,-5.57619 -12.34875,0 -23.5175,7.38499 -48.895,26.75749 l 0,-7.9663 -19.75525,0 0,9.585 -11.8555,0 c -2.55762,0 -4.63925,2.0813 -4.63925,4.64 0,2.5575 2.08163,4.6388 4.63925,4.6388 l 11.8555,0 0,61.4662 -11.10012,0 c -2.55763,0 -4.63925,2.0813 -4.63925,4.64 0,2.5588 2.08162,4.6388 4.63925,4.6388 l 11.10012,0 0,28.5166 4.462875,0 0,12.8135 c 0,1.6982 0.866125,3.1924 2.179125,4.0704 -0.022,0.2733 -0.04787,0.5463 -0.04787,0.8246 0,6.4331 5.9815,11.6665 13.334,11.6665 3.065,0 5.883375,-0.9189 8.13775,-2.4458 2.254375,1.5269 5.07275,2.4458 8.137625,2.4458 3.0655,0 5.88425,-0.9189 8.138,-2.4458 2.255,1.5269 5.07375,2.4458 8.13875,2.4458 3.065,0 5.8825,-0.9189 8.1375,-2.4458 2.25375,1.5269 5.0725,2.4458 8.1375,2.4458 3.065,0 5.88375,-0.9189 8.13875,-2.4458 2.255,1.5269 5.0725,2.4458 8.137505,2.4458 3.065,0 5.88375,-0.9189 8.1375,-2.4458 2.255,1.5269 5.07375002,2.4458 8.13875,2.4458 3.065,0 5.88375,-0.9189 8.1375,-2.4458 2.25499,1.5269 5.07374,2.4458 8.13874,2.4458 3.065,0 5.8825,-0.9189 8.1375,-2.4458 2.255,1.5269 5.0725,2.4458 8.1375,2.4458 3.06625,0 5.88375,-0.9189 8.13875,-2.4458 2.255,1.5269 5.0725,2.4458 8.1375,2.4458 3.065,0 5.88375,-0.9189 8.13875,-2.4458 2.25375,1.5269 5.0725,2.4458 8.1375,2.4458 3.065,0 5.88375,-0.9189 8.13875,-2.4458 2.25375,1.5269 5.0725,2.4458 8.1375,2.4458 6.94,0 12.6525,-4.6655 13.27125,-10.6001 2.73125,-1.2402 5.1425,-3.4584 6.69625,-6.3334 0.8525,-1.5768 1.38625,-3.23 1.63375,-4.8726 l 5.52625,2.0478 7.88375,2.9219 c 3.4075,1.2631 7.24625,0.1904 9.5025,-2.6606 4.6525,-5.8814 12.5575,-15.8878 17.61375,-22.4044 2.99875,-3.8652 6.63625,-7.0815 10.8225,-9.6065 12.8775,-7.7637 23.40375,-19.5812 27.85625,-31.5962 9.1475,-24.685 -4.9975,-56.4975 -33.1275,-66.9225 z m -131.0075,93.6438 c -0.455,2.9362 -3.04375,8.0187 -9.86625,8.445 l -4.82875,0.3062 c -6.51249998,0.4188 -13.24375,0.8513 -19.5275,1.0438 -0.42375,-0.1238 -0.855,-0.1875 -1.2825,-0.1875 -1.975,0 -3.23,-1.1288 -3.73125,-3.355 -0.75,-3.3388 0.68,-7.3025 2.33125,-8.085 0.63875,-0.3013 0.97875,-0.3263 3.44875,-0.4375 l 32.61375,-1.565 c 0.765,0.5175 1.11625,2.0612 0.8425,3.835 z m 6.08625,-29.43 c 0.9975,1.17 2.19375,4.3 1.59375,7.7737 -0.5125,2.9688 -2.4775,6.8488 -8.90875,8.5513 l -32.96,1.5875 c -4.31875,-0.02 -6.71875,-3.17 -6.855,-6.2713 -0.1475,-3.345 2.31875,-7.4962 9.7525,-8.185 l 37.3775,-3.4562 z m -103.4145,-43.7825 c 25.9545,-19.8938 36.71575,-27.4125 46.8245,-27.4125 4.92,0 9.835,1.6975 17.18375,4.8275 9.41,4.0137 9.45875,5.2212 9.84,14.6187 0.055,1.3663 0.115,2.8513 0.21,4.475 0.64875002,11.045 1.34000002,25.9275 1.34000002,34.5725 0,0.8113 -0.006,1.47 -0.015,2.0063 -0.86375002,-0.069 -2.30375002,-0.3575 -4.63375002,-1.2213 -9.15625,-3.3975 -10.39125,-8.8787 -10.39125,-13.7912 0,-1.9625 0.23625,-3.9675 0.45,-5.7863 0.5,-4.235 1.07,-9.0362 -2.995,-11.38 -2.50625,-1.4475 -4.965,-1.7337 -7.145,-0.8512 -3.81875,1.555 -4.96125,5.6225 -6.285,10.3337 -2.08125,7.4188 -4.44,15.8288 -15.31375,18.255 -1.20875,0.2688 -2.2425,0.9925 -2.90625,2.0375 -0.66375,1.0463 -0.88125,2.29 -0.61,3.5013 0.46875,2.1025 2.37125,3.6287 4.525,3.6287 0.34125,0 0.6825,-0.037 1.0125,-0.1112 12.01125,-2.6813 17.2675,-10.88 20.03375,-17.9725 0.44375,8.2262 4.25625,14.4262 11.36625,18.505 -6.34375,0.3 -12.24625,4.9337 -14.4375,11.3825 -2.05125,6.0387 -0.47625,12.16 4.205,16.7025 -2.68,3.5175 -5.02875,10.4037 -2.8275,16.63 -20.33875,-0.9925 -34.7565,-6.71 -49.1925,-19.3725 -0.708,-0.6213 -1.5865,-0.9913 -2.51375,-1.1025 l 0,-61.5625 c 0.82325,-0.099 1.61775,-0.4063 2.2755,-0.9125 z m 164.082,73.5025 c 0.90625,-2.4438 3.09375,-4.01 5.515,-4.2875 l 1.99375,-5.3788 c 0.36625,-0.9887 1.92125,-1.325 3.47,-0.75 1.54875,0.575 2.51,1.8425 2.14375,2.8313 l -1.99125,5.3775 c 1.65625,1.7875 2.29375,4.4037 1.39,6.8462 -1.2825,3.4575 -5.12625,5.2213 -8.58125,3.94 -3.45625,-1.28 -5.22125,-5.1237 -3.94,-8.5787 z m -173.268625,44.4263 c 0,-0.2436 0.03037,-0.4823 0.07325,-0.7187 1.17,-0.707 2.022,-1.8779 2.28375,-3.2685 1.264625,-0.8809 2.92775,-1.4303 4.727,-1.4303 1.453125,0 2.820375,0.357 3.9595,0.958 -0.652875,1.375 -1.017125,2.8804 -1.017125,4.4595 0,1.5792 0.36425,3.0845 1.016625,4.459 -1.138625,0.6012 -2.505875,0.9575 -3.959,0.9575 -3.83975,0 -7.084,-2.4803 -7.084,-5.4165 z m 19.4,4.459 c 0.65275,-1.3745 1.017,-2.8798 1.017,-4.459 0,-1.5791 -0.36425,-3.0845 -1.017,-4.4595 1.138625,-0.601 2.505875,-0.958 3.959375,-0.958 1.453625,0 2.820875,0.3565 3.95925,0.958 -0.6525,1.375 -1.01625,2.8804 -1.01625,4.4595 0,1.5792 0.36375,3.0845 1.01625,4.459 -1.138875,0.6012 -2.506125,0.9575 -3.95925,0.9575 -1.453125,0 -2.82025,-0.3563 -3.959375,-0.9575 z m 16.276125,0 c 0.6525,-1.3745 1.0175,-2.8798 1.0175,-4.459 0,-1.5791 -0.365,-3.0845 -1.0175,-4.4595 1.13875,-0.6015 2.50625,-0.958 3.96,-0.958 1.45375,0 2.82,0.357 3.95875,0.958 -0.6525,1.375 -1.01625,2.8804 -1.01625,4.4595 0,1.5792 0.36375,3.0845 1.01625,4.459 -1.13875,0.6012 -2.50625,0.9575 -3.95875,0.9575 -1.45375,0 -2.82125,-0.3563 -3.96,-0.9575 z m 16.27625,0 c 0.6525,-1.3745 1.01625,-2.8798 1.01625,-4.459 0,-1.5791 -0.36375,-3.0845 -1.0175,-4.4595 1.14,-0.601 2.50625,-0.958 3.96,-0.958 1.45375,0 2.82125,0.357 3.96,0.958 -0.6525,1.375 -1.01625,2.8804 -1.01625,4.4595 0,1.5792 0.36375,3.084 1.01625,4.459 -1.13875,0.6012 -2.50625,0.9575 -3.96,0.9575 -1.4525,0 -2.82,-0.3563 -3.95875,-0.9575 z m 16.27625,0 c 0.6525,-1.3745 1.01625,-2.8798 1.01625,-4.459 0,-1.5791 -0.36375,-3.0845 -1.01625,-4.4595 1.13875,-0.601 2.505,-0.958 3.95875,-0.958 1.45375,0 2.82125,0.357 3.96,0.958 -0.6525,1.375 -1.0175,2.8804 -1.0175,4.4595 0,1.5792 0.36375,3.0845 1.0175,4.459 -1.14,0.6012 -2.50625,0.9575 -3.96,0.9575 -1.4525,0 -2.82,-0.3563 -3.95875,-0.9575 z m 16.27500002,0 c 0.6525,-1.3745 1.0175,-2.8798 1.0175,-4.459 0,-1.5791 -0.365,-3.0845 -1.0175,-4.4595 1.13875,-0.601 2.50624998,-0.958 3.95999998,-0.958 1.45375,0 2.82,0.357 3.96,0.958 -0.6525,1.375 -1.0175,2.8804 -1.0175,4.4595 0,1.5792 0.365,3.084 1.01625,4.459 -1.13875,0.6012 -2.50625,0.9575 -3.95875,0.9575 -1.45375,0 -2.81999998,-0.3563 -3.95999998,-0.9575 z m 16.27624998,0 c 0.6525,-1.3745 1.0175,-2.8798 1.0175,-4.459 0,-1.5791 -0.365,-3.0845 -1.0175,-4.4595 1.13875,-0.601 2.50625,-0.958 3.96,-0.958 1.4525,0 2.82,0.357 3.96,0.958 -0.65375,1.375 -1.0175,2.8804 -1.0175,4.4595 0,1.5792 0.36375,3.0845 1.01625,4.459 -1.13875,0.6012 -2.50625,0.9575 -3.95875,0.9575 -1.45375,0 -2.82125,-0.3563 -3.96,-0.9575 z m 16.27625,0 c 0.6525,-1.3745 1.01625,-2.8798 1.01625,-4.459 0,-1.5791 -0.36375,-3.0845 -1.01625,-4.4595 1.13875,-0.601 2.505,-0.958 3.95875,-0.958 1.45375,0 2.82125,0.357 3.96,0.958 -0.6525,1.375 -1.01625,2.8804 -1.01625,4.4595 0,1.5792 0.36375,3.084 1.01625,4.459 -1.13875,0.6012 -2.50625,0.9575 -3.96,0.9575 -1.45375,0 -2.82,-0.3563 -3.95875,-0.9575 z m 16.27625,0 c 0.6525,-1.3745 1.01625,-2.8798 1.01625,-4.459 0,-1.5791 -0.36375,-3.0845 -1.0175,-4.4595 1.14,-0.601 2.50625,-0.958 3.96,-0.958 1.45375,0 2.82125,0.357 3.96,0.958 -0.6525,1.375 -1.0175,2.8804 -1.0175,4.4595 0,1.5792 0.365,3.0845 1.0175,4.459 -1.13875,0.6012 -2.50625,0.9575 -3.96,0.9575 -1.45375,0 -2.82,-0.3563 -3.95875,-0.9575 z m 16.275,0 c 0.6525,-1.375 1.0175,-2.8798 1.0175,-4.459 0,-1.5791 -0.365,-3.0845 -1.0175,-4.4595 1.13875,-0.601 2.50625,-0.958 3.96,-0.958 1.45375,0 2.82125,0.357 3.96,0.958 -0.6525,1.375 -1.0175,2.8804 -1.0175,4.4595 0,1.5792 0.365,3.0845 1.0175,4.459 -1.13875,0.6012 -2.50625,0.9575 -3.96,0.9575 -1.45375,0 -2.82,-0.3563 -3.96,-0.9575 z m 20.23625,0.9575 c -1.45375,0 -2.82125,-0.3563 -3.96,-0.9575 0.6525,-1.3745 1.0175,-2.8798 1.0175,-4.459 0,-1.5791 -0.365,-3.0845 -1.0175,-4.4595 0.68,-0.3588 1.44375,-0.6253 2.2575,-0.7856 0.89875,2.6983 2.655,4.8589 5.0675,6.1621 1.005,0.5435 2.0775,0.8932 3.1925,1.083 -1.065,1.9795 -3.6375,3.4165 -6.5575,3.4165 z m 14.46875,-13.6547 c -0.6625,1.2275 -1.57125,2.2377 -2.595,2.9585 -1.5975,-2.7388 -4.38625,-4.856 -7.77375,-5.8169 0.17375,-0.7764 0.4375,-1.5504 0.83875,-2.292 0.475,-0.8799 1.08,-1.6421 1.75875,-2.274 l 6.07875,2.2525 2.74375,1.0166 c 0.0188,1.3403 -0.31125,2.7857 -1.05125,4.1553 z m 70.04125,-69.2381 c -6.63125,17.8962 -28.01625,26.4725 -47.76125,19.1525 -19.7475,-7.3175 -30.38,-27.7575 -23.74875,-45.655 6.6325,-17.8975 28.0175,-26.47 47.765,-19.1525 19.74875,7.3175 30.3775,27.7587 23.745,45.655"
         style="fill:#2a394c;fill-opacity:1;fill-rule:nonzero;stroke:none"
         id="path110"
         inkscape:connector-curvature="0" />
    </g>
  </g>
</svg>
