<?xml version="1.0" encoding="UTF-8" standalone="no"?>
<!-- Created with Inkscape (http://www.inkscape.org/) -->

<svg
   xmlns:dc="http://purl.org/dc/elements/1.1/"
   xmlns:cc="http://creativecommons.org/ns#"
   xmlns:rdf="http://www.w3.org/1999/02/22-rdf-syntax-ns#"
   xmlns:svg="http://www.w3.org/2000/svg"
   xmlns="http://www.w3.org/2000/svg"
   xmlns:sodipodi="http://sodipodi.sourceforge.net/DTD/sodipodi-0.dtd"
   xmlns:inkscape="http://www.inkscape.org/namespaces/inkscape"
   width="32"
   height="32"
   id="svg2"
   version="1.1"
   inkscape:version="0.48.5 r10040"
   sodipodi:docname="4.svg">
  <defs
     id="defs4" />
  <sodipodi:namedview
     id="base"
     pagecolor="#ffffff"
     bordercolor="#666666"
     borderopacity="1.0"
     inkscape:pageopacity="0.0"
     inkscape:pageshadow="2"
     inkscape:zoom="7.9195959"
     inkscape:cx="7.1426883"
     inkscape:cy="15.9874"
     inkscape:document-units="px"
     inkscape:current-layer="layer1"
     showgrid="false"
     inkscape:window-width="1366"
     inkscape:window-height="702"
     inkscape:window-x="0"
     inkscape:window-y="159"
     inkscape:window-maximized="1" />
  <metadata
     id="metadata7">
    <rdf:RDF>
      <cc:Work
         rdf:about="">
        <dc:format>image/svg+xml</dc:format>
        <dc:type
           rdf:resource="http://purl.org/dc/dcmitype/StillImage" />
        <dc:title></dc:title>
      </cc:Work>
    </rdf:RDF>
  </metadata>
  <g
     inkscape:label="Layer 1"
     inkscape:groupmode="layer"
     id="layer1"
     transform="translate(0,-1020.3622)">
    <g
       id="g3705"
       transform="matrix(0.09149542,0,0,0.09149542,12.672724,942.70997)">
      <path
         d="m 166.41241,1051.7 -123.058752,-82.44749 16.62875,-24.8187 c 4.25875,1.8575 7.07875,2.5112 7.7,1.5862 l 8.66875,-12.9387 c 1.52125,-2.27 -10.805,-13.1963 -27.52875,-24.4013 -16.725,-11.2062 -31.5175,-18.4487 -33.0375,-16.1775 l -8.6700001,12.9388 c -0.62,0.925 1.06,3.2875 4.3962501,6.5175 l -49.315001,73.605 c -4.2575,-1.8563 -7.08,-2.5113 -7.7,-1.585 l -8.6675,12.935 c 0,0 -0.0025,0 -0.0025,0 -1.52125,2.2712 10.805,13.19749 27.53125,24.40249 16.7262499,11.205 31.5175009,18.4487 33.0350009,16.1762 0.004,0 0.004,0 0.004,0 l 8.6700001,-12.9362 c 0.6175,-0.925 -1.06125,-3.2875 -4.39875,-6.5175 l 16.6275,-24.81999 123.061252,82.44869 c 15.92625,10.6713 31.98625,-13.2975 16.05625,-23.9687"
         style="fill:#2a394c;fill-opacity:1;fill-rule:nonzero;stroke:none"
         id="path46"
         inkscape:connector-curvature="0" />
      <path
         d="m -90.587593,1038.6038 43.565,6.25 -43.565,6.25 c -3.45125,0.4962 -6.6525,-1.9013 -7.14625,-5.3538 -0.495,-3.4512 1.9,-6.65 5.3525,-7.1462 0.6,-0.085 1.2225,-0.079 1.79375,0"
         style="fill:#2a394c;fill-opacity:1;fill-rule:nonzero;stroke:none"
         id="path48"
         inkscape:connector-curvature="0" />
      <path
         d="m -90.357593,1001.63 47.36,33.17 -53.3825,-22.2162 c -3.205,-1.3338 -4.723747,-5.0138 -3.38875,-8.2188 1.335,-3.2062 5.01375,-4.72249 8.22,-3.39 0.41875,0.1738 0.8325,0.4088 1.19125,0.655"
         style="fill:#2a394c;fill-opacity:1;fill-rule:nonzero;stroke:none"
         id="path50"
         inkscape:connector-curvature="0" />
      <path
         d="m 52.143658,1106.9338 c 0.0263,0.029 0.0563,0.055 0.0825,0.082 l 0,-7.8588 c 0.9325,-13.22 -12.17375,-23.7887 -26.12125,-29.6637 -48.191251,-20.3013 -117.390001,-0.29 -114.400001,30.0387 l 0,7.4838 c 0.0325,-0.034 0.06875,-0.066 0.10125,-0.1 -21.534997,22.6104 15.2225,48.144 70.1525,48.144 54.487501,0 91.918751,-25.3041 70.185001,-48.1265 z m -42.00875,3.755 c -3.1700001,4.9237 -11.7825011,4.7287 -15.6400011,4.7287 l 0.37625,7.5105 -25.8112499,0 0.37625,-7.5105 c -2.41625,0 -12.2275,0.5725 -15.63875,-4.7287 -1.16875,-1.815 -0.77875,-2.4513 0.14625,-10.2088 l 20.205,0 -0.17625,5.3138 15.975,0 -0.335,-10.1 -22.30625,0 c -6.99375,0 -12.4425,-2.9363 -12.01875,-6.5013 l 1.2675,-10.6362 c 0.415,-3.4738 6.6025,-5.5813 12.19625,-5.5813 l 2.81125,0 0.245,-4.9087 20.3162499,0 0.24625,4.9087 c 1.7875,0 9.998751,-0.4625 13.822501,3.3725 1.33125,1.335 1.11375,1.62 1.89625,8.19 l -18.8462509,0 -0.1475,-4.425 -14.27,0 -0.29,8.7538 c 23.5624999,0 23.4337499,-0.1575 26.5325009,0.4962 3.32875,0.7025 7.9125,2.6563 8.30875,5.985 1.6100001,13.5075 1.9462501,13.4963 0.7587501,15.3413"
         style="fill:#2a394c;fill-opacity:1;fill-rule:nonzero;stroke:none"
         id="path52"
         inkscape:connector-curvature="0" />
    </g>
  </g>
</svg>
