<?xml version="1.0" encoding="UTF-8" standalone="no"?>
<!-- Created with Inkscape (http://www.inkscape.org/) -->

<svg
   xmlns:dc="http://purl.org/dc/elements/1.1/"
   xmlns:cc="http://creativecommons.org/ns#"
   xmlns:rdf="http://www.w3.org/1999/02/22-rdf-syntax-ns#"
   xmlns:svg="http://www.w3.org/2000/svg"
   xmlns="http://www.w3.org/2000/svg"
   xmlns:sodipodi="http://sodipodi.sourceforge.net/DTD/sodipodi-0.dtd"
   xmlns:inkscape="http://www.inkscape.org/namespaces/inkscape"
   width="32"
   height="32"
   id="svg2"
   version="1.1"
   inkscape:version="0.48.5 r10040"
   sodipodi:docname="5.svg">
  <defs
     id="defs4" />
  <sodipodi:namedview
     id="base"
     pagecolor="#ffffff"
     bordercolor="#666666"
     borderopacity="1.0"
     inkscape:pageopacity="0.0"
     inkscape:pageshadow="2"
     inkscape:zoom="7.9195959"
     inkscape:cx="7.1426883"
     inkscape:cy="15.9874"
     inkscape:document-units="px"
     inkscape:current-layer="layer1"
     showgrid="false"
     inkscape:window-width="1366"
     inkscape:window-height="702"
     inkscape:window-x="0"
     inkscape:window-y="159"
     inkscape:window-maximized="1" />
  <metadata
     id="metadata7">
    <rdf:RDF>
      <cc:Work
         rdf:about="">
        <dc:format>image/svg+xml</dc:format>
        <dc:type
           rdf:resource="http://purl.org/dc/dcmitype/StillImage" />
        <dc:title></dc:title>
      </cc:Work>
    </rdf:RDF>
  </metadata>
  <g
     inkscape:label="Layer 1"
     inkscape:groupmode="layer"
     id="layer1"
     transform="translate(0,-1020.3622)">
    <g
       id="g3739"
       transform="matrix(0.08437537,0,0,0.08437537,12.75053,950.3814)">
      <path
         d="m 158.21832,1044.7705 c -6.54,18.7225 -13.46875,36.7437 -20.69625,54.06 -9.11875,-9.2463 -19.0825,-19.6263 -29.67625,-31.19 -11.243754,21.6 -22.810004,41.875 -34.446254,60.875 -11.30625,-14.0542 -23.0125,-29.31 -34.8875,-45.82 -11.875,16.51 -23.58125,31.7658 -34.8862501,45.82 -11.6375,-19 -23.2037499,-39.275 -34.4462499,-60.875 -10.595,11.5637 -20.55875,21.9437 -29.675,31.19 -6.49625,-15.5575 -24.495,-64.3975 -28.2775,-73.9875 l -20.849996,15.5587 1.95875,20.0725 c 28.931246,61.4793 87.982496,92.221 146.176246,92.221 58.19375,0 117.246254,-30.7417 146.176254,-92.221 l 1.95875,-20.0725 -20.895,-15.59 c -2.04,5.0075 -7.53375,19.9588 -7.53375,19.9588"
         style="fill:#2a394c;fill-opacity:1;fill-rule:nonzero;stroke:none"
         id="path96"
         inkscape:connector-curvature="0" />
      <path
         d="m 24.757066,959.73667 -1.86375,24.9225 -56.23,0 -5.2425,33.44003 -34.825,0 c 2.2475,6.8138 4.5625,13.625 6.975,20.4213 l 24.65,0 -3.79375,24.1975 61.115,0 -3.71,30.4287 26.67875,-25.4512 26.68,25.4512 -3.71125,-30.4287 61.116254,0 -3.79375,-24.1975 24.65125,0 c 2.415,-6.7963 4.73,-13.6075 6.97625,-20.4213 l -34.82875,0 -5.24125,-33.44003 -56.230004,0 -1.86375,-24.9225 c 43.0825,3.6238 84.868754,24.3038 113.168754,62.04633 l 21.225,6.8075 c -3.0975,-12.7163 -14.315,-58.57753 -20.64375,-81.96503 -8.585,6.8987 -18.04375,15.2187 -28.0975,24.9025 -9.11,-24.785 -19.09125,-48.4213 -29.72125,-70.8513 -11.280004,12.22 -22.900004,25.7875 -34.598754,40.6488 -11.3675,-19.895 -23.1425,-38.5688 -35.08625,-55.9663 -11.94375,17.3975 -23.71875,36.0713 -35.0862501,55.9663 -11.6975,-14.8613 -23.3174999,-28.4288 -34.5974999,-40.6488 -10.63125,22.43 -20.61125,46.0663 -29.7225,70.8513 -10.05375,-9.6838 -19.5125,-18.0038 -28.0975,-24.9025 -6.3275,23.3875 -17.544996,69.24753 -20.643746,81.96503 l 21.226246,-6.8075 c 28.29875,-37.74253 70.085,-58.42253 113.16625,-62.04633 z m -51.90125,73.28253 3.85125,-25.1612 c 8.4425,0 15.9362499,-5.7588 16.7199999,-12.56383 l 38.8237501,0 -0.0775,4.83883 c -10.6875,0 -8.96625,5.6787 -9.39375,16.8887 -0.1025,2.695 1.73125,4.9713 4.31875,5.9425 1.81,0.68 1.7525,0.5163 15.865,0.5163 l 0.10375,9.7062 -9.11125,0 0.0538,-5.0562 -11.65375,0 c -0.26375,6.9512 -0.9325,9.2812 1.81625,11.8762 2.495,2.3575 5.33,2.0875 7.33,2.0875 l -0.0975,6.0763 -44.07125,0 c 0.96995,-8.4175 -5.3863,-15.1513 -14.47755,-15.1513 z m 127.460004,-25.1612 3.85125,25.1612 c -9.042504,0 -15.453754,6.6863 -14.477504,15.1513 l -44.07125,0 -0.0975,-6.0763 c 11.6375,0 9.4225,-6.6875 8.955,-18.955 -0.10375,-2.72 -2.07,-4.9887 -4.70375,-5.9475 -1.83,-0.665 -1.8175,-0.5 -15.64125,-0.5 l 0.0962,-8.9825 8.56875,0 0.0487,4.5788 11.2175,0 c -0.25,-6.59 0.95125,-12.155 -9.2125,-12.155 l -0.0775,-4.83883 38.82375,0 c 0.78875,6.85133 8.33625,12.56383 16.720004,12.56383"
         style="fill:#2a394c;fill-opacity:1;fill-rule:nonzero;stroke:none"
         id="path98"
         inkscape:connector-curvature="0" />
    </g>
  </g>
</svg>
