<?xml version="1.0" encoding="UTF-8" standalone="no"?>
<!-- Created with Inkscape (http://www.inkscape.org/) -->

<svg
   xmlns:dc="http://purl.org/dc/elements/1.1/"
   xmlns:cc="http://creativecommons.org/ns#"
   xmlns:rdf="http://www.w3.org/1999/02/22-rdf-syntax-ns#"
   xmlns:svg="http://www.w3.org/2000/svg"
   xmlns="http://www.w3.org/2000/svg"
   xmlns:sodipodi="http://sodipodi.sourceforge.net/DTD/sodipodi-0.dtd"
   xmlns:inkscape="http://www.inkscape.org/namespaces/inkscape"
   width="32"
   height="32"
   id="svg2"
   version="1.1"
   inkscape:version="0.48.5 r10040"
   sodipodi:docname="6.svg">
  <defs
     id="defs4" />
  <sodipodi:namedview
     id="base"
     pagecolor="#ffffff"
     bordercolor="#666666"
     borderopacity="1.0"
     inkscape:pageopacity="0.0"
     inkscape:pageshadow="2"
     inkscape:zoom="7.9195959"
     inkscape:cx="7.1426883"
     inkscape:cy="15.9874"
     inkscape:document-units="px"
     inkscape:current-layer="layer1"
     showgrid="false"
     inkscape:window-width="1366"
     inkscape:window-height="702"
     inkscape:window-x="0"
     inkscape:window-y="159"
     inkscape:window-maximized="1" />
  <metadata
     id="metadata7">
    <rdf:RDF>
      <cc:Work
         rdf:about="">
        <dc:format>image/svg+xml</dc:format>
        <dc:type
           rdf:resource="http://purl.org/dc/dcmitype/StillImage" />
        <dc:title></dc:title>
      </cc:Work>
    </rdf:RDF>
  </metadata>
  <g
     inkscape:label="Layer 1"
     inkscape:groupmode="layer"
     id="layer1"
     transform="translate(0,-1020.3622)">
    <g
       id="g3796"
       transform="matrix(0.08382313,0,0,0.08382313,14.793393,951.00766)">
      <path
         d="m -102.6294,1167.3931 191.668749,0 c 8.04625,0 14.570001,-6.5237 14.570001,-14.57 l 0,-8.5125 -27.372501,-27.3737 0,27.5062 -166.06375,0 0,-236.12254 -12.802499,0 c -8.04625,0 -14.57,6.5238 -14.57,14.57 l 0,229.93254 c 0,8.0463 6.52375,14.57 14.57,14.57"
         style="fill:#365568;fill-opacity:1;fill-rule:nonzero;stroke:none"
         id="path214"
         inkscape:connector-curvature="0" />
      <path
         d="m 103.60935,1027.3419 0,-104.45134 c 0,-8.0462 -6.523751,-14.57 -14.570001,-14.57 l -12.8025,0 0,89.945 c 5.3,2.91004 10.22375,6.58134 14.61625,10.97634 5.3425,5.3425 9.628751,11.4612 12.756251,18.1"
         style="fill:#365568;fill-opacity:1;fill-rule:nonzero;stroke:none"
         id="path216"
         inkscape:connector-curvature="0" />
      <path
         d="m -64.169401,940.18186 114.7475,0 c 6.76375,0 12.2475,-5.4825 12.2475,-12.2463 l 0,-20.3825 c 0,-19.0487 -20.60375,-5.0762 -31.01625,-23.085 -11.80625,-20.425 -65.39875,-20.4337 -77.20875,0 -10.31375,17.8388 -31.01625,4.115 -31.01625,23.085 l 0,20.3825 c 0,6.7638 5.48375,12.2463 12.24625,12.2463 z m 57.37375,-61.8975 c 7.69250005,0 13.9275,6.235 13.9275,13.9262 0,7.6925 -6.23499995,13.9275 -13.9275,13.9275 -7.69125,0 -13.92625,-6.235 -13.92625,-13.9275 0,-7.6912 6.235,-13.9262 13.92625,-13.9262"
         style="fill:#365568;fill-opacity:1;fill-rule:nonzero;stroke:none"
         id="path218"
         inkscape:connector-curvature="0" />
      <path
         d="m -58.865651,977.32686 104.14262,0 0,-6.667 -104.14262,0 0,6.667 z"
         style="fill:#365568;fill-opacity:1;fill-rule:nonzero;stroke:none"
         id="path220"
         inkscape:connector-curvature="0" />
      <path
         d="m -58.865651,1000.2431 0,6.6663 61.1425,0 c 2.76625,-2.4963 5.72125,-4.7125 8.81875,-6.6663 l -69.96125,0"
         style="fill:#365568;fill-opacity:1;fill-rule:nonzero;stroke:none"
         id="path222"
         inkscape:connector-curvature="0" />
      <path
         d="m -58.865651,1029.8269 0,6.6662 42.4575,0 c 0.6675,-2.2675 1.4575,-4.4925 2.37125,-6.6662 l -44.82875,0"
         style="fill:#365568;fill-opacity:1;fill-rule:nonzero;stroke:none"
         id="path224"
         inkscape:connector-curvature="0" />
      <path
         d="m -58.865651,1059.4094 0,6.6675 40.84,0 c -0.3875,-2.1963 -0.66125,-4.42 -0.82125,-6.6675 l -40.01875,0"
         style="fill:#365568;fill-opacity:1;fill-rule:nonzero;stroke:none"
         id="path226"
         inkscape:connector-curvature="0" />
      <path
         d="m -58.865651,1088.9931 0,6.6663 54.50375,0 c -1.75875,-2.1275 -3.35375,-4.3588 -4.81,-6.6663 l -49.69375,0"
         style="fill:#365568;fill-opacity:1;fill-rule:nonzero;stroke:none"
         id="path228"
         inkscape:connector-curvature="0" />
      <path
         d="m 74.573099,1097.5956 56.831251,56.8313 c 0.67875,0.68 1.54375,0.9787 2.51125,0.9787 5.74375,0 15.13,-10.5487 11.095,-14.5837 l -56.830001,-56.83 c 5.86,-8.5513 9.0225,-18.6525 9.02125,-29.2438 -10e-4,-13.8525 -5.39625,-26.8762 -15.1875,-36.6662 -9.795,-9.8025 -22.81875,-15.2013 -36.675,-15.2013 -13.84375,0 -26.8575,5.3875 -36.65125,15.17 l -0.0288,0.028 -0.03,0.03 -0.0288,0.03 c -9.76125,9.7913 -15.13375,22.795 -15.13125,36.6138 -10e-4,13.8525 5.39375,26.8762 15.19125,36.675 9.78625,9.785 22.8125,15.1725 36.67875,15.1725 10.59375,0 20.69125,-3.155 29.23375,-9.0038 z m -56.19625,-15.885 c -7.2,-7.2012 -11.1675,-16.775 -11.16625,-26.9575 -0.002,-10.1625 3.94625,-19.7162 11.12125,-26.9137 l 0.0475,-0.046 c 7.2,-7.2025 16.77625,-11.17 26.96125,-11.1713 10.1825,0 19.75375,3.9675 26.95375,11.1725 7.19875,7.1988 11.165,16.7688 11.16625,26.9538 0.001,10.1862 -3.96375,19.7612 -11.16375,26.9625 -7.18875,7.1887 -16.7625,11.1475 -26.9575,11.1475 -10.19625,0 -19.7725,-3.9588 -26.9625,-11.1475"
         style="fill:#365568;fill-opacity:1;fill-rule:nonzero;stroke:none"
         id="path230"
         inkscape:connector-curvature="0" />
      <path
         d="m 38.586849,1078.6569 31.43375,-31.455 -7.83,-7.8288 -23.60625,23.605 -11.7825,-11.7825 -7.82875,7.8275 19.61375,19.6338"
         style="fill:#365568;fill-opacity:1;fill-rule:nonzero;stroke:none"
         id="path232"
         inkscape:connector-curvature="0" />
    </g>
  </g>
</svg>
