<?xml version="1.0" encoding="UTF-8" standalone="no"?>
<!-- Created with Inkscape (http://www.inkscape.org/) -->

<svg
   xmlns:dc="http://purl.org/dc/elements/1.1/"
   xmlns:cc="http://creativecommons.org/ns#"
   xmlns:rdf="http://www.w3.org/1999/02/22-rdf-syntax-ns#"
   xmlns:svg="http://www.w3.org/2000/svg"
   xmlns="http://www.w3.org/2000/svg"
   xmlns:sodipodi="http://sodipodi.sourceforge.net/DTD/sodipodi-0.dtd"
   xmlns:inkscape="http://www.inkscape.org/namespaces/inkscape"
   width="32"
   height="32"
   id="svg2"
   version="1.1"
   inkscape:version="0.48.5 r10040"
   sodipodi:docname="7.svg">
  <defs
     id="defs4" />
  <sodipodi:namedview
     id="base"
     pagecolor="#ffffff"
     bordercolor="#666666"
     borderopacity="1.0"
     inkscape:pageopacity="0.0"
     inkscape:pageshadow="2"
     inkscape:zoom="7.9195959"
     inkscape:cx="7.1426883"
     inkscape:cy="15.9874"
     inkscape:document-units="px"
     inkscape:current-layer="layer1"
     showgrid="false"
     inkscape:window-width="1366"
     inkscape:window-height="702"
     inkscape:window-x="0"
     inkscape:window-y="159"
     inkscape:window-maximized="1" />
  <metadata
     id="metadata7">
    <rdf:RDF>
      <cc:Work
         rdf:about="">
        <dc:format>image/svg+xml</dc:format>
        <dc:type
           rdf:resource="http://purl.org/dc/dcmitype/StillImage" />
        <dc:title></dc:title>
      </cc:Work>
    </rdf:RDF>
  </metadata>
  <g
     inkscape:label="Layer 1"
     inkscape:groupmode="layer"
     id="layer1"
     transform="translate(0,-1020.3622)">
    <g
       id="g3844"
       transform="matrix(0.08749013,0,0,0.08749013,12.718953,946.87596)">
      <path
         d="m 14.184413,955.64699 c 0.88375,-1.5225 2.5175,-2.4712 4.2675,-2.4712 1.7525,0 3.38625,0.9487 4.27,2.4712 l 2.84625,0 c 0.725,-1.2537 1.10875,-2.6762 1.10875,-4.1125 0,-4.535 -3.69125,-7.5687 -8.225,-7.5687 -4.53375,0 -8.2225,3.0337 -8.2225,7.5687 0,1.4363 0.3825,2.8588 1.1075,4.1125 l 2.8475,0"
         style="fill:#2c3e50;fill-opacity:1;fill-rule:nonzero;stroke:none"
         id="path64"
         inkscape:connector-curvature="0" />
      <path
         d="m 52.284413,955.64699 c 0.88125,-1.5225 2.5175,-2.4712 4.27,-2.4712 1.74875,0 3.38375,0.9487 4.2675,2.4712 l 2.84625,0 c 0.72625,-1.2537 1.11,-2.6762 1.11,-4.1125 0,-4.535 -3.69,-7.5687 -8.22375,-7.5687 -4.535,0 -8.225,3.0337 -8.225,7.5687 0,1.4363 0.385,2.8588 1.11,4.1125 l 2.845,0"
         style="fill:#2c3e50;fill-opacity:1;fill-rule:nonzero;stroke:none"
         id="path66"
         inkscape:connector-curvature="0" />
      <path
         d="m 37.501913,980.58829 c 3.93,0 9.51625,-4.6738 10.15875,-6.7363 0.88375,-2.84 -2.22375,-2.0262 -2.88375,-1.9612 -1.63125,1.1375 -4.36,3.0375 -7.275,3.0375 -2.915,0 -5.64375,-1.9 -7.2725,-3.0375 -0.6575,-0.065 -3.77,-0.8775 -2.88625,1.9612 0.645,2.0625 6.23375,6.7363 10.15875,6.7363"
         style="fill:#2c3e50;fill-opacity:1;fill-rule:nonzero;stroke:none"
         id="path68"
         inkscape:connector-curvature="0" />
      <path
         d="m -21.603087,970.43329 c 4.175,16.61 5.22125,32.37621 17.0275003,41.76751 16.1862497,12.8675 29.1712497,19.1925 42.0774997,19.0875 12.905,0.105 25.89125,-6.22 42.0775,-19.0875 11.80625,-9.3913 12.85375,-25.15751 17.02875,-41.76751 4.574997,-2.5538 5.861247,-9.6413 6.637497,-18.2813 0.95,-10.5937 -1.64875,-19.6962 -7.433747,-21.17 -4.32875,-22.13 -5.01125,-51.04 -40.27125,-51.04 l -36.075,0 c -34.8675,0 -35.69875,27.6338 -40.2725,51.04 -5.7825,1.4738 -8.3825,10.5763 -7.43375,21.17 0.7775,8.64 2.06375,15.7275 6.6375,18.2813 z m 6.29125,-27.95 5.255,-1.34 1.7587503,-8.985 c 3.6,-18.455 15.7325,-26.3638 30.0449997,-23.0225 9.04375,2.1137 22.50375,2.095 31.55,-0.01 14.38125,-3.3438 26.415,4.625 30.00625,23.0287 l 1.75625,8.985 5.2575,1.34 c 0.4375,1.5888 0.83625,4.535 0.47875,8.5525 -0.50375,5.6075 -1.0925,8.08 -1.475,9.1513 l -3.52125,1.965 -1.31625,5.2375 c -3.82875,15.2375 -3.85375,28.005 -12.68375,35.02751 -13.04375,10.3712 -28.84125,16.375 -34.0175,16.375 -0.0863,0 -0.185,0 -0.28,-0.01 -0.0937,0.01 -0.1925,0.01 -0.27875,0.01 -5.175,0 -20.975,-6.0038 -34.0174997,-16.375 -8.83125,-7.02251 -8.855,-19.79001 -12.68625,-35.02751 l -1.3150003,-5.2375 -3.52125,-1.965 c -0.38125,-1.0712 -0.97,-3.5437 -1.475,-9.1512 -0.35875,-4.0175 0.04125,-6.9638 0.48,-8.5525"
         style="fill:#2c3e50;fill-opacity:1;fill-rule:nonzero;stroke:none"
         id="path70"
         inkscape:connector-curvature="0" />
      <path
         d="m 51.701913,992.27949 c -5.58375,0 -6.3825,3.2125 -14.19875,3.2125 -7.81625,0 -8.61625,-3.2112 -14.1925,-3.2112 -1.465,0 -2.35625,0.2925 -2.72875,0.8925 -0.275,0.4487 -0.2375,1.025 0.10875,1.7137 1.1225,2.2238 10.335,5.63501 16.8125,5.63501 6.4775,0 15.69,-3.41121 16.8125,-5.63501 0.34875,-0.6887 0.38375,-1.265 0.1075,-1.715 -0.36875,-0.6025 -1.26125,-0.8925 -2.72125,-0.8925"
         style="fill:#2c3e50;fill-opacity:1;fill-rule:nonzero;stroke:none"
         id="path72"
         inkscape:connector-curvature="0" />
      <path
         d="m 91.820663,1023.5295 -9.43625,28.615 -15.055,-0.2262 -2.515,28.0575 -13.0225,31.4137 -4.88625,-38.445 -1.95125,-10.7087 c -0.14125,-0.7675 -0.555,-1.41 -1.1125,-1.8313 0.5675,-0.3812 0.99375,-0.965 1.145,-1.665 l 2.185,-9.985 1.01,-4.615 c 0.215,-3.9525 -21.54625,-4.14 -21.4,-0.185 l 1.05,4.8 2.1825,9.985 c 0.15125,0.7 0.58125,1.2838 1.14875,1.665 -0.56,0.42 -0.97625,1.0638 -1.115,1.8313 l -0.98,5.385 c -0.99625,-0.21 -2.0175,-0.3663 -3.0775,-0.4175 -1.85875,-0.089 -9.43125,-0.5838 -17.0437497,-1.0925 l -0.25625,-2.865 c 2.3437497,-16.5375 0.8375,-27.3813 -4.5725,-34.2063 -3.56874999,-4.5012 -8.64,-6.9825 -14.2750003,-6.9825 -1.32,0 -2.66375,0.1413 -3.99375,0.4188 -2.42,0.5062 -4.43,1.4837 -6.13125,2.7162 -25.14625,11.0438 -71.1175,12.27 -71.1175,58.7238 0,2.0312 0.42125,3.9712 1.22,5.825 0.0088,0.11 0.005,0.2187 0.015,0.3287 l 5.38375,54.0883 c 0.63375,6.3686 5.97375,11.2295 12.375,11.2622 17.705,0.09 20.965,2.0434 23.84375,3.767 6.1525,3.6841 12.29875,6.5015 30.45125,6.5015 l 0.43375,0 c 9.0587503,-0.022 15.9187503,-0.077 28.27125,-0.6235 13.7,-0.607 20.86625,-9.9966 21.8925,-19.0332 0.1525,-1.333 0.17375,-2.6474 0.075,-3.9283 3.3625,-4.1479 5.35375,-9.4375 5.47,-15.2392 0.0362,-1.7578 -0.10625,-3.4634 -0.41,-5.0879 0.2975,-0.4483 0.56625,-0.9179 0.83125,-1.3906 65.267497,-0.1074 127.949997,-11.4988 127.949997,-36.47 0,-48.6813 -50.485,-47.6938 -74.582497,-60.3863 z m -66.985,75.6763 c 4.9075,3.8 6.96625,16.9362 -3.38625,19.5247 5.88625,1.6616 6.395,16.7641 -5.04875,19.501 0.16125,0.01 0.32,0.02 0.47125,0.032 5.1025,1.4145 5.1425,13.7841 -6.83125,14.314 -11.9624997,0.5298 -18.5537497,0.5893 -27.74625,0.6113 -0.13625,0 -0.27125,0 -0.405,0 -33.74125,0 -13.73625,-10.062 -54.23125,-10.2685 l -5.3825,-54.0881 c 23.335,0 49.07875,-0.5312 60.88125,-45.7912 0.91875,-3.5225 2.34625,-7.7213 5.24875,-8.3288 0.485,-0.1012 0.96375,-0.155 1.4375,-0.155 6.3525003,0 11.1725003,9.6875 3.3637503,43.0225 0,0 28.0799997,1.9125 32.1749997,2.11 9.125,0.445 8.255,18.5313 -0.54625,19.5163"
         style="fill:#2c3e50;fill-opacity:1;fill-rule:nonzero;stroke:none"
         id="path74"
         inkscape:connector-curvature="0" />
    </g>
  </g>
</svg>
