<?xml version="1.0" encoding="UTF-8" standalone="no"?>
<!-- Generator: Adobe Illustrator 16.0.0, SVG Export Plug-In . SVG Version: 6.00 Build 0)  -->

<svg
   xmlns:dc="http://purl.org/dc/elements/1.1/"
   xmlns:cc="http://creativecommons.org/ns#"
   xmlns:rdf="http://www.w3.org/1999/02/22-rdf-syntax-ns#"
   xmlns:svg="http://www.w3.org/2000/svg"
   xmlns="http://www.w3.org/2000/svg"
   xmlns:sodipodi="http://sodipodi.sourceforge.net/DTD/sodipodi-0.dtd"
   xmlns:inkscape="http://www.inkscape.org/namespaces/inkscape"
   version="1.1"
   id="Layer_1"
   x="0px"
   y="0px"
   width="867.336"
   height="194.086"
   viewBox="0 0 867.336 194.086"
   enable-background="new 0 0 960 560"
   xml:space="preserve"
   inkscape:version="0.48.5 r10040"
   sodipodi:docname="LOGO KRONNOS1.eps.svg"><metadata
     id="metadata33"><rdf:RDF><cc:Work
         rdf:about=""><dc:format>image/svg+xml</dc:format><dc:type
           rdf:resource="http://purl.org/dc/dcmitype/StillImage" /><dc:title></dc:title></cc:Work></rdf:RDF></metadata><defs
     id="defs31" /><sodipodi:namedview
     pagecolor="#ffffff"
     bordercolor="#666666"
     borderopacity="1"
     objecttolerance="10"
     gridtolerance="10"
     guidetolerance="10"
     inkscape:pageopacity="0"
     inkscape:pageshadow="2"
     inkscape:window-width="640"
     inkscape:window-height="480"
     id="namedview29"
     showgrid="false"
     fit-margin-top="20"
     fit-margin-left="20"
     fit-margin-right="20"
     fit-margin-bottom="20"
     inkscape:zoom="0.32395833"
     inkscape:cx="434"
     inkscape:cy="98.086"
     inkscape:window-x="0"
     inkscape:window-y="159"
     inkscape:window-maximized="0"
     inkscape:current-layer="Layer_1" /><polygon
     points="278.458,338.817 256.364,338.817 256.364,221.64 278.458,221.64 278.458,271.189 322.987,221.64 350.439,221.64 350.439,222.308 350.439,222.308 298.379,278.388 354.793,337.479 354.793,338.817 327.506,338.817 278.458,286.925 "
     id="polygon3"
     style="fill:#3a3a3a"
     transform="translate(-46.000003,-184)" /><path
     d="m 337.424,72.291 1.506,9.542 c 6.361,-10.212 14.898,-11.717 23.269,-11.717 8.538,0 16.741,3.347 21.26,7.867 l -9.208,17.745 c -4.185,-3.515 -8.034,-5.356 -14.729,-5.356 -10.714,0 -20.592,5.69 -20.592,20.923 V 154.82 H 318.508 V 72.292 h 18.916 l 0,-0.001 z"
     id="path5"
     inkscape:connector-curvature="0"
     style="fill:#3a3a3a" /><path
     d="m 407.734,113.639 c 0,12.553 7.533,24.271 22.431,24.271 14.899,0 22.432,-11.719 22.432,-24.271 0,-12.388 -8.707,-24.44 -22.432,-24.44 -14.731,-0.001 -22.431,12.052 -22.431,24.44 l 0,0 z m 65.453,0 c 0,23.77 -16.237,43.021 -43.021,43.021 -26.784,0 -42.854,-19.251 -42.854,-43.021 0,-23.604 16.405,-43.023 42.688,-43.023 26.278,-0.001 43.187,19.419 43.187,43.023 l 0,0 z"
     id="path7"
     inkscape:connector-curvature="0"
     style="fill:#3a3a3a" /><path
     d="M 548.017,154.817 V 111.63 c 0,-12.556 -6.863,-22.098 -19.922,-22.098 -12.553,0 -21.091,10.547 -21.091,23.103 v 42.183 H 486.749 V 72.124 h 18.247 l 1.338,11.214 c 8.37,-8.201 16.74,-12.386 27.117,-12.386 19.421,0 34.987,14.562 34.987,40.51 v 43.355 h -20.421 l 0,0 z"
     id="path9"
     inkscape:connector-curvature="0"
     style="fill:#3a3a3a" /><path
     d="m 602.595,113.639 c 0,12.553 7.533,24.271 22.432,24.271 14.899,0 22.432,-11.719 22.432,-24.271 0,-12.388 -8.706,-24.44 -22.432,-24.44 -14.732,-0.001 -22.432,12.052 -22.432,24.44 l 0,0 z m 65.453,0 c 0,23.77 -16.238,43.021 -43.021,43.021 -26.784,0 -42.854,-19.251 -42.854,-43.021 0,-23.604 16.405,-43.023 42.688,-43.023 26.278,-0.001 43.187,19.419 43.187,43.023 l 0,0 z"
     id="path11"
     inkscape:connector-curvature="0"
     style="fill:#3a3a3a" /><path
     d="m 698.685,113.639 c 0,12.553 7.533,24.271 22.431,24.271 14.899,0 22.433,-11.719 22.433,-24.271 0,-12.388 -8.708,-24.44 -22.433,-24.44 -14.732,-0.001 -22.431,12.052 -22.431,24.44 l 0,0 z m 65.452,0 c 0,23.77 -16.237,43.021 -43.021,43.021 -26.782,0 -42.854,-19.251 -42.854,-43.021 0,-23.604 16.405,-43.023 42.685,-43.023 26.282,-0.001 43.19,19.419 43.19,43.023 l 0,0 z"
     id="path13"
     inkscape:connector-curvature="0"
     style="fill:#3a3a3a" /><path
     d="m 832.104,94.218 c -5.861,-5.523 -12.557,-7.364 -20.425,-7.364 -9.71,0 -15.065,3.012 -15.065,8.201 0,5.357 4.854,8.37 15.402,9.041 15.565,1.005 35.32,4.52 35.32,26.447 0,14.564 -11.885,27.121 -35.488,27.121 -13.059,0 -26.116,-2.177 -38.167,-14.733 l 10.043,-14.563 c 5.859,6.528 19.251,11.384 28.458,11.551 7.699,0.167 14.899,-3.851 14.899,-9.876 0,-5.69 -4.689,-8.036 -16.404,-8.705 -15.569,-1.171 -34.15,-6.864 -34.15,-25.611 0,-19.084 19.752,-25.779 34.818,-25.779 12.89,0 22.599,2.51 32.14,10.88 l -11.381,13.39 0,0 z"
     id="path15"
     inkscape:connector-curvature="0"
     style="fill:#3a3a3a" /><g
     id="g17"
     transform="translate(-46.000003,-184)"><polygon
       points="119.64,285.194 127.023,277.68 127.023,277.68 127.023,236.935 108.541,236.935 108.541,334.951 127.023,334.951 127.023,292.448 "
       id="polygon19"
       style="fill:#e6e7e8" /><polygon
       points="151.227,285.151 151.227,285.151 177.45,258.47 177.545,231.067 124.391,285.151 177.18,337.019 177.27,310.74 "
       id="polygon21"
       style="fill:#e6e7e8" /><path
       d="m 220.085,281.043 c 0,42.549 -34.493,77.043 -77.043,77.043 C 100.493,358.086 66,323.592 66,281.043 66,238.494 100.493,204 143.042,204 c 42.55,0 77.043,34.494 77.043,77.043 l 0,0 z"
       id="path23"
       inkscape:connector-curvature="0"
       style="fill:#006838" /><polygon
       points="119.64,281.194 127.023,273.68 127.023,273.68 127.023,232.935 108.541,232.935 108.541,330.951 127.023,330.951 127.023,288.448 "
       id="polygon25"
       style="fill:#ffffff" /><polygon
       points="151.227,281.151 151.227,281.151 177.45,254.47 177.545,227.067 124.391,281.151 177.18,333.019 177.27,306.74 "
       id="polygon27"
       style="fill:#ffffff" /></g></svg>