<?xml version="1.0" encoding="UTF-8" standalone="no"?>
<!-- Created with Inkscape (http://www.inkscape.org/) -->

<svg
   xmlns:dc="http://purl.org/dc/elements/1.1/"
   xmlns:cc="http://creativecommons.org/ns#"
   xmlns:rdf="http://www.w3.org/1999/02/22-rdf-syntax-ns#"
   xmlns:svg="http://www.w3.org/2000/svg"
   xmlns="http://www.w3.org/2000/svg"
   xmlns:sodipodi="http://sodipodi.sourceforge.net/DTD/sodipodi-0.dtd"
   xmlns:inkscape="http://www.inkscape.org/namespaces/inkscape"
   id="svg2"
   version="1.1"
   inkscape:version="0.48.5 r10040"
   width="856.21625"
   height="210.03062"
   xml:space="preserve"
   sodipodi:docname="icon.svg"><metadata
     id="metadata8"><rdf:RDF><cc:Work
         rdf:about=""><dc:format>image/svg+xml</dc:format><dc:type
           rdf:resource="http://purl.org/dc/dcmitype/StillImage" /><dc:title></dc:title></cc:Work></rdf:RDF></metadata><defs
     id="defs6" /><sodipodi:namedview
     pagecolor="#ffffff"
     bordercolor="#666666"
     borderopacity="1"
     objecttolerance="10"
     gridtolerance="10"
     guidetolerance="10"
     inkscape:pageopacity="0"
     inkscape:pageshadow="2"
     inkscape:window-width="1600"
     inkscape:window-height="861"
     id="namedview4"
     showgrid="false"
     fit-margin-top="30"
     fit-margin-left="30"
     fit-margin-bottom="30"
     fit-margin-right="30"
     inkscape:zoom="0.91207729"
     inkscape:cx="278.12852"
     inkscape:cy="158.55406"
     inkscape:window-x="1366"
     inkscape:window-y="0"
     inkscape:window-maximized="1"
     inkscape:current-layer="g10" /><g
     id="g10"
     inkscape:groupmode="layer"
     inkscape:label="ink_ext_XXXXXX"
     transform="matrix(0,1.25,1.25,0,212.42356,-413.38612)"><path
       inkscape:connector-curvature="0"
       id="path14"
       style="fill:#3a3a3a;fill-opacity:1;fill-rule:nonzero;stroke:none"
       d="m 355.3769,-51.86385 56.0799,-52.06 59.091,56.415 1.3383,0 0,-27.287 -51.8922,-49.048 51.8922,0 0,-22.095 -117.1772,0 0,22.095 49.5487,0 -49.5487,44.528 0,27.452 0.668,0" /><path
       inkscape:connector-curvature="0"
       id="path16"
       style="fill:#3a3a3a;fill-opacity:1;fill-rule:nonzero;stroke:none"
       d="m 389.3599,-18.87885 9.541,1.506 c -10.212,6.361 -11.717,14.898 -11.717,23.269 0,8.538 3.346,16.74 7.8667,21.26 l 17.7445,-9.208 c -3.5145,-4.185 -5.3563,-8.033 -5.3563,-14.729 0,-10.714 5.6903,-20.592 20.9231,-20.592 l 43.525,0 0,-20.423 -82.527,0 0,18.917" /><path
       inkscape:connector-curvature="0"
       id="path18"
       style="fill:#3a3a3a;fill-opacity:1;fill-rule:nonzero;stroke:none"
       d="m 430.7076,51.43215 c 12.5527,0 24.2711,7.533 24.2711,22.431 0,14.899 -11.7184,22.432 -24.2711,22.432 -12.3883,0 -24.4406,-8.707 -24.4406,-22.432 0,-14.732 12.0523,-22.431 24.4406,-22.431 z m 0,65.452 c 23.7695,0 43.0203,-16.237 43.0203,-43.021 0,-26.784 -19.2508,-42.854 -43.0203,-42.854 -23.6035,0 -43.0237,16.405 -43.0237,42.688 0,26.278 19.4202,43.187 43.0237,43.187" /><path
       inkscape:connector-curvature="0"
       id="path20"
       style="fill:#3a3a3a;fill-opacity:1;fill-rule:nonzero;stroke:none"
       d="m 471.8865,191.71315 -43.1879,0 c -12.5559,0 -22.0973,-6.862 -22.0973,-19.921 0,-12.552 10.5461,-21.091 23.102,-21.091 l 42.1832,0 0,-20.255 -82.6946,0 0,18.247 11.2149,1.338 c -8.2012,8.37 -12.3859,16.74 -12.3859,27.118 0,19.42 14.5617,34.987 40.5097,34.987 l 43.3559,0 0,-20.423" /><path
       inkscape:connector-curvature="0"
       id="path22"
       style="fill:#3a3a3a;fill-opacity:1;fill-rule:nonzero;stroke:none"
       d="m 430.7076,246.29215 c 12.5527,0 24.2711,7.533 24.2711,22.432 0,14.899 -11.7184,22.432 -24.2711,22.432 -12.3883,0 -24.4406,-8.707 -24.4406,-22.432 0,-14.732 12.0523,-22.432 24.4406,-22.432 z m 0,65.453 c 23.7695,0 43.0203,-16.238 43.0203,-43.021 0,-26.784 -19.2508,-42.854 -43.0203,-42.854 -23.6035,0 -43.0237,16.405 -43.0237,42.687 0,26.279 19.4202,43.188 43.0237,43.188" /><path
       inkscape:connector-curvature="0"
       id="path24"
       style="fill:#3a3a3a;fill-opacity:1;fill-rule:nonzero;stroke:none"
       d="m 430.7076,342.38215 c 12.5527,0 24.2711,7.533 24.2711,22.431 0,14.899 -11.7184,22.432 -24.2711,22.432 -12.3883,0 -24.4406,-8.707 -24.4406,-22.432 0,-14.732 12.0523,-22.431 24.4406,-22.431 z m 0,65.452 c 23.7695,0 43.0203,-16.237 43.0203,-43.021 0,-26.783 -19.2508,-42.854 -43.0203,-42.854 -23.6035,0 -43.0237,16.405 -43.0237,42.685 0,26.282 19.4202,43.19 43.0237,43.19" /><path
       inkscape:connector-curvature="0"
       id="path26"
       style="fill:#3a3a3a;fill-opacity:1;fill-rule:nonzero;stroke:none"
       d="m 411.2873,475.80215 c -5.5239,-5.861 -7.3641,-12.556 -7.3641,-20.425 0,-9.709 3.0121,-15.066 8.2012,-15.066 5.3574,0 8.3707,4.855 9.041,15.403 1.0051,15.565 4.5191,35.32 26.4473,35.32 14.5648,0 27.1207,-11.885 27.1207,-35.488 0,-13.059 -2.177,-26.116 -14.7325,-38.167 l -14.564,10.043 c 6.5285,5.859 11.3836,19.251 11.5508,28.459 0.1664,7.699 -3.8508,14.898 -9.8762,14.898 -5.6902,0 -8.0359,-4.689 -8.7043,-16.404 -1.1715,-15.569 -6.8648,-34.15 -25.6121,-34.15 -19.084,0 -25.7792,19.751 -25.7792,34.818 0,12.89 2.51,22.599 10.8808,32.14 l 13.3906,-11.381" /></g></svg>