<?xml version="1.0" encoding="utf-8"?>
<!-- Generator: Adobe Illustrator 19.2.1, SVG Export Plug-In . SVG Version: 6.00 Build 0)  -->
<svg version="1.1"
	 id="Layer_1" inkscape:export-filename="/home/lfamorim/projects/harlan/src/images/foguete_highres.png" inkscape:export-xdpi="861.87" inkscape:export-ydpi="861.87" inkscape:version="0.48.5 r10040" sodipodi:docname="foguete.svg" xmlns:cc="http://creativecommons.org/ns#" xmlns:dc="http://purl.org/dc/elements/1.1/" xmlns:inkscape="http://www.inkscape.org/namespaces/inkscape" xmlns:rdf="http://www.w3.org/1999/02/22-rdf-syntax-ns#" xmlns:sodipodi="http://sodipodi.sourceforge.net/DTD/sodipodi-0.dtd" xmlns:svg="http://www.w3.org/2000/svg"
	 xmlns="http://www.w3.org/2000/svg" xmlns:xlink="http://www.w3.org/1999/xlink" x="0px" y="0px" viewBox="0 0 106.9 106.9"
	 style="enable-background:new 0 0 106.9 106.9;" xml:space="preserve">
<style type="text/css">
	.st0{fill:#514E4C;}
	.st1{fill:#2EA437;}
</style>
<sodipodi:namedview  bordercolor="#666666" borderopacity="1" fit-margin-bottom="10" fit-margin-left="10" fit-margin-right="10" fit-margin-top="10" gridtolerance="10" guidetolerance="10" id="namedview21" inkscape:current-layer="Layer_1" inkscape:cx="-132.04215" inkscape:cy="53.466999" inkscape:pageopacity="0" inkscape:pageshadow="2" inkscape:window-height="861" inkscape:window-maximized="1" inkscape:window-width="1600" inkscape:window-x="0" inkscape:window-y="0" inkscape:zoom="1.665138" objecttolerance="10" pagecolor="#ffffff" showgrid="false">
	</sodipodi:namedview>
<g id="g9" transform="translate(-16.757,-17.4)">
</g>
<g id="g11" transform="translate(-16.757,-17.4)">
</g>
<g id="g13" transform="translate(-16.757,-17.4)">
</g>
<g id="g15" transform="translate(-16.757,-17.4)">
</g>
<g id="g17" transform="translate(-16.757,-17.4)">
</g>
<g id="g19" transform="translate(-16.757,-17.4)">
</g>
<g>
	<path class="st0" d="M70.3,66c-3.7,5.2-9.8,8.6-16.7,8.6c-11.4,0-20.6-9.2-20.6-20.6s9.2-20.6,20.6-20.6c8.8,0,16.3,5.5,19.2,13.2
		c0.4-1.9,0.5-3.2,0.3-3.6c-0.2,0-0.3,0-0.4-0.1c0.2-0.1,0.3-0.1,0.4,0.1c1.3-0.3,5-4.1,9.5-6.4c-5.9-9.8-16.7-16.4-29-16.4
		c-18.7,0-33.9,15.2-33.9,33.9s15.2,33.9,33.9,33.9c10.6,0,20-4.9,26.3-12.5L70.3,66z"/>
	<g>
		<path class="st1" d="M90,29.2c-0.1-0.2-0.2-0.3-0.3-0.5C89.8,28.9,89.9,29.1,90,29.2L90,29.2z"/>
		<path class="st1" d="M89.9,29.3c-0.1-0.2-0.2-0.3-0.3-0.5c0-0.1-0.1-0.1-0.1-0.2c-2.8-4.6-4.7-6-4.7-6s0,0,0,0
			c0,0.1,0.1,2.7-3.4,6.2c-0.9,0.9-2.6,2.6-4.6,4.6c-4.4,4.3-17.7,17.6-21.4,21.3L42.1,41.9c0,0-2.2,1.3-3.8,4.3
			c-1.5,2.9-1.9,5.8-1.9,5.8s9.1,8.6,14.1,13.8c5,5.2,9.3,0,9.3,0l5.8-5.8L88.9,37C88.9,37,92.1,33.6,89.9,29.3z"/>
	</g>
</g>
</svg>
